<svg xmlns="http://www.w3.org/2000/svg" viewBox="0 0 866.93 240.21"><defs><style>.cls-1{fill:#30bce2;}.cls-2{fill:#fff;}.cls-3{fill:#e0dedf;}</style></defs><title>Artboard 57UFVR</title><g id="Layer_1" data-name="Layer 1"><path class="cls-1" d="M858.64,233.52H8.3V6.69H858.64Zm-838.34-12H846.63V18.69H20.3Z"/><path class="cls-1" d="M297.13,51.52h39.29c40.78,0,68.09,30.5,68.09,70.72,0,39.66-28.06,70.34-68.28,70.34h-39.1Zm27.5,117.11h4.49c33.86,0,47-18.71,47-46.58,0-30.68-15.72-46.58-47-46.58h-4.49Z"/><path class="cls-1" d="M445.49,75.47v31.05h43.77v24H445.49v38.16H491v24H418V51.52h73V75.47Z"/><path class="cls-1" d="M613.76,106.33h-.37l-31.26,87.39h-9.32l-30.17-87.39h-.36L530,191.89H503L526.19,50.38h19l34,90.87,32.54-90.87h19.38l20.66,141.51H624.73Z"/><path class="cls-1" d="M693.18,192.58h-27.5V51.52h27.5Z"/><path class="cls-1" d="M807.49,88.94a40.69,40.69,0,0,0-31.06-15c-26.37,0-41.53,24.32-41.53,48.64,0,23.76,15.72,47.52,41.35,47.52,11.78,0,23.57-6.18,31.24-15V187.9c-10.29,4.86-20.58,8.42-32,8.42-39.66,0-69-34.24-69-73.15,0-40,28.25-75.39,69.59-75.39A65.59,65.59,0,0,1,807.49,56Z"/><rect class="cls-2" x="84.92" y="138.05" width="89.26" height="28.55"/><polygon class="cls-3" points="168.95 166.6 140.27 166.6 128.74 138.05 157.69 138.05 168.95 166.6"/><path class="cls-2" d="M250.77,50.87h36.8L249,119.5l35.58,73.1h-36.9l-32.07-67.86V192.6h-35.1V50.89h35.1v61.83h.49Z"/><polygon class="cls-3" points="180.35 51.11 180.79 95.98 215.54 173.4 215.54 124.13 180.35 51.11"/><polygon class="cls-2" points="148.82 50.8 117.74 50.8 59.44 192.6 97.56 192.6 134.36 91.29 134.8 91.29 177.46 192.6 211.47 192.6 148.82 50.8"/><polygon class="cls-3" points="117.88 50.67 134.6 90.7 122.28 124.57 105.13 81.49 117.88 50.67"/><polyline class="cls-1" points="177.28 192.55 211.71 192.55 148.96 50.89 117.86 50.89 177.28 192.55"/><polyline class="cls-1" points="247.55 192.55 286.53 192.55 215.48 50.89 180.27 50.89 247.55 192.55"/></g></svg>