<svg id="Capa_1" data-name="Capa 1" xmlns="http://www.w3.org/2000/svg" viewBox="0 0 25 25"><defs><style>.cls-1{fill:#edeef0;}.cls-2{fill:#1a364e;}.cls-3{fill:#b0afb4;}</style></defs><path class="cls-1" d="M22.13,5.48V23.07A1.93,1.93,0,0,1,20.19,25H4.81a1.93,1.93,0,0,1-1.94-1.93V5.48A1.93,1.93,0,0,1,4.81,3.55H7.89V5.23a.56.56,0,0,0,.57.56h8.08a.56.56,0,0,0,.57-.56V3.55h3.08A1.93,1.93,0,0,1,22.13,5.48Z"/><path class="cls-2" d="M17.11,2.5V5.23a.56.56,0,0,1-.57.56H8.46a.56.56,0,0,1-.57-.56V2.5a.57.57,0,0,1,.57-.57h1.73A2.21,2.21,0,0,1,10.83.66,2.2,2.2,0,0,1,12.41,0h.18a2.24,2.24,0,0,1,2.22,1.93h1.73A.57.57,0,0,1,17.11,2.5Z"/><rect class="cls-3" x="11.79" y="9.82" width="7.64" height="1.29" rx="0.32"/><path class="cls-2" d="M10.1,9.27,7.67,11.58h0l-.12.13-.09.08a.56.56,0,0,1-.67-.06l-.14-.14L5.33,10.33a.54.54,0,0,1,0-.76l.12-.13a.55.55,0,0,1,.76,0l1,.93,2.07-2a.44.44,0,0,1,.61,0l.27.28A.44.44,0,0,1,10.1,9.27Z"/><rect class="cls-3" x="11.79" y="14.75" width="7.64" height="1.29" rx="0.32"/><rect class="cls-3" x="5.72" y="14.13" width="3.96" height="2.54" rx="0.32"/><rect class="cls-3" x="5.72" y="19.07" width="3.96" height="2.54" rx="0.32"/><rect class="cls-3" x="11.79" y="19.69" width="7.64" height="1.29" rx="0.32"/></svg>