<svg id="Capa_1" data-name="Capa 1" xmlns="http://www.w3.org/2000/svg" viewBox="0 0 28.4 25"><defs><style>.cls-1{fill:#edeef0;}.cls-2{fill:#1a364e;}.cls-3{fill:#b0afb4;}</style></defs><path class="cls-1" d="M28.4,14.93v9.15a.92.92,0,0,1-.92.92H5.9A.92.92,0,0,1,5,24.08V21.64H23.26a.84.84,0,0,0,.54-.2A16.12,16.12,0,0,0,28.4,14.93Z"/><path class="cls-2" d="M28.4,2.61V5H5V2.61A.92.92,0,0,1,5.9,1.7h4.17V.78A.78.78,0,0,1,10.85,0h.07a.79.79,0,0,1,.79.78V1.7h4.16V.78A.78.78,0,0,1,16.65,0h.08a.78.78,0,0,1,.78.78V1.7h4.26V.78A.78.78,0,0,1,22.55,0h.07a.78.78,0,0,1,.79.78V1.7h4.07A.92.92,0,0,1,28.4,2.61Z"/><path class="cls-3" d="M28.4,6.69c0,.61-.09,1.2-.15,1.76C27.41,15.6,24.07,19,23.13,19.78a.82.82,0,0,1-.54.2H.72a.84.84,0,0,1-.51-.24.81.81,0,0,1,0-1.12C4.89,14.05,5,7.23,5,6.72v0Z"/></svg>