<svg id="Capa_1" data-name="Capa 1" xmlns="http://www.w3.org/2000/svg" viewBox="0 0 25 25"><defs><style>.cls-1{fill:#1a364e;}.cls-2{fill:#edeef0;}.cls-3{fill:#b0afb4;}</style></defs><circle class="cls-1" cx="12.47" cy="15.03" r="3.12"/><path class="cls-1" d="M9.58,19.76h5.78a2.82,2.82,0,0,1,2.82,2.82V24.1a.9.9,0,0,1-.9.9H7.66a.9.9,0,0,1-.9-.9V22.58A2.82,2.82,0,0,1,9.58,19.76Z"/><circle class="cls-2" cx="20.83" cy="15.6" r="2.04"/><path class="cls-2" d="M25,21.57v.59a.68.68,0,0,1-.68.67H19.63V21.9a3,3,0,0,0-1.71-2.73,2.62,2.62,0,0,1,1.51-.47h2.65A2.87,2.87,0,0,1,25,21.57Z"/><circle class="cls-2" cx="4.14" cy="15.6" r="2.04"/><path class="cls-2" d="M0,21.57v.59a.67.67,0,0,0,.67.67H5.34V21.9a3,3,0,0,1,1.71-2.73,2.62,2.62,0,0,0-1.51-.47H2.89A2.86,2.86,0,0,0,0,21.57Z"/><path class="cls-1" d="M18.69,1.65V6.6A1.65,1.65,0,0,1,17,8.25H14.45l-1.39,1.87a.73.73,0,0,1-1.17,0L10.52,8.25H8A1.65,1.65,0,0,1,6.32,6.6V1.65A1.65,1.65,0,0,1,8,0H17A1.65,1.65,0,0,1,18.69,1.65Z"/><path class="cls-3" d="M6.15,9.26,4.78,11.11a.73.73,0,0,1-1.17,0L2.24,9.23H1.65A1.64,1.64,0,0,1,0,7.59v-5A1.65,1.65,0,0,1,1.65,1H4.77a1.78,1.78,0,0,0-.11.61V6.77A3.38,3.38,0,0,0,6.15,9.26Z"/><path class="cls-3" d="M18.79,9.26l1.37,1.85a.73.73,0,0,0,1.17,0L22.7,9.23h.6a1.63,1.63,0,0,0,1.64-1.64v-5A1.64,1.64,0,0,0,23.3,1H20.17a1.78,1.78,0,0,1,.11.61V6.77A3.38,3.38,0,0,1,18.79,9.26Z"/></svg>