<svg id="Capa_1" data-name="Capa 1" xmlns="http://www.w3.org/2000/svg" viewBox="0 0 181 36"><defs><style>.cls-1{fill:#e4e4e4;}</style></defs><title>Mesa de trabajo 9</title><circle class="cls-1" cx="94.04" cy="26.5" r="1.03"/><path class="cls-1" d="M85.31,27.53h0a.72.72,0,0,1-.71-.76,10.5,10.5,0,0,1,4-7.51.71.71,0,0,1,1,.16h0a.7.7,0,0,1-.15.95A9,9,0,0,0,86,26.87.71.71,0,0,1,85.31,27.53Z"/><path class="cls-1" d="M89.49,27.53h0a.7.7,0,0,1-.71-.77,6.31,6.31,0,0,1,2.15-4,.71.71,0,0,1,1,.15h0a.7.7,0,0,1-.14.93,5,5,0,0,0-1.64,3.07A.7.7,0,0,1,89.49,27.53Z"/><path class="cls-1" d="M81.12,27.52h0a.71.71,0,0,1-.72-.75,14.59,14.59,0,0,1,5.94-11,.71.71,0,0,1,1,.17h0a.69.69,0,0,1-.16.95,13.18,13.18,0,0,0-5.37,10A.71.71,0,0,1,81.12,27.52Z"/><path class="cls-1" d="M85.05,12.55a18,18,0,0,0-8,15H58a4.35,4.35,0,0,1-4.35-4.35A4.29,4.29,0,0,1,58,18.9h.85a7.39,7.39,0,0,1,7.46-6.29h1.57c1.72-2.5,5.59-4.14,8.85-4.14A10.53,10.53,0,0,1,85.05,12.55Z"/><path class="cls-1" d="M141.27,14.44a.84.84,0,0,1-.6-1.4l2.51-2.69a.83.83,0,0,1,1.17,0,.82.82,0,0,1,0,1.17l-2.51,2.69A.82.82,0,0,1,141.27,14.44Z"/><path class="cls-1" d="M129.25,15.73a4.08,4.08,0,0,1,4.3-.78,2.5,2.5,0,0,1,1.68,2.57c0,1.87,0,3.74,0,5.61,0,.54-.18.69-.72.71-1,0-1.14-.08-1.14-1.09,0-1.52,0-3,0-4.55,0-1.23-.45-1.7-1.68-1.77a2,2,0,0,0-.35,0c-1.36,0-2,.6-2.07,2s0,2.88,0,4.32c0,1.07-.14,1.2-1.21,1.12-.46,0-.63-.19-.63-.66,0-1.37,0-2.75,0-4.12v-7c0-.3-.08-.68.3-.81a1.62,1.62,0,0,1,1.33,0c.24.13.21.41.21.64,0,1.13,0,2.25,0,3.38Z"/><path class="cls-1" d="M137.14,18.27c0-.89,0-1.78,0-2.67,0-.54.17-.7.7-.71,1.06,0,1.14,0,1.14,1.1v4.2c0,.15,0,.29,0,.43.06,1.13.53,1.6,1.66,1.65a5.7,5.7,0,0,0,1.17,0,1.34,1.34,0,0,0,1.29-1.53c0-1.55,0-3.11,0-4.67,0-1.17.17-1.2,1.39-1.13a.47.47,0,0,1,.45.42c0,.11,0,.21,0,.31,0,1.68,0,3.35,0,5A3,3,0,0,1,142.17,24a6.3,6.3,0,0,1-2.83-.14,3,3,0,0,1-2.19-2.88c0-.88,0-1.77,0-2.66Z"/><path class="cls-1" d="M117.63,20.36c0,.91,0,1.83,0,2.74,0,.59-.17.72-.77.74h-.27c-.64,0-.8-.16-.8-.79,0-1.58,0-3.17,0-4.75a5.49,5.49,0,0,0,0-.7,1.19,1.19,0,0,0-1-1.06,4.24,4.24,0,0,0-1.94,0c-.84.17-1.18.64-1.19,1.58,0,1.27,0,2.54,0,3.81,0,.27,0,.55,0,.82,0,1.06-.08,1.19-1.33,1.11a.49.49,0,0,1-.5-.5c0-.08,0-.15,0-.23,0-1.73,0-3.46,0-5.18a3,3,0,0,1,3-3.17,7,7,0,0,1,2.61.14,2.76,2.76,0,0,1,2.2,2.65c0,.94,0,1.88,0,2.83Z"/><path class="cls-1" d="M147.76,20c0-1,0-2,0-3.06,0-.26-.07-.34-.33-.32s-.49,0-.74,0a.47.47,0,0,1-.51-.48c-.09-.74.07-1,.8-1.1s.77-.13.77-.92a4.46,4.46,0,0,1,.33-1.95,2.52,2.52,0,0,1,2.23-1.41,6,6,0,0,1,2.11.11.62.62,0,0,1,.51.64c.05,1-.05,1.14-1.09,1a3.88,3.88,0,0,0-1.36,0,1,1,0,0,0-.86,1c0,.43-.16,1,0,1.26s.78.07,1.2.08.89,0,1.33,0a.51.51,0,0,1,.56.52.86.86,0,0,1,0,.16c0,.93-.08,1-1,1-.62,0-1.23,0-1.84,0-.27,0-.32.07-.32.32,0,1.93,0,3.85,0,5.77,0,.14,0,.29,0,.43,0,.54-.19.69-.73.71h-.12c-.87,0-1-.12-1-1Z"/><path class="cls-1" d="M119.42,19.39a8.71,8.71,0,0,1,.09-1.91,3.41,3.41,0,0,1,3.2-2.75,6.52,6.52,0,0,1,2.37.15c.5.15.61.28.63.8,0,1,0,1-1,.86a5.32,5.32,0,0,0-2.14,0,1.45,1.45,0,0,0-1.27,1.34,13.67,13.67,0,0,0,0,2.93c.11.93.72,1.39,1.79,1.47a6.13,6.13,0,0,0,1.91-.12,2.42,2.42,0,0,1,.47,0,.29.29,0,0,1,.27.11,1.18,1.18,0,0,1-.45,1.58,6.12,6.12,0,0,1-3.92-.13,3.14,3.14,0,0,1-2-3.09C119.4,20.18,119.42,19.78,119.42,19.39Z"/><path class="cls-1" d="M108,18a3.15,3.15,0,0,0-2.48-3.16,6.6,6.6,0,0,0-2.26-.09,3.13,3.13,0,0,0-3,2.7,11,11,0,0,0,0,4,2.79,2.79,0,0,0,2,2.21,4.75,4.75,0,0,0,1.1.26,9.59,9.59,0,0,0,3.73-.27.67.67,0,0,0,.56-.76v-.36c0-.57-.16-.7-.72-.57a10.39,10.39,0,0,1-3,.26c-1.35-.08-2-.67-2-1.89,0-.24,0-.33.32-.33.78,0,1.57,0,2.35,0h2.39c.63,0,.77-.16.87-.77A6.19,6.19,0,0,0,108,18Zm-1.73.38c0,.19-.15.15-.26.15H102.3c-.18,0-.25,0-.26-.23a1.71,1.71,0,0,1,1.82-2,3.23,3.23,0,0,1,1.38.17A1.73,1.73,0,0,1,106.28,18.37Z"/><path class="cls-1" d="M165.93,18.7c0,.68,0,1.36,0,2a1.21,1.21,0,0,0,1.33,1.3,7,7,0,0,0,1.52-.16c.56-.11.71,0,.74.59,0,.87-.13,1.08-1,1.21a6.41,6.41,0,0,1-2.14,0,2.58,2.58,0,0,1-2.26-2.48c-.14-1.46,0-2.92,0-4.39,0-.39-.11-.51-.47-.45a1.31,1.31,0,0,1-.28,0c-.76,0-1.05-.45-.79-1.18a.51.51,0,0,1,.29-.3,1.47,1.47,0,0,1,.3-.08c1-.21,1-.21,1.07-1.19,0-.26.06-.52.1-.78a.56.56,0,0,1,.63-.55h.12c.79,0,.87.07.87.87,0,.37,0,.74,0,1.1s.05.41.38.39c.73,0,1.46,0,2.19,0,.55,0,.7.15.72.69a2,2,0,0,1,0,.35c0,.54-.18.68-.73.68h-2.28c-.22,0-.28.07-.28.28,0,.68,0,1.37,0,2.05Z"/><path class="cls-1" d="M178.48,17.76A3.16,3.16,0,0,0,176,14.59a6.54,6.54,0,0,0-2.25-.09,3.13,3.13,0,0,0-3,2.72,11.55,11.55,0,0,0,0,4,2.74,2.74,0,0,0,1.87,2.18,8.45,8.45,0,0,0,5.05,0,.6.6,0,0,0,.46-.65c0-.16,0-.31,0-.47,0-.55-.17-.68-.71-.55a10.35,10.35,0,0,1-3,.26c-1.36-.08-2-.67-2-1.91,0-.24,0-.31.3-.3.78,0,1.57,0,2.35,0s1.57,0,2.35,0,.82-.14.93-.8A5.22,5.22,0,0,0,178.48,17.76Zm-1.73.38c0,.19-.16.14-.27.14h-1.84c-.61,0-1.22,0-1.84,0-.22,0-.28-.06-.28-.28a1.7,1.7,0,0,1,1.86-2,3.45,3.45,0,0,1,1.42.2A1.76,1.76,0,0,1,176.75,18.14Z"/><path class="cls-1" d="M161.43,17.42a2.58,2.58,0,0,0-2.22-2.78,9,9,0,0,0-3.43-.08c-.82.12-.93.27-.89,1.06,0,.57.17.68.74.57a9.23,9.23,0,0,1,2.57-.12c1,.08,1.38.53,1.38,1.53a2.54,2.54,0,0,0,0,.39c0,.25-.07.3-.31.3a25.45,25.45,0,0,0-2.62.05c-1.56.13-2.51.85-2.7,2.17a2.48,2.48,0,0,0,1.89,3.06,6.79,6.79,0,0,0,3.79-.05,2.31,2.31,0,0,0,1.76-2.18c.07-.73,0-1.46,0-2.05S161.44,18,161.43,17.42ZM158.7,22.1a4.19,4.19,0,0,1-2.08,0,1,1,0,0,1-.83-1.12,1.08,1.08,0,0,1,.79-1.16,5.67,5.67,0,0,1,1.74-.14,1,1,0,0,1,.24,0c.33.12.91-.29,1,.2C159.78,21.22,159.48,21.89,158.7,22.1Z"/><path class="cls-1" d="M25.53,7.37H7.16A2.43,2.43,0,0,0,4.74,9.78V22.83a2.43,2.43,0,0,0,2.42,2.42h6.61l-.69,2.42h-1.3a.27.27,0,0,0-.27.27v.42a.27.27,0,0,0,.27.27h9.13a.27.27,0,0,0,.27-.27v-.42a.27.27,0,0,0-.27-.27h-1.3l-.69-2.42h6.61A2.43,2.43,0,0,0,28,22.83v-13A2.43,2.43,0,0,0,25.53,7.37ZM14.09,27.67l.69-2.42h3.13l.69,2.42ZM27,22.83a1.45,1.45,0,0,1-1.45,1.45H7.16a1.45,1.45,0,0,1-1.45-1.45v-1H27Zm0-1.93H5.71V9.78A1.45,1.45,0,0,1,7.16,8.33H25.53A1.45,1.45,0,0,1,27,9.78Z"/><rect class="cls-1" x="12.82" y="14.62" width="7.03" height="0.97" rx="0.15" transform="translate(-2.68 26.66) rotate(-74.03)"/><path class="cls-1" d="M13.66,12.94l-.43-.51a.15.15,0,0,0-.21,0l-2.79,2.32a.49.49,0,0,0-.06.68l.06.06L13,17.79a.15.15,0,0,0,.21,0l.43-.51a.16.16,0,0,0,0-.21l-2.2-1.83a.16.16,0,0,1,0-.24l2.2-1.83A.16.16,0,0,0,13.66,12.94Z"/><path class="cls-1" d="M22.52,14.79l-.07-.06-2.78-2.32a.15.15,0,0,0-.21,0l-.43.51a.16.16,0,0,0,0,.21L21.25,15a.16.16,0,0,1,0,.24l-2.2,1.83a.16.16,0,0,0,0,.21l.43.51a.15.15,0,0,0,.21,0l2.78-2.32A.48.48,0,0,0,22.52,14.79Z"/><rect class="cls-1" x="39.82" y="3.17" width="1.06" height="29.65" rx="0.21"/></svg>