<svg id="Capa_1" data-name="Capa 1" xmlns="http://www.w3.org/2000/svg" viewBox="0 0 755 755"><defs><style>.cls-1{fill:#606060;}.cls-2{fill:#d3d3d3;}.cls-3{fill:#707487;}.cls-4{fill:#69bdd1;}.cls-5{fill:#193651;}</style></defs><title>Eaprendizajevirtual</title><path class="cls-1" d="M180.91,576.74H159.48v20h24v5.95H152.31V547.38h29.88v6H159.48v17.5h21.43Z"/><path class="cls-1" d="M193.74,563l7.78,22.24c1.34,3.67,2.36,6.95,3.25,10.24H205c.91-3.3,2.05-6.59,3.32-10.24L216.06,563h7.54L208,602.65h-6.88L186,563Z"/><path class="cls-1" d="M251.17,602.65l-.64-5h-.22a14.72,14.72,0,0,1-12.13,5.91c-8,0-12.11-5.69-12.11-11.38,0-9.61,8.51-14.88,23.83-14.77v-.84c0-3.23-.9-9.2-9-9.15a19.33,19.33,0,0,0-10.33,3l-1.64-4.79A25,25,0,0,1,242,562.09c12.12,0,15.08,8.29,15.08,16.23v14.84a61.36,61.36,0,0,0,.6,9.49ZM250,582.4c-7.8-.17-16.74,1.23-16.74,8.9,0,4.74,3.12,6.91,6.74,6.91a9.93,9.93,0,0,0,9.66-6.64,7.54,7.54,0,0,0,.34-2.27Z"/><path class="cls-1" d="M267.8,544.43H275v58.22H267.8Z"/><path class="cls-1" d="M319.41,591.79c0,4.16.13,7.72.33,10.86h-6.38l-.38-6.49h-.2a14.82,14.82,0,0,1-13.13,7.39c-6.2,0-13.66-3.48-13.66-17.38V563h7.18V584.9c0,7.56,2.35,12.7,8.86,12.7a10.5,10.5,0,0,0,9.55-6.62,11.21,11.21,0,0,0,.65-3.7V563h7.18Z"/><path class="cls-1" d="M352.52,602.65l-.64-5h-.21a14.76,14.76,0,0,1-12.14,5.91c-8,0-12.11-5.69-12.11-11.38,0-9.61,8.51-14.88,23.83-14.77v-.84c0-3.23-.9-9.2-9-9.15a19.33,19.33,0,0,0-10.33,3l-1.64-4.79a25,25,0,0,1,13.09-3.48c12.13,0,15.08,8.29,15.08,16.23v14.84a62.63,62.63,0,0,0,.6,9.49Zm-1.13-20.25c-7.8-.17-16.74,1.23-16.74,8.9,0,4.74,3.12,6.91,6.74,6.91a9.93,9.93,0,0,0,9.66-6.64,7.54,7.54,0,0,0,.34-2.27Z"/><path class="cls-1" d="M397.43,601.21a27.37,27.37,0,0,1-11.38,2.3c-12,0-19.79-8.14-19.79-20.26s8.34-21.15,21.31-21.15a23.31,23.31,0,0,1,10,2.11l-1.6,5.54a17.59,17.59,0,0,0-8.44-1.9c-9,0-14,6.78-14,15,0,9.19,5.91,14.85,13.82,14.85a21,21,0,0,0,8.83-1.91Z"/><path class="cls-1" d="M413,551.78a4.34,4.34,0,0,1-4.59,4.48,4.3,4.3,0,0,1-4.35-4.48,4.38,4.38,0,0,1,4.49-4.49A4.32,4.32,0,0,1,413,551.78ZM405,602.65V563h7.18v39.66Z"/><path class="cls-1" d="M459.17,582.48c0,14.67-10.17,21.07-19.76,21.07-10.74,0-19-7.87-19-20.42,0-13.28,8.69-21.07,19.68-21.07C451.46,562.06,459.17,570.34,459.17,582.48Zm-31.49.41c0,8.69,5,15.25,12.06,15.25,6.89,0,12.05-6.48,12.05-15.42,0-6.72-3.36-15.25-11.89-15.25S427.68,575.34,427.68,582.89Zm22.88-37.07-10,11.73h-5.17l7.22-11.73Z"/><path class="cls-1" d="M467.37,573.7c0-4.1-.08-7.46-.33-10.74h6.4l.41,6.56H474a14.6,14.6,0,0,1,13.12-7.46c5.5,0,14,3.28,14,16.89v23.7h-7.22V579.77c0-6.4-2.38-11.73-9.18-11.73a10.26,10.26,0,0,0-9.68,7.38,10.41,10.41,0,0,0-.49,3.37v23.86h-7.22Z"/><path class="cls-1" d="M562.74,544.43v48c0,3.52.08,7.54.32,10.25h-6.47l-.33-6.89h-.17c-2.21,4.43-7.05,7.79-13.53,7.79-9.59,0-17-8.12-17-20.17-.08-13.2,8.12-21.32,17.79-21.32,6.07,0,10.17,2.87,12,6.07h.16v-23.7Zm-7.22,34.68a12.51,12.51,0,0,0-.33-3,10.6,10.6,0,0,0-10.41-8.36c-7.46,0-11.89,6.56-11.89,15.33,0,8,3.93,14.68,11.72,14.68a10.85,10.85,0,0,0,10.58-8.61,12.4,12.4,0,0,0,.33-3.12Z"/><path class="cls-1" d="M577.82,584.12c.17,9.75,6.4,13.77,13.62,13.77a26,26,0,0,0,11-2l1.23,5.17a32.07,32.07,0,0,1-13.2,2.46c-12.22,0-19.51-8-19.51-20s7-21.4,18.61-21.4c13,0,16.4,11.4,16.4,18.69a25.68,25.68,0,0,1-.25,3.37ZM599,579c.08-4.59-1.89-11.73-10-11.73-7.3,0-10.5,6.73-11.07,11.73Z"/><path class="cls-1" d="M76.65,668.26l-5.74,17.39H63.53L82.3,630.38h8.62l18.85,55.27h-7.62l-5.9-17.39Zm18.12-5.57-5.41-15.91c-1.23-3.61-2-6.89-2.87-10.09h-.17c-.82,3.28-1.72,6.65-2.79,10l-5.41,16Z"/><path class="cls-1" d="M116.5,658.92c0-5.09-.16-9.19-.33-13h6.48l.33,6.81h.16c3-4.84,7.63-7.71,14.11-7.71,9.59,0,16.81,8.12,16.81,20.17,0,14.27-8.7,21.32-18,21.32-5.25,0-9.84-2.3-12.22-6.23h-.17v21.56H116.5Zm7.13,10.57a16.74,16.74,0,0,0,.33,3,11.13,11.13,0,0,0,10.83,8.44c7.62,0,12.05-6.23,12.05-15.33,0-8-4.18-14.76-11.81-14.76a12.55,12.55,0,0,0-11.4,11.89Z"/><path class="cls-1" d="M162.25,658.34c0-4.67-.08-8.69-.32-12.38h6.31l.25,7.79h.32c1.81-5.33,6.15-8.69,11-8.69a8,8,0,0,1,2,.24v6.81a11,11,0,0,0-2.46-.25c-5.08,0-8.69,3.86-9.67,9.27a19.61,19.61,0,0,0-.33,3.36v21.16h-7.14Z"/><path class="cls-1" d="M191.36,667.12c.17,9.75,6.4,13.77,13.62,13.77a26,26,0,0,0,11-2l1.23,5.17a32.07,32.07,0,0,1-13.2,2.46c-12.22,0-19.51-8-19.51-20s7.05-21.4,18.61-21.4c13,0,16.4,11.4,16.4,18.69a25.68,25.68,0,0,1-.25,3.37ZM212.52,662c.08-4.59-1.89-11.73-10-11.73-7.3,0-10.5,6.73-11.07,11.73Z"/><path class="cls-1" d="M227.53,656.7c0-4.1-.09-7.46-.33-10.74h6.39l.41,6.56h.17a14.6,14.6,0,0,1,13.12-7.46c5.49,0,14,3.28,14,16.89v23.7h-7.22V662.77c0-6.4-2.37-11.73-9.18-11.73a10.26,10.26,0,0,0-9.68,7.38,10.69,10.69,0,0,0-.49,3.37v23.86h-7.21Z"/><path class="cls-1" d="M306.41,627.43v48c0,3.52.08,7.54.33,10.25h-6.48l-.33-6.89h-.16c-2.22,4.43-7.06,7.79-13.53,7.79-9.6,0-17-8.12-17-20.17-.08-13.2,8.12-21.32,17.8-21.32,6.06,0,10.16,2.87,12,6.07h.16v-23.7Zm-7.22,34.68a13,13,0,0,0-.32-3,10.62,10.62,0,0,0-10.42-8.36c-7.46,0-11.89,6.56-11.89,15.33,0,8,3.94,14.68,11.73,14.68a10.86,10.86,0,0,0,10.58-8.61,12.89,12.89,0,0,0,.32-3.12Z"/><path class="cls-1" d="M325.51,634.81a4.47,4.47,0,0,1-8.93,0,4.39,4.39,0,0,1,4.51-4.51A4.28,4.28,0,0,1,325.51,634.81Zm-8,50.84V646h7.21v39.69Z"/><path class="cls-1" d="M331.25,681.47l18-23.37c1.72-2.14,3.36-4,5.17-6.15v-.17H332.89V646h30.26l-.08,4.51-17.71,23c-1.64,2.22-3.28,4.18-5.09,6.23v.17h23.21v5.74H331.25Z"/><path class="cls-1" d="M391.93,685.65l-.57-5h-.25a14.78,14.78,0,0,1-12.13,5.9c-8,0-12.14-5.66-12.14-11.4,0-9.59,8.53-14.84,23.86-14.76v-.82c0-3.28-.9-9.18-9-9.18a19.81,19.81,0,0,0-10.33,3l-1.64-4.76a24.66,24.66,0,0,1,13-3.52c12.14,0,15.09,8.28,15.09,16.23v14.85a56.16,56.16,0,0,0,.65,9.51Zm-1.06-20.26c-7.87-.16-16.81,1.23-16.81,8.94,0,4.68,3.11,6.89,6.8,6.89a9.88,9.88,0,0,0,9.6-6.64,7.74,7.74,0,0,0,.41-2.3Z"/><path class="cls-1" d="M398.9,697.13c3.28-.25,6.15-1.15,7.87-3,2-2.29,2.71-5.41,2.71-14.92V646h7.22v36c0,7.71-1.23,12.71-4.76,16.32-3.2,3.19-8.45,4.51-12.3,4.51Zm18.62-62.32a4.24,4.24,0,0,1-4.51,4.43,4.31,4.31,0,0,1-4.43-4.43,4.41,4.41,0,0,1,4.59-4.51A4.27,4.27,0,0,1,417.52,634.81Z"/><path class="cls-1" d="M431.62,667.12c.16,9.75,6.4,13.77,13.61,13.77a26.07,26.07,0,0,0,11-2l1.23,5.17a32.11,32.11,0,0,1-13.2,2.46c-12.22,0-19.52-8-19.52-20s7-21.4,18.62-21.4c12.95,0,16.4,11.4,16.4,18.69a27.57,27.57,0,0,1-.25,3.37ZM452.78,662c.08-4.59-1.89-11.73-10-11.73-7.3,0-10.49,6.73-11.07,11.73Z"/><path class="cls-1" d="M493.69,685.65l-18-55.27h7.71L492,657.6c2.38,7.47,4.43,14.19,5.91,20.67H498c1.56-6.4,3.85-13.37,6.31-20.58l9.35-27.31h7.63l-19.76,55.27Z"/><path class="cls-1" d="M532.89,634.81a4.47,4.47,0,0,1-8.94,0,4.4,4.4,0,0,1,4.51-4.51A4.28,4.28,0,0,1,532.89,634.81Zm-8,50.84V646h7.22v39.69Z"/><path class="cls-1" d="M543.14,658.34c0-4.67-.08-8.69-.33-12.38h6.32l.24,7.79h.33c1.8-5.33,6.15-8.69,11-8.69a8,8,0,0,1,2,.24v6.81a11.09,11.09,0,0,0-2.46-.25c-5.09,0-8.69,3.86-9.68,9.27a20.67,20.67,0,0,0-.33,3.36v21.16h-7.13Z"/><path class="cls-1" d="M579.71,634.56V646H590v5.49H579.71v21.41c0,4.92,1.39,7.7,5.41,7.7a15.84,15.84,0,0,0,4.18-.49l.33,5.41a17.49,17.49,0,0,1-6.39,1c-3.36,0-6.07-1.07-7.79-3-2.05-2.13-2.79-5.65-2.79-10.33V651.45h-6.15V646h6.15v-9.51Z"/><path class="cls-1" d="M630.47,674.82c0,4.1.08,7.71.33,10.83h-6.4l-.41-6.48h-.16a14.94,14.94,0,0,1-13.12,7.38c-6.24,0-13.7-3.44-13.7-17.38V646h7.22v22c0,7.54,2.29,12.62,8.85,12.62a10.13,10.13,0,0,0,10.17-10.25V646h7.22Z"/><path class="cls-1" d="M663.51,685.65l-.57-5h-.25a14.78,14.78,0,0,1-12.13,5.9c-8,0-12.14-5.66-12.14-11.4,0-9.59,8.53-14.84,23.86-14.76v-.82c0-3.28-.9-9.18-9-9.18a19.81,19.81,0,0,0-10.33,3l-1.64-4.76a24.66,24.66,0,0,1,13-3.52c12.14,0,15.09,8.28,15.09,16.23v14.85a56.16,56.16,0,0,0,.65,9.51Zm-1.06-20.26c-7.87-.16-16.81,1.23-16.81,8.94,0,4.68,3.11,6.89,6.8,6.89a9.88,9.88,0,0,0,9.6-6.64,7.74,7.74,0,0,0,.41-2.3Z"/><path class="cls-1" d="M680.16,627.43h7.22v58.22h-7.22Z"/><rect class="cls-2" x="214.41" y="333" width="295" height="41"/><rect class="cls-2" x="307.41" y="377" width="109" height="46"/><path class="cls-3" d="M515.07,380.1h-309V173.94h309Zm-295-14h281V187.94h-281Z"/><path class="cls-3" d="M515.07,380.1h-309V324h309Zm-295-14h281V338h-281Z"/><path class="cls-3" d="M423.25,429.77H297.87V366.1H423.25Zm-111.38-14h97.38V380.1H311.87Z"/><rect class="cls-3" x="261.95" y="415.77" width="197.22" height="14"/><path class="cls-3" d="M436.85,351.14a7.11,7.11,0,1,1-7.1-7.11A7.1,7.1,0,0,1,436.85,351.14Z"/><path class="cls-3" d="M459.44,351.14a7.11,7.11,0,1,1-7.11-7.11A7.1,7.1,0,0,1,459.44,351.14Z"/><path class="cls-3" d="M482,351.14a7.11,7.11,0,1,1-7.11-7.11A7.1,7.1,0,0,1,482,351.14Z"/><polygon class="cls-4" points="447.69 252.54 427.03 236.03 435.77 225.1 446.64 233.78 462.59 217.84 472.49 227.74 447.69 252.54"/><polygon class="cls-4" points="447.69 298.85 427.03 282.34 435.77 271.4 446.64 280.09 462.59 264.14 472.49 274.04 447.69 298.85"/><rect class="cls-5" x="254.95" y="229.02" width="145.01" height="14"/><rect class="cls-5" x="254.95" y="273.04" width="145.01" height="14"/><polygon class="cls-3" points="548.95 339.22 534.95 339.22 534.95 154.05 246.93 154.05 246.93 140.05 548.95 140.05 548.95 339.22"/></svg>