<svg id="Capa_1" data-name="Capa 1" xmlns="http://www.w3.org/2000/svg" viewBox="0 0 755 755"><defs><style>.cls-1{fill:#606060;}.cls-2{fill:#546388;}.cls-3{fill:#6580bd;}</style></defs><title>bibilioteca</title><path class="cls-1" d="M211.08,549.07a69.79,69.79,0,0,1,13-1.14c7.14,0,11.73,1.23,15.17,4a11.61,11.61,0,0,1,4.59,9.76c0,5.33-3.52,10-9.34,12.14V574c5.24,1.31,11.39,5.66,11.39,13.86a14.89,14.89,0,0,1-4.67,11.07c-3.85,3.53-10.09,5.17-19.11,5.17a82.93,82.93,0,0,1-11.07-.66Zm7.14,22.64h6.48c7.54,0,12-3.94,12-9.27,0-6.48-4.92-9-12.14-9a31.06,31.06,0,0,0-6.31.49Zm0,26.48a37.49,37.49,0,0,0,6,.33c7.38,0,14.19-2.71,14.19-10.74,0-7.55-6.48-10.66-14.27-10.66h-5.9Z"/><path class="cls-1" d="M262.42,552.76a4.47,4.47,0,0,1-8.94,0,4.39,4.39,0,0,1,4.51-4.51A4.29,4.29,0,0,1,262.42,552.76Zm-8,50.84V563.92h7.22V603.6Z"/><path class="cls-1" d="M272.34,603.6c.16-2.7.33-6.72.33-10.25v-48h7.13v24.93H280c2.55-4.43,7.14-7.3,13.53-7.3,9.84,0,16.81,8.2,16.73,20.26,0,14.18-8.94,21.24-17.79,21.24-5.74,0-10.34-2.22-13.29-7.47h-.24l-.33,6.56Zm7.46-15.9a13,13,0,0,0,.33,2.62A11.13,11.13,0,0,0,291,598.77c7.55,0,12.06-6.15,12.06-15.26,0-8-4.1-14.76-11.81-14.76a11.52,11.52,0,0,0-11,8.86,14.45,14.45,0,0,0-.41,2.95Z"/><path class="cls-1" d="M318.42,545.38h7.22V603.6h-7.22Z"/><path class="cls-1" d="M344.91,552.76a4.47,4.47,0,0,1-8.94,0,4.39,4.39,0,0,1,4.51-4.51A4.29,4.29,0,0,1,344.91,552.76Zm-8,50.84V563.92h7.22V603.6Z"/><path class="cls-1" d="M391.07,583.43c0,14.68-10.17,21.08-19.76,21.08-10.74,0-19-7.88-19-20.42C352.28,570.8,361,563,372,563,383.36,563,391.07,571.3,391.07,583.43Zm-31.49.41c0,8.69,5,15.25,12.06,15.25,6.88,0,12.05-6.47,12.05-15.41,0-6.73-3.36-15.25-11.89-15.25S359.58,576.3,359.58,583.84Z"/><path class="cls-1" d="M408,552.52v11.4h10.33v5.49H408v21.4c0,4.92,1.4,7.71,5.41,7.71a16.44,16.44,0,0,0,4.19-.49l.32,5.41a17.71,17.71,0,0,1-6.39,1c-3.36,0-6.07-1.06-7.79-3-2.05-2.13-2.79-5.66-2.79-10.33V569.41h-6.15v-5.49h6.15V554.4Z"/><path class="cls-1" d="M429,585.07c.16,9.76,6.39,13.78,13.61,13.78a26.11,26.11,0,0,0,11-2.05l1.23,5.16a32.16,32.16,0,0,1-13.21,2.46c-12.21,0-19.51-8-19.51-20S429.2,563,440.76,563c13,0,16.4,11.4,16.4,18.7a27.81,27.81,0,0,1-.24,3.36Zm21.15-5.16c.08-4.6-1.88-11.73-10-11.73-7.3,0-10.5,6.72-11.07,11.73Z"/><path class="cls-1" d="M493.49,602.13a26.69,26.69,0,0,1-11.4,2.29c-12,0-19.76-8.11-19.76-20.25s8.36-21.07,21.32-21.07a24,24,0,0,1,10,2L492,570.72a16.78,16.78,0,0,0-8.36-1.88c-9.1,0-14,6.72-14,15,0,9.19,5.9,14.84,13.77,14.84a20.56,20.56,0,0,0,8.86-2Z"/><path class="cls-1" d="M523,603.6l-.58-5h-.24a14.79,14.79,0,0,1-12.14,5.91c-8,0-12.13-5.66-12.13-11.4,0-9.6,8.52-14.84,23.86-14.76v-.82c0-3.28-.9-9.19-9-9.19a19.7,19.7,0,0,0-10.33,3l-1.64-4.76a24.63,24.63,0,0,1,13-3.53c12.14,0,15.09,8.29,15.09,16.24v14.84a55.94,55.94,0,0,0,.66,9.51Zm-1.07-20.25c-7.87-.16-16.81,1.23-16.81,8.94,0,4.67,3.12,6.89,6.81,6.89a9.87,9.87,0,0,0,9.59-6.65,7.32,7.32,0,0,0,.41-2.29Z"/><path class="cls-1" d="M287.22,684.64l-18-55.27h7.71l8.61,27.22c2.38,7.46,4.43,14.19,5.9,20.67h.17c1.55-6.4,3.85-13.37,6.31-20.59l9.35-27.3h7.62l-19.76,55.27Z"/><path class="cls-1" d="M326.42,633.8a4.47,4.47,0,0,1-8.94,0,4.39,4.39,0,0,1,4.51-4.51A4.28,4.28,0,0,1,326.42,633.8Zm-8,50.84V645h7.22v39.69Z"/><path class="cls-1" d="M336.67,657.33c0-4.67-.09-8.69-.33-12.38h6.31l.25,7.79h.33c1.8-5.33,6.15-8.69,11-8.69a8,8,0,0,1,2.05.24v6.81a10.41,10.41,0,0,0-2.46-.25c-5.08,0-8.69,3.86-9.67,9.27a19.61,19.61,0,0,0-.33,3.36v21.16h-7.13Z"/><path class="cls-1" d="M373.24,633.55V645h10.33v5.49H373.24v21.4c0,4.92,1.39,7.71,5.41,7.71a15.9,15.9,0,0,0,4.18-.49l.33,5.41a17.55,17.55,0,0,1-6.4,1c-3.36,0-6.07-1.07-7.79-3-2.05-2.13-2.79-5.66-2.79-10.33V650.44H360V645h6.15v-9.51Z"/><path class="cls-1" d="M424,673.81c0,4.1.09,7.71.33,10.83h-6.39l-.41-6.48h-.17a14.92,14.92,0,0,1-13.12,7.38c-6.23,0-13.69-3.45-13.69-17.39V645h7.21v22c0,7.55,2.3,12.63,8.86,12.63a10.42,10.42,0,0,0,9.51-6.56,10.54,10.54,0,0,0,.66-3.69V645H424Z"/><path class="cls-1" d="M457,684.64l-.57-5h-.25a14.77,14.77,0,0,1-12.14,5.91c-8,0-12.13-5.66-12.13-11.4,0-9.59,8.53-14.84,23.86-14.76v-.82c0-3.28-.9-9.18-9-9.18a19.72,19.72,0,0,0-10.33,3l-1.64-4.76a24.63,24.63,0,0,1,13-3.52c12.13,0,15.08,8.28,15.08,16.23v14.84a56.14,56.14,0,0,0,.66,9.52ZM456,664.38c-7.87-.16-16.81,1.23-16.81,8.94,0,4.67,3.12,6.89,6.81,6.89a9.86,9.86,0,0,0,9.59-6.64,7.44,7.44,0,0,0,.41-2.3Z"/><path class="cls-1" d="M473.69,626.42h7.21v58.22h-7.21Z"/><path class="cls-2" d="M257.35,266.18c0-2.49,17.14-2.49,17.14,0v61.73a31.87,31.87,0,0,0,31.79,31.93h.26a32,32,0,0,0,31.92-31.93V266.18c0-2.49,17-2.49,17,0v61.73A49,49,0,0,1,306.54,377h-.26a49.05,49.05,0,0,1-48.93-49.06Z"/><path class="cls-2" d="M370.33,265.65c0-2,17.15-2,17.15,0V375.54c0,1.95-17.15,1.95-17.15,0Z"/><path class="cls-2" d="M410,377c-5.24-.26-7.59-.78-7.59-1.44V265.65c0-1.06,5.11-1.58,9.68-1.44h27.22c18.7,0,35.19,14.17,35.19,32.94a26.79,26.79,0,0,1-8.12,19.56c9.17,5.91,15.32,15.76,15.32,27.31,0,18.77-16.09,33-34.81,33Zm9.55-95.83v29.93h21.71c9.43-.65,16.23-6.17,16.23-13.92,0-8.4-7.86-16-18.18-16Zm0,45.42V360h27.34c10.34,0,17.8-7.75,17.8-16,0-7.88-6.68-16.54-16.23-17.46Z"/><path class="cls-2" d="M496.61,266.05c0-2.48,17.14-2.48,17.14,0l0,61.87a31.86,31.86,0,0,0,31.79,31.91h.26a32,32,0,0,0,31.92-31.91l0-61.87c0-2.48,17-2.48,17,0l0,61.87A49,49,0,0,1,545.77,377h-.26a49,49,0,0,1-48.93-49.05Z"/><path class="cls-2" d="M687.31,373.5,654,321.37l30.32-47.74c2.63-3.93-10.84-12.43-13.46-8.38L640.76,312.8h-14l0-46.75c0-2.49-17.15-2.49-17.15,0l0,109c0,2.62,17.14,2.62,17.14,0V330H639.6l28.73,45.63c1.32,2.22,21.59,1.83,19-2.1"/><path class="cls-3" d="M241.13,375.05,205.8,339.72a3.8,3.8,0,0,0-5.44.07l-6.72,7a3.79,3.79,0,0,0,.06,5.31l7.52,7.52h-35a9.1,9.1,0,0,1-9.1-9.11V290.61a9.09,9.09,0,0,1,9.1-9.1H216a9.09,9.09,0,0,1,9.1,9.1v46.56a1.76,1.76,0,0,0,.51,1.23l13.87,13.86a1.73,1.73,0,0,0,3-1.23V284.09a19.91,19.91,0,0,0-19.92-19.9H159.7a19.91,19.91,0,0,0-19.91,19.9v73A19.91,19.91,0,0,0,159.7,377H216c.82,0,1.62,0,2.42-.12l10.46,10.46a4.46,4.46,0,0,0,6.29,0l6-6a4.45,4.45,0,0,0,0-6.28"/><path class="cls-3" d="M132,377a.6.6,0,0,0,.26-1.15,12.74,12.74,0,0,1-7.42-11.58v-3.45h0V295a.65.65,0,0,0-.87-.61,26.45,26.45,0,0,0-16.45,24.45v48.44a9.69,9.69,0,0,0,9.69,9.69Z"/><path class="cls-3" d="M99.94,375.81a12.73,12.73,0,0,1-7.43-11.58V326.36a26.45,26.45,0,0,0-17.34,24.78v16.74A9.09,9.09,0,0,0,84.26,377h15.4a.6.6,0,0,0,.28-1.15"/></svg>