<?xml version="1.0" encoding="utf-8"?>
<!-- Generator: Adobe Illustrator 23.0.1, SVG Export Plug-In . SVG Version: 6.00 Build 0)  -->
<svg version="1.1" id="Layer_1" xmlns="http://www.w3.org/2000/svg" xmlns:xlink="http://www.w3.org/1999/xlink" x="0px" y="0px"
	 viewBox="0 0 750 750" style="enable-background:new 0 0 750 750;" xml:space="preserve">
<style type="text/css">
	.st0{fill-rule:evenodd;clip-rule:evenodd;fill:#E1E6E9;}
	.st1{opacity:0.2;fill-rule:evenodd;clip-rule:evenodd;fill:#2EA2DB;}
	.st2{opacity:0.2;fill:#2EA2DB;}
	.st3{fill:#E1E6E9;}
	.st4{fill:#F2F2F4;}
	.st5{fill:#BDC0C3;}
	.st6{opacity:0.1;enable-background:new    ;}
	.st7{fill:#495059;}
	.st8{fill:#7FDBD5;}
	.st9{fill:#B3E7FF;}
	.st10{fill:#76B7EB;}
	.st11{fill:#606060;}
	.st12{fill:#D8D9DD;}
	.st13{fill:#A6C2D1;}
	.st14{fill:#193651;}
	.st15{fill:#FFFFFF;}
	.st16{fill:#7991A3;}
	.st17{fill:#C7CFE2;}
	.st18{fill:#707487;}
	.st19{fill:#5B5D6E;}
	.st20{fill:#FF6464;}
	.st21{fill:#8F96AC;}
	.st22{fill:#D7DEED;}
	.st23{fill:#47821C;}
	.st24{fill:#CC7400;}
	.st25{fill:#AA6100;}
	.st26{fill:#4E901E;}
	.st27{fill:#5EAC24;}
	.st28{fill:#6DC82A;}
	.st29{fill:#6E6C71;}
	.st30{fill:#FFE8CC;}
	.st31{fill:#919497;}
	.st32{fill:#FFE1BD;}
	.st33{clip-path:url(#SVGID_2_);fill:#ABABB0;}
	.st34{clip-path:url(#SVGID_2_);fill:#C5C5CA;}
	.st35{fill:#FFD733;}
	.st36{fill:#FFA891;}
	.st37{fill:#F0F0F0;}
	.st38{fill:#FF7854;}
	.st39{fill:#EBEBEB;}
	.st40{fill:#1CC8EB;}
	.st41{fill:#F0BE59;}
	.st42{fill:#FFB41F;}
	.st43{fill:#74D5E8;}
	.st44{fill:#8C8C8C;}
	.st45{fill:#6A80FF;}
	.st46{fill:#ADE5FF;}
	.st47{fill:#FFC66C;}
	.st48{fill:#36D28F;}
	.st49{fill:#5A54E0;}
	.st50{fill:#C9F3FF;}
	.st51{clip-path:url(#SVGID_4_);}
	.st52{fill:#A2A2A5;}
	.st53{fill:none;}
	.st54{fill:#8ECDF4;}
	.st55{fill:#CFD0D1;}
	.st56{fill-rule:evenodd;clip-rule:evenodd;fill:#193651;}
	.st57{fill:#76ACDD;}
</style>
<g>
	<g>
		<path class="st11" d="M247.5,596.9c-2.6,1.3-7.7,2.6-14.2,2.6c-15.2,0-26.6-9.6-26.6-27.3c0-16.9,11.4-28.3,28.2-28.3
			c6.7,0,11,1.4,12.8,2.4l-1.7,5.7c-2.6-1.3-6.4-2.2-10.9-2.2c-12.6,0-21,8.1-21,22.2c0,13.2,7.6,21.7,20.7,21.7
			c4.2,0,8.6-0.9,11.4-2.2L247.5,596.9z"/>
		<path class="st11" d="M259,580.6c0.2,9.5,6.2,13.4,13.3,13.4c5,0,8.1-0.9,10.7-2l1.2,5c-2.5,1.1-6.7,2.4-12.9,2.4
			c-11.9,0-19-7.8-19-19.5c0-11.7,6.9-20.9,18.2-20.9c12.6,0,16,11.1,16,18.2c0,1.4-0.2,2.6-0.2,3.3H259z M279.6,575.5
			c0.1-4.5-1.8-11.4-9.8-11.4c-7.1,0-10.2,6.6-10.8,11.4H279.6z"/>
		<path class="st11" d="M295.2,570.4c0-4-0.1-7.3-0.3-10.5h6.2l0.4,6.4h0.2c1.9-3.7,6.4-7.3,12.8-7.3c5.4,0,13.7,3.2,13.7,16.5v23.1
			h-7v-22.3c0-6.2-2.3-11.4-9-11.4c-4.6,0-8.2,3.3-9.4,7.2c-0.3,0.9-0.5,2.1-0.5,3.3v23.3h-7V570.4z"/>
		<path class="st11" d="M347.7,548.8v11.1h10.1v5.4h-10.1v20.9c0,4.8,1.4,7.5,5.3,7.5c1.8,0,3.2-0.2,4.1-0.5l0.3,5.3
			c-1.4,0.6-3.5,1-6.2,1c-3.3,0-5.9-1-7.6-3c-2-2.1-2.7-5.5-2.7-10.1v-21.1h-6v-5.4h6v-9.3L347.7,548.8z"/>
		<path class="st11" d="M365.7,572c0-4.6-0.1-8.5-0.3-12.1h6.2l0.2,7.6h0.3c1.8-5.2,6-8.5,10.7-8.5c0.8,0,1.4,0.1,2,0.2v6.6
			c-0.7-0.2-1.4-0.2-2.4-0.2c-5,0-8.5,3.8-9.4,9c-0.2,1-0.3,2.1-0.3,3.3v20.6h-7V572z"/>
		<path class="st11" d="M426.1,579c0,14.3-9.9,20.6-19.3,20.6c-10.5,0-18.6-7.7-18.6-19.9c0-13,8.5-20.6,19.2-20.6
			C418.6,559,426.1,567.1,426.1,579z M395.4,579.4c0,8.5,4.9,14.9,11.8,14.9c6.7,0,11.8-6.3,11.8-15c0-6.6-3.3-14.9-11.6-14.9
			C399,564.3,395.4,572,395.4,579.4z"/>
		<path class="st11" d="M485.4,541.8v46.8c0,3.4,0.1,7.4,0.3,10h-6.3l-0.3-6.7h-0.2c-2.2,4.3-6.9,7.6-13.2,7.6
			c-9.4,0-16.6-7.9-16.6-19.7c-0.1-12.9,7.9-20.8,17.4-20.8c5.9,0,9.9,2.8,11.7,5.9h0.2v-23.1H485.4z M478.4,575.7
			c0-0.9-0.1-2.1-0.3-3c-1-4.5-4.9-8.2-10.2-8.2c-7.3,0-11.6,6.4-11.6,15c0,7.8,3.8,14.3,11.4,14.3c4.7,0,9-3.1,10.3-8.4
			c0.2-1,0.3-1.9,0.3-3V575.7z"/>
		<path class="st11" d="M501,580.6c0.2,9.5,6.2,13.4,13.3,13.4c5,0,8.1-0.9,10.7-2l1.2,5c-2.5,1.1-6.7,2.4-12.9,2.4
			c-11.9,0-19-7.8-19-19.5c0-11.7,6.9-20.9,18.2-20.9c12.6,0,16,11.1,16,18.2c0,1.4-0.2,2.6-0.2,3.3H501z M521.6,575.5
			c0.1-4.5-1.8-11.4-9.8-11.4c-7.1,0-10.2,6.6-10.8,11.4H521.6z"/>
		<path class="st11" d="M257.1,629.7v53.9h-7v-53.9H257.1z"/>
		<path class="st11" d="M302.5,626.8v46.8c0,3.4,0.1,7.4,0.3,10h-6.3l-0.3-6.7H296c-2.2,4.3-6.9,7.6-13.2,7.6
			c-9.4,0-16.6-7.9-16.6-19.7c-0.1-12.9,7.9-20.8,17.4-20.8c5.9,0,9.9,2.8,11.7,5.9h0.2v-23.1H302.5z M295.4,660.7
			c0-0.9-0.1-2.1-0.3-3c-1-4.5-4.9-8.2-10.2-8.2c-7.3,0-11.6,6.4-11.6,15c0,7.8,3.8,14.3,11.4,14.3c4.7,0,9-3.1,10.3-8.4
			c0.2-1,0.3-1.9,0.3-3V660.7z"/>
		<path class="st11" d="M322,634c0.1,2.4-1.7,4.3-4.5,4.3c-2.5,0-4.2-1.9-4.2-4.3c0-2.5,1.8-4.4,4.4-4.4
			C320.3,629.6,322,631.6,322,634z M314.2,683.7v-38.7h7v38.7H314.2z"/>
		<path class="st11" d="M367.9,664c0,14.3-9.9,20.6-19.3,20.6c-10.5,0-18.6-7.7-18.6-19.9c0-13,8.5-20.6,19.2-20.6
			C360.4,644,367.9,652.1,367.9,664z M337.2,664.4c0,8.5,4.9,14.9,11.8,14.9c6.7,0,11.8-6.3,11.8-15c0-6.6-3.3-14.9-11.6-14.9
			S337.2,657,337.2,664.4z"/>
		<path class="st11" d="M376.8,655.4c0-4-0.1-7.3-0.3-10.5h6.2l0.3,6.2h0.2c2.2-3.7,5.8-7.1,12.2-7.1c5.3,0,9.3,3.2,11,7.8h0.2
			c1.2-2.2,2.7-3.8,4.3-5c2.3-1.8,4.9-2.7,8.6-2.7c5.1,0,12.7,3.4,12.7,16.8v22.8h-6.9v-21.9c0-7.4-2.7-11.9-8.4-11.9
			c-4,0-7.1,3-8.3,6.4c-0.3,1-0.6,2.2-0.6,3.5v23.9H401v-23.2c0-6.2-2.7-10.6-8.1-10.6c-4.4,0-7.6,3.5-8.7,7c-0.4,1-0.6,2.2-0.6,3.4
			v23.4h-6.9V655.4z"/>
		<path class="st11" d="M465,683.7l-0.6-4.9h-0.2c-2.2,3-6.3,5.8-11.8,5.8c-7.8,0-11.8-5.5-11.8-11.1c0-9.4,8.3-14.5,23.3-14.4v-0.8
			c0-3.2-0.9-9-8.8-9c-3.6,0-7.4,1.1-10.1,2.9l-1.6-4.6c3.2-2.1,7.8-3.4,12.7-3.4c11.8,0,14.7,8.1,14.7,15.8v14.5
			c0,3.4,0.2,6.6,0.6,9.3H465z M463.9,663.9c-7.7-0.2-16.4,1.2-16.4,8.7c0,4.6,3,6.7,6.6,6.7c5,0,8.2-3.2,9.4-6.5
			c0.2-0.7,0.4-1.5,0.4-2.2V663.9z"/>
		<path class="st11" d="M481.1,676.5c2.1,1.4,5.8,2.8,9.3,2.8c5.1,0,7.5-2.6,7.5-5.8c0-3.4-2-5.2-7.2-7.1c-7-2.5-10.2-6.3-10.2-11
			c0-6.2,5-11.4,13.4-11.4c3.9,0,7.4,1.1,9.5,2.4l-1.8,5.1c-1.5-1-4.3-2.2-7.9-2.2c-4.2,0-6.5,2.4-6.5,5.3c0,3.2,2.3,4.6,7.4,6.6
			c6.7,2.6,10.2,5.9,10.2,11.7c0,6.8-5.3,11.6-14.5,11.6c-4.2,0-8.2-1-10.9-2.6L481.1,676.5z"/>
	</g>
</g>
<rect x="371.7" y="382.5" class="st12" width="30.1" height="25.6"/>
<g>
	<rect x="271.3" y="130.2" class="st13" width="218.3" height="286.3"/>
	<rect x="271.3" y="115.8" class="st14" width="12" height="300.7"/>
	<rect x="323.5" y="182.3" class="st15" width="129.7" height="62.6"/>
</g>
<circle class="st15" cx="469.7" cy="382.5" r="95.4"/>
<path class="st14" d="M537.8,354.2c-10.9-26.2-35.6-43.6-63.6-45.3c-0.5,0-1,0-1.6-0.1h-0.2c-0.3,0-0.6,0-0.9,0h-0.2
	c-0.5,0-1.1-0.1-1.7-0.1c-9.7,0-19.2,1.9-28.2,5.6c-18.2,7.5-32.4,21.7-39.9,39.9c-7.6,18.2-7.6,38.3,0,56.4
	c11.4,27.7,38.2,45.6,68.2,45.6c0.4,0,0.7,0,1.1,0c0.2,0,0.4,0,0.6,0c0.1,0,0.2,0,0.3,0c0.4,0,0.8-0.1,1.3-0.1h0.5
	c0.1,0,0.2,0,0.4,0c8.2-0.4,16.3-2.3,24-5.5c18.2-7.5,32.4-21.7,39.9-39.9C545.4,392.5,545.4,372.4,537.8,354.2
	C537.8,354.3,537.8,354.3,537.8,354.2C537.8,354.3,537.8,354.3,537.8,354.2L537.8,354.2z M443.9,324c-5.5,7.1-9.9,16.4-12.7,27.2
	h-17.3C420.6,339.2,431.1,329.7,443.9,324L443.9,324z M409.4,361.1h19.6c-1.1,6.7-1.7,13.9-1.7,21.4c0,7.4,0.6,14.6,1.9,21.4h-19.8
	C404.5,390,404.5,375,409.4,361.1L409.4,361.1z M413.9,413.7h17.6c3.1,11,7.8,20.5,13.5,27.8C431.9,436,420.9,426.4,413.9,413.7
	L413.9,413.7z M466.5,445.7c-10.3-3-19.5-15.4-24.7-32h24.7V445.7z M466.5,403.9h-27.2c-1.4-6.8-2.1-14-2.1-21.4
	c0-7.5,0.7-14.7,1.9-21.4h27.5V403.9z M466.5,351.3h-25.1c5-17.1,14.2-29.2,25.1-32V351.3z M525.4,351.2h-13.7
	c-2.5-9.5-6.2-17.8-10.8-24.5C511.1,332.4,519.6,340.8,525.4,351.2L525.4,351.2z M476.4,319.2c10.9,2.8,20.1,14.9,25.1,32h-25.1
	V319.2z M476.4,361.1h27.5c1.2,6.7,1.9,13.8,1.9,21.4c0,7.4-0.7,14.6-2.1,21.4h-27.2V361.1z M476.4,445.7v-32h24.7
	C495.8,430.3,486.7,442.6,476.4,445.7L476.4,445.7z M500,438.8c4.8-6.8,8.8-15.4,11.5-25h13.9C519.5,424.4,510.7,433,500,438.8
	L500,438.8z M529.9,403.9h-16.2c1.2-6.8,1.9-13.9,1.9-21.4c0-7.5-0.6-14.7-1.7-21.4h16C534.9,375,534.9,390,529.9,403.9L529.9,403.9
	z M529.9,403.9"/>
<path class="st14" d="M489.7,136.2H291.8c-11.3,0-20.4-9.2-20.4-20.4c0-11.3,9.2-20.4,20.4-20.4h197.9v12H291.8
	c-4.7,0-8.4,3.8-8.4,8.4s3.8,8.4,8.4,8.4h197.9V136.2z"/>
<rect x="271.3" y="416.5" class="st14" width="109.2" height="11.1"/>
</svg>
