<?xml version="1.0" encoding="utf-8"?>
<!-- Generator: Adobe Illustrator 23.0.1, SVG Export Plug-In . SVG Version: 6.00 Build 0)  -->
<svg version="1.1" id="Layer_1" xmlns="http://www.w3.org/2000/svg" xmlns:xlink="http://www.w3.org/1999/xlink" x="0px" y="0px"
	 viewBox="0 0 750 750" style="enable-background:new 0 0 750 750;" xml:space="preserve">
<style type="text/css">
	.st0{fill-rule:evenodd;clip-rule:evenodd;fill:#E1E6E9;}
	.st1{opacity:0.2;fill-rule:evenodd;clip-rule:evenodd;fill:#2EA2DB;}
	.st2{opacity:0.2;fill:#2EA2DB;}
	.st3{fill:#E1E6E9;}
	.st4{fill:#F2F2F4;}
	.st5{fill:#BDC0C3;}
	.st6{opacity:0.1;enable-background:new    ;}
	.st7{fill:#495059;}
	.st8{fill:#7FDBD5;}
	.st9{fill:#B3E7FF;}
	.st10{fill:#76B7EB;}
	.st11{fill:#606060;}
	.st12{fill:#D8D9DD;}
	.st13{fill:#A6C2D1;}
	.st14{fill:#193651;}
	.st15{fill:#FFFFFF;}
	.st16{fill:#7991A3;}
	.st17{fill:#C7CFE2;}
	.st18{fill:#707487;}
	.st19{fill:#5B5D6E;}
	.st20{fill:#FF6464;}
	.st21{fill:#8F96AC;}
	.st22{fill:#D7DEED;}
	.st23{fill:#47821C;}
	.st24{fill:#CC7400;}
	.st25{fill:#AA6100;}
	.st26{fill:#4E901E;}
	.st27{fill:#5EAC24;}
	.st28{fill:#6DC82A;}
	.st29{fill:#6E6C71;}
	.st30{fill:#FFE8CC;}
	.st31{fill:#919497;}
	.st32{fill:#FFE1BD;}
	.st33{clip-path:url(#SVGID_2_);fill:#ABABB0;}
	.st34{clip-path:url(#SVGID_2_);fill:#C5C5CA;}
	.st35{fill:#FFD733;}
	.st36{fill:#FFA891;}
	.st37{fill:#F0F0F0;}
	.st38{fill:#FF7854;}
	.st39{fill:#EBEBEB;}
	.st40{fill:#1CC8EB;}
	.st41{fill:#F0BE59;}
	.st42{fill:#FFB41F;}
	.st43{fill:#74D5E8;}
	.st44{fill:#8C8C8C;}
	.st45{fill:#6A80FF;}
	.st46{fill:#ADE5FF;}
	.st47{fill:#FFC66C;}
	.st48{fill:#36D28F;}
	.st49{fill:#5A54E0;}
	.st50{fill:#C9F3FF;}
	.st51{clip-path:url(#SVGID_4_);}
	.st52{fill:#A2A2A5;}
	.st53{fill:none;}
	.st54{fill:#8ECDF4;}
	.st55{fill:#CFD0D1;}
	.st56{fill-rule:evenodd;clip-rule:evenodd;fill:#193651;}
	.st57{fill:#76ACDD;}
</style>
<rect x="247" y="206.4" class="st4" width="255.9" height="172.2"/>
<g>
	<g>
		<path class="st11" d="M247.5,596.9c-2.6,1.3-7.7,2.6-14.2,2.6c-15.2,0-26.6-9.6-26.6-27.3c0-16.9,11.4-28.3,28.2-28.3
			c6.7,0,11,1.4,12.8,2.4l-1.7,5.7c-2.6-1.3-6.4-2.2-10.9-2.2c-12.6,0-21,8.1-21,22.2c0,13.2,7.6,21.7,20.7,21.7
			c4.2,0,8.6-0.9,11.4-2.2L247.5,596.9z"/>
		<path class="st11" d="M259,580.6c0.2,9.5,6.2,13.4,13.3,13.4c5,0,8.1-0.9,10.7-2l1.2,5c-2.5,1.1-6.7,2.4-12.9,2.4
			c-11.9,0-19-7.8-19-19.5c0-11.7,6.9-20.9,18.2-20.9c12.6,0,16,11.1,16,18.2c0,1.4-0.2,2.6-0.2,3.3H259z M279.6,575.5
			c0.1-4.5-1.8-11.4-9.8-11.4c-7.1,0-10.2,6.6-10.8,11.4H279.6z"/>
		<path class="st11" d="M295.2,570.4c0-4-0.1-7.3-0.3-10.5h6.2l0.4,6.4h0.2c1.9-3.7,6.4-7.3,12.8-7.3c5.4,0,13.7,3.2,13.7,16.5v23.1
			h-7v-22.3c0-6.2-2.3-11.4-9-11.4c-4.6,0-8.2,3.3-9.4,7.2c-0.3,0.9-0.5,2.1-0.5,3.3v23.3h-7V570.4z"/>
		<path class="st11" d="M347.7,548.8v11.1h10.1v5.4h-10.1v20.9c0,4.8,1.4,7.5,5.3,7.5c1.8,0,3.2-0.2,4.1-0.5l0.3,5.3
			c-1.4,0.6-3.5,1-6.2,1c-3.3,0-5.9-1-7.6-3c-2-2.1-2.7-5.5-2.7-10.1v-21.1h-6v-5.4h6v-9.3L347.7,548.8z"/>
		<path class="st11" d="M365.7,572c0-4.6-0.1-8.5-0.3-12.1h6.2l0.2,7.6h0.3c1.8-5.2,6-8.5,10.7-8.5c0.8,0,1.4,0.1,2,0.2v6.6
			c-0.7-0.2-1.4-0.2-2.4-0.2c-5,0-8.5,3.8-9.4,9c-0.2,1-0.3,2.1-0.3,3.3v20.6h-7V572z"/>
		<path class="st11" d="M426.1,579c0,14.3-9.9,20.6-19.3,20.6c-10.5,0-18.6-7.7-18.6-19.9c0-13,8.5-20.6,19.2-20.6
			C418.6,559,426.1,567.1,426.1,579z M395.4,579.4c0,8.5,4.9,14.9,11.8,14.9c6.7,0,11.8-6.3,11.8-15c0-6.6-3.3-14.9-11.6-14.9
			C399,564.3,395.4,572,395.4,579.4z"/>
		<path class="st11" d="M485.4,541.8v46.8c0,3.4,0.1,7.4,0.3,10h-6.3l-0.3-6.7h-0.2c-2.2,4.3-6.9,7.6-13.2,7.6
			c-9.4,0-16.6-7.9-16.6-19.7c-0.1-12.9,7.9-20.8,17.4-20.8c5.9,0,9.9,2.8,11.7,5.9h0.2v-23.1H485.4z M478.4,575.7
			c0-0.9-0.1-2.1-0.3-3c-1-4.5-4.9-8.2-10.2-8.2c-7.3,0-11.6,6.4-11.6,15c0,7.8,3.8,14.3,11.4,14.3c4.7,0,9-3.1,10.3-8.4
			c0.2-1,0.3-1.9,0.3-3V575.7z"/>
		<path class="st11" d="M501,580.6c0.2,9.5,6.2,13.4,13.3,13.4c5,0,8.1-0.9,10.7-2l1.2,5c-2.5,1.1-6.7,2.4-12.9,2.4
			c-11.9,0-19-7.8-19-19.5c0-11.7,6.9-20.9,18.2-20.9c12.6,0,16,11.1,16,18.2c0,1.4-0.2,2.6-0.2,3.3H501z M521.6,575.5
			c0.1-4.5-1.8-11.4-9.8-11.4c-7.1,0-10.2,6.6-10.8,11.4H521.6z"/>
		<path class="st11" d="M195.8,629.7v53.9h-7v-53.9H195.8z"/>
		<path class="st11" d="M208.5,655.4c0-4-0.1-7.3-0.3-10.5h6.2l0.4,6.4h0.2c1.9-3.7,6.4-7.3,12.8-7.3c5.4,0,13.7,3.2,13.7,16.5v23.1
			h-7v-22.3c0-6.2-2.3-11.4-9-11.4c-4.6,0-8.2,3.3-9.4,7.2c-0.3,0.9-0.5,2.1-0.5,3.3v23.3h-7V655.4z"/>
		<path class="st11" d="M253.6,683.7v-33.4h-5.4v-5.4h5.4v-1.8c0-5.4,1.2-10.4,4.5-13.5c2.6-2.6,6.2-3.6,9.4-3.6
			c2.5,0,4.6,0.6,6,1.1l-1,5.4c-1-0.5-2.5-0.9-4.5-0.9c-6,0-7.5,5.3-7.5,11.2v2.1h9.4v5.4h-9.4v33.4H253.6z"/>
		<path class="st11" d="M310.3,664c0,14.3-9.9,20.6-19.3,20.6c-10.5,0-18.6-7.7-18.6-19.9c0-13,8.5-20.6,19.2-20.6
			C302.8,644,310.3,652.1,310.3,664z M279.6,664.4c0,8.5,4.9,14.9,11.8,14.9c6.7,0,11.8-6.3,11.8-15c0-6.6-3.3-14.9-11.6-14.9
			S279.6,657,279.6,664.4z"/>
		<path class="st11" d="M319.2,657c0-4.6-0.1-8.5-0.3-12.1h6.2l0.2,7.6h0.3c1.8-5.2,6-8.5,10.7-8.5c0.8,0,1.4,0.1,2,0.2v6.6
			c-0.7-0.2-1.4-0.2-2.4-0.2c-5,0-8.5,3.8-9.4,9c-0.2,1-0.3,2.1-0.3,3.3v20.6h-7V657z"/>
		<path class="st11" d="M345.6,655.4c0-4-0.1-7.3-0.3-10.5h6.2l0.3,6.2h0.2c2.2-3.7,5.8-7.1,12.2-7.1c5.3,0,9.3,3.2,11,7.8h0.2
			c1.2-2.2,2.7-3.8,4.3-5c2.3-1.8,4.9-2.7,8.6-2.7c5.1,0,12.7,3.4,12.7,16.8v22.8H394v-21.9c0-7.4-2.7-11.9-8.4-11.9
			c-4,0-7.1,3-8.3,6.4c-0.3,1-0.6,2.2-0.6,3.5v23.9h-6.9v-23.2c0-6.2-2.7-10.6-8.1-10.6c-4.4,0-7.6,3.5-8.7,7
			c-0.4,1-0.6,2.2-0.6,3.4v23.4h-6.9V655.4z"/>
		<path class="st11" d="M433.8,683.7l-0.6-4.9H433c-2.2,3-6.3,5.8-11.8,5.8c-7.8,0-11.8-5.5-11.8-11.1c0-9.4,8.3-14.5,23.3-14.4
			v-0.8c0-3.2-0.9-9-8.8-9c-3.6,0-7.4,1.1-10.1,2.9l-1.6-4.6c3.2-2.1,7.8-3.4,12.7-3.4c11.8,0,14.7,8.1,14.7,15.8v14.5
			c0,3.4,0.2,6.6,0.6,9.3H433.8z M432.8,663.9c-7.7-0.2-16.4,1.2-16.4,8.7c0,4.6,3,6.7,6.6,6.7c5,0,8.2-3.2,9.4-6.5
			c0.2-0.7,0.4-1.5,0.4-2.2V663.9z M436.3,628.2l-9.8,11.4h-5l7-11.4H436.3z"/>
		<path class="st11" d="M459.1,633.8v11.1h10.1v5.4h-10.1v20.9c0,4.8,1.4,7.5,5.3,7.5c1.8,0,3.2-0.2,4.1-0.5l0.3,5.3
			c-1.4,0.6-3.5,1-6.2,1c-3.3,0-5.9-1-7.6-3c-2-2.1-2.7-5.5-2.7-10.1v-21.1h-6v-5.4h6v-9.3L459.1,633.8z"/>
		<path class="st11" d="M484.9,634c0.1,2.4-1.7,4.3-4.5,4.3c-2.5,0-4.2-1.9-4.2-4.3c0-2.5,1.8-4.4,4.4-4.4
			C483.2,629.6,484.9,631.6,484.9,634z M477.1,683.7v-38.7h7v38.7H477.1z"/>
		<path class="st11" d="M523.4,682.2c-1.8,1-5.9,2.2-11.1,2.2c-11.7,0-19.3-7.9-19.3-19.8c0-11.9,8.2-20.6,20.8-20.6
			c4.2,0,7.8,1,9.8,2l-1.6,5.4c-1.7-1-4.3-1.8-8.2-1.8c-8.9,0-13.7,6.6-13.7,14.6c0,9,5.8,14.5,13.4,14.5c4,0,6.6-1,8.6-1.9
			L523.4,682.2z"/>
		<path class="st11" d="M566.2,664c0,14.3-9.9,20.6-19.3,20.6c-10.5,0-18.6-7.7-18.6-19.9c0-13,8.5-20.6,19.2-20.6
			C558.7,644,566.2,652.1,566.2,664z M535.5,664.4c0,8.5,4.9,14.9,11.8,14.9c6.7,0,11.8-6.3,11.8-15c0-6.6-3.3-14.9-11.6-14.9
			C539.1,649.3,535.5,657,535.5,664.4z"/>
	</g>
</g>
<g>
	<g>
		<path class="st14" d="M517.9,130.6H232c-13.2,0-23.8,10.7-23.8,23.8v238.3c0,13.2,10.7,23.9,23.8,23.9h285.9
			c13.2,0,23.9-10.7,23.9-23.9V154.4C541.8,141.2,531.1,130.6,517.9,130.6L517.9,130.6z M285.7,148.5c6.6,0,11.9,5.3,11.9,11.9
			c0,6.5-5.3,11.9-11.9,11.9c-6.6,0-11.9-5.3-11.9-11.9C273.7,153.8,279.1,148.5,285.7,148.5L285.7,148.5z M249.9,148.5
			c6.5,0,11.9,5.3,11.9,11.9c0,6.5-5.3,11.9-11.9,11.9c-6.6,0-11.9-5.3-11.9-11.9C238,153.8,243.3,148.5,249.9,148.5L249.9,148.5z
			 M524.2,396.5H225.7V190.4h298.5V396.5z M517.9,392.6"/>
		<path class="st16" d="M364.6,279l-76.5-35v16.8l59.2,25.3v0.4l-59.2,25.2v16.9l76.5-35V279z M364.6,279"/>
		<rect x="400.7" y="278.3" class="st16" width="41.7" height="16.1"/>
	</g>
</g>
<g>
	<polygon class="st15" points="496.2,328.6 496.1,479.2 541.1,425.2 611.4,425.5 	"/>
	<polygon class="st15" points="478.9,442.4 478.9,323.6 569.5,400.4 515.4,398.9 	"/>
	<path class="st29" d="M472.2,308.7v150.6l45-54l70.3,0.3L472.2,308.7z M511.5,393.2l-27.3,32.9v-91.7l70.2,59L511.5,393.2z"/>
</g>
</svg>
