<?xml version="1.0" encoding="utf-8"?>
<!-- Generator: Adobe Illustrator 23.0.1, SVG Export Plug-In . SVG Version: 6.00 Build 0)  -->
<svg version="1.1" id="Layer_1" xmlns="http://www.w3.org/2000/svg" xmlns:xlink="http://www.w3.org/1999/xlink" x="0px" y="0px"
	 viewBox="0 0 750 750" style="enable-background:new 0 0 750 750;" xml:space="preserve">
<style type="text/css">
	.st0{fill-rule:evenodd;clip-rule:evenodd;fill:#E1E6E9;}
	.st1{opacity:0.2;fill-rule:evenodd;clip-rule:evenodd;fill:#2EA2DB;}
	.st2{opacity:0.2;fill:#2EA2DB;}
	.st3{fill:#E1E6E9;}
	.st4{fill:#F2F2F4;}
	.st5{fill:#BDC0C3;}
	.st6{opacity:0.1;enable-background:new    ;}
	.st7{fill:#495059;}
	.st8{fill:#7FDBD5;}
	.st9{fill:#B3E7FF;}
	.st10{fill:#76B7EB;}
	.st11{fill:#606060;}
	.st12{fill:#D8D9DD;}
	.st13{fill:#A6C2D1;}
	.st14{fill:#193651;}
	.st15{fill:#FFFFFF;}
	.st16{fill:#7991A3;}
	.st17{fill:#C7CFE2;}
	.st18{fill:#707487;}
	.st19{fill:#5B5D6E;}
	.st20{fill:#FF6464;}
	.st21{fill:#8F96AC;}
	.st22{fill:#D7DEED;}
	.st23{fill:#47821C;}
	.st24{fill:#CC7400;}
	.st25{fill:#AA6100;}
	.st26{fill:#4E901E;}
	.st27{fill:#5EAC24;}
	.st28{fill:#6DC82A;}
	.st29{fill:#6E6C71;}
	.st30{fill:#FFE8CC;}
	.st31{fill:#919497;}
	.st32{fill:#FFE1BD;}
	.st33{clip-path:url(#SVGID_2_);fill:#ABABB0;}
	.st34{clip-path:url(#SVGID_2_);fill:#C5C5CA;}
	.st35{fill:#FFD733;}
	.st36{fill:#FFA891;}
	.st37{fill:#F0F0F0;}
	.st38{fill:#FF7854;}
	.st39{fill:#EBEBEB;}
	.st40{fill:#1CC8EB;}
	.st41{fill:#F0BE59;}
	.st42{fill:#FFB41F;}
	.st43{fill:#74D5E8;}
	.st44{fill:#8C8C8C;}
	.st45{fill:#6A80FF;}
	.st46{fill:#ADE5FF;}
	.st47{fill:#FFC66C;}
	.st48{fill:#36D28F;}
	.st49{fill:#5A54E0;}
	.st50{fill:#C9F3FF;}
	.st51{clip-path:url(#SVGID_4_);}
	.st52{fill:#A2A2A5;}
	.st53{fill:none;}
	.st54{fill:#8ECDF4;}
	.st55{fill:#CFD0D1;}
	.st56{fill-rule:evenodd;clip-rule:evenodd;fill:#193651;}
	.st57{fill:#76ACDD;}
</style>
<g>
	<g>
		<path class="st11" d="M298.6,596.9c-2.6,1.3-7.7,2.6-14.2,2.6c-15.2,0-26.6-9.6-26.6-27.3c0-16.9,11.4-28.3,28.2-28.3
			c6.7,0,11,1.4,12.8,2.4l-1.7,5.7c-2.6-1.3-6.4-2.2-10.9-2.2c-12.6,0-21,8.1-21,22.2c0,13.2,7.6,21.7,20.7,21.7
			c4.2,0,8.6-0.9,11.4-2.2L298.6,596.9z"/>
		<path class="st11" d="M310.1,580.6c0.2,9.5,6.2,13.4,13.3,13.4c5,0,8.1-0.9,10.7-2l1.2,5c-2.5,1.1-6.7,2.4-12.9,2.4
			c-11.9,0-19-7.8-19-19.5c0-11.7,6.9-20.9,18.2-20.9c12.6,0,16,11.1,16,18.2c0,1.4-0.2,2.6-0.2,3.3H310.1z M330.7,575.5
			c0.1-4.5-1.8-11.4-9.8-11.4c-7.1,0-10.2,6.6-10.8,11.4H330.7z"/>
		<path class="st11" d="M346.2,570.4c0-4-0.1-7.3-0.3-10.5h6.2l0.4,6.4h0.2c1.9-3.7,6.4-7.3,12.8-7.3c5.4,0,13.7,3.2,13.7,16.5v23.1
			h-7v-22.3c0-6.2-2.3-11.4-9-11.4c-4.6,0-8.2,3.3-9.4,7.2c-0.3,0.9-0.5,2.1-0.5,3.3v23.3h-7V570.4z"/>
		<path class="st11" d="M398.8,548.8v11.1h10.1v5.4h-10.1v20.9c0,4.8,1.4,7.5,5.3,7.5c1.8,0,3.2-0.2,4.1-0.5l0.3,5.3
			c-1.4,0.6-3.5,1-6.2,1c-3.3,0-5.9-1-7.6-3c-2-2.1-2.7-5.5-2.7-10.1v-21.1h-6v-5.4h6v-9.3L398.8,548.8z"/>
		<path class="st11" d="M416.8,572c0-4.6-0.1-8.5-0.3-12.1h6.2l0.2,7.6h0.3c1.8-5.2,6-8.5,10.7-8.5c0.8,0,1.4,0.1,2,0.2v6.6
			c-0.7-0.2-1.4-0.2-2.4-0.2c-5,0-8.5,3.8-9.4,9c-0.2,1-0.3,2.1-0.3,3.3v20.6h-7V572z"/>
		<path class="st11" d="M477.2,579c0,14.3-9.9,20.6-19.3,20.6c-10.5,0-18.6-7.7-18.6-19.9c0-13,8.5-20.6,19.2-20.6
			C469.7,559,477.2,567.1,477.2,579z M446.5,579.4c0,8.5,4.9,14.9,11.8,14.9c6.7,0,11.8-6.3,11.8-15c0-6.6-3.3-14.9-11.6-14.9
			C450.1,564.3,446.5,572,446.5,579.4z"/>
		<path class="st11" d="M303.5,660c-0.4-7.5-0.9-16.6-0.8-23.3h-0.2c-1.8,6.3-4.1,13-6.8,20.5l-9.5,26.2h-5.3l-8.7-25.7
			c-2.6-7.6-4.7-14.6-6.2-21h-0.2c-0.2,6.7-0.6,15.8-1,23.8l-1.4,23.1h-6.6l3.8-53.9h8.9l9.2,26.1c2.2,6.6,4.1,12.6,5.4,18.2h0.2
			c1.4-5.4,3.3-11.4,5.7-18.2l9.6-26.1h8.9l3.4,53.9h-6.8L303.5,660z"/>
		<path class="st11" d="M326.6,665.6c0.2,9.5,6.2,13.4,13.3,13.4c5,0,8.1-0.9,10.7-2l1.2,5c-2.5,1.1-6.7,2.4-12.9,2.4
			c-11.9,0-19-7.8-19-19.5c0-11.7,6.9-20.9,18.2-20.9c12.6,0,16,11.1,16,18.2c0,1.4-0.2,2.6-0.2,3.3H326.6z M347.2,660.5
			c0.1-4.5-1.8-11.4-9.8-11.4c-7.1,0-10.2,6.6-10.8,11.4H347.2z M348.9,628.2l-9.8,11.4h-5l7-11.4H348.9z"/>
		<path class="st11" d="M396.2,626.8v46.8c0,3.4,0.1,7.4,0.3,10h-6.3l-0.3-6.7h-0.2c-2.2,4.3-6.9,7.6-13.2,7.6
			c-9.4,0-16.6-7.9-16.6-19.7c-0.1-12.9,7.9-20.8,17.4-20.8c5.9,0,9.9,2.8,11.7,5.9h0.2v-23.1H396.2z M389.1,660.7
			c0-0.9-0.1-2.1-0.3-3c-1-4.5-4.9-8.2-10.2-8.2c-7.3,0-11.6,6.4-11.6,15c0,7.8,3.8,14.3,11.4,14.3c4.7,0,9-3.1,10.3-8.4
			c0.2-1,0.3-1.9,0.3-3V660.7z"/>
		<path class="st11" d="M415.7,634c0.1,2.4-1.7,4.3-4.5,4.3c-2.5,0-4.2-1.9-4.2-4.3c0-2.5,1.8-4.4,4.4-4.4
			C414,629.6,415.7,631.6,415.7,634z M407.8,683.7v-38.7h7v38.7H407.8z"/>
		<path class="st11" d="M454.2,682.2c-1.8,1-5.9,2.2-11.1,2.2c-11.7,0-19.3-7.9-19.3-19.8c0-11.9,8.2-20.6,20.8-20.6
			c4.2,0,7.8,1,9.8,2l-1.6,5.4c-1.7-1-4.3-1.8-8.2-1.8c-8.9,0-13.7,6.6-13.7,14.6c0,9,5.8,14.5,13.4,14.5c4,0,6.6-1,8.6-1.9
			L454.2,682.2z"/>
		<path class="st11" d="M497,664c0,14.3-9.9,20.6-19.3,20.6c-10.5,0-18.6-7.7-18.6-19.9c0-13,8.5-20.6,19.2-20.6
			C489.4,644,497,652.1,497,664z M466.2,664.4c0,8.5,4.9,14.9,11.8,14.9c6.7,0,11.8-6.3,11.8-15c0-6.6-3.3-14.9-11.6-14.9
			C469.8,649.3,466.2,657,466.2,664.4z"/>
	</g>
</g>
<g>
	<g>
		<path class="st12" d="M371.7,418.8v-17.6c67.6,0,122.6-55,122.6-122.6c0-67.6-55-122.6-122.6-122.6v-17.6
			c77.3,0,140.2,62.9,140.2,140.2C511.9,355.9,449,418.8,371.7,418.8L371.7,418.8z M371.7,418.8"/>
		<rect x="240.2" y="364.9" class="st57" width="161.6" height="17.6"/>
		<path class="st12" d="M383.7,135.1l8.5-26.1l-51.9-16.8l-8.5,26.1l-10.2-3.3L261,301.7l72.3,23.5l60.6-186.8L383.7,135.1z
			 M383.7,135.1"/>
		<path class="st14" d="M330.6,333.5l-72.3-23.5l5.4-16.7l72.3,23.5L330.6,333.5z M330.6,333.5"/>
		<path class="st14" d="M343.6,293.3l-72.3-23.5l3.3-10l72.3,23.5L343.6,293.3z M343.6,293.3"/>
		<path class="st14" d="M402.3,77.8L350.4,61l-3.3,10l7.6,2.5L348,94.6l36.6,11.9l6.8-21.1l7.6,2.5L402.3,77.8z M402.3,77.8"/>
		<circle class="st16" cx="388.5" cy="153.8" r="24.8"/>
		<rect x="258.3" y="442.4" class="st14" width="260.5" height="27.4"/>
	</g>
</g>
<rect x="371.7" y="382.5" class="st12" width="30.1" height="59.9"/>
</svg>
