<svg id="Capa_1" data-name="Capa 1" xmlns="http://www.w3.org/2000/svg" viewBox="0 0 755 755"><defs><style>.cls-1{fill:#606060;}.cls-2{fill:#266cb4;}.cls-3{fill:#f5f7f7;}.cls-4{fill:#fff;}.cls-5{fill:#7f969f;}</style></defs><title>Eproyeccionsocial</title><path class="cls-1" d="M180.91,577.74H159.48v20h24v5.95H152.31V548.38h29.88v6H159.48v17.5h21.43Z"/><path class="cls-1" d="M193.74,564l7.78,22.24c1.34,3.67,2.36,6.95,3.25,10.24H205c.91-3.3,2.05-6.59,3.32-10.24L216.06,564h7.54L208,603.65h-6.88L186,564Z"/><path class="cls-1" d="M251.17,603.65l-.64-5h-.22a14.72,14.72,0,0,1-12.13,5.91c-8,0-12.11-5.69-12.11-11.38,0-9.61,8.51-14.88,23.83-14.77v-.84c0-3.23-.9-9.2-9-9.15a19.33,19.33,0,0,0-10.33,3l-1.64-4.79A25,25,0,0,1,242,563.09c12.12,0,15.08,8.29,15.08,16.23v14.84a61.36,61.36,0,0,0,.6,9.49ZM250,583.4c-7.8-.17-16.74,1.23-16.74,8.9,0,4.74,3.12,6.91,6.74,6.91a9.93,9.93,0,0,0,9.66-6.64,7.54,7.54,0,0,0,.34-2.27Z"/><path class="cls-1" d="M267.8,545.43H275v58.22H267.8Z"/><path class="cls-1" d="M319.41,592.79c0,4.16.13,7.72.33,10.86h-6.38l-.38-6.49h-.2a14.82,14.82,0,0,1-13.13,7.39c-6.2,0-13.66-3.48-13.66-17.38V564h7.18V585.9c0,7.56,2.35,12.7,8.86,12.7a10.5,10.5,0,0,0,9.55-6.62,11.21,11.21,0,0,0,.65-3.7V564h7.18Z"/><path class="cls-1" d="M352.52,603.65l-.64-5h-.21a14.76,14.76,0,0,1-12.14,5.91c-8,0-12.11-5.69-12.11-11.38,0-9.61,8.51-14.88,23.83-14.77v-.84c0-3.23-.9-9.2-9-9.15a19.33,19.33,0,0,0-10.33,3l-1.64-4.79a25,25,0,0,1,13.09-3.48c12.13,0,15.08,8.29,15.08,16.23v14.84a62.63,62.63,0,0,0,.6,9.49Zm-1.13-20.25c-7.8-.17-16.74,1.23-16.74,8.9,0,4.74,3.12,6.91,6.74,6.91a9.93,9.93,0,0,0,9.66-6.64,7.54,7.54,0,0,0,.34-2.27Z"/><path class="cls-1" d="M397.43,602.21a27.37,27.37,0,0,1-11.38,2.3c-12,0-19.79-8.14-19.79-20.26s8.34-21.15,21.31-21.15a23.31,23.31,0,0,1,10,2.11l-1.6,5.54a17.59,17.59,0,0,0-8.44-1.9c-9,0-14,6.78-14,15,0,9.19,5.91,14.85,13.82,14.85a21,21,0,0,0,8.83-1.91Z"/><path class="cls-1" d="M413,552.78a4.34,4.34,0,0,1-4.59,4.48,4.3,4.3,0,0,1-4.35-4.48,4.38,4.38,0,0,1,4.49-4.49A4.32,4.32,0,0,1,413,552.78ZM405,603.65V564h7.18v39.66Z"/><path class="cls-1" d="M459.17,583.48c0,14.67-10.17,21.07-19.76,21.07-10.74,0-19-7.87-19-20.42,0-13.28,8.69-21.07,19.68-21.07C451.46,563.06,459.17,571.34,459.17,583.48Zm-31.49.41c0,8.69,5,15.25,12.06,15.25,6.89,0,12.05-6.48,12.05-15.42,0-6.72-3.36-15.25-11.89-15.25S427.68,576.34,427.68,583.89Zm22.88-37.07-10,11.73h-5.17l7.22-11.73Z"/><path class="cls-1" d="M467.37,574.7c0-4.1-.08-7.46-.33-10.74h6.4l.41,6.56H474a14.6,14.6,0,0,1,13.12-7.46c5.5,0,14,3.28,14,16.89v23.7h-7.22V580.77c0-6.4-2.38-11.73-9.18-11.73a10.26,10.26,0,0,0-9.68,7.38,10.41,10.41,0,0,0-.49,3.37v23.86h-7.22Z"/><path class="cls-1" d="M562.74,545.43v48c0,3.52.08,7.54.32,10.25h-6.47l-.33-6.89h-.17c-2.21,4.43-7.05,7.79-13.53,7.79-9.59,0-17-8.12-17-20.17-.08-13.2,8.12-21.32,17.79-21.32,6.07,0,10.17,2.87,12,6.07h.16v-23.7Zm-7.22,34.68a12.51,12.51,0,0,0-.33-3,10.6,10.6,0,0,0-10.41-8.36c-7.46,0-11.89,6.56-11.89,15.33,0,8,3.93,14.68,11.72,14.68a10.85,10.85,0,0,0,10.58-8.61,12.4,12.4,0,0,0,.33-3.12Z"/><path class="cls-1" d="M577.82,585.12c.17,9.75,6.4,13.77,13.62,13.77a26,26,0,0,0,11-2l1.23,5.17a32.07,32.07,0,0,1-13.2,2.46c-12.22,0-19.51-8-19.51-20s7-21.4,18.61-21.4c13,0,16.4,11.4,16.4,18.69a25.68,25.68,0,0,1-.25,3.37ZM599,580c.08-4.59-1.89-11.73-10-11.73-7.3,0-10.5,6.73-11.07,11.73Z"/><path class="cls-1" d="M94.73,632A81.88,81.88,0,0,1,108.42,631c7,0,12.22,1.64,15.5,4.59a14.88,14.88,0,0,1,4.84,11.56c0,5-1.48,8.94-4.27,11.81-3.77,4-9.92,6.07-16.89,6.07a24.57,24.57,0,0,1-5.74-.49v22.14H94.73Zm7.13,26.65a24,24,0,0,0,5.9.57c8.61,0,13.86-4.18,13.86-11.81,0-7.3-5.16-10.82-13-10.82a29.88,29.88,0,0,0-6.72.57Z"/><path class="cls-1" d="M135.89,659.34c0-4.67-.08-8.69-.33-12.38h6.32l.24,7.79h.33c1.8-5.33,6.15-8.69,11-8.69a8,8,0,0,1,2.05.24v6.81a11.09,11.09,0,0,0-2.46-.25c-5.09,0-8.69,3.86-9.68,9.27a20.67,20.67,0,0,0-.33,3.36v21.16h-7.13Z"/><path class="cls-1" d="M196.9,666.48c0,14.67-10.17,21.07-19.76,21.07-10.75,0-19-7.87-19-20.42,0-13.28,8.69-21.07,19.68-21.07C189.19,646.06,196.9,654.34,196.9,666.48Zm-31.49.41c0,8.69,5,15.25,12.05,15.25,6.89,0,12.06-6.48,12.06-15.42,0-6.72-3.36-15.25-11.89-15.25S165.41,659.34,165.41,666.89Z"/><path class="cls-1" d="M207.15,647l8.69,23.45c.9,2.63,1.89,5.74,2.54,8.12h.17c.73-2.38,1.55-5.41,2.54-8.28L229,647h7.63l-10.83,28.29c-5.16,13.61-8.69,20.58-13.61,24.85a19.62,19.62,0,0,1-8.86,4.67l-1.8-6.07a19.06,19.06,0,0,0,6.31-3.52,21.89,21.89,0,0,0,6.07-8,5.18,5.18,0,0,0,.58-1.72,6.32,6.32,0,0,0-.5-1.89L199.28,647Z"/><path class="cls-1" d="M245.44,668.12c.17,9.75,6.4,13.77,13.61,13.77a26,26,0,0,0,11-2l1.23,5.17a32.11,32.11,0,0,1-13.2,2.46c-12.22,0-19.52-8-19.52-20s7.06-21.4,18.62-21.4c12.95,0,16.4,11.4,16.4,18.69a25.68,25.68,0,0,1-.25,3.37ZM266.6,663c.08-4.59-1.89-11.73-10-11.73-7.29,0-10.49,6.73-11.07,11.73Z"/><path class="cls-1" d="M309.89,685.17a26.41,26.41,0,0,1-11.39,2.3c-12,0-19.77-8.12-19.77-20.26s8.37-21.07,21.32-21.07a24.2,24.2,0,0,1,10,2.05l-1.64,5.58a16.67,16.67,0,0,0-8.37-1.89c-9.1,0-14,6.72-14,15,0,9.18,5.91,14.84,13.78,14.84a20.58,20.58,0,0,0,8.86-2Z"/><path class="cls-1" d="M345.24,685.17a26.5,26.5,0,0,1-11.4,2.3c-12,0-19.76-8.12-19.76-20.26s8.36-21.07,21.32-21.07a24.19,24.19,0,0,1,10,2.05l-1.64,5.58a16.66,16.66,0,0,0-8.36-1.89c-9.11,0-14,6.72-14,15,0,9.18,5.91,14.84,13.78,14.84a20.55,20.55,0,0,0,8.86-2Z"/><path class="cls-1" d="M360.82,635.81a4.47,4.47,0,0,1-8.94,0,4.39,4.39,0,0,1,4.51-4.51A4.29,4.29,0,0,1,360.82,635.81Zm-8,50.84V647H360v39.69Z"/><path class="cls-1" d="M407,666.48c0,14.67-10.17,21.07-19.76,21.07-10.74,0-19-7.87-19-20.42,0-13.28,8.69-21.07,19.68-21.07C399.27,646.06,407,654.34,407,666.48Zm-31.49.41c0,8.69,5,15.25,12.06,15.25,6.89,0,12.05-6.48,12.05-15.42,0-6.72-3.36-15.25-11.89-15.25S375.49,659.34,375.49,666.89Zm22.88-37.07-10,11.73H383.2l7.22-11.73Z"/><path class="cls-1" d="M415.18,657.7c0-4.1-.08-7.46-.33-10.74h6.4l.41,6.56h.16a14.6,14.6,0,0,1,13.12-7.46c5.5,0,14,3.28,14,16.89v23.7h-7.22V663.77c0-6.4-2.38-11.73-9.18-11.73a10.26,10.26,0,0,0-9.68,7.38,10.41,10.41,0,0,0-.49,3.37v23.86h-7.22Z"/><path class="cls-1" d="M475.53,678a25.36,25.36,0,0,0,12.79,3.6c7.3,0,11.57-3.85,11.57-9.43,0-5.16-3-8.11-10.42-11-9-3.2-14.59-7.88-14.59-15.67,0-8.61,7.13-15,17.87-15,5.66,0,9.76,1.31,12.22,2.7L503,639a21.89,21.89,0,0,0-10.49-2.63c-7.55,0-10.42,4.51-10.42,8.28,0,5.17,3.36,7.71,11,10.66,9.35,3.61,14.1,8.12,14.1,16.24,0,8.53-6.31,15.91-19.35,15.91-5.33,0-11.15-1.56-14.1-3.53Z"/><path class="cls-1" d="M552.2,666.48c0,14.67-10.17,21.07-19.76,21.07-10.74,0-19-7.87-19-20.42,0-13.28,8.69-21.07,19.68-21.07C544.49,646.06,552.2,654.34,552.2,666.48Zm-31.49.41c0,8.69,5,15.25,12.06,15.25,6.89,0,12.05-6.48,12.05-15.42,0-6.72-3.36-15.25-11.89-15.25S520.71,659.34,520.71,666.89Z"/><path class="cls-1" d="M588.69,685.17a26.5,26.5,0,0,1-11.4,2.3c-12,0-19.76-8.12-19.76-20.26s8.36-21.07,21.32-21.07a24.2,24.2,0,0,1,10,2.05l-1.65,5.58a16.63,16.63,0,0,0-8.36-1.89c-9.1,0-14,6.72-14,15,0,9.18,5.9,14.84,13.78,14.84a20.49,20.49,0,0,0,8.85-2Z"/><path class="cls-1" d="M604.27,635.81a4.47,4.47,0,0,1-8.94,0,4.4,4.4,0,0,1,4.51-4.51A4.28,4.28,0,0,1,604.27,635.81Zm-8,50.84V647h7.22v39.69Z"/><path class="cls-1" d="M636.5,686.65l-.58-5h-.24a14.81,14.81,0,0,1-12.14,5.9c-8,0-12.14-5.66-12.14-11.4,0-9.59,8.53-14.84,23.87-14.76v-.82c0-3.28-.91-9.18-9-9.18a19.84,19.84,0,0,0-10.34,3l-1.64-4.76a24.66,24.66,0,0,1,13-3.52c12.14,0,15.09,8.28,15.09,16.23v14.85a55.08,55.08,0,0,0,.66,9.51Zm-1.07-20.26c-7.87-.16-16.81,1.23-16.81,8.94,0,4.68,3.12,6.89,6.81,6.89a9.88,9.88,0,0,0,9.59-6.64,7.44,7.44,0,0,0,.41-2.3Z"/><path class="cls-1" d="M653.14,628.43h7.22v58.22h-7.22Z"/><circle class="cls-2" cx="285.13" cy="355.1" r="57.72" transform="translate(-125.98 551.02) rotate(-76.72)"/><circle class="cls-3" cx="416.13" cy="213.65" r="88.16" transform="translate(51.66 506.86) rotate(-65.99)"/><path class="cls-4" d="M285.07,373.76A24.79,24.79,0,1,1,309.86,349,24.81,24.81,0,0,1,285.07,373.76Zm0-36.21A11.43,11.43,0,1,0,296.49,349,11.44,11.44,0,0,0,285.07,337.55Z"/><path class="cls-4" d="M323.35,398.68H310a24.92,24.92,0,0,0-49.84,0H246.79a38.28,38.28,0,0,1,76.56,0Z"/><path class="cls-5" d="M416.1,236.71a35.82,35.82,0,1,1,35.83-35.82A35.86,35.86,0,0,1,416.1,236.71Zm0-58.28a22.46,22.46,0,1,0,22.46,22.46A22.48,22.48,0,0,0,416.1,178.43Z"/><path class="cls-5" d="M473.65,280.89H460.28a44.18,44.18,0,1,0-88.35,0H358.56a57.55,57.55,0,0,1,115.09,0Z"/><path class="cls-2" d="M453.3,413.31a26.46,26.46,0,1,1,26.46-26.45A26.48,26.48,0,0,1,453.3,413.31Zm0-39.55a13.1,13.1,0,1,0,13.09,13.1A13.11,13.11,0,0,0,453.3,373.76Z"/><path class="cls-2" d="M494.5,441.15H481.13a27.83,27.83,0,1,0-55.66,0H412.1a41.2,41.2,0,1,1,82.4,0Z"/><path class="cls-5" d="M285.07,417.27a63,63,0,1,1,63-63A63,63,0,0,1,285.07,417.27Zm0-112.59a49.61,49.61,0,1,0,49.61,49.61A49.67,49.67,0,0,0,285.07,304.68Z"/><path class="cls-5" d="M416.1,306.34a94.4,94.4,0,1,1,94.4-94.4A94.49,94.49,0,0,1,416.1,306.34Zm0-175.43a81,81,0,1,0,81,81A81.12,81.12,0,0,0,416.1,130.91Z"/><path class="cls-5" d="M453.3,460.47a65.61,65.61,0,1,1,65.6-65.61A65.68,65.68,0,0,1,453.3,460.47Zm0-117.84a52.24,52.24,0,1,0,52.24,52.23A52.3,52.3,0,0,0,453.3,342.63Z"/><rect class="cls-5" x="361.13" y="345.24" width="13.37" height="59.25" transform="translate(-123.53 560.33) rotate(-66.22)"/><rect class="cls-5" x="440.79" y="295.07" width="13.37" height="42.71" transform="translate(-70.03 136.01) rotate(-16.05)"/><polygon class="cls-5" points="365.36 283.72 323.36 316.43 315.04 305.96 357.05 273.26 365.36 283.72"/></svg>