<svg id="Layer_1" data-name="Layer 1" xmlns="http://www.w3.org/2000/svg" viewBox="0 0 750 750"><defs><style>.cls-1{fill:#606060;}.cls-2{fill:#009736;}.cls-3{fill:#e6e6e6;}.cls-4{fill:#006320;}.cls-5{fill:#bbbbbc;opacity:0.6;}.cls-6{fill:#fff;}.cls-7{fill:#6e6c71;}</style></defs><title>Artboard 47 copy</title><path class="cls-1" d="M272.79,582.29H249.4v19.14h27.17v5.83H242.28v-54H276.2v5.83H249.4v17.4h23.39Z"/><path class="cls-1" d="M297.81,581.77l8.89-14.66h8L301.59,587l13.53,20.3h-7.93l-9.27-15-9.27,15h-8L294.21,587l-13.12-19.85H289Z"/><path class="cls-1" d="M331.28,557.39v9.72h7.49v5.31h-7.49v24.93a5.56,5.56,0,0,0,1,3.62,4.22,4.22,0,0,0,3.41,1.21,16.38,16.38,0,0,0,3.26-.45v5.54a20,20,0,0,1-5.26.73c-3.07,0-5.38-.92-6.93-2.78s-2.34-4.49-2.34-7.9v-24.9h-7.3v-5.31h7.3v-9.72Z"/><path class="cls-1" d="M366.16,573.27a20.87,20.87,0,0,0-3.37-.26q-6.75,0-9.16,5.75v28.5h-6.86V567.11h6.67l.12,4.64a10.65,10.65,0,0,1,9.56-5.38,7,7,0,0,1,3,.52Z"/><path class="cls-1" d="M395.74,607.26a14.3,14.3,0,0,1-1-4.23,15.25,15.25,0,0,1-11.41,5,14.13,14.13,0,0,1-9.73-3.36,10.82,10.82,0,0,1-3.8-8.51,11.36,11.36,0,0,1,4.76-9.74q4.77-3.48,13.4-3.47h6.67v-3.16a7.68,7.68,0,0,0-2.15-5.73q-2.14-2.13-6.34-2.13a10,10,0,0,0-6.15,1.85,5.48,5.48,0,0,0-2.48,4.49h-6.9a9.46,9.46,0,0,1,2.14-5.81,14.57,14.57,0,0,1,5.78-4.43,19.39,19.39,0,0,1,8-1.63q6.93,0,10.86,3.47a12.51,12.51,0,0,1,4.08,9.55v18.48a22.62,22.62,0,0,0,1.41,8.8v.59ZM384.36,602a12,12,0,0,0,6.11-1.67,10,10,0,0,0,4.19-4.34v-8.24h-5.37q-12.6,0-12.6,7.38a6.23,6.23,0,0,0,2.15,5.05A8.25,8.25,0,0,0,384.36,602Z"/><path class="cls-1" d="M418.76,567.11l.22,5a14.61,14.61,0,0,1,12-5.79q12.7,0,12.82,14.36v26.53H437V580.69q0-4.34-2-6.42c-1.29-1.38-3.31-2.08-6.06-2.08a9.93,9.93,0,0,0-5.85,1.78,12.13,12.13,0,0,0-3.93,4.68v28.61h-6.86V567.11Z"/><path class="cls-1" d="M470.8,608a17.49,17.49,0,0,1-13.27-5.36q-5.11-5.35-5.12-14.34V587a24.1,24.1,0,0,1,2.28-10.67,17.82,17.82,0,0,1,6.38-7.35,16,16,0,0,1,8.88-2.65q7.82,0,12.16,5.15t4.33,14.77v2.86H459.27a14.28,14.28,0,0,0,3.47,9.59,10.87,10.87,0,0,0,8.43,3.66,12,12,0,0,0,6.15-1.48,15.54,15.54,0,0,0,4.41-3.94l4.19,3.27Q480.88,608,470.8,608ZM470,572a9.16,9.16,0,0,0-7,3,14.74,14.74,0,0,0-3.49,8.48h20.09V583q-.29-5.24-2.81-8.11A8.63,8.63,0,0,0,470,572Z"/><path class="cls-1" d="M503.68,557.39v9.72h7.49v5.31h-7.49v24.93a5.56,5.56,0,0,0,1,3.62,4.22,4.22,0,0,0,3.41,1.21,16.38,16.38,0,0,0,3.26-.45v5.54a20,20,0,0,1-5.26.73c-3.07,0-5.38-.92-6.93-2.78s-2.34-4.49-2.34-7.9v-24.9h-7.3v-5.31h7.3v-9.72Z"/><path class="cls-2" d="M214.23,423.15s-22.83,1.12-18.38-13.93a21.4,21.4,0,0,1,18.38-15.83H506.56s13.92,11.37,11.69,20.29-7.6,11.7-7.6,11.7Z"/><path class="cls-3" d="M450.45,324.48H260.33a3.89,3.89,0,0,1-3.77-4.2l5.92-116.14a3.88,3.88,0,0,1,3.78-3.78H444.52a3.88,3.88,0,0,1,3.78,3.78l5.93,116.14A3.91,3.91,0,0,1,450.45,324.48Z"/><path class="cls-2" d="M429.06,187.94a5.76,5.76,0,0,1,5.8-5.79h24.92a11.86,11.86,0,0,1,11.78,11.33l5.28,136.76a23.65,23.65,0,0,0,3.43,10.55l39,58.3a22.38,22.38,0,0,1,3.13,14.57l-1,6A12.81,12.81,0,0,1,509,430.11H202.2a12.83,12.83,0,0,1-12.45-10.48l-1-6a22.29,22.29,0,0,1,3.13-14.57l39-58.3a23.87,23.87,0,0,0,3.43-10.55l5.28-136.76a11.85,11.85,0,0,1,11.78-11.33h190.2a5.82,5.82,0,0,1,.1,11.64l-184.81.12a6.07,6.07,0,0,0-5.92,5.77l-4.89,126.64a5.53,5.53,0,0,0,5.54,5.76h208a5.49,5.49,0,0,0,5.52-5.77L460,199.45a6,6,0,0,0-6-5.77l-19.12.06A5.78,5.78,0,0,1,429.06,187.94Zm33.38,155.67H248.71a11.93,11.93,0,0,0-9,4.76l-38.22,57.12a11.12,11.12,0,0,0-1.34,6.27l1,6a1.39,1.39,0,0,0,1,.85H509a1.31,1.31,0,0,0,1-.85l1-6a11.29,11.29,0,0,0-1.34-6.27l-38.23-57.12A12,12,0,0,0,462.44,343.61Z"/><rect class="cls-2" x="200.95" y="389.17" width="309.24" height="11.53"/><path class="cls-4" d="M499.13,199.7v0a43.92,43.92,0,0,0-37.34-44.53,5.57,5.57,0,0,0-6.46,5.45h0a5.56,5.56,0,0,0,4.85,5.46,32.89,32.89,0,0,1,28,32.49c0,.44-.05.87-.07,1.3h0a5.51,5.51,0,0,0,11,0h0A.48.48,0,0,0,499.13,199.7Z"/><path class="cls-4" d="M522.62,199.67v-1.15a67.43,67.43,0,0,0-61.3-67.1,5.52,5.52,0,0,0-1,11,56.38,56.38,0,0,1,51.25,56.11c0,.31,0,.8,0,1.08,0,0,0,.05,0,.08s0,0,0,0v.1h0a5.51,5.51,0,0,0,11,0h0v-.14Z"/><path class="cls-2" d="M317,275.91l6.3-25.09h5.6l-9.54,32.83h-4.55l-8-24.88-7.76,24.88h-4.54L285,250.82h5.58L297,275.4l7.64-24.58h4.51Z"/><path class="cls-2" d="M320,284.47H314.2l-.19-.57-7.17-22.41-7.17,23H293.9l-10-34.47h7.3l5.89,22.42,7-22.42h5.72l7.1,22.88L322.64,250H330Zm-4.57-1.64h3.33l9.07-31.19h-3.87L317.06,279l-8.48-27.31h-3.31L297,278.38l-7-26.74h-3.85l9,31.19h3.33l8.35-26.78Z"/><path class="cls-2" d="M363.61,275.91l6.31-25.09h5.6L366,283.65h-4.55l-8-24.88-7.76,24.88h-4.54l-9.52-32.83h5.58l6.45,24.58,7.64-24.58h4.51Z"/><path class="cls-2" d="M366.6,284.47h-5.76l-.19-.57-7.18-22.41-7.16,23h-5.77l-10-34.47h7.3l5.88,22.42,7-22.42h5.72l7.1,22.88L369.28,250h7.34ZM362,282.83h3.34l9.06-31.19h-3.87L363.7,279l-8.48-27.31h-3.31l-8.3,26.74-7-26.74h-3.85l9,31.19h3.33l8.34-26.78Z"/><path class="cls-2" d="M410.25,275.91l6.31-25.09h5.6l-9.54,32.83h-4.55l-8-24.88-7.76,24.88h-4.55l-9.51-32.83h5.57l6.46,24.58L398,250.82h4.51Z"/><path class="cls-2" d="M413.23,284.47h-5.75l-.19-.57-7.18-22.41-7.17,23h-5.76l-10-34.47h7.3l5.89,22.42,7-22.42h5.72l7.1,22.88L415.92,250h7.34Zm-4.56-1.64H412l9.07-31.19H417.2L410.34,279l-8.48-27.31h-3.31l-8.3,26.74-7-26.74h-3.85l9,31.19h3.32l8.35-26.78Z"/><path class="cls-2" d="M424.22,280.71a3.52,3.52,0,0,1,.87-2.43,3.27,3.27,0,0,1,2.59-1,3.38,3.38,0,0,1,2.62,1,3.48,3.48,0,0,1,.89,2.43,3.26,3.26,0,0,1-.89,2.33,3.44,3.44,0,0,1-2.62.94,3.33,3.33,0,0,1-2.59-.94A3.28,3.28,0,0,1,424.22,280.71Z"/><path class="cls-2" d="M427.68,284.8a3.94,3.94,0,0,1-4.28-4.09,4.3,4.3,0,0,1,1.08-3,4.08,4.08,0,0,1,3.2-1.24,4.18,4.18,0,0,1,3.22,1.23,4.27,4.27,0,0,1,1.11,3,4,4,0,0,1-1.12,2.9A4.25,4.25,0,0,1,427.68,284.8Zm0-6.67a2.51,2.51,0,0,0-2,.7,2.7,2.7,0,0,0-.66,1.88,2.51,2.51,0,0,0,.65,1.78,2.59,2.59,0,0,0,2,.67,2.65,2.65,0,0,0,2-.68,2.47,2.47,0,0,0,.67-1.77,2.59,2.59,0,0,0-.68-1.87A2.55,2.55,0,0,0,427.68,278.13Z"/><polygon class="cls-5" points="404.2 287.35 404.15 371.38 429.26 341.24 468.46 341.4 404.2 287.35"/><polygon class="cls-6" points="394.57 350.81 394.57 284.54 445.1 327.39 414.92 326.56 394.57 350.81"/><path class="cls-7" d="M390.86,276.23v84L416,330.1l39.2.14Zm22,47.16-15.29,18.37V290.58l39.17,32.9Zm0,0"/></svg>