<svg id="Capa_1" data-name="Capa 1" xmlns="http://www.w3.org/2000/svg" viewBox="0 0 755 755"><defs><style>.cls-1{fill:#606060;}.cls-2{fill:#efefef;}.cls-3{fill:#193651;}.cls-4{fill:#7991a3;}.cls-5{fill:#76acdd;}</style></defs><title>Gcurriculo</title><path class="cls-1" d="M234.43,600.17a50.35,50.35,0,0,1-17,3c-8.38,0-15.29-2.12-20.67-7.3-4.76-4.59-7.69-11.92-7.68-20.52,0-16.49,11.36-28.55,29.88-28.55a34.82,34.82,0,0,1,13.82,2.53L231,555.18a28.2,28.2,0,0,0-12.21-2.36c-13.41,0-22.2,8.34-22.2,22.19s8.4,22.29,21.33,22.29c4.67,0,7.84-.65,9.49-1.49V579.35H216.23v-5.71h18.2Z"/><path class="cls-1" d="M248.61,584.12c.14,9.75,6.33,13.77,13.57,13.77a26.82,26.82,0,0,0,11-2l1.26,5.12a32,32,0,0,1-13.23,2.53c-12.19,0-19.51-8.12-19.51-20s7.08-21.4,18.66-21.4c12.93,0,16.32,11.35,16.32,18.65a17.53,17.53,0,0,1-.25,3.38Zm21.11-5.19c.07-4.54-1.86-11.67-10-11.67-7.36,0-10.49,6.65-11.07,11.67Z"/><path class="cls-1" d="M283.73,595.31a19.77,19.77,0,0,0,9.56,2.82c5.27,0,7.71-2.59,7.71-5.91s-2.1-5.28-7.37-7.26c-7.16-2.59-10.56-6.49-10.54-11.24,0-6.39,5.19-11.63,13.72-11.63a19.12,19.12,0,0,1,9.71,2.44l-1.79,5.24a15.54,15.54,0,0,0-8.13-2.33c-4.26,0-6.57,2.45-6.57,5.44,0,3.28,2.33,4.75,7.53,6.76,6.83,2.55,10.38,6,10.4,11.92,0,7-5.46,12-14.83,12A22.67,22.67,0,0,1,282,600.75Z"/><path class="cls-1" d="M325,551.58V563h10.36v5.47H325v21.37c0,4.94,1.42,7.73,5.46,7.73a14.38,14.38,0,0,0,4.17-.52l.33,5.48a18.44,18.44,0,0,1-6.44,1,10.07,10.07,0,0,1-7.78-3c-2-2.19-2.8-5.69-2.8-10.35V568.46h-6.15V563h6.15v-9.55Z"/><path class="cls-1" d="M350.62,551.78a4.47,4.47,0,1,1-4.45-4.49A4.34,4.34,0,0,1,350.62,551.78Zm-8.06,50.87V563h7.18v39.66Z"/><path class="cls-1" d="M396.75,582.48c0,14.67-10.16,21.07-19.76,21.07-10.74,0-19-7.87-19-20.42,0-13.28,8.69-21.07,19.68-21.07C389.05,562.06,396.75,570.34,396.75,582.48Zm-31.48.41c0,8.69,5,15.25,12.05,15.25,6.89,0,12.05-6.48,12.05-15.42,0-6.72-3.36-15.25-11.89-15.25S365.27,575.34,365.27,582.89Zm22.87-37.07-10,11.73H373l7.22-11.73Z"/><path class="cls-1" d="M405,573.7c0-4.1-.08-7.46-.32-10.74H411l.41,6.56h.17a14.59,14.59,0,0,1,13.12-7.46c5.49,0,14,3.28,14,16.89v23.7h-7.22V579.77c0-6.4-2.38-11.73-9.18-11.73a10.26,10.26,0,0,0-9.68,7.38,10.41,10.41,0,0,0-.49,3.37v23.86H405Z"/><path class="cls-1" d="M500.32,544.43v48c0,3.52.08,7.54.33,10.25h-6.48l-.33-6.89h-.16c-2.22,4.43-7.06,7.79-13.53,7.79-9.6,0-17-8.12-17-20.17-.08-13.2,8.12-21.32,17.8-21.32,6.06,0,10.16,2.87,12,6.07h.16v-23.7Zm-7.22,34.68a12.51,12.51,0,0,0-.33-3,10.6,10.6,0,0,0-10.41-8.36c-7.46,0-11.89,6.56-11.89,15.33,0,8,3.94,14.68,11.73,14.68a10.85,10.85,0,0,0,10.57-8.61,12.4,12.4,0,0,0,.33-3.12Z"/><path class="cls-1" d="M515.41,584.12c.16,9.75,6.39,13.77,13.61,13.77a26.11,26.11,0,0,0,11-2l1.23,5.17A32.16,32.16,0,0,1,528,603.47c-12.21,0-19.51-8-19.51-20s7.05-21.4,18.61-21.4c13,0,16.4,11.4,16.4,18.69a28,28,0,0,1-.24,3.37ZM536.56,579c.08-4.59-1.88-11.73-10-11.73-7.3,0-10.5,6.73-11.07,11.73Z"/><path class="cls-1" d="M551.57,544.43h7.21v58.22h-7.21Z"/><path class="cls-1" d="M268.22,683.84c-2.62,1.32-7.87,2.63-14.6,2.63-15.58,0-27.3-9.84-27.3-28,0-17.31,11.72-29,28.86-29,6.89,0,11.24,1.47,13.12,2.46l-1.72,5.82a26,26,0,0,0-11.15-2.3c-13,0-21.57,8.29-21.57,22.8,0,13.53,7.79,22.22,21.24,22.22a28.59,28.59,0,0,0,11.64-2.29Z"/><path class="cls-1" d="M308.24,674.82c0,4.1.08,7.71.32,10.83h-6.39l-.41-6.48h-.17a14.91,14.91,0,0,1-13.12,7.38c-6.23,0-13.69-3.44-13.69-17.38V646H282v22c0,7.54,2.29,12.62,8.85,12.62A10.16,10.16,0,0,0,301,670.31V646h7.22Z"/><path class="cls-1" d="M319.31,658.34c0-4.67-.09-8.69-.33-12.38h6.31l.25,7.79h.33c1.8-5.33,6.15-8.69,11-8.69a8,8,0,0,1,2,.24v6.81a11,11,0,0,0-2.46-.25c-5.08,0-8.69,3.86-9.67,9.27a19.61,19.61,0,0,0-.33,3.36v21.16h-7.13Z"/><path class="cls-1" d="M345.54,658.34c0-4.67-.08-8.69-.32-12.38h6.31l.25,7.79h.32c1.81-5.33,6.15-8.69,11-8.69a8,8,0,0,1,2.05.24v6.81a11,11,0,0,0-2.46-.25c-5.08,0-8.69,3.86-9.67,9.27a19.61,19.61,0,0,0-.33,3.36v21.16h-7.14Z"/><path class="cls-1" d="M386.46,628.82l-10,11.73h-5.17l7.22-11.73Zm-14.68,56.83V646H379v39.69Z"/><path class="cls-1" d="M418.36,684.17a26.5,26.5,0,0,1-11.4,2.3c-12,0-19.76-8.12-19.76-20.26s8.36-21.07,21.32-21.07a24.15,24.15,0,0,1,10,2.05l-1.64,5.58a16.63,16.63,0,0,0-8.36-1.89c-9.1,0-14,6.72-14,15,0,9.18,5.9,14.84,13.77,14.84a20.55,20.55,0,0,0,8.86-2Z"/><path class="cls-1" d="M459.11,674.82c0,4.1.09,7.71.33,10.83h-6.39l-.41-6.48h-.17a14.92,14.92,0,0,1-13.12,7.38c-6.23,0-13.69-3.44-13.69-17.38V646h7.21v22c0,7.54,2.3,12.62,8.86,12.62a10.16,10.16,0,0,0,10.17-10.25V646h7.21Z"/><path class="cls-1" d="M470.18,627.43h7.22v58.22h-7.22Z"/><path class="cls-1" d="M524.55,665.48c0,14.67-10.17,21.07-19.76,21.07-10.75,0-19-7.87-19-20.42,0-13.28,8.7-21.07,19.68-21.07C516.84,645.06,524.55,653.34,524.55,665.48Zm-31.49.41c0,8.69,5,15.25,12.06,15.25,6.88,0,12-6.48,12-15.42,0-6.72-3.36-15.25-11.89-15.25S493.06,658.34,493.06,665.89Z"/><rect class="cls-2" x="238.77" y="117" width="30" height="332"/><polygon class="cls-3" points="387 456.3 224.87 456.3 224.87 112.7 502.31 112.7 502.31 296.12 488.86 296.12 488.86 126.15 238.32 126.15 238.32 442.85 387 442.85 387 456.3"/><rect class="cls-4" x="400.51" y="170.92" width="58.26" height="13.45"/><rect class="cls-4" x="400.51" y="205.71" width="58.26" height="13.45"/><rect class="cls-4" x="400.51" y="240.5" width="58.26" height="13.45"/><path class="cls-5" d="M457,456.3a73.13,73.13,0,1,1,73.13-73.13A73.22,73.22,0,0,1,457,456.3Zm0-132.81a59.68,59.68,0,1,0,59.67,59.68A59.74,59.74,0,0,0,457,323.49Z"/><polygon class="cls-5" points="486.32 389.89 450.27 389.89 450.27 353.85 463.72 353.85 463.72 376.44 486.32 376.44 486.32 389.89"/><path class="cls-4" d="M315.5,215.57A29.48,29.48,0,1,1,345,186.09,29.51,29.51,0,0,1,315.5,215.57Zm0-45.51a16,16,0,1,0,16,16A16,16,0,0,0,315.5,170.06Z"/><path class="cls-4" d="M361.94,248.56H348.49a33,33,0,1,0-66,0H269.06a46.44,46.44,0,0,1,92.88,0Z"/><rect class="cls-4" x="269" y="285.29" width="94.44" height="13.45"/><rect class="cls-4" x="269" y="320.08" width="94.44" height="13.45"/></svg>