<svg id="Capa_1" data-name="Capa 1" xmlns="http://www.w3.org/2000/svg" viewBox="0 0 755 755"><defs><style>.cls-1{fill:#606060;}.cls-2,.cls-3{fill:#2f84c6;}.cls-3{opacity:0.2;isolation:isolate;}.cls-4{fill:#193651;}</style></defs><title>Gdeinteres</title><path class="cls-1" d="M250.5,600.17a50.35,50.35,0,0,1-17,3c-8.38,0-15.29-2.12-20.67-7.3-4.76-4.59-7.69-11.92-7.68-20.52,0-16.49,11.36-28.55,29.88-28.55a34.78,34.78,0,0,1,13.82,2.53l-1.78,5.82a28.17,28.17,0,0,0-12.21-2.36c-13.41,0-22.2,8.34-22.2,22.19s8.4,22.29,21.34,22.29c4.66,0,7.83-.65,9.48-1.49V579.35H232.3v-5.71h18.2Z"/><path class="cls-1" d="M260.39,575.34c0-4.68-.12-8.67-.33-12.35h6.32l.28,7.78h.25c1.85-5.32,6.23-8.68,11-8.68a8.37,8.37,0,0,1,2,.2v6.79a11.07,11.07,0,0,0-2.45-.21c-5.08,0-8.68,3.83-9.66,9.22a19.86,19.86,0,0,0-.29,3.37v21.19h-7.17Z"/><path class="cls-1" d="M319.31,591.79c0,4.16.14,7.72.33,10.86h-6.37l-.39-6.49h-.2a14.82,14.82,0,0,1-13.13,7.39c-6.2,0-13.65-3.48-13.65-17.38V563h7.17V584.9c0,7.56,2.36,12.7,8.87,12.7a10.49,10.49,0,0,0,9.54-6.62,11.21,11.21,0,0,0,.65-3.7V563h7.18Z"/><path class="cls-1" d="M330.42,575.91c0-5.06-.14-9.18-.33-12.92h6.44l.4,6.76h.16c2.89-4.84,7.64-7.66,14.08-7.66,9.6,0,16.83,8.09,16.83,20.12,0,14.3-8.74,21.34-18,21.34-5.3,0-9.86-2.31-12.22-6.25h-.17v21.58h-7.16Zm7.16,10.6a13.29,13.29,0,0,0,.32,2.93,11.08,11.08,0,0,0,10.78,8.46c7.65,0,12.06-6.27,12.06-15.36,0-7.92-4.15-14.72-11.78-14.72a11.45,11.45,0,0,0-10.91,8.9,12.27,12.27,0,0,0-.47,2.93Z"/><path class="cls-1" d="M412.16,582.44c0,14.68-10.19,21.11-19.72,21.11-10.76,0-19.06-7.84-19.06-20.43,0-13.27,8.72-21,19.69-21C404.47,562.09,412.16,570.36,412.16,582.44Zm-31.44.46c0,8.7,5,15.25,12,15.25s12.08-6.46,12.08-15.47c0-6.7-3.38-15.19-11.95-15.19S380.72,575.38,380.72,582.9Z"/><path class="cls-1" d="M419.36,595.31a19.73,19.73,0,0,0,9.56,2.82c5.27,0,7.71-2.59,7.71-5.91s-2.1-5.28-7.37-7.26c-7.17-2.59-10.56-6.49-10.54-11.24,0-6.39,5.19-11.63,13.72-11.63a19.15,19.15,0,0,1,9.71,2.44l-1.79,5.24a15.58,15.58,0,0,0-8.14-2.33c-4.25,0-6.57,2.45-6.57,5.44,0,3.28,2.33,4.75,7.53,6.76,6.84,2.55,10.39,6,10.41,11.92,0,7-5.46,12-14.83,12a22.61,22.61,0,0,1-11.15-2.76Z"/><path class="cls-1" d="M502.66,544.43v48c0,3.53.13,7.49.33,10.23h-6.42l-.36-6.86H496c-2.21,4.43-7,7.76-13.46,7.76-9.61,0-17-8.12-17-20.15-.06-13.25,8.17-21.31,17.82-21.31,6.09,0,10.19,2.85,12,6h.16V544.43Zm-7.17,34.7a15.48,15.48,0,0,0-.3-3.09,10.67,10.67,0,0,0-10.45-8.29c-7.47,0-11.93,6.55-11.93,15.26,0,8,4,14.74,11.79,14.74a10.88,10.88,0,0,0,10.53-8.66,11.6,11.6,0,0,0,.36-3.09Z"/><path class="cls-1" d="M517.81,584.12c.15,9.75,6.33,13.77,13.57,13.77a26.79,26.79,0,0,0,11-2l1.26,5.12a32,32,0,0,1-13.23,2.53c-12.18,0-19.51-8.12-19.51-20s7.08-21.4,18.66-21.4c12.94,0,16.32,11.35,16.32,18.65a17.53,17.53,0,0,1-.25,3.38Zm21.11-5.19c.07-4.54-1.86-11.67-9.95-11.67-7.36,0-10.49,6.65-11.07,11.67Z"/><path class="cls-1" d="M274.76,630.38v55.27h-7.18V630.38Z"/><path class="cls-1" d="M286.89,656.7c0-4.14-.14-7.42-.33-10.71h6.37l.4,6.52h.2a14.64,14.64,0,0,1,13.11-7.42c5.45,0,14,3.28,14,16.9v23.66h-7.18V662.78c0-6.41-2.41-11.78-9.16-11.78a10.38,10.38,0,0,0-9.72,7.4,11.24,11.24,0,0,0-.5,3.35v23.9h-7.17Z"/><path class="cls-1" d="M339.82,634.58V646h10.36v5.47H339.82v21.37c0,4.94,1.42,7.73,5.46,7.73a14.46,14.46,0,0,0,4.18-.52l.32,5.48a18.44,18.44,0,0,1-6.44,1,10.07,10.07,0,0,1-7.78-3c-2-2.19-2.8-5.69-2.8-10.35V651.46h-6.15V646h6.15v-9.55Z"/><path class="cls-1" d="M361,667.12c.14,9.75,6.33,13.77,13.57,13.77a26.73,26.73,0,0,0,11-2l1.27,5.12a32,32,0,0,1-13.23,2.53c-12.19,0-19.52-8.12-19.52-20s7.08-21.4,18.66-21.4c12.94,0,16.32,11.35,16.32,18.65a17.7,17.7,0,0,1-.24,3.38Zm21.11-5.19c.07-4.54-1.86-11.67-9.95-11.67-7.36,0-10.5,6.65-11.07,11.67Z"/><path class="cls-1" d="M397.08,658.34c0-4.68-.12-8.67-.33-12.35h6.32l.28,7.78h.25c1.86-5.32,6.23-8.68,11-8.68a8.37,8.37,0,0,1,2,.2v6.79a11.07,11.07,0,0,0-2.45-.21c-5.08,0-8.67,3.83-9.65,9.22a18.86,18.86,0,0,0-.3,3.37v21.19h-7.17Z"/><path class="cls-1" d="M427,667.12c.16,9.75,6.4,13.77,13.61,13.77a26.07,26.07,0,0,0,11-2l1.23,5.17a32.11,32.11,0,0,1-13.2,2.46c-12.22,0-19.52-8-19.52-20s7.05-21.4,18.62-21.4c12.95,0,16.4,11.4,16.4,18.69a27.57,27.57,0,0,1-.25,3.37ZM448.17,662c.08-4.59-1.89-11.73-10-11.73-7.3,0-10.49,6.73-11.07,11.73Zm1.72-33.13-10,11.73h-5.16l7.21-11.73Z"/><path class="cls-1" d="M462.19,678.27a18.93,18.93,0,0,0,9.51,2.87c5.25,0,7.71-2.63,7.71-5.91,0-3.44-2.05-5.33-7.38-7.29-7.14-2.55-10.5-6.48-10.5-11.24,0-6.39,5.17-11.64,13.7-11.64a19.81,19.81,0,0,1,9.75,2.46l-1.8,5.25a15.4,15.4,0,0,0-8.12-2.3c-4.26,0-6.64,2.46-6.64,5.41,0,3.28,2.38,4.76,7.54,6.73,6.89,2.62,10.42,6.06,10.42,12,0,7-5.41,11.89-14.84,11.89a22.66,22.66,0,0,1-11.16-2.71Z"/><rect class="cls-2" x="205" y="205" width="34" height="173"/><path class="cls-3" d="M377.64,261.58,489,373S494,384,508,368.44s-3.16-30.1-3.16-30.1l-64.62-67-46.9-18.43Z"/><polygon class="cls-3" points="410.32 205 515 301.8 515 246 451.19 195.5 410.32 205"/><polygon class="cls-4" points="247.31 387.77 205.27 387.77 205.27 373.77 233.31 373.77 233.31 211.46 205.27 211.46 205.27 197.46 247.31 197.46 247.31 387.77"/><polygon class="cls-4" points="550 387.77 507.96 387.77 507.96 197.46 550 197.46 550 211.46 521.96 211.46 521.96 373.77 550 373.77 550 387.77"/><polygon class="cls-4" points="510.59 252.87 450.77 205.02 303.61 225.26 269.29 252.14 240.31 252.14 240.31 238.14 264.46 238.14 297.95 211.91 454.82 190.33 519.34 241.94 510.59 252.87"/><path class="cls-4" d="M510,357.12,431,276,392.2,262c-5.08,4-15.4,8.85-36.26,11.13-20.26,2.22-31.43-3.73-37.24-9.11a14.55,14.55,0,0,1,.07-21.39l41.34-38,9.48,10.3-41.34,38a.55.55,0,0,0-.2.43.49.49,0,0,0,.16.38c3.68,3.4,11.21,7.11,26.2,5.47,22.73-2.49,28.95-7.92,29.87-8.87l2.48-5.21,52,18.81L520,347.35Z"/><path class="cls-4" d="M267.44,368.33a28,28,0,0,1-19.82-47.85L258.09,310a28,28,0,1,1,39.64,39.64l-10.47,10.47A27.89,27.89,0,0,1,267.44,368.33Zm10.47-52.53a13.93,13.93,0,0,0-9.92,4.11l-10.47,10.47a14,14,0,1,0,19.84,19.84l10.47-10.47a14,14,0,0,0-9.92-23.95Z"/><path class="cls-4" d="M300.14,395.1a28,28,0,0,1-19.82-47.85l28.55-28.54a27.85,27.85,0,0,1,19.81-8.21h0a28,28,0,0,1,19.82,47.84L320,386.89A27.87,27.87,0,0,1,300.14,395.1Zm28.54-70.6a13.91,13.91,0,0,0-9.91,4.11l-28.55,28.54A14,14,0,1,0,310.06,377l28.54-28.54a14,14,0,0,0-9.92-23.95Z"/><path class="cls-4" d="M368.17,436.5a24.08,24.08,0,0,1-17-41.11l23.92-23.91a24.08,24.08,0,1,1,34.05,34L385.2,429.45A23.93,23.93,0,0,1,368.17,436.5Zm23.92-58.08a10,10,0,0,0-7.13,2.95L361,405.29a10.08,10.08,0,0,0,14.26,14.26l23.91-23.92a10.08,10.08,0,0,0-7.12-17.21Z"/><path class="cls-4" d="M332.91,421.79A28,28,0,0,1,313.1,374l32.35-32.36a28,28,0,1,1,39.64,39.64l-32.36,32.36A27.84,27.84,0,0,1,332.91,421.79Zm32.36-74.41a13.93,13.93,0,0,0-9.92,4.11L323,383.85a14,14,0,0,0,19.83,19.84l32.36-32.36a14,14,0,0,0-9.92-23.95Z"/><path class="cls-4" d="M459.63,411.3a28.09,28.09,0,0,1-20-8.28l-37.47-37.46,9.9-9.9,37.47,37.47A14.27,14.27,0,0,0,469.72,373l-37.47-37.47,9.9-9.9,37.47,37.47a28.27,28.27,0,0,1-20,48.25Z"/><path class="cls-4" d="M491.93,383.74a26.86,26.86,0,0,1-19.12-7.92l-35.3-35.3,9.9-9.9,35.3,35.3a13,13,0,0,0,18.45-18.44l9.89-9.9a27,27,0,0,1-19.12,46.16Z"/><path class="cls-4" d="M424.63,421.28a26.84,26.84,0,0,1-19.12-7.92l-5.79-5.79,9.9-9.9,5.79,5.79a13,13,0,0,0,22-6.75l13.75,2.63a27.05,27.05,0,0,1-26.56,21.94Z"/></svg>