<?xml version="1.0" encoding="utf-8"?>
<!-- Generator: Adobe Illustrator 23.0.1, SVG Export Plug-In . SVG Version: 6.00 Build 0)  -->
<svg version="1.1" id="Layer_1" xmlns="http://www.w3.org/2000/svg" xmlns:xlink="http://www.w3.org/1999/xlink" x="0px" y="0px"
	 viewBox="0 0 750 750" style="enable-background:new 0 0 750 750;" xml:space="preserve">
<style type="text/css">
	.st0{fill:#AA811A;}
	.st1{fill:#7C5806;}
	.st2{fill:#E6E6E6;}
	.st3{fill:#606060;}
	.st4{fill:#FFFFFF;}
	.st5{opacity:0.6;fill:#BBBBBC;}
	.st6{fill:#6E6C71;}
</style>
<title>Artboard 47 copy 9</title>
<rect x="239.6" y="379.5" class="st0" width="280.7" height="10.5"/>
<path class="st1" d="M382.6,147.6c-0.2,0-0.4,0-0.6,0.1h-0.3h-101c-2.9-0.1-5.4,2.2-5.6,5.1c-0.1,2.9,2.2,5.4,5.1,5.6
	c0.2,0,0.3,0,0.5,0h96.6v37.9c0,2.9,2.4,5.3,5.3,5.3c2.9,0,5.3-2.4,5.3-5.3v-43.3C388,150,385.6,147.6,382.6,147.6
	C382.7,147.6,382.6,147.6,382.6,147.6z"/>
<path class="st1" d="M395.9,152.9L395.9,152.9c0-3,2.4-5.4,5.3-5.4l0,0c2.9,0,5.3,2.4,5.3,5.3v0c0,2.9-2.4,5.3-5.3,5.3l0,0
	C398.3,158.2,395.9,155.8,395.9,152.9z"/>
<path class="st1" d="M417.3,152.9L417.3,152.9c0-3,2.4-5.4,5.3-5.4l0,0c2.9,0,5.3,2.4,5.3,5.3v0c0,2.9-2.4,5.3-5.3,5.3l0,0
	C419.6,158.2,417.3,155.8,417.3,152.9z"/>
<path class="st1" d="M438.5,153.1L438.5,153.1c0-3,2.4-5.4,5.3-5.4l0,0c2.9,0,5.3,2.4,5.3,5.3v0c0,2.9-2.4,5.3-5.3,5.3l0,0
	C440.9,158.4,438.5,156,438.5,153.1z"/>
<path class="st1" d="M459.9,152.8L459.9,152.8c0-3,2.4-5.4,5.3-5.4l0,0c2.9,0,5.3,2.4,5.3,5.3v0c0,2.9-2.4,5.3-5.3,5.3l0,0
	C462.3,158.1,459.9,155.7,459.9,152.8z"/>
<path class="st1" d="M481.2,152.5L481.2,152.5c0-3,2.4-5.4,5.3-5.4l0,0c2.9,0,5.3,2.4,5.3,5.3v0c0,2.9-2.4,5.3-5.3,5.3l0,0
	C483.6,157.8,481.2,155.4,481.2,152.5z"/>
<path class="st2" d="M467.2,321.9H293.9c-2-0.1-3.5-1.7-3.4-3.7c0-0.1,0-0.1,0-0.2l5.4-105.9c0-1.9,1.6-3.4,3.5-3.4h162.5
	c1.9,0,3.4,1.6,3.5,3.4l5.4,105.9c0.2,2-1.3,3.7-3.3,3.8C467.3,321.9,467.3,321.9,467.2,321.9z"/>
<path class="st0" d="M250.1,411.9c0,0-20.8,1-16.8-12.7c2.1-7.8,8.7-13.6,16.8-14.4h266.5c0,0,12.7,10.4,10.7,18.5
	s-6.9,10.7-6.9,10.7L250.1,411.9z"/>
<path class="st0" d="M395.9,196.1c0-2.9,2.3-5.3,5.2-5.3c0,0,0,0,0,0h73.7c5.8,0,10.5,4.6,10.7,10.3l4.8,124.7
	c0.3,3.4,1.3,6.7,3.1,9.6l35.6,53.1c2.4,4,3.5,8.6,2.9,13.3l-0.9,5.5c-1,5.5-5.8,9.5-11.3,9.5H240.1c-5.6-0.1-10.3-4.1-11.4-9.5
	l-0.9-5.5c-0.6-4.6,0.4-9.3,2.9-13.3l35.6-53.1c1.8-2.9,2.9-6.2,3.1-9.6l4.8-124.7c0.3-5.8,5-10.3,10.7-10.3h77.4
	c2.9,0,5.3,2.3,5.4,5.3c0,2.9-2.3,5.3-5.3,5.4l0,0l-72.5,0.1c-2.9,0.1-5.3,2.4-5.4,5.3l-4.5,115.4c-0.1,2.8,2,5.1,4.7,5.2
	c0.1,0,0.2,0,0.3,0h189.6c2.8,0,5-2.2,5-5c0-0.1,0-0.2,0-0.3l-4.6-115.6c-0.1-2.9-2.6-5.3-5.5-5.3l-68.4,0.1
	C398.3,201.3,395.9,199,395.9,196.1z M477.3,338H282.5c-3.2,0.2-6.2,1.7-8.2,4.3l-34.8,52.1c-1,1.7-1.4,3.7-1.2,5.7l0.9,5.4
	c0.2,0.4,0.5,0.7,0.9,0.8h279.6c0.4-0.1,0.8-0.4,0.9-0.8l0.9-5.4c0.2-2-0.3-4-1.2-5.7l-34.8-52.1C483.6,339.7,480.6,338.2,477.3,338
	z"/>
<g>
	<path class="st3" d="M212,598.4h-6.3v-55.7h6.3V598.4z"/>
	<path class="st3" d="M248.8,598.4v-23.1c0-8.3-2.5-12.3-9.2-12.3c-4.4,0-8.5,2.7-10.6,7.2v28.2h-6v-39.8h6v5.1
		c2.5-3.7,6.8-6,12.3-6c8.8,0,13.5,6.2,13.5,16.4v24.3H248.8z"/>
	<path class="st3" d="M289.1,594.1c-2.1,3.2-6.1,5.3-11.3,5.3c-9.4,0-14.5-7.1-14.5-16.7v-8.3c0-9.6,5.1-16.7,14.5-16.7
		c5.2,0,9.1,2.1,11.3,5.3v-21.2h6v56.6h-6V594.1z M269.3,581.6c0,8.2,3.2,12.5,10.1,12.5c4.5,0,7.8-2.6,9.7-6.4v-18.1
		c-1.9-3.8-5.3-6.4-9.7-6.4c-6.9,0-10.1,4.3-10.1,12.5V581.6z"/>
	<path class="st3" d="M306,541.8h6v7.3h-6V541.8z M306,558.7h6v39.8h-6V558.7z"/>
	<path class="st3" d="M321.7,574.4c0-9.1,6.6-16.7,16.5-16.7c8.4,0,14,5.4,15.8,12.5l-6,1c-1.2-5.3-4.9-8.2-9.8-8.2
		c-6,0-10.5,4.6-10.5,12.5v6c0,7.9,4.5,12.5,10.5,12.5c4.9,0,8.6-2.9,9.8-8.2l6,1c-1.8,7.1-7.3,12.5-15.8,12.5
		c-9.9,0-16.5-7.6-16.5-16.7V574.4z"/>
	<path class="st3" d="M367.5,569l-5.9-1.6c2.9-5.8,8.4-9.7,15.7-9.7c9.3,0,15,6.2,15,15.2v25.5h-6v-4.9c-2.5,3.5-6.8,5.8-12.6,5.8
		c-8.3,0-13.4-4.8-13.4-11.1v-1c0-6,4.3-11.7,16.5-11.7h9.5v-2c0-7.2-3.5-10.6-9.2-10.6C372.8,563,369.5,565.4,367.5,569z
		 M386.3,587.6v-7.2H375c-5.6,0-8.8,3-8.8,6.9v0.4c0,3.6,2.9,6.3,8.4,6.3C379.7,594.1,383.8,591.9,386.3,587.6z"/>
	<path class="st3" d="M426.7,594.1c-2.1,3.2-6.1,5.3-11.3,5.3c-9.4,0-14.5-7.1-14.5-16.7v-8.3c0-9.6,5.1-16.7,14.5-16.7
		c5.2,0,9.1,2.1,11.3,5.3v-21.2h6v56.6h-6V594.1z M406.9,581.6c0,8.2,3.2,12.5,10.1,12.5c4.5,0,7.8-2.6,9.7-6.4v-18.1
		c-1.9-3.8-5.3-6.4-9.7-6.4c-6.9,0-10.1,4.3-10.1,12.5V581.6z"/>
	<path class="st3" d="M441.6,574.4c0-9.1,6.6-16.7,16.5-16.7c9.9,0,16.5,7.6,16.5,16.7v8.3c0,9.1-6.6,16.7-16.5,16.7
		c-9.9,0-16.5-7.6-16.5-16.7V574.4z M468.6,575.5c0-7.9-4.5-12.5-10.5-12.5c-6,0-10.5,4.6-10.5,12.5v6c0,7.9,4.5,12.5,10.5,12.5
		c6,0,10.5-4.6,10.5-12.5V575.5z"/>
	<path class="st3" d="M506.1,564c-1.8-0.6-3.5-1-5.6-1c-4.5,0-8.6,2.5-11.1,6.8v28.6h-6v-39.8h6v5c2.4-3.4,6.5-6,11.8-6
		c1.8,0,3.5,0.3,4.9,1V564z"/>
	<path class="st3" d="M510.5,582.7v-8.3c0-9.1,6.6-16.7,16.5-16.7c9.9,0,16.5,7.6,16.5,16.7v6.4h-27v0.8c0,7.9,4.5,12.5,10.5,12.5
		c4.7,0,8.2-2.5,9.5-6.8l6.1,1c-2.1,6.7-7.6,11.1-15.7,11.1C517.1,599.4,510.5,591.8,510.5,582.7z M516.5,575.9h21v-0.4
		c0-7.9-4.5-12.5-10.5-12.5c-6,0-10.5,4.6-10.5,12.5V575.9z"/>
	<path class="st3" d="M565.4,557.7c7.9,0,13.4,4.1,15.5,11.1l-6.1,1c-1-4.1-4.4-6.8-9.3-6.8c-4.9,0-7.7,2.4-7.7,5.9
		c0,3.7,2.8,5.6,7.9,6.4l3.9,0.6c9,1.4,12.3,5.4,12.3,11.7c0,6.9-5.4,11.8-14.3,11.8c-8.4,0-14.5-4.2-16.7-12l6-1.1
		c1.6,5.3,5.7,7.8,10.7,7.8c5.3,0,8.4-2.7,8.4-6.4c0-3.9-2.8-5.7-7.9-6.5l-3.9-0.6c-9.2-1.5-12.3-5.6-12.3-11.6
		C551.8,562.2,557.3,557.7,565.4,557.7z"/>
</g>
<polygon class="st1" points="339,250.6 320.4,250.6 315.4,321.9 335.5,321.9 "/>
<polygon class="st1" points="373.3,242.3 354.9,242.3 352.4,321.9 372.6,321.9 "/>
<polygon class="st1" points="407.5,250.6 388.9,250.6 389.5,321.9 409.6,321.9 "/>
<polygon class="st1" points="442.7,265 423.8,265 426.6,321.9 446.7,321.9 "/>
<polygon class="st4" points="365.4,295 365.4,234.6 411.5,273.7 384,272.9 "/>
<g>
	<polygon class="st5" points="374.2,237.2 374.1,313.8 397,286.3 432.8,286.5 	"/>
	<path class="st6" d="M362,227.1v76.6l22.9-27.5l35.7,0.1L362,227.1z M382,270.1l-13.9,16.7v-46.7l35.7,30L382,270.1z"/>
</g>
</svg>
