<svg id="Layer_1" data-name="Layer 1" xmlns="http://www.w3.org/2000/svg" viewBox="0 0 750 750"><defs><style>.cls-1{fill:#606060;}.cls-2{fill:#266cb4;}.cls-3{fill:#13477e;}.cls-4{fill:#e6e6e6;}.cls-5{fill:#bbbbbc;}.cls-6{fill:#fff;}.cls-7{fill:#6e6c71;}</style></defs><title>Artboard 47 copy 9</title><path class="cls-1" d="M259,598.65h-7.11v-54H259Z"/><path class="cls-1" d="M277.46,558.5l.22,5a14.61,14.61,0,0,1,12-5.79q12.71,0,12.82,14.36v26.53h-6.85V572.08q0-4.33-2-6.42t-6.06-2.07a9.86,9.86,0,0,0-5.85,1.78,12.1,12.1,0,0,0-3.93,4.67v28.61H271V558.5Z"/><path class="cls-1" d="M322.16,548.78v9.72h7.49v5.31h-7.49v24.93a5.54,5.54,0,0,0,1,3.62,4.19,4.19,0,0,0,3.41,1.21,17,17,0,0,0,3.26-.44v5.53a20,20,0,0,1-5.26.74q-4.6,0-6.93-2.79c-1.56-1.85-2.34-4.49-2.34-7.9v-24.9H308V558.5h7.3v-9.72Z"/><path class="cls-1" d="M357,564.66a20.87,20.87,0,0,0-3.37-.26q-6.75,0-9.16,5.75v28.5h-6.86V558.5h6.68l.11,4.64a10.65,10.65,0,0,1,9.56-5.38,7,7,0,0,1,3,.52Z"/><path class="cls-1" d="M386.62,598.65a14.06,14.06,0,0,1-1-4.23,15.3,15.3,0,0,1-11.42,5,14.14,14.14,0,0,1-9.73-3.36,10.89,10.89,0,0,1-3.8-8.52,11.36,11.36,0,0,1,4.76-9.74q4.77-3.46,13.4-3.47h6.67v-3.15a7.72,7.72,0,0,0-2.15-5.74q-2.14-2.13-6.33-2.13a10,10,0,0,0-6.16,1.86,5.47,5.47,0,0,0-2.48,4.49h-6.9a9.44,9.44,0,0,1,2.14-5.81,14.5,14.5,0,0,1,5.78-4.44,19.39,19.39,0,0,1,8-1.63c4.62,0,8.25,1.16,10.86,3.47a12.53,12.53,0,0,1,4.08,9.56v18.48a22.6,22.6,0,0,0,1.41,8.79v.59Zm-11.38-5.23a12,12,0,0,0,6.12-1.67,10.07,10.07,0,0,0,4.18-4.34v-8.24h-5.37q-12.6,0-12.6,7.39a6.22,6.22,0,0,0,2.15,5A8.2,8.2,0,0,0,375.24,593.42Z"/><path class="cls-1" d="M409.64,558.5l.22,5a14.61,14.61,0,0,1,12-5.79q12.72,0,12.83,14.36v26.53h-6.86V572.08q0-4.33-2-6.42t-6.07-2.07a9.86,9.86,0,0,0-5.85,1.78A12.1,12.1,0,0,0,410,570v28.61h-6.86V558.5Z"/><path class="cls-1" d="M461.68,599.4A17.5,17.5,0,0,1,448.41,594q-5.12-5.35-5.12-14.34v-1.26a24.13,24.13,0,0,1,2.28-10.67,17.82,17.82,0,0,1,6.38-7.35,16.09,16.09,0,0,1,8.88-2.65q7.82,0,12.16,5.16t4.33,14.77v2.86H450.15a14.31,14.31,0,0,0,3.47,9.59,10.87,10.87,0,0,0,8.43,3.65,11.92,11.92,0,0,0,6.15-1.48,15.54,15.54,0,0,0,4.42-3.93l4.18,3.26Q471.76,599.4,461.68,599.4Zm-.85-36a9.14,9.14,0,0,0-7,3,14.63,14.63,0,0,0-3.48,8.47h20.09v-.51c-.2-3.49-1.14-6.2-2.82-8.11A8.61,8.61,0,0,0,460.83,563.4Z"/><path class="cls-1" d="M494.56,548.78v9.72h7.49v5.31h-7.49v24.93a5.54,5.54,0,0,0,1,3.62,4.19,4.19,0,0,0,3.41,1.21,17,17,0,0,0,3.26-.44v5.53a20,20,0,0,1-5.26.74q-4.61,0-6.93-2.79c-1.56-1.85-2.34-4.49-2.34-7.9v-24.9h-7.3V558.5h7.3v-9.72Z"/><rect class="cls-2" x="239.57" y="379.49" width="280.69" height="10.51"/><path class="cls-3" d="M382.62,147.57a5.9,5.9,0,0,0-.59.06l-.31,0h-101a5.34,5.34,0,1,0,0,10.67h96.59v37.94a5.33,5.33,0,1,0,10.66,0v-43.3A5.33,5.33,0,0,0,382.62,147.57Z"/><rect class="cls-3" x="395.92" y="147.56" width="10.68" height="10.66" rx="5.33" ry="5.33" transform="translate(248.37 554.15) rotate(-90)"/><rect class="cls-3" x="417.25" y="147.56" width="10.68" height="10.66" rx="5.33" ry="5.33" transform="translate(269.7 575.48) rotate(-90)"/><rect class="cls-3" x="438.54" y="147.75" width="10.68" height="10.66" rx="5.33" ry="5.33" transform="translate(290.79 596.96) rotate(-90)"/><rect class="cls-3" x="459.87" y="147.46" width="10.68" height="10.66" rx="5.33" ry="5.33" transform="translate(312.41 617.99) rotate(-90)"/><rect class="cls-3" x="481.19" y="147.11" width="10.68" height="10.66" rx="5.33" ry="5.33" transform="translate(334.08 638.98) rotate(-90)"/><path class="cls-4" d="M467.24,321.93H293.93a3.56,3.56,0,0,1-3.44-3.83l5.4-105.87a3.53,3.53,0,0,1,3.45-3.44H461.83a3.53,3.53,0,0,1,3.45,3.44l5.4,105.87A3.56,3.56,0,0,1,467.24,321.93Z"/><path class="cls-2" d="M250.05,411.87s-20.81,1-16.75-12.7a19.51,19.51,0,0,1,16.75-14.43H516.53s12.69,10.37,10.66,18.5-6.93,10.67-6.93,10.67Z"/><polygon class="cls-5" points="374.2 237.2 374.15 313.8 397.04 286.32 432.78 286.47 374.2 237.2"/><polygon class="cls-6" points="365.42 295.05 365.42 234.64 411.48 273.7 383.97 272.94 365.42 295.05"/><path class="cls-7" d="M362,227.06v76.6l22.87-27.49,35.74.13Zm20,43L368.13,286.8V240.14l35.7,30Zm0,0"/><path class="cls-2" d="M395.93,196.06a5.27,5.27,0,0,1,5.29-5.29H474.9a10.82,10.82,0,0,1,10.74,10.33l4.81,124.67a21.82,21.82,0,0,0,3.13,9.62l35.56,53.15A20.34,20.34,0,0,1,532,401.81l-.91,5.45a11.66,11.66,0,0,1-11.35,9.55H240.1a11.7,11.7,0,0,1-11.35-9.55l-.91-5.45a20.31,20.31,0,0,1,2.85-13.27l35.56-53.15a21.83,21.83,0,0,0,3.13-9.62l4.81-124.67a10.8,10.8,0,0,1,10.74-10.33h77.41a5.31,5.31,0,0,1,.1,10.62l-72.51.11a5.52,5.52,0,0,0-5.4,5.26L280.08,322.2a5,5,0,0,0,5,5.25H474.71a5,5,0,0,0,5-5.26l-4.63-115.64a5.51,5.51,0,0,0-5.51-5.26l-68.39.05A5.27,5.27,0,0,1,395.93,196.06ZM477.33,338H282.5a10.89,10.89,0,0,0-8.19,4.34l-34.84,52.07a10.22,10.22,0,0,0-1.22,5.72l.91,5.44a1.26,1.26,0,0,0,.94.77H519.73a1.19,1.19,0,0,0,.94-.77l.91-5.44a10.22,10.22,0,0,0-1.22-5.72L485.52,342.3A11,11,0,0,0,477.33,338Z"/></svg>