<svg id="Capa_1" data-name="Capa 1" xmlns="http://www.w3.org/2000/svg" viewBox="0 0 755 755"><defs><style>.cls-1{fill:#606060;}.cls-2{fill:#f7f7f7;}.cls-3{fill:#2f84c6;}.cls-4{fill:#193651;}.cls-5{fill:#a6d0ed;isolation:isolate;}</style></defs><title>Iformativa</title><path class="cls-1" d="M166.72,546.38v55.27h-7.17V546.38Z"/><path class="cls-1" d="M178.85,572.7c0-4.14-.13-7.42-.33-10.71h6.38l.4,6.52h.2a14.64,14.64,0,0,1,13.11-7.42c5.45,0,14,3.28,14,16.9v23.66h-7.17V578.78c0-6.41-2.42-11.78-9.17-11.78a10.4,10.4,0,0,0-9.72,7.4,11.59,11.59,0,0,0-.49,3.35v23.9h-7.18Z"/><path class="cls-1" d="M225.17,562,233,584.23c1.34,3.67,2.36,6.95,3.25,10.24h.21c.91-3.3,2.05-6.59,3.32-10.24L247.49,562H255l-15.6,39.66h-6.88L217.45,562Z"/><path class="cls-1" d="M264.15,583.12c.14,9.75,6.33,13.77,13.57,13.77a26.82,26.82,0,0,0,11-2L290,600a32,32,0,0,1-13.23,2.53c-12.19,0-19.51-8.12-19.51-20s7.07-21.4,18.65-21.4c12.94,0,16.33,11.35,16.33,18.65a17.53,17.53,0,0,1-.25,3.38Zm21.11-5.19c.07-4.54-1.86-11.67-9.95-11.67-7.36,0-10.5,6.65-11.07,11.67Z"/><path class="cls-1" d="M299.27,594.31a19.77,19.77,0,0,0,9.56,2.82c5.27,0,7.71-2.59,7.71-5.91s-2.1-5.28-7.37-7.26c-7.17-2.59-10.56-6.49-10.54-11.24,0-6.39,5.19-11.63,13.72-11.63a19.15,19.15,0,0,1,9.71,2.44l-1.79,5.24a15.58,15.58,0,0,0-8.14-2.33c-4.25,0-6.56,2.45-6.56,5.44,0,3.28,2.33,4.75,7.53,6.76,6.83,2.55,10.38,6,10.4,11.92,0,7-5.46,12-14.83,12a22.64,22.64,0,0,1-11.15-2.76Z"/><path class="cls-1" d="M340.52,550.58V562h10.36v5.47H340.52v21.37c0,4.94,1.42,7.73,5.45,7.73a14.46,14.46,0,0,0,4.18-.52l.33,5.48a18.44,18.44,0,0,1-6.44,1,10.1,10.1,0,0,1-7.79-3c-2-2.19-2.79-5.69-2.79-10.35V567.46h-6.15V562h6.15v-9.55Z"/><path class="cls-1" d="M366.16,550.78a4.34,4.34,0,0,1-4.59,4.48,4.3,4.3,0,0,1-4.35-4.48,4.38,4.38,0,0,1,4.49-4.49A4.32,4.32,0,0,1,366.16,550.78Zm-8.06,50.87V562h7.18v39.66Z"/><path class="cls-1" d="M410.61,562c-.2,2.8-.33,6-.33,10.85v23c0,9.18-1.88,14.68-5.67,18.16s-9.44,4.76-14.44,4.76c-4.8,0-10-1.13-13.24-3.27l1.8-5.55a22.3,22.3,0,0,0,11.68,3.18c7.36,0,12.77-3.85,12.77-13.9v-4.42H403c-2.17,3.73-6.49,6.68-12.61,6.68-9.88,0-16.9-8.41-16.9-19.4,0-13.44,8.74-21,17.9-21,6.88,0,10.61,3.54,12.37,6.84H404l.3-5.94Zm-7.5,15.6a11.3,11.3,0,0,0-.4-3.23,10.43,10.43,0,0,0-10.13-7.67c-6.88,0-11.81,5.82-11.81,15,0,7.75,4,14.28,11.74,14.28a10.57,10.57,0,0,0,10-7.44,12.87,12.87,0,0,0,.57-3.83Z"/><path class="cls-1" d="M443.31,601.65l-.63-5h-.22a14.74,14.74,0,0,1-12.13,5.91c-8,0-12.11-5.69-12.11-11.38,0-9.61,8.51-14.88,23.83-14.77v-.84c0-3.23-.91-9.2-9-9.15a19.33,19.33,0,0,0-10.33,3l-1.64-4.79a25,25,0,0,1,13.09-3.48c12.12,0,15.08,8.29,15.08,16.23v14.84a61.36,61.36,0,0,0,.6,9.49Zm-1.12-20.25c-7.8-.17-16.74,1.23-16.74,8.9,0,4.74,3.11,6.91,6.73,6.91a9.93,9.93,0,0,0,9.67-6.64,7.54,7.54,0,0,0,.34-2.27Z"/><path class="cls-1" d="M488.22,600.21a27.28,27.28,0,0,1-11.37,2.3c-12,0-19.79-8.14-19.79-20.26s8.33-21.15,21.3-21.15a23.4,23.4,0,0,1,10,2.11l-1.61,5.54a17.51,17.51,0,0,0-8.43-1.9c-9.05,0-14,6.78-14,15,0,9.19,5.91,14.85,13.81,14.85A21,21,0,0,0,487,594.8Z"/><path class="cls-1" d="M503.84,550.78a4.35,4.35,0,0,1-4.59,4.48,4.3,4.3,0,0,1-4.35-4.48,4.38,4.38,0,0,1,4.48-4.49A4.33,4.33,0,0,1,503.84,550.78Zm-8.06,50.87V562H503v39.66Z"/><path class="cls-1" d="M550,581.48c0,14.67-10.17,21.07-19.76,21.07-10.75,0-19-7.87-19-20.42,0-13.28,8.69-21.07,19.68-21.07C542.26,561.06,550,569.34,550,581.48Zm-31.49.41c0,8.69,5,15.25,12,15.25,6.89,0,12.06-6.48,12.06-15.42,0-6.72-3.36-15.25-11.89-15.25S518.48,574.34,518.48,581.89Zm22.88-37.07-10,11.73h-5.16l7.21-11.73Z"/><path class="cls-1" d="M558.17,572.7c0-4.1-.08-7.46-.33-10.74h6.4l.41,6.56h.16a14.6,14.6,0,0,1,13.12-7.46c5.49,0,14,3.28,14,16.89v23.7h-7.21V578.77c0-6.4-2.38-11.73-9.19-11.73a10.26,10.26,0,0,0-9.67,7.38,10.4,10.4,0,0,0-.5,3.37v23.86h-7.21Z"/><path class="cls-1" d="M214.3,629.38h29.77v6H221.44v18.36h20.91v5.91H221.44v25H214.3Z"/><path class="cls-1" d="M286.47,664.48c0,14.67-10.17,21.07-19.77,21.07-10.74,0-19-7.87-19-20.42,0-13.28,8.69-21.07,19.68-21.07C278.76,644.06,286.47,652.34,286.47,664.48Zm-31.49.41c0,8.69,5,15.25,12,15.25,6.89,0,12.06-6.48,12.06-15.42,0-6.72-3.37-15.25-11.89-15.25S255,657.34,255,664.89Z"/><path class="cls-1" d="M294.66,657.34c0-4.67-.08-8.69-.32-12.38h6.31l.25,7.79h.32c1.81-5.33,6.16-8.69,11-8.69a8,8,0,0,1,2.05.24v6.81a11,11,0,0,0-2.46-.25c-5.08,0-8.69,3.86-9.67,9.27a19.61,19.61,0,0,0-.33,3.36v21.16h-7.14Z"/><path class="cls-1" d="M320.9,655.7c0-4.1-.08-7.46-.32-10.74h6.31l.33,6.4h.24c2.22-3.78,5.91-7.3,12.47-7.3a11.73,11.73,0,0,1,11.23,8h.17a16.35,16.35,0,0,1,4.42-5.16,13.54,13.54,0,0,1,8.78-2.79c5.25,0,13,3.44,13,17.22v23.37h-7.06V662.18c0-7.63-2.78-12.22-8.61-12.22-4.1,0-7.29,3-8.52,6.56a11.87,11.87,0,0,0-.58,3.61v24.52h-7.05V660.87c0-6.32-2.79-10.91-8.28-10.91-4.51,0-7.79,3.61-8.94,7.22a9.89,9.89,0,0,0-.57,3.52v23.95H320.9Z"/><path class="cls-1" d="M410.37,684.65l-.58-5h-.24a14.81,14.81,0,0,1-12.14,5.9c-8,0-12.14-5.66-12.14-11.4,0-9.59,8.53-14.84,23.87-14.76v-.82c0-3.28-.91-9.18-9-9.18a19.84,19.84,0,0,0-10.34,3l-1.64-4.76a24.66,24.66,0,0,1,13-3.52c12.14,0,15.09,8.28,15.09,16.23v14.85a55.08,55.08,0,0,0,.66,9.51Zm-1.07-20.26c-7.87-.16-16.81,1.23-16.81,8.94,0,4.68,3.12,6.89,6.81,6.89a9.88,9.88,0,0,0,9.59-6.64,7.44,7.44,0,0,0,.41-2.3Z"/><path class="cls-1" d="M435.38,633.56V645h10.33v5.49H435.38v21.41c0,4.92,1.39,7.7,5.41,7.7a15.9,15.9,0,0,0,4.18-.49l.33,5.41a17.55,17.55,0,0,1-6.4,1c-3.36,0-6.07-1.07-7.79-3-2.05-2.13-2.79-5.65-2.79-10.33V650.45h-6.15V645h6.15v-9.51Z"/><path class="cls-1" d="M461,633.81a4.47,4.47,0,0,1-8.94,0,4.4,4.4,0,0,1,4.51-4.51A4.28,4.28,0,0,1,461,633.81Zm-8,50.84V645h7.22v39.69Z"/><path class="cls-1" d="M474,645l7.79,22.3a102.82,102.82,0,0,1,3.2,10.17h.24c.9-3.28,2-6.56,3.36-10.17L496.3,645h7.55l-15.58,39.69h-6.89L466.29,645Z"/><path class="cls-1" d="M531.4,684.65l-.58-5h-.24a14.81,14.81,0,0,1-12.14,5.9c-8,0-12.14-5.66-12.14-11.4,0-9.59,8.53-14.84,23.87-14.76v-.82c0-3.28-.91-9.18-9-9.18a19.84,19.84,0,0,0-10.34,3l-1.64-4.76a24.66,24.66,0,0,1,13-3.52c12.14,0,15.09,8.28,15.09,16.23v14.85a55.08,55.08,0,0,0,.66,9.51Zm-1.07-20.26c-7.87-.16-16.81,1.23-16.81,8.94,0,4.68,3.12,6.89,6.81,6.89a9.88,9.88,0,0,0,9.59-6.64,7.44,7.44,0,0,0,.41-2.3Z"/><rect class="cls-2" x="258.67" y="168" width="70" height="246"/><path class="cls-3" d="M435.15,306.94A93.86,93.86,0,1,1,529,213.08,94,94,0,0,1,435.15,306.94Zm0-173.72A79.86,79.86,0,1,0,515,213.08,80,80,0,0,0,435.15,133.22Z"/><polygon class="cls-4" points="433.76 420.21 249.26 420.21 249.26 167.69 328.67 167.69 328.67 181.69 263.26 181.69 263.26 406.21 419.76 406.21 419.76 330.98 433.76 330.98 433.76 420.21"/><rect class="cls-3" x="500.12" y="280.09" width="14" height="106.92" transform="matrix(0.86, -0.51, 0.51, 0.86, -99.29, 307.27)"/><rect class="cls-5" x="385.14" y="188.1" width="100.04" height="14"/><rect class="cls-5" x="385.14" y="224.07" width="100.04" height="14"/><polygon class="cls-4" points="391.94 455.02 214.45 455.02 214.45 209.5 228.45 209.5 228.45 441.02 391.94 441.02 391.94 455.02"/><rect class="cls-4" x="285.07" y="213.42" width="43.6" height="14"/><rect class="cls-4" x="285.07" y="249.39" width="43.6" height="14"/><rect class="cls-4" x="285.07" y="285.36" width="43.6" height="14"/><rect class="cls-4" x="285.07" y="321.33" width="112.77" height="14"/><rect class="cls-4" x="334.46" y="307.33" width="14" height="112.78" transform="translate(-25.76 701.42) rotate(-89.41)"/></svg>