<svg id="Layer_1" data-name="Layer 1" xmlns="http://www.w3.org/2000/svg" viewBox="0 0 750 750"><defs><style>.cls-1{fill:#d3e7f6;}.cls-2{fill:#f3f6fa;}.cls-3{fill:#266cb4;}.cls-4{fill:#144980;}.cls-5{fill:#606060;}</style></defs><title>Artboard 47 copy 2</title><path class="cls-1" d="M400.84,334.3H337.63a13.81,13.81,0,0,1-13.8-13.81v-5.83L337.5,290a8.4,8.4,0,0,0-1.34-10l-12.33-12.57V175.2a13.81,13.81,0,0,1,13.8-13.82h63.21Z"/><path class="cls-1" d="M425,334.3V161.38h20.36a10.2,10.2,0,0,1,10.19,10.21v152.5a10.2,10.2,0,0,1-10.19,10.21Z"/><path class="cls-2" d="M314.42,418.61s2.36-20.12-12.61-35.11-32.71-27.22-32.71-36.3-5.52-14.2,8.67-31.95,45.71-46.55,45.71-46.55,13,5.13,13.4,17-15,29.19-15,29.19,1.58,19.33,13.79,21.31,95.76.79,95.76.79v44.57s-3.6,35.11-18,37.09Z"/><path class="cls-3" d="M440.28,155.76H338.1a20.52,20.52,0,0,0-20.49,20.51v90.86l-.26.2a4.71,4.71,0,0,0-.61.51L274,310.63a36.06,36.06,0,0,0-.28,50.88l21.84,21.87a48.3,48.3,0,0,1,14.23,34.36,4.85,4.85,0,0,0,4.85,4.85H416.31a4.89,4.89,0,0,0,3.43-1.42A57.89,57.89,0,0,0,436.79,380V340.66h3.49a20.52,20.52,0,0,0,20.49-20.52V176.27A20.52,20.52,0,0,0,440.28,155.76Zm10.79,164.38A10.81,10.81,0,0,1,440.28,331h-10.8V165.47h10.8a10.8,10.8,0,0,1,10.79,10.8ZM406,331V165.47h13.77V331Zm-86.73,81.93a58.3,58.3,0,0,0-16.87-36.37l-21.84-21.86a26.34,26.34,0,0,1,.28-37.16L323.6,274.7a2.66,2.66,0,0,1,.8-.51l.07,0a3.16,3.16,0,0,1,.87-.25h.05a2.8,2.8,0,0,1,.65,0,3.21,3.21,0,0,1,.5.09l.06,0a2.13,2.13,0,0,1,.33.11,2.92,2.92,0,0,1,.87.57,18.69,18.69,0,0,1,0,26.37L296.5,332.38a4.85,4.85,0,0,0,6.86,6.86l14.72-14.72a20.56,20.56,0,0,0,20,16.14h89V380a48.35,48.35,0,0,1-12.84,32.93Zm77-81.93H338.1a10.82,10.82,0,0,1-10.8-10.81v-4.86l7.36-7.36a28.19,28.19,0,0,0,8.26-19.67.86.86,0,0,1,0-.16c0-.07,0-.14,0-.21s0-.1,0-.15,0-.08,0-.11a28.18,28.18,0,0,0-8.25-19.78,13,13,0,0,0-1.84-1.49,4.65,4.65,0,0,0-.56-.34l-.26-.14a12.39,12.39,0,0,0-1.12-.6c-.44-.19-.89-.34-1.23-.45s-.5-.16-.77-.23a13.28,13.28,0,0,0-1.55-.31h0v-88a10.82,10.82,0,0,1,10.8-10.8h58.22Z"/><path class="cls-4" d="M450.56,129.21a5.49,5.49,0,0,0-4.4,1.27,5.28,5.28,0,0,0-1.83,4,5.35,5.35,0,0,0,4.67,5.27A30.64,30.64,0,0,1,475.05,170c0,.25,0,.5,0,.75s0,.31,0,.46l0,.16h0a5.32,5.32,0,0,0,10.62,0l0-.14v-.18A41.29,41.29,0,0,0,450.56,129.21Z"/><path class="cls-4" d="M491,127.22A63,63,0,0,0,450.11,107a5.32,5.32,0,1,0-.92,10.6A52.65,52.65,0,0,1,497,170c0,.28,0,.74,0,1a.31.31,0,0,0,0,.1.38.38,0,0,1,0,.08v.17h0a5.32,5.32,0,0,0,10.62,0l0-1.37A63.1,63.1,0,0,0,491,127.22Z"/><path class="cls-5" d="M231,540.76v21.15h-7.12v-54h19.91q8.85,0,13.88,4.52a15.36,15.36,0,0,1,5,12c0,5.25-1.64,9.28-4.91,12.12s-8,4.25-14.07,4.25Zm0-5.83h12.79q5.7,0,8.75-2.7c2-1.79,3-4.39,3-7.78a10.23,10.23,0,0,0-3-7.74,12,12,0,0,0-8.34-3H231Z"/><path class="cls-5" d="M295.08,561.91a14.71,14.71,0,0,1-1-4.23,15.31,15.31,0,0,1-11.42,5,14.14,14.14,0,0,1-9.73-3.36,10.89,10.89,0,0,1-3.8-8.52,11.36,11.36,0,0,1,4.77-9.74q4.76-3.46,13.39-3.47H294v-3.15a7.72,7.72,0,0,0-2.15-5.73q-2.16-2.14-6.34-2.14a10,10,0,0,0-6.15,1.86,5.46,5.46,0,0,0-2.49,4.49H270a9.48,9.48,0,0,1,2.13-5.81,14.46,14.46,0,0,1,5.78-4.43,19.41,19.41,0,0,1,8-1.64q6.93,0,10.86,3.47a12.54,12.54,0,0,1,4.08,9.56v18.48a22.55,22.55,0,0,0,1.4,8.79v.6Zm-11.38-5.23a12.09,12.09,0,0,0,6.12-1.67,10.18,10.18,0,0,0,4.19-4.35v-8.23h-5.38q-12.6,0-12.6,7.38a6.27,6.27,0,0,0,2.15,5.05A8.25,8.25,0,0,0,283.7,556.68Z"/><path class="cls-5" d="M310,541.5q0-9.39,4.34-14.94A13.86,13.86,0,0,1,325.81,521q7.33,0,11.45,5.2l.34-4.45h6.26v39.18q0,7.8-4.61,12.29t-12.4,4.49a20.59,20.59,0,0,1-8.49-1.86,14.65,14.65,0,0,1-6.34-5.08l3.56-4.12a13.42,13.42,0,0,0,10.79,5.45q5,0,7.8-2.82c1.87-1.88,2.8-4.52,2.8-7.94V557.9q-4.11,4.76-11.23,4.75a13.68,13.68,0,0,1-11.4-5.68Q310,551.3,310,541.5Zm6.9.78q0,6.78,2.78,10.67a9,9,0,0,0,7.78,3.87,10,10,0,0,0,9.53-5.9V532.59a10.16,10.16,0,0,0-9.45-5.75,9.09,9.09,0,0,0-7.82,3.9Q316.88,534.63,316.88,542.28Z"/><path class="cls-5" d="M352.39,541.46a23.66,23.66,0,0,1,2.32-10.61,17.28,17.28,0,0,1,6.45-7.28,17.56,17.56,0,0,1,9.43-2.56,16.92,16.92,0,0,1,13.25,5.68q5.06,5.68,5.06,15.1v.49a24,24,0,0,1-2.24,10.52,17.07,17.07,0,0,1-6.41,7.25,17.81,17.81,0,0,1-9.59,2.6A16.84,16.84,0,0,1,357.45,557q-5.06-5.67-5.06-15Zm6.89.82q0,6.68,3.1,10.72A10.48,10.48,0,0,0,379,553q3.07-4.11,3.07-11.49,0-6.6-3.13-10.71a10,10,0,0,0-8.32-4.1,9.82,9.82,0,0,0-8.19,4.05C360.32,533.4,359.28,537.25,359.28,542.28Z"/><path class="cls-5" d="M420.85,551.26a5.08,5.08,0,0,0-2.09-4.33c-1.4-1-3.83-1.91-7.3-2.65a34.3,34.3,0,0,1-8.27-2.67,11.75,11.75,0,0,1-4.52-3.71,8.86,8.86,0,0,1-1.47-5.12,10.41,10.41,0,0,1,4.17-8.35A16.27,16.27,0,0,1,412,521q6.83,0,11.06,3.53a11.21,11.21,0,0,1,4.25,9h-6.9a6.21,6.21,0,0,0-2.39-4.87,8.94,8.94,0,0,0-6-2,9.36,9.36,0,0,0-5.86,1.64,5.16,5.16,0,0,0-2.11,4.26,4.17,4.17,0,0,0,2,3.75,23.84,23.84,0,0,0,7.09,2.41,37.33,37.33,0,0,1,8.33,2.75,12.05,12.05,0,0,1,4.72,3.84,9.42,9.42,0,0,1,1.54,5.47,10.27,10.27,0,0,1-4.3,8.63q-4.31,3.26-11.16,3.25a20.13,20.13,0,0,1-8.52-1.71,13.71,13.71,0,0,1-5.8-4.77,11.45,11.45,0,0,1-2.1-6.62h6.86a7.07,7.07,0,0,0,2.76,5.47,10.71,10.71,0,0,0,6.8,2,11.06,11.06,0,0,0,6.25-1.58A4.84,4.84,0,0,0,420.85,551.26Z"/><path class="cls-5" d="M472.08,562.65a17.52,17.52,0,0,1-13.27-5.36q-5.12-5.37-5.12-14.35v-1.26A24.13,24.13,0,0,1,456,531a17.8,17.8,0,0,1,6.38-7.34,16,16,0,0,1,8.88-2.66q7.81,0,12.16,5.16t4.33,14.77v2.86H460.55a14.29,14.29,0,0,0,3.47,9.59,10.87,10.87,0,0,0,8.43,3.66,11.92,11.92,0,0,0,6.15-1.49,15.5,15.5,0,0,0,4.41-3.93l4.19,3.26Q482.16,562.65,472.08,562.65Zm-.85-36a9.14,9.14,0,0,0-7,3,14.71,14.71,0,0,0-3.49,8.48h20.1v-.52q-.3-5.24-2.82-8.11A8.61,8.61,0,0,0,471.23,526.65Z"/><path class="cls-5" d="M502.14,521.76l.22,5a14.62,14.62,0,0,1,12-5.79q12.72,0,12.83,14.36v26.54h-6.86V535.34q0-4.35-2-6.42t-6.06-2.08a9.87,9.87,0,0,0-5.86,1.78,12.13,12.13,0,0,0-3.93,4.68v28.61h-6.86V521.76Z"/><path class="cls-5" d="M306.31,638.21h25.58V644H299.16V590h7.15Z"/><path class="cls-5" d="M346.46,587.07h8.3L344.83,598l-5.53,0Zm-.08,57h-6.89V603.88h6.89Z"/><path class="cls-5" d="M364.18,603.88l.22,5a14.61,14.61,0,0,1,12-5.79q12.7,0,12.82,14.36V644h-6.85V617.46q0-4.34-2-6.42c-1.29-1.38-3.31-2.08-6.06-2.08a9.87,9.87,0,0,0-5.85,1.79,12,12,0,0,0-3.93,4.67V644h-6.86V603.88Z"/><path class="cls-5" d="M416.22,644.77A17.49,17.49,0,0,1,403,639.41q-5.11-5.35-5.12-14.34v-1.26a24.13,24.13,0,0,1,2.28-10.67,17.82,17.82,0,0,1,6.38-7.35,16,16,0,0,1,8.88-2.65q7.81,0,12.15,5.16t4.34,14.77v2.85H404.69a14.27,14.27,0,0,0,3.47,9.6,10.9,10.9,0,0,0,8.43,3.65,11.92,11.92,0,0,0,6.15-1.48,15.39,15.39,0,0,0,4.41-3.94l4.19,3.27Q426.3,644.78,416.22,644.77Zm-.85-36a9.16,9.16,0,0,0-7,3,14.77,14.77,0,0,0-3.49,8.48H425v-.52q-.28-5.24-2.81-8.11A8.63,8.63,0,0,0,415.37,608.78Z"/><path class="cls-5" d="M464.55,644a14.71,14.71,0,0,1-1-4.23,15.27,15.27,0,0,1-11.42,5,14.16,14.16,0,0,1-9.73-3.35,10.89,10.89,0,0,1-3.8-8.52,11.34,11.34,0,0,1,4.77-9.74q4.75-3.46,13.4-3.47h6.67v-3.16a7.73,7.73,0,0,0-2.15-5.73c-1.43-1.42-3.55-2.13-6.34-2.13a10,10,0,0,0-6.15,1.85,5.48,5.48,0,0,0-2.49,4.49h-6.89a9.46,9.46,0,0,1,2.13-5.8,14.57,14.57,0,0,1,5.78-4.44,19.44,19.44,0,0,1,8-1.63q6.93,0,10.86,3.47a12.52,12.52,0,0,1,4.08,9.55v18.48a22.62,22.62,0,0,0,1.41,8.8V644Zm-11.38-5.23a12.09,12.09,0,0,0,6.12-1.67,10.1,10.1,0,0,0,4.19-4.34v-8.24H458.1q-12.6,0-12.6,7.39a6.25,6.25,0,0,0,2.15,5A8.27,8.27,0,0,0,453.17,638.8Z"/></svg>