<?xml version="1.0" encoding="utf-8"?>
<!-- Generator: Adobe Illustrator 23.0.1, SVG Export Plug-In . SVG Version: 6.00 Build 0)  -->
<svg version="1.1" id="Layer_1" xmlns="http://www.w3.org/2000/svg" xmlns:xlink="http://www.w3.org/1999/xlink" x="0px" y="0px"
	 viewBox="0 0 750 750" style="enable-background:new 0 0 750 750;" xml:space="preserve">
<style type="text/css">
	.st0{fill-rule:evenodd;clip-rule:evenodd;fill:#E1E6E9;}
	.st1{opacity:0.2;fill-rule:evenodd;clip-rule:evenodd;fill:#2EA2DB;}
	.st2{opacity:0.2;fill:#2EA2DB;}
	.st3{fill:#E1E6E9;}
	.st4{fill:#F2F2F4;}
	.st5{fill:#BDC0C3;}
	.st6{opacity:0.1;enable-background:new    ;}
	.st7{fill:#495059;}
	.st8{fill:#7FDBD5;}
	.st9{fill:#B3E7FF;}
	.st10{fill:#76B7EB;}
	.st11{fill:#606060;}
	.st12{fill:#D8D9DD;}
	.st13{fill:#A6C2D1;}
	.st14{fill:#193651;}
	.st15{fill:#FFFFFF;}
	.st16{fill:#7991A3;}
	.st17{fill:#C7CFE2;}
	.st18{fill:#707487;}
	.st19{fill:#5B5D6E;}
	.st20{fill:#FF6464;}
	.st21{fill:#8F96AC;}
	.st22{fill:#D7DEED;}
	.st23{fill:#47821C;}
	.st24{fill:#CC7400;}
	.st25{fill:#AA6100;}
	.st26{fill:#4E901E;}
	.st27{fill:#5EAC24;}
	.st28{fill:#6DC82A;}
	.st29{fill:#6E6C71;}
	.st30{fill:#FFE8CC;}
	.st31{fill:#919497;}
	.st32{fill:#FFE1BD;}
	.st33{clip-path:url(#SVGID_2_);fill:#ABABB0;}
	.st34{clip-path:url(#SVGID_2_);fill:#C5C5CA;}
	.st35{fill:#FFD733;}
	.st36{fill:#FFA891;}
	.st37{fill:#F0F0F0;}
	.st38{fill:#FF7854;}
	.st39{fill:#EBEBEB;}
	.st40{fill:#1CC8EB;}
	.st41{fill:#F0BE59;}
	.st42{fill:#FFB41F;}
	.st43{fill:#74D5E8;}
	.st44{fill:#8C8C8C;}
	.st45{fill:#6A80FF;}
	.st46{fill:#ADE5FF;}
	.st47{fill:#FFC66C;}
	.st48{fill:#36D28F;}
	.st49{fill:#5A54E0;}
	.st50{fill:#C9F3FF;}
	.st51{clip-path:url(#SVGID_4_);}
	.st52{fill:#A2A2A5;}
	.st53{fill:none;}
	.st54{fill:#8ECDF4;}
	.st55{fill:#CFD0D1;}
	.st56{fill-rule:evenodd;clip-rule:evenodd;fill:#193651;}
	.st57{fill:#76ACDD;}
</style>
<g>
	<g>
		<path class="st11" d="M243.4,596.2c-3.1,1.1-9.3,3-16.6,3c-8.2,0-14.9-2.1-20.2-7.1c-4.6-4.5-7.5-11.7-7.5-20.1
			c0.1-16.1,11.1-27.8,29.2-27.8c6.2,0,11.1,1.4,13.4,2.5l-1.7,5.7c-2.9-1.3-6.5-2.3-11.9-2.3c-13.1,0-21.7,8.2-21.7,21.7
			c0,13.7,8.2,21.8,20.8,21.8c4.6,0,7.7-0.6,9.3-1.4v-16.1h-11v-5.6h17.8V596.2z"/>
		<path class="st11" d="M258.1,580.6c0.2,9.5,6.2,13.4,13.3,13.4c5,0,8.1-0.9,10.7-2l1.2,5c-2.5,1.1-6.7,2.4-12.9,2.4
			c-11.9,0-19-7.8-19-19.5c0-11.7,6.9-20.9,18.2-20.9c12.6,0,16,11.1,16,18.2c0,1.4-0.2,2.6-0.2,3.3H258.1z M278.7,575.5
			c0.1-4.5-1.8-11.4-9.8-11.4c-7.1,0-10.2,6.6-10.8,11.4H278.7z"/>
		<path class="st11" d="M293.3,591.5c2.1,1.4,5.8,2.8,9.3,2.8c5.1,0,7.5-2.6,7.5-5.8c0-3.4-2-5.2-7.2-7.1c-7-2.5-10.2-6.3-10.2-11
			c0-6.2,5-11.4,13.4-11.4c3.9,0,7.4,1.1,9.5,2.4l-1.8,5.1c-1.5-1-4.3-2.2-7.9-2.2c-4.2,0-6.5,2.4-6.5,5.3c0,3.2,2.3,4.6,7.4,6.6
			c6.7,2.6,10.2,5.9,10.2,11.7c0,6.8-5.3,11.6-14.5,11.6c-4.2,0-8.2-1-10.9-2.6L293.3,591.5z"/>
		<path class="st11" d="M334.4,548.8v11.1h10.1v5.4h-10.1v20.9c0,4.8,1.4,7.5,5.3,7.5c1.8,0,3.2-0.2,4.1-0.5l0.3,5.3
			c-1.4,0.6-3.5,1-6.2,1c-3.3,0-5.9-1-7.6-3c-2-2.1-2.7-5.5-2.7-10.1v-21.1h-6v-5.4h6v-9.3L334.4,548.8z"/>
		<path class="st11" d="M360.2,549c0.1,2.4-1.7,4.3-4.5,4.3c-2.5,0-4.2-1.9-4.2-4.3c0-2.5,1.8-4.4,4.4-4.4
			C358.6,544.6,360.2,546.6,360.2,549z M352.4,598.7v-38.7h7v38.7H352.4z"/>
		<path class="st11" d="M406.2,579c0,14.3-9.9,20.6-19.3,20.6c-10.5,0-18.6-7.7-18.6-19.9c0-13,8.5-20.6,19.2-20.6
			C398.6,559,406.2,567.1,406.2,579z M375.4,579.4c0,8.5,4.9,14.9,11.8,14.9c6.7,0,11.8-6.3,11.8-15c0-6.6-3.3-14.9-11.6-14.9
			C379,564.3,375.4,572,375.4,579.4z M397.8,543.2l-9.8,11.4h-5l7-11.4H397.8z"/>
		<path class="st11" d="M415,570.4c0-4-0.1-7.3-0.3-10.5h6.2l0.4,6.4h0.2c1.9-3.7,6.4-7.3,12.8-7.3c5.4,0,13.7,3.2,13.7,16.5v23.1
			h-7v-22.3c0-6.2-2.3-11.4-9-11.4c-4.6,0-8.2,3.3-9.4,7.2c-0.3,0.9-0.5,2.1-0.5,3.3v23.3h-7V570.4z"/>
		<path class="st11" d="M509.8,541.8v46.8c0,3.4,0.1,7.4,0.3,10h-6.3l-0.3-6.7h-0.2c-2.2,4.3-6.9,7.6-13.2,7.6
			c-9.4,0-16.6-7.9-16.6-19.7C473.5,567,481.5,559,491,559c5.9,0,9.9,2.8,11.7,5.9h0.2v-23.1H509.8z M502.8,575.7
			c0-0.9-0.1-2.1-0.3-3c-1-4.5-4.9-8.2-10.2-8.2c-7.3,0-11.6,6.4-11.6,15c0,7.8,3.8,14.3,11.4,14.3c4.7,0,9-3.1,10.3-8.4
			c0.2-1,0.3-1.9,0.3-3V575.7z"/>
		<path class="st11" d="M525.4,580.6c0.2,9.5,6.2,13.4,13.3,13.4c5,0,8.1-0.9,10.7-2l1.2,5c-2.5,1.1-6.7,2.4-12.9,2.4
			c-11.9,0-19-7.8-19-19.5c0-11.7,6.9-20.9,18.2-20.9c12.6,0,16,11.1,16,18.2c0,1.4-0.2,2.6-0.2,3.3H525.4z M546.1,575.5
			c0.1-4.5-1.8-11.4-9.8-11.4c-7.1,0-10.2,6.6-10.8,11.4H546.1z"/>
		<path class="st11" d="M246.7,630.4c3.4-0.6,7.8-1,13.4-1c6.9,0,11.9,1.6,15.1,4.5c3,2.6,4.7,6.5,4.7,11.3c0,4.9-1.4,8.7-4.2,11.5
			c-3.7,3.9-9.7,5.9-16.5,5.9c-2.1,0-4-0.1-5.6-0.5v21.6h-7V630.4z M253.7,656.4c1.5,0.4,3.4,0.6,5.8,0.6c8.4,0,13.5-4.1,13.5-11.5
			c0-7.1-5-10.6-12.7-10.6c-3,0-5.4,0.2-6.6,0.6V656.4z"/>
		<path class="st11" d="M288.6,626.8h7v56.8h-7V626.8z"/>
		<path class="st11" d="M329,683.7l-0.6-4.9h-0.2c-2.2,3-6.3,5.8-11.8,5.8c-7.8,0-11.8-5.5-11.8-11.1c0-9.4,8.3-14.5,23.3-14.4v-0.8
			c0-3.2-0.9-9-8.8-9c-3.6,0-7.4,1.1-10.1,2.9l-1.6-4.6c3.2-2.1,7.8-3.4,12.7-3.4c11.8,0,14.7,8.1,14.7,15.8v14.5
			c0,3.4,0.2,6.6,0.6,9.3H329z M327.9,663.9c-7.7-0.2-16.4,1.2-16.4,8.7c0,4.6,3,6.7,6.6,6.7c5,0,8.2-3.2,9.4-6.5
			c0.2-0.7,0.4-1.5,0.4-2.2V663.9z"/>
		<path class="st11" d="M346.1,655.4c0-4-0.1-7.3-0.3-10.5h6.2l0.4,6.4h0.2c1.9-3.7,6.4-7.3,12.8-7.3c5.4,0,13.7,3.2,13.7,16.5v23.1
			h-7v-22.3c0-6.2-2.3-11.4-9-11.4c-4.6,0-8.2,3.3-9.4,7.2c-0.3,0.9-0.5,2.1-0.5,3.3v23.3h-7V655.4z"/>
		<path class="st11" d="M398.3,634c0.1,2.4-1.7,4.3-4.5,4.3c-2.5,0-4.2-1.9-4.2-4.3c0-2.5,1.8-4.4,4.4-4.4
			C396.6,629.6,398.3,631.6,398.3,634z M390.5,683.7v-38.7h7v38.7H390.5z"/>
		<path class="st11" d="M409.2,626.8h7v56.8h-7V626.8z"/>
		<path class="st11" d="M428.1,626.8h7v56.8h-7V626.8z"/>
		<path class="st11" d="M468.4,683.7l-0.6-4.9h-0.2c-2.2,3-6.3,5.8-11.8,5.8c-7.8,0-11.8-5.5-11.8-11.1c0-9.4,8.3-14.5,23.3-14.4
			v-0.8c0-3.2-0.9-9-8.8-9c-3.6,0-7.4,1.1-10.1,2.9l-1.6-4.6c3.2-2.1,7.8-3.4,12.7-3.4c11.8,0,14.7,8.1,14.7,15.8v14.5
			c0,3.4,0.2,6.6,0.6,9.3H468.4z M467.4,663.9c-7.7-0.2-16.4,1.2-16.4,8.7c0,4.6,3,6.7,6.6,6.7c5,0,8.2-3.2,9.4-6.5
			c0.2-0.7,0.4-1.5,0.4-2.2V663.9z"/>
		<path class="st11" d="M484.6,676.5c2.1,1.4,5.8,2.8,9.3,2.8c5.1,0,7.5-2.6,7.5-5.8c0-3.4-2-5.2-7.2-7.1c-7-2.5-10.2-6.3-10.2-11
			c0-6.2,5-11.4,13.4-11.4c3.9,0,7.4,1.1,9.5,2.4l-1.8,5.1c-1.5-1-4.3-2.2-7.9-2.2c-4.2,0-6.5,2.4-6.5,5.3c0,3.2,2.3,4.6,7.4,6.6
			c6.7,2.6,10.2,5.9,10.2,11.7c0,6.8-5.3,11.6-14.5,11.6c-4.2,0-8.2-1-10.9-2.6L484.6,676.5z"/>
	</g>
</g>
<g>
	<path class="st3" d="M514.5,436.3V130.8c0-27.7-22.6-49.5-49.5-49.5H245v355.1L514.5,436.3L514.5,436.3z"/>
	<path class="st14" d="M514.5,442.8H245c-3.6,0-6.6-2.9-6.6-6.6V81.2c0-3.6,2.9-6.6,6.6-6.6h219.2c31.3,0,56.8,25.5,56.8,56.1v305.5
		C521,439.9,518.1,442.8,514.5,442.8z M251.5,429.7h256.4v-299c0-24-19.7-43.7-43.7-43.7H251.5V429.7z"/>
	<path class="st15" d="M465,106H270.5v323.7H489v-299C489,117.6,478.1,106,465,106z"/>
	<g>
		<rect x="379" y="366.3" class="st14" width="12.4" height="12.4"/>
		<rect x="413.2" y="366.3" class="st14" width="12.4" height="12.4"/>
		<rect x="447.5" y="366.3" class="st14" width="12.4" height="12.4"/>
	</g>
	<g>
		<rect x="379" y="391.8" class="st14" width="12.4" height="12.4"/>
		<rect x="413.2" y="391.8" class="st14" width="12.4" height="12.4"/>
		<rect x="447.5" y="391.8" class="st14" width="12.4" height="12.4"/>
	</g>
	<circle class="st15" cx="513.8" cy="214.5" r="58.3"/>
	<path class="st16" d="M513.8,278.6c-35.7,0-64.1-29.1-64.1-64.1c0-35.7,29.1-64.1,64.1-64.1c35.7,0,64.1,29.1,64.1,64.1
		C577.9,250.2,549.5,278.6,513.8,278.6z M513.8,162.8c-28.4,0-51.7,23.3-51.7,51.7s23.3,51.7,51.7,51.7s51.7-23.3,51.7-51.7
		C565.5,186.1,542.2,162.8,513.8,162.8z"/>
	<path class="st15" d="M535.6,195.6c0,10.9-10.2,27.7-21.9,27.7c-12.4,0-21.9-16.8-21.9-27.7c0-10.9,10.2-20.4,21.9-20.4
		C525.4,175.2,535.6,184.7,535.6,195.6z"/>
	<path class="st14" d="M517.4,173.7c-9.5-2.2-13.8,2.9-14.6,4.4c0,0-0.7,0-0.7,0.7c-13.8-2.9-10.9,17.5-10.9,17.5
		c0,3.6,0.7,7.3,2.9,10.9c0-2.9,0-16.8,8-14.6c0,0,9.5,6.6,21.9,0c0,0,8-2.9,9.5,13.8C534.2,202.9,545.1,179.6,517.4,173.7z"/>
	<path class="st54" d="M530.5,224H497c-10.9,0-20.4,9.5-20.4,20.4v8c9.5,9.5,22.6,16,37.1,16c14.6,0,27.7-5.8,37.1-16v-8
		C550.9,232.7,541.4,224,530.5,224z"/>
	<path class="st15" d="M498.5,223.2l9.5,17.4c2.2,4.5,8.7,4.5,11.7,0l9.5-17.4H498.5z"/>
	<circle class="st15" cx="237" cy="354" r="58.3"/>
	<path class="st16" d="M237,418.8c-35.7,0-64.1-29.1-64.1-64.1c0-35.7,29.1-64.1,64.1-64.1c35.7,0,64.1,29.1,64.1,64.1
		C301.8,389.7,272.7,418.8,237,418.8z M237,302.2c-28.4,0-51.7,23.3-51.7,51.7s23.3,51.7,51.7,51.7s51.7-23.3,51.7-51.7
		S265.4,302.2,237,302.2z"/>
	<path class="st15" d="M258.8,335.8c0,10.9-10.2,27.7-21.9,27.7c-12.4,0-21.9-16.8-21.9-27.7s10.2-20.4,21.9-20.4
		C248.6,315.4,258.8,324.8,258.8,335.8z"/>
	<path class="st14" d="M241.3,313.2c-9.5-2.2-13.8,2.9-14.6,4.4c0,0-0.7,0-0.7,0.7c-13.8-2.9-10.9,17.5-10.9,17.5
		c0,3.6,0.7,7.3,2.9,10.9c0-2.9,0-16.8,8-14.6c0,0,9.5,6.6,21.9,0c0,0,8-2.9,9.5,13.8C258.1,342.3,269,319,241.3,313.2z"/>
	<path class="st54" d="M253.7,363.4h-33.5c-10.9,0-20.4,9.5-20.4,20.4v8c9.5,9.5,22.6,16,37.1,16c14.6,0,27.7-5.8,37.1-16v-8
		C274.1,372.9,264.6,363.4,253.7,363.4z"/>
	<path class="st15" d="M221.7,362.5l9.5,17.5c2.2,4.6,8.7,4.6,11.7,0l9.5-17.5H221.7z"/>
	<path class="st55" d="M237.7,81.2c-32,0-59,26.2-59,59h237.5v-9.5c0-27.7,22.6-49.5,49.5-49.5H237.7z"/>
	<g>
		<path class="st14" d="M416.2,146.1H178.7c-3.6,0-6.6-2.9-6.6-6.6c0-35.7,29.1-65.6,65.6-65.6h228c3.6,0,6.6,2.9,6.6,6.6
			s-2.9,6.6-6.6,6.6c-24,0-43.7,19.7-43.7,43.7v9.5C422.7,143.1,419.8,146.1,416.2,146.1z M186,133.7h224.3v-2.9
			c0-17.5,8-32.8,20.4-43.7h-193C210.7,87.1,188.9,107.4,186,133.7z"/>
		<rect x="290.1" y="193.4" class="st14" width="116.5" height="12.4"/>
		<rect x="290.1" y="232.7" class="st14" width="116.5" height="12.4"/>
		<rect x="290.1" y="272.1" class="st14" width="116.5" height="12.4"/>
	</g>
</g>
</svg>
