<?xml version="1.0" encoding="utf-8"?>
<!-- Generator: Adobe Illustrator 23.0.1, SVG Export Plug-In . SVG Version: 6.00 Build 0)  -->
<svg version="1.1" id="Layer_1" xmlns="http://www.w3.org/2000/svg" xmlns:xlink="http://www.w3.org/1999/xlink" x="0px" y="0px"
	 viewBox="0 0 750 750" style="enable-background:new 0 0 750 750;" xml:space="preserve">
<style type="text/css">
	.st0{fill-rule:evenodd;clip-rule:evenodd;fill:#E1E6E9;}
	.st1{opacity:0.2;fill-rule:evenodd;clip-rule:evenodd;fill:#2EA2DB;}
	.st2{opacity:0.2;fill:#2EA2DB;}
	.st3{fill:#E1E6E9;}
	.st4{fill:#F2F2F4;}
	.st5{fill:#BDC0C3;}
	.st6{opacity:0.1;enable-background:new    ;}
	.st7{fill:#495059;}
	.st8{fill:#7FDBD5;}
	.st9{fill:#B3E7FF;}
	.st10{fill:#76B7EB;}
	.st11{fill:#606060;}
	.st12{fill:#D8D9DD;}
	.st13{fill:#A6C2D1;}
	.st14{fill:#193651;}
	.st15{fill:#FFFFFF;}
	.st16{fill:#7991A3;}
	.st17{fill:#C7CFE2;}
	.st18{fill:#707487;}
	.st19{fill:#5B5D6E;}
	.st20{fill:#FF6464;}
	.st21{fill:#8F96AC;}
	.st22{fill:#D7DEED;}
	.st23{fill:#47821C;}
	.st24{fill:#CC7400;}
	.st25{fill:#AA6100;}
	.st26{fill:#4E901E;}
	.st27{fill:#5EAC24;}
	.st28{fill:#6DC82A;}
	.st29{fill:#6E6C71;}
	.st30{fill:#FFE8CC;}
	.st31{fill:#919497;}
	.st32{fill:#FFE1BD;}
	.st33{clip-path:url(#SVGID_2_);fill:#ABABB0;}
	.st34{clip-path:url(#SVGID_2_);fill:#C5C5CA;}
	.st35{fill:#FFD733;}
	.st36{fill:#FFA891;}
	.st37{fill:#F0F0F0;}
	.st38{fill:#FF7854;}
	.st39{fill:#EBEBEB;}
	.st40{fill:#1CC8EB;}
	.st41{fill:#F0BE59;}
	.st42{fill:#FFB41F;}
	.st43{fill:#74D5E8;}
	.st44{fill:#8C8C8C;}
	.st45{fill:#6A80FF;}
	.st46{fill:#ADE5FF;}
	.st47{fill:#FFC66C;}
	.st48{fill:#36D28F;}
	.st49{fill:#5A54E0;}
	.st50{fill:#C9F3FF;}
	.st51{clip-path:url(#SVGID_4_);}
	.st52{fill:#A2A2A5;}
	.st53{fill:none;}
	.st54{fill:#8ECDF4;}
	.st55{fill:#CFD0D1;}
	.st56{fill-rule:evenodd;clip-rule:evenodd;fill:#193651;}
	.st57{fill:#76ACDD;}
</style>
<rect x="278.4" y="155.9" class="st0" width="31" height="185.1"/>
<g>
	<g>
		<path class="st11" d="M307,596.9c-2.6,1.3-7.7,2.6-14.2,2.6c-15.2,0-26.6-9.6-26.6-27.3c0-16.9,11.4-28.3,28.2-28.3
			c6.7,0,11,1.4,12.8,2.4l-1.7,5.7c-2.6-1.3-6.4-2.2-10.9-2.2c-12.6,0-21,8.1-21,22.2c0,13.2,7.6,21.7,20.7,21.7
			c4.2,0,8.6-0.9,11.4-2.2L307,596.9z"/>
		<path class="st11" d="M318.6,580.6c0.2,9.5,6.2,13.4,13.3,13.4c5,0,8.1-0.9,10.7-2l1.2,5c-2.5,1.1-6.7,2.4-12.9,2.4
			c-11.9,0-19-7.8-19-19.5c0-11.7,6.9-20.9,18.2-20.9c12.6,0,16,11.1,16,18.2c0,1.4-0.2,2.6-0.2,3.3H318.6z M339.2,575.5
			c0.1-4.5-1.8-11.4-9.8-11.4c-7.1,0-10.2,6.6-10.8,11.4H339.2z"/>
		<path class="st11" d="M354.7,570.4c0-4-0.1-7.3-0.3-10.5h6.2l0.4,6.4h0.2c1.9-3.7,6.4-7.3,12.8-7.3c5.4,0,13.7,3.2,13.7,16.5v23.1
			h-7v-22.3c0-6.2-2.3-11.4-9-11.4c-4.6,0-8.2,3.3-9.4,7.2c-0.3,0.9-0.5,2.1-0.5,3.3v23.3h-7V570.4z"/>
		<path class="st11" d="M407.3,548.8v11.1h10.1v5.4h-10.1v20.9c0,4.8,1.4,7.5,5.3,7.5c1.8,0,3.2-0.2,4.1-0.5l0.3,5.3
			c-1.4,0.6-3.5,1-6.2,1c-3.3,0-5.9-1-7.6-3c-2-2.1-2.7-5.5-2.7-10.1v-21.1h-6v-5.4h6v-9.3L407.3,548.8z"/>
		<path class="st11" d="M425.3,572c0-4.6-0.1-8.5-0.3-12.1h6.2l0.2,7.6h0.3c1.8-5.2,6-8.5,10.7-8.5c0.8,0,1.4,0.1,2,0.2v6.6
			c-0.7-0.2-1.4-0.2-2.4-0.2c-5,0-8.5,3.8-9.4,9c-0.2,1-0.3,2.1-0.3,3.3v20.6h-7V572z"/>
		<path class="st11" d="M485.7,579c0,14.3-9.9,20.6-19.3,20.6c-10.5,0-18.6-7.7-18.6-19.9c0-13,8.5-20.6,19.2-20.6
			C478.2,559,485.7,567.1,485.7,579z M455,579.4c0,8.5,4.9,14.9,11.8,14.9c6.7,0,11.8-6.3,11.8-15c0-6.6-3.3-14.9-11.6-14.9
			C458.6,564.3,455,572,455,579.4z"/>
		<path class="st11" d="M193.1,630.4c3.4-0.6,7.8-1,13.4-1c6.9,0,11.9,1.6,15.1,4.5c3,2.6,4.7,6.5,4.7,11.3c0,4.9-1.4,8.7-4.2,11.5
			c-3.7,3.9-9.7,5.9-16.5,5.9c-2.1,0-4-0.1-5.6-0.5v21.6h-7V630.4z M200,656.4c1.5,0.4,3.4,0.6,5.8,0.6c8.4,0,13.5-4.1,13.5-11.5
			c0-7.1-5-10.6-12.7-10.6c-3,0-5.4,0.2-6.6,0.6V656.4z"/>
		<path class="st11" d="M234.1,657c0-4.6-0.1-8.5-0.3-12.1h6.2l0.2,7.6h0.3c1.8-5.2,6-8.5,10.7-8.5c0.8,0,1.4,0.1,2,0.2v6.6
			c-0.7-0.2-1.4-0.2-2.4-0.2c-5,0-8.5,3.8-9.4,9c-0.2,1-0.3,2.1-0.3,3.3v20.6h-7V657z"/>
		<path class="st11" d="M294.5,664c0,14.3-9.9,20.6-19.3,20.6c-10.5,0-18.6-7.7-18.6-19.9c0-13,8.5-20.6,19.2-20.6
			C287,644,294.5,652.1,294.5,664z M263.8,664.4c0,8.5,4.9,14.9,11.8,14.9c6.7,0,11.8-6.3,11.8-15c0-6.6-3.3-14.9-11.6-14.9
			S263.8,657,263.8,664.4z"/>
		<path class="st11" d="M336.8,626.8v46.8c0,3.4,0.1,7.4,0.3,10h-6.3l-0.3-6.7h-0.2c-2.2,4.3-6.9,7.6-13.2,7.6
			c-9.4,0-16.6-7.9-16.6-19.7C300.5,652,308.5,644,318,644c5.9,0,9.9,2.8,11.7,5.9h0.2v-23.1H336.8z M329.8,660.7
			c0-0.9-0.1-2.1-0.3-3c-1-4.5-4.9-8.2-10.2-8.2c-7.3,0-11.6,6.4-11.6,15c0,7.8,3.8,14.3,11.4,14.3c4.7,0,9-3.1,10.3-8.4
			c0.2-1,0.3-1.9,0.3-3V660.7z"/>
		<path class="st11" d="M380.9,673.1c0,4,0.1,7.5,0.3,10.6H375l-0.4-6.3h-0.2c-1.8,3.1-5.9,7.2-12.8,7.2c-6.1,0-13.4-3.4-13.4-17
			v-22.6h7v21.4c0,7.4,2.2,12.3,8.6,12.3c4.7,0,8-3.3,9.3-6.4c0.4-1,0.6-2.3,0.6-3.6v-23.8h7V673.1z"/>
		<path class="st11" d="M420.2,682.2c-1.8,1-5.9,2.2-11.1,2.2c-11.7,0-19.3-7.9-19.3-19.8c0-11.9,8.2-20.6,20.8-20.6
			c4.2,0,7.8,1,9.8,2l-1.6,5.4c-1.7-1-4.3-1.8-8.2-1.8c-8.9,0-13.7,6.6-13.7,14.6c0,9,5.8,14.5,13.4,14.5c4,0,6.6-1,8.6-1.9
			L420.2,682.2z"/>
		<path class="st11" d="M455.6,682.2c-1.8,1-5.9,2.2-11.1,2.2c-11.7,0-19.3-7.9-19.3-19.8c0-11.9,8.2-20.6,20.8-20.6
			c4.2,0,7.8,1,9.8,2l-1.6,5.4c-1.7-1-4.3-1.8-8.2-1.8c-8.9,0-13.7,6.6-13.7,14.6c0,9,5.8,14.5,13.4,14.5c4,0,6.6-1,8.6-1.9
			L455.6,682.2z"/>
		<path class="st11" d="M471.6,634c0.1,2.4-1.7,4.3-4.5,4.3c-2.5,0-4.2-1.9-4.2-4.3c0-2.5,1.8-4.4,4.4-4.4
			C470,629.6,471.6,631.6,471.6,634z M463.8,683.7v-38.7h7v38.7H463.8z"/>
		<path class="st11" d="M517.6,664c0,14.3-9.9,20.6-19.3,20.6c-10.5,0-18.6-7.7-18.6-19.9c0-13,8.5-20.6,19.2-20.6
			C510,644,517.6,652.1,517.6,664z M486.8,664.4c0,8.5,4.9,14.9,11.8,14.9c6.7,0,11.8-6.3,11.8-15c0-6.6-3.3-14.9-11.6-14.9
			C490.4,649.3,486.8,657,486.8,664.4z M509.2,628.2l-9.8,11.4h-5l7-11.4H509.2z"/>
		<path class="st11" d="M526.4,655.4c0-4-0.1-7.3-0.3-10.5h6.2l0.4,6.4h0.2c1.9-3.7,6.4-7.3,12.8-7.3c5.4,0,13.7,3.2,13.7,16.5v23.1
			h-7v-22.3c0-6.2-2.3-11.4-9-11.4c-4.6,0-8.2,3.3-9.4,7.2c-0.3,0.9-0.5,2.1-0.5,3.3v23.3h-7V655.4z"/>
	</g>
</g>
<g>
	<g>
		<path class="st15" d="M536.4,419.6H213.6c-21.6,0-39.1-17.5-39.1-39.1c0-21.6,17.5-39.1,39.1-39.1h322.7
			c21.6,0,39.1,17.5,39.1,39.1C575.5,402.1,558,419.6,536.4,419.6L536.4,419.6z M536.4,419.6"/>
		<path class="st4" d="M252.8,380.5c0,21.6-17.5,39.1-39.1,39.1c-21.6,0-39.1-17.5-39.1-39.1s17.5-39.1,39.1-39.1
			C235.2,341.4,252.8,358.9,252.8,380.5L252.8,380.5z M252.8,380.5"/>
		<path class="st4" d="M414.1,380.5c0,21.6-17.5,39.1-39.1,39.1c-21.6,0-39.1-17.5-39.1-39.1s17.5-39.1,39.1-39.1
			C396.6,341.4,414.1,358.9,414.1,380.5L414.1,380.5z M414.1,380.5"/>
		<path class="st4" d="M575.5,380.5c0,21.6-17.5,39.1-39.1,39.1s-39.1-17.5-39.1-39.1s17.5-39.1,39.1-39.1S575.5,358.9,575.5,380.5
			L575.5,380.5z M575.5,380.5"/>
		<polygon class="st4" points="328.7,158.8 421.3,158.8 421.3,247.5 375,199.9 328.7,247.5 		"/>
		<path class="st15" d="M529.9,190.5l40.4,40.4c7,7,7,18.4,0,25.4c-7,7-18.4,7-25.4,0l-40.4-40.4L529.9,190.5z M529.9,190.5"/>
		<path class="st15" d="M536.4,158.8c0,35.1-28.5,63.6-63.6,63.6s-63.6-28.5-63.6-63.6c0-35.1,28.5-63.6,63.6-63.6
			S536.4,123.7,536.4,158.8L536.4,158.8z M536.4,158.8"/>
		<g>
			<path class="st14" d="M464.4,411.5c-2.1,0-4.2,0.9-5.8,2.4c-1.5,1.5-2.4,3.6-2.4,5.8c0,2.1,0.9,4.2,2.4,5.8
				c1.5,1.5,3.6,2.4,5.8,2.4c2.1,0,4.2-0.9,5.8-2.4c1.5-1.5,2.4-3.6,2.4-5.8c0-2.1-0.9-4.2-2.4-5.8
				C468.6,412.4,466.5,411.5,464.4,411.5L464.4,411.5z M464.4,411.5"/>
			<path class="st14" d="M536.4,333.2h-55.4V230.1c7.3-0.8,14.2-2.7,20.6-5.6l37.5,37.5c4.9,4.9,11.5,7.6,18.4,7.6
				c7,0,13.5-2.7,18.4-7.6c10.2-10.2,10.2-26.7,0-36.9l-37.5-37.5c3.9-8.8,6-18.6,6-28.8c0-39.5-32.2-71.7-71.7-71.7
				c-36.8,0-67.2,27.8-71.3,63.6H277.2c-4.5,0-8.1,3.6-8.1,8.1v174.4h-55.4c-26.1,0-47.3,21.2-47.3,47.3s21.2,47.3,47.3,47.3H435
				c4.5,0,8.2-3.6,8.2-8.1c0-4.5-3.6-8.1-8.2-8.1h-24.4c7.2-8.3,11.6-19.1,11.6-31s-4.4-22.7-11.6-31h90c-7.2,8.3-11.6,19.1-11.6,31
				s4.4,22.7,11.6,31h-4.5c-4.5,0-8.2,3.6-8.2,8.1c0,4.5,3.7,8.1,8.2,8.1h40.2c26.1,0,47.3-21.2,47.3-47.3S562.4,333.2,536.4,333.2
				L536.4,333.2z M564.5,236.7c3.8,3.8,3.8,10,0,13.8c-1.8,1.8-4.3,2.9-6.9,2.9c-2.6,0-5.1-1-6.9-2.9L516.1,216
				c5.2-4,9.9-8.6,13.8-13.8L564.5,236.7z M472.8,103.4c30.6,0,55.4,24.9,55.4,55.4c0,30.6-24.9,55.4-55.4,55.4
				s-55.4-24.9-55.4-55.4C417.4,128.3,442.2,103.4,472.8,103.4L472.8,103.4z M338.6,167h63c1.2,10.5,4.7,20.3,9.9,28.9v30.5
				l-30.6-30.8c-1.5-1.5-3.6-2.4-5.8-2.4s-4.2,0.9-5.8,2.4l-30.6,30.8V167z M339.3,349.5c-7.2,8.3-11.6,19.1-11.6,31
				s4.4,22.7,11.6,31h-90c7.2-8.3,11.6-19.1,11.6-31s-4.4-22.7-11.6-31H339.3z M182.7,380.5c0-17.1,13.9-31,31-31s31,13.9,31,31
				s-13.9,31-31,31S182.7,397.6,182.7,380.5L182.7,380.5z M406,380.5c0,17.1-13.9,31-31,31s-31-13.9-31-31s13.9-31,31-31
				S406,363.4,406,380.5L406,380.5z M285.4,333.2V167h36.9v79.2c0,3.3,2,6.3,5,7.5c3,1.3,6.6,0.6,8.9-1.8l38.8-39l38.8,39
				c1.6,1.6,3.7,2.4,5.8,2.4c1,0,2.1-0.2,3.1-0.6c3-1.3,5-4.2,5-7.5v-31.6c10.3,8.4,23,13.9,36.9,15.5v103.2H285.4z M536.4,411.5
				c-17.1,0-31-13.9-31-31s13.9-31,31-31s31,13.9,31,31S553.4,411.5,536.4,411.5L536.4,411.5z M536.4,411.5"/>
		</g>
		<path class="st16" d="M375,388.7c2.1,0,4.2-0.9,5.8-2.4c1.5-1.5,2.4-3.6,2.4-5.8s-0.9-4.2-2.4-5.8c-1.5-1.5-3.6-2.4-5.8-2.4
			c-2.1,0-4.2,0.9-5.8,2.4c-1.5,1.5-2.4,3.6-2.4,5.8s0.9,4.2,2.4,5.8C370.8,387.8,372.9,388.7,375,388.7L375,388.7z M375,388.7"/>
		<path class="st16" d="M536.4,372.4c-2.1,0-4.2,0.9-5.8,2.4c-1.5,1.5-2.4,3.6-2.4,5.8s0.9,4.2,2.4,5.8c1.5,1.5,3.6,2.4,5.8,2.4
			c2.1,0,4.2-0.9,5.8-2.4c1.5-1.5,2.4-3.6,2.4-5.8s-0.9-4.2-2.4-5.8C540.6,373.2,538.5,372.4,536.4,372.4L536.4,372.4z M536.4,372.4
			"/>
		<path class="st16" d="M219.4,386.3c1.5-1.5,2.4-3.6,2.4-5.8s-0.9-4.2-2.4-5.8c-1.5-1.5-3.6-2.4-5.8-2.4c-2.1,0-4.2,0.9-5.8,2.4
			c-1.5,1.5-2.4,3.6-2.4,5.8s0.9,4.2,2.4,5.8c1.5,1.5,3.6,2.4,5.8,2.4C215.8,388.7,217.9,387.8,219.4,386.3L219.4,386.3z
			 M219.4,386.3"/>
		<path class="st52" d="M463.4,175.2c1.6,1.6,3.7,2.4,5.8,2.4s4.2-0.8,5.8-2.4l27.1-27.1c3.2-3.2,3.2-8.3,0-11.5
			c-3.2-3.2-8.3-3.2-11.5,0l-21.3,21.3l-6.9-6.9c-3.2-3.2-8.3-3.2-11.5,0c-3.2,3.2-3.2,8.3,0,11.5L463.4,175.2z M463.4,175.2"/>
	</g>
</g>
<circle class="st16" cx="472.8" cy="158.9" r="72.3"/>
<circle class="st15" cx="472.8" cy="158.9" r="55.4"/>
<path class="st16" d="M528.2,158.8c0,30.6-24.9,55.4-55.4,55.4l8.1,15.8c7.3-0.8,14.2-2.7,20.6-5.6l37.5,37.5
	c4.9,4.9,11.5,7.6,18.4,7.6c7,0,13.5-2.7,18.4-7.6c10.2-10.2,10.2-26.7,0-36.9l-37.5-37.5c3.9-8.8,6-18.6,6-28.8H528.2z"/>
<path class="st15" d="M564.5,236.7c3.8,3.8,3.8,10,0,13.8c-1.8,1.8-4.3,2.9-6.9,2.9c-2.6,0-5.1-1-6.9-2.9L516.1,216
	c5.2-4,9.9-8.6,13.8-13.8L564.5,236.7z"/>
<path class="st16" d="M463.4,175.2c1.6,1.6,3.7,2.4,5.8,2.4s4.2-0.8,5.8-2.4l27.1-27.1c3.2-3.2,3.2-8.3,0-11.5
	c-3.2-3.2-8.3-3.2-11.5,0l-21.3,21.3l-6.9-6.9c-3.2-3.2-8.3-3.2-11.5,0c-3.2,3.2-3.2,8.3,0,11.5L463.4,175.2z M463.4,175.2"/>
</svg>
