<?xml version="1.0" encoding="utf-8"?>
<!-- Generator: Adobe Illustrator 23.0.1, SVG Export Plug-In . SVG Version: 6.00 Build 0)  -->
<svg version="1.1" id="Layer_1" xmlns="http://www.w3.org/2000/svg" xmlns:xlink="http://www.w3.org/1999/xlink" x="0px" y="0px"
	 viewBox="0 0 750 750" style="enable-background:new 0 0 750 750;" xml:space="preserve">
<style type="text/css">
	.st0{fill-rule:evenodd;clip-rule:evenodd;fill:#E1E6E9;}
	.st1{opacity:0.2;fill-rule:evenodd;clip-rule:evenodd;fill:#2EA2DB;}
	.st2{opacity:0.2;fill:#2EA2DB;}
	.st3{fill:#E1E6E9;}
	.st4{fill:#F2F2F4;}
	.st5{fill:#BDC0C3;}
	.st6{opacity:0.1;enable-background:new    ;}
	.st7{fill:#495059;}
	.st8{fill:#7FDBD5;}
	.st9{fill:#B3E7FF;}
	.st10{fill:#76B7EB;}
	.st11{fill:#606060;}
	.st12{fill:#D8D9DD;}
	.st13{fill:#A6C2D1;}
	.st14{fill:#193651;}
	.st15{fill:#FFFFFF;}
	.st16{fill:#7991A3;}
	.st17{fill:#C7CFE2;}
	.st18{fill:#707487;}
	.st19{fill:#5B5D6E;}
	.st20{fill:#FF6464;}
	.st21{fill:#8F96AC;}
	.st22{fill:#D7DEED;}
	.st23{fill:#47821C;}
	.st24{fill:#CC7400;}
	.st25{fill:#AA6100;}
	.st26{fill:#4E901E;}
	.st27{fill:#5EAC24;}
	.st28{fill:#6DC82A;}
	.st29{fill:#6E6C71;}
	.st30{fill:#FFE8CC;}
	.st31{fill:#919497;}
	.st32{fill:#FFE1BD;}
	.st33{clip-path:url(#SVGID_2_);fill:#ABABB0;}
	.st34{clip-path:url(#SVGID_2_);fill:#C5C5CA;}
	.st35{fill:#FFD733;}
	.st36{fill:#FFA891;}
	.st37{fill:#F0F0F0;}
	.st38{fill:#FF7854;}
	.st39{fill:#EBEBEB;}
	.st40{fill:#1CC8EB;}
	.st41{fill:#F0BE59;}
	.st42{fill:#FFB41F;}
	.st43{fill:#74D5E8;}
	.st44{fill:#8C8C8C;}
	.st45{fill:#6A80FF;}
	.st46{fill:#ADE5FF;}
	.st47{fill:#FFC66C;}
	.st48{fill:#36D28F;}
	.st49{fill:#5A54E0;}
	.st50{fill:#C9F3FF;}
	.st51{clip-path:url(#SVGID_4_);}
	.st52{fill:#A2A2A5;}
	.st53{fill:none;}
	.st54{fill:#8ECDF4;}
	.st55{fill:#CFD0D1;}
	.st56{fill-rule:evenodd;clip-rule:evenodd;fill:#193651;}
	.st57{fill:#76ACDD;}
</style>
<path class="st0" d="M374.9,106.9c0,0,38.1,46.2,36.2,82.7c0,0,41.4,22.5,43.3,69.4c1.9,47-6.1,77.2-6.1,77.2s20.4-8,35.3-38.9
	s18.2-99.9-30.8-123.7C452.9,173.6,462.8,121.3,374.9,106.9z"/>
<path class="st1" d="M283.6,202.3c0,0-29.2-0.8-49.4,20s-13.5,33.1-13.5,33.1s-25.6,24.2-24.7,50.8s23.8,65.7,23.8,65.7
	s1.4,31.2,20,41.9c18.7,10.7,48.5,16.6,65.3,2.3s21.4-25.1,21.4-25.1s-19.1-24.2-18.6-44.7c0,0-19.1-19.1-25.6-48
	c-6.5-28.9-11.8-61-2.1-78.3S283.6,202.3,283.6,202.3z"/>
<g>
	<g>
		<path class="st11" d="M104.8,596.2c-3.1,1.1-9.3,3-16.6,3c-8.2,0-14.9-2.1-20.2-7.1c-4.6-4.5-7.5-11.7-7.5-20.1
			c0.1-16.1,11.1-27.8,29.2-27.8c6.2,0,11.1,1.4,13.4,2.5l-1.7,5.7c-2.9-1.3-6.5-2.3-11.9-2.3c-13.1,0-21.7,8.2-21.7,21.7
			c0,13.7,8.2,21.8,20.8,21.8c4.6,0,7.7-0.6,9.3-1.4v-16.1h-11v-5.6h17.8V596.2z"/>
		<path class="st11" d="M119.6,580.6c0.2,9.5,6.2,13.4,13.3,13.4c5,0,8.1-0.9,10.7-2l1.2,5c-2.5,1.1-6.7,2.4-12.9,2.4
			c-11.9,0-19-7.8-19-19.5c0-11.7,6.9-20.9,18.2-20.9c12.6,0,16,11.1,16,18.2c0,1.4-0.2,2.6-0.2,3.3H119.6z M140.2,575.5
			c0.1-4.5-1.8-11.4-9.8-11.4c-7.1,0-10.2,6.6-10.8,11.4H140.2z"/>
		<path class="st11" d="M154.8,591.5c2.1,1.4,5.8,2.8,9.3,2.8c5.1,0,7.5-2.6,7.5-5.8c0-3.4-2-5.2-7.2-7.1c-7-2.5-10.2-6.3-10.2-11
			c0-6.2,5-11.4,13.4-11.4c3.9,0,7.4,1.1,9.5,2.4l-1.8,5.1c-1.5-1-4.3-2.2-7.9-2.2c-4.2,0-6.5,2.4-6.5,5.3c0,3.2,2.3,4.6,7.4,6.6
			c6.7,2.6,10.2,5.9,10.2,11.7c0,6.8-5.3,11.6-14.5,11.6c-4.2,0-8.2-1-10.9-2.6L154.8,591.5z"/>
		<path class="st11" d="M195.9,548.8v11.1H206v5.4h-10.1v20.9c0,4.8,1.4,7.5,5.3,7.5c1.8,0,3.2-0.2,4.1-0.5l0.3,5.3
			c-1.4,0.6-3.5,1-6.2,1c-3.3,0-5.9-1-7.6-3c-2-2.1-2.7-5.5-2.7-10.1v-21.1h-6v-5.4h6v-9.3L195.9,548.8z"/>
		<path class="st11" d="M221.7,549c0.1,2.4-1.7,4.3-4.5,4.3c-2.5,0-4.2-1.9-4.2-4.3c0-2.5,1.8-4.4,4.4-4.4
			C220,544.6,221.7,546.6,221.7,549z M213.9,598.7v-38.7h7v38.7H213.9z"/>
		<path class="st11" d="M267.6,579c0,14.3-9.9,20.6-19.3,20.6c-10.5,0-18.6-7.7-18.6-19.9c0-13,8.5-20.6,19.2-20.6
			C260.1,559,267.6,567.1,267.6,579z M236.9,579.4c0,8.5,4.9,14.9,11.8,14.9c6.7,0,11.8-6.3,11.8-15c0-6.6-3.3-14.9-11.6-14.9
			C240.5,564.3,236.9,572,236.9,579.4z M259.2,543.2l-9.8,11.4h-5l7-11.4H259.2z"/>
		<path class="st11" d="M276.5,570.4c0-4-0.1-7.3-0.3-10.5h6.2l0.4,6.4h0.2c1.9-3.7,6.4-7.3,12.8-7.3c5.4,0,13.7,3.2,13.7,16.5v23.1
			h-7v-22.3c0-6.2-2.3-11.4-9-11.4c-4.6,0-8.2,3.3-9.4,7.2c-0.3,0.9-0.5,2.1-0.5,3.3v23.3h-7V570.4z"/>
		<path class="st11" d="M371.3,541.8v46.8c0,3.4,0.1,7.4,0.3,10h-6.3l-0.3-6.7h-0.2c-2.2,4.3-6.9,7.6-13.2,7.6
			c-9.4,0-16.6-7.9-16.6-19.7C335,567,343,559,352.4,559c5.9,0,9.9,2.8,11.7,5.9h0.2v-23.1H371.3z M364.3,575.7c0-0.9-0.1-2.1-0.3-3
			c-1-4.5-4.9-8.2-10.2-8.2c-7.3,0-11.6,6.4-11.6,15c0,7.8,3.8,14.3,11.4,14.3c4.7,0,9-3.1,10.3-8.4c0.2-1,0.3-1.9,0.3-3V575.7z"/>
		<path class="st11" d="M386.9,580.6c0.2,9.5,6.2,13.4,13.3,13.4c5,0,8.1-0.9,10.7-2l1.2,5c-2.5,1.1-6.7,2.4-12.9,2.4
			c-11.9,0-19-7.8-19-19.5c0-11.7,6.9-20.9,18.2-20.9c12.6,0,16,11.1,16,18.2c0,1.4-0.2,2.6-0.2,3.3H386.9z M407.6,575.5
			c0.1-4.5-1.8-11.4-9.8-11.4c-7.1,0-10.2,6.6-10.8,11.4H407.6z"/>
		<path class="st11" d="M440.3,545.4c3.5-0.7,8.6-1.1,13.4-1.1c7.4,0,12.2,1.4,15.6,4.4c2.7,2.4,4.2,6.1,4.2,10.2
			c0,7.1-4.5,11.8-10.2,13.8v0.2c4.2,1.4,6.6,5.3,7.9,10.9c1.8,7.5,3,12.7,4.2,14.8h-7.2c-0.9-1.5-2.1-6.2-3.6-12.9
			c-1.6-7.4-4.5-10.2-10.8-10.5h-6.6v23.4h-7V545.4z M447.2,570h7.1c7.4,0,12.2-4.1,12.2-10.2c0-7-5-10-12.4-10.1
			c-3.4,0-5.8,0.3-6.9,0.6V570z"/>
		<path class="st11" d="M487.3,580.6c0.2,9.5,6.2,13.4,13.3,13.4c5,0,8.1-0.9,10.7-2l1.2,5c-2.5,1.1-6.7,2.4-12.9,2.4
			c-11.9,0-19-7.8-19-19.5c0-11.7,6.9-20.9,18.2-20.9c12.6,0,16,11.1,16,18.2c0,1.4-0.2,2.6-0.2,3.3H487.3z M508,575.5
			c0.1-4.5-1.8-11.4-9.8-11.4c-7.1,0-10.2,6.6-10.8,11.4H508z"/>
		<path class="st11" d="M522.5,591.5c2.1,1.4,5.8,2.8,9.3,2.8c5.1,0,7.5-2.6,7.5-5.8c0-3.4-2-5.2-7.2-7.1c-7-2.5-10.2-6.3-10.2-11
			c0-6.2,5-11.4,13.4-11.4c3.9,0,7.4,1.1,9.5,2.4l-1.8,5.1c-1.5-1-4.3-2.2-7.9-2.2c-4.2,0-6.5,2.4-6.5,5.3c0,3.2,2.3,4.6,7.4,6.6
			c6.7,2.6,10.2,5.9,10.2,11.7c0,6.8-5.3,11.6-14.5,11.6c-4.2,0-8.2-1-10.9-2.6L522.5,591.5z"/>
		<path class="st11" d="M559.1,580.6c0.2,9.5,6.2,13.4,13.3,13.4c5,0,8.1-0.9,10.7-2l1.2,5c-2.5,1.1-6.7,2.4-12.9,2.4
			c-11.9,0-19-7.8-19-19.5c0-11.7,6.9-20.9,18.2-20.9c12.6,0,16,11.1,16,18.2c0,1.4-0.2,2.6-0.2,3.3H559.1z M579.7,575.5
			c0.1-4.5-1.8-11.4-9.8-11.4c-7.1,0-10.2,6.6-10.8,11.4H579.7z"/>
		<path class="st11" d="M595.2,572c0-4.6-0.1-8.5-0.3-12.1h6.2l0.2,7.6h0.3c1.8-5.2,6-8.5,10.7-8.5c0.8,0,1.4,0.1,2,0.2v6.6
			c-0.7-0.2-1.4-0.2-2.4-0.2c-5,0-8.5,3.8-9.4,9c-0.2,1-0.3,2.1-0.3,3.3v20.6h-7V572z"/>
		<path class="st11" d="M626.1,559.9l7.6,21.8c1.3,3.5,2.3,6.7,3.1,9.9h0.2c0.9-3.2,2-6.4,3.3-9.9l7.5-21.8h7.4L640,598.7h-6.7
			l-14.7-38.7H626.1z"/>
		<path class="st11" d="M683,598.7l-0.6-4.9h-0.2c-2.2,3-6.3,5.8-11.8,5.8c-7.8,0-11.8-5.5-11.8-11.1c0-9.4,8.3-14.5,23.3-14.4v-0.8
			c0-3.2-0.9-9-8.8-9c-3.6,0-7.4,1.1-10.1,2.9l-1.6-4.6c3.2-2.1,7.8-3.4,12.7-3.4c11.8,0,14.7,8.1,14.7,15.8v14.5
			c0,3.4,0.2,6.6,0.6,9.3H683z M682,578.9c-7.7-0.2-16.4,1.2-16.4,8.7c0,4.6,3,6.7,6.6,6.7c5,0,8.2-3.2,9.4-6.5
			c0.2-0.7,0.4-1.5,0.4-2.2V578.9z"/>
		<path class="st11" d="M183.4,626.8v46.8c0,3.4,0.1,7.4,0.3,10h-6.3l-0.3-6.7h-0.2c-2.2,4.3-6.9,7.6-13.2,7.6
			c-9.4,0-16.6-7.9-16.6-19.7c-0.1-12.9,7.9-20.8,17.4-20.8c5.9,0,9.9,2.8,11.7,5.9h0.2v-23.1H183.4z M176.4,660.7
			c0-0.9-0.1-2.1-0.3-3c-1-4.5-4.9-8.2-10.2-8.2c-7.3,0-11.6,6.4-11.6,15c0,7.8,3.8,14.3,11.4,14.3c4.7,0,9-3.1,10.3-8.4
			c0.2-1,0.3-1.9,0.3-3V660.7z"/>
		<path class="st11" d="M199,665.6c0.2,9.5,6.2,13.4,13.3,13.4c5,0,8.1-0.9,10.7-2l1.2,5c-2.5,1.1-6.7,2.4-12.9,2.4
			c-11.9,0-19-7.8-19-19.5c0-11.7,6.9-20.9,18.2-20.9c12.6,0,16,11.1,16,18.2c0,1.4-0.2,2.6-0.2,3.3H199z M219.6,660.5
			c0.1-4.5-1.8-11.4-9.8-11.4c-7.1,0-10.2,6.6-10.8,11.4H219.6z"/>
		<path class="st11" d="M261.1,666.7l-5.6,17h-7.2l18.3-53.9h8.4l18.4,53.9H286l-5.8-17H261.1z M278.8,661.2l-5.3-15.5
			c-1.2-3.5-2-6.7-2.8-9.8h-0.2c-0.8,3.2-1.7,6.5-2.7,9.8l-5.3,15.6H278.8z"/>
		<path class="st11" d="M300.8,655.4c0-4-0.1-7.3-0.3-10.5h6.2l0.3,6.2h0.2c2.2-3.7,5.8-7.1,12.2-7.1c5.3,0,9.3,3.2,11,7.8h0.2
			c1.2-2.2,2.7-3.8,4.3-5c2.3-1.8,4.9-2.7,8.6-2.7c5.1,0,12.7,3.4,12.7,16.8v22.8h-6.9v-21.9c0-7.4-2.7-11.9-8.4-11.9
			c-4,0-7.1,3-8.3,6.4c-0.3,1-0.6,2.2-0.6,3.5v23.9h-6.9v-23.2c0-6.2-2.7-10.6-8.1-10.6c-4.4,0-7.6,3.5-8.7,7
			c-0.4,1-0.6,2.2-0.6,3.4v23.4h-6.9V655.4z"/>
		<path class="st11" d="M367.2,683.7c0.2-2.6,0.3-6.6,0.3-10v-46.8h7v24.3h0.2c2.5-4.3,7-7.1,13.2-7.1c9.6,0,16.4,8,16.3,19.8
			c0,13.8-8.7,20.7-17.4,20.7c-5.6,0-10.1-2.2-13-7.3h-0.2l-0.3,6.4H367.2z M374.5,668.1c0,0.9,0.2,1.8,0.3,2.6
			c1.4,4.9,5.4,8.2,10.6,8.2c7.4,0,11.8-6,11.8-14.9c0-7.8-4-14.4-11.5-14.4c-4.8,0-9.3,3.3-10.7,8.6c-0.2,0.8-0.4,1.8-0.4,2.9
			V668.1z"/>
		<path class="st11" d="M420.9,634c0.1,2.4-1.7,4.3-4.5,4.3c-2.5,0-4.2-1.9-4.2-4.3c0-2.5,1.8-4.4,4.4-4.4
			C419.2,629.6,420.9,631.6,420.9,634z M413.1,683.7v-38.7h7v38.7H413.1z"/>
		<path class="st11" d="M435.7,665.6c0.2,9.5,6.2,13.4,13.3,13.4c5,0,8.1-0.9,10.7-2l1.2,5c-2.5,1.1-6.7,2.4-12.9,2.4
			c-11.9,0-19-7.8-19-19.5c0-11.7,6.9-20.9,18.2-20.9c12.6,0,16,11.1,16,18.2c0,1.4-0.2,2.6-0.2,3.3H435.7z M456.4,660.5
			c0.1-4.5-1.8-11.4-9.8-11.4c-7.1,0-10.2,6.6-10.8,11.4H456.4z"/>
		<path class="st11" d="M471.9,655.4c0-4-0.1-7.3-0.3-10.5h6.2l0.4,6.4h0.2c1.9-3.7,6.4-7.3,12.8-7.3c5.4,0,13.7,3.2,13.7,16.5v23.1
			h-7v-22.3c0-6.2-2.3-11.4-9-11.4c-4.6,0-8.2,3.3-9.4,7.2c-0.3,0.9-0.5,2.1-0.5,3.3v23.3h-7V655.4z"/>
		<path class="st11" d="M524.4,633.8v11.1h10.1v5.4h-10.1v20.9c0,4.8,1.4,7.5,5.3,7.5c1.8,0,3.2-0.2,4.1-0.5l0.3,5.3
			c-1.4,0.6-3.5,1-6.2,1c-3.3,0-5.9-1-7.6-3c-2-2.1-2.7-5.5-2.7-10.1v-21.1h-6v-5.4h6v-9.3L524.4,633.8z"/>
		<path class="st11" d="M545.9,665.6c0.2,9.5,6.2,13.4,13.3,13.4c5,0,8.1-0.9,10.7-2l1.2,5c-2.5,1.1-6.7,2.4-12.9,2.4
			c-11.9,0-19-7.8-19-19.5c0-11.7,6.9-20.9,18.2-20.9c12.6,0,16,11.1,16,18.2c0,1.4-0.2,2.6-0.2,3.3H545.9z M566.5,660.5
			c0.1-4.5-1.8-11.4-9.8-11.4c-7.1,0-10.2,6.6-10.8,11.4H566.5z"/>
		<path class="st11" d="M581.1,676.5c2.1,1.4,5.8,2.8,9.3,2.8c5.1,0,7.5-2.6,7.5-5.8c0-3.4-2-5.2-7.2-7.1c-7-2.5-10.2-6.3-10.2-11
			c0-6.2,5-11.4,13.4-11.4c3.9,0,7.4,1.1,9.5,2.4l-1.8,5.1c-1.5-1-4.3-2.2-7.9-2.2c-4.2,0-6.5,2.4-6.5,5.3c0,3.2,2.3,4.6,7.4,6.6
			c6.7,2.6,10.2,5.9,10.2,11.7c0,6.8-5.3,11.6-14.5,11.6c-4.2,0-8.2-1-10.9-2.6L581.1,676.5z"/>
	</g>
</g>
<g>
	<g>
		<path class="st56" d="M389.1,402.3v-29.9l43.6-31.5c3.4-2.5,4.2-7.3,1.7-10.8c-2.5-3.5-7.3-4.2-10.7-1.8l-34.6,25v-65.1l28.6-20.7
			c3.4-2.5,4.2-7.3,1.7-10.8c-2.5-3.5-7.3-4.2-10.7-1.8l-19.7,14.2V229c0-4.3-3.4-7.7-7.7-7.7c-4.2,0-7.7,3.5-7.7,7.7v85.5l-34-24.6
			c-3.4-2.5-8.2-1.7-10.7,1.8c-2.5,3.5-1.7,8.3,1.7,10.8l43,31.1v68.8c-16.6-1.7-31.4-9.1-41.6-19.8c-0.3-0.5-0.6-1-1-1.5
			c-9-10.1-13.8-22.2-13.8-35c0-1.1,0-2.3,0.1-3.5c0.2-2.4-0.8-4.8-2.6-6.3c-22.1-19.4-34.8-47.5-34.8-76.9
			c0-17.8,4.6-35.3,13.4-50.7c0.3-0.6,0.6-1.2,0.7-1.8c5.4-9.1,12.2-17.3,20.3-24.4c1.8-1.6,2.8-3.9,2.6-6.3
			c-0.1-1.2-0.1-2.4-0.1-3.5c0-31.3,28.9-56.7,64.5-56.7c35.5,0,64.5,25.4,64.5,56.7c0,1.1,0,2.3-0.1,3.5c-0.2,2.4,0.8,4.8,2.6,6.3
			c22.1,19.4,34.8,47.5,34.8,76.9c0,29.5-12.7,57.5-34.8,76.9c-1.8,1.6-2.8,3.9-2.6,6.3c0.1,1.2,0.1,2.4,0.1,3.5
			C445.9,375,421.1,399,389.1,402.3 M273.8,416.2c-24.8,0-44.9-17.6-44.9-39.3c0-0.8,0-1.6,0.1-2.4c0.2-2.4-0.8-4.8-2.6-6.3
			c-15.7-13.8-24.6-33.7-24.6-54.5c0-20.9,9-40.8,24.6-54.5c1.8-1.6,2.8-3.9,2.6-6.3c-0.1-0.8-0.1-1.6-0.1-2.4
			c0-21.7,20.2-39.3,44.9-39.3c0.3,0,0.6,0,0.9,0c-6.7,15-10.3,31.4-10.3,48.2c0,32.7,13.5,63.8,37.2,86.1c0,0.2,0,0.5,0,0.7
			c0,15.8,5.6,30.4,15.2,42.3C311.1,404.7,293.7,416.2,273.8,416.2 M480.3,196.2c-5.3-8.4-11.7-16.2-19-23.1c0-0.2,0-0.5,0-0.7
			c0-39.8-35.8-72.2-79.8-72.2c-44,0-79.8,32.4-79.8,72.2c0,0.2,0,0.5,0,0.7c-7.3,6.9-13.7,14.6-19,23c-2.9-0.4-5.9-0.6-8.8-0.6
			c-33.1,0-60.1,24.4-60.3,54.4c-17.3,16.6-27.2,39.6-27.2,63.7c0,24.1,9.9,47.1,27.2,63.7c0.2,27.6,23.1,50.5,52.6,53.9V460
			c0,4.3,3.4,7.7,7.7,7.7c4.2,0,7.7-3.5,7.7-7.7v-28.9c20.6-2.4,38.3-14.4,47-31.2c12.3,9.9,28,16.4,45.3,17.9V460
			c0,4.3,3.4,7.7,7.7,7.7c4.2,0,7.7-3.5,7.7-7.7v-42.2c17.5-1.5,33.4-8.2,45.8-18.3c0,0,9.2-8,11.8-11.5c9.7-12.2,14.9-27,14.9-42
			c0-0.2,0-0.5,0-0.7c23.7-22.2,37.2-53.4,37.2-86.1c0-16.7-3.5-33.1-10.3-48.2L480.3,196.2z"/>
	</g>
</g>
<path class="st56" d="M230.8,460.1L230.8,460.1c0-4.2,3.4-7.7,7.7-7.7h35.3v15.4h-35.3C234.3,467.7,230.8,464.3,230.8,460.1z"/>
<path class="st56" d="M324.5,460.1L324.5,460.1c0-4.2,3.4-7.7,7.7-7.7h27.6c4.2,0,7.7,3.4,7.7,7.7v0c0,4.2-3.4,7.7-7.7,7.7h-27.6
	C327.9,467.7,324.5,464.3,324.5,460.1z"/>
<path class="st56" d="M394.5,460.1L394.5,460.1c0-4.2,3.4-7.7,7.7-7.7h5.6c4.2,0,7.7,3.4,7.7,7.7v0c0,4.2-3.4,7.7-7.7,7.7h-5.6
	C397.9,467.7,394.5,464.3,394.5,460.1z"/>
</svg>
