<?xml version="1.0" encoding="utf-8"?>
<!-- Generator: Adobe Illustrator 23.0.1, SVG Export Plug-In . SVG Version: 6.00 Build 0)  -->
<svg version="1.1" id="Layer_1" xmlns="http://www.w3.org/2000/svg" xmlns:xlink="http://www.w3.org/1999/xlink" x="0px" y="0px"
	 viewBox="0 0 750 750" style="enable-background:new 0 0 750 750;" xml:space="preserve">
<style type="text/css">
	.st0{fill:#266CB4;}
	.st1{fill:#E6F0F2;stroke:#266CB4;stroke-width:6.72;stroke-miterlimit:10;}
	.st2{fill:#9CDEF2;stroke:#266CB4;stroke-width:6.72;stroke-miterlimit:10;}
	.st3{fill:#798284;stroke:#266CB4;stroke-width:6.72;stroke-miterlimit:10;}
	.st4{fill:#D3D3D3;stroke:#266CB4;stroke-width:6.72;stroke-miterlimit:10;}
	.st5{fill:#EFF2FA;}
	.st6{fill:#707487;}
	.st7{fill:#8F96AC;}
	.st8{fill:#606060;}
</style>
<title>Artboard 47 copy 12</title>
<g>
	<path class="st0" d="M283.7,136.9l-9.1,18.1h69l-9.1-18.1c-2.2-4.2-6.5-6.9-11.2-6.9h-28.4C290.2,130,285.9,132.7,283.7,136.9z"/>
	<path class="st1" d="M475.4,242.9H274.6c-3.5,0-6.3-2.8-6.3-6.3v-87.8c0-3.5,2.8-6.3,6.3-6.3h200.7c3.5,0,6.3,2.8,6.3,6.3v87.8
		C481.6,240.1,478.8,242.9,475.4,242.9z"/>
	<path class="st2" d="M487.9,255.4H262.1c-3.5,0-6.3-2.8-6.3-6.3v-87.8c0-3.5,2.8-6.3,6.3-6.3h225.8c3.5,0,6.3,2.8,6.3,6.3v87.8
		C494.2,252.6,491.4,255.4,487.9,255.4z"/>
	<path class="st3" d="M555.3,265.1l-28-50.4c-1.1-2-3.2-3.2-5.5-3.2H228.2c-2.3,0-4.4,1.2-5.5,3.2l-28,50.4c-1,1.9-1.6,4-1.6,6.1
		v28.1h363.8v-28.1C556.9,269.1,556.4,267,555.3,265.1z"/>
	<path class="st0" d="M271.2,162l-9.1,18.2h76.8l-9.1-18.2c-2.1-4.3-6.5-7-11.2-7h-36.2C277.6,155,273.3,157.7,271.2,162z"/>
	<path class="st1" d="M487.9,268H262.1c-3.5,0-6.3-2.8-6.3-6.3v-87.9c0-3.5,2.8-6.3,6.3-6.3l0,0h225.8c3.5,0,6.3,2.8,6.3,6.3v87.8
		C494.2,265.1,491.4,268,487.9,268C487.9,268,487.9,268,487.9,268z"/>
	<path class="st2" d="M500.5,280.5H249.6c-3.5,0-6.3-2.8-6.3-6.3v-87.8c0-3.5,2.8-6.3,6.3-6.3c0,0,0,0,0,0h250.9
		c3.5,0,6.3,2.8,6.3,6.3c0,0,0,0,0,0v87.8C506.7,277.7,503.9,280.5,500.5,280.5z"/>
	<path class="st0" d="M258.6,187.1l-9.1,18.2h94.1l-9.1-18.2c-2.1-4.2-6.5-6.9-11.2-6.9h-53.5C265.1,180.1,260.8,182.8,258.6,187.1z
		"/>
	<path class="st1" d="M500.5,293H249.6c-3.5,0-6.3-2.8-6.3-6.3V199c0-3.5,2.8-6.3,6.3-6.3h250.9c3.5,0,6.3,2.8,6.3,6.3v87.8
		C506.7,290.3,503.9,293,500.5,293z"/>
	<path class="st2" d="M513,305.6H237c-3.5,0-6.3-2.8-6.3-6.3v-87.8c0-3.5,2.8-6.3,6.3-6.3c0,0,0,0,0,0h276c3.5,0,6.3,2.8,6.3,6.3
		c0,0,0,0,0,0v87.8C519.3,302.8,516.5,305.6,513,305.6L513,305.6z"/>
	<path class="st4" d="M550.6,268H447.9c-2.4,0-4.5,1.3-5.6,3.5l-7.4,14.7c-2.2,4.2-6.5,6.9-11.2,6.8h-97.4c-4.8,0-9.1-2.7-11.2-6.9
		l-7.3-14.7c-1.1-2.1-3.2-3.5-5.6-3.5H199.4c-3.5,0-6.3,2.8-6.3,6.3v119.2c0,3.5,2.8,6.3,6.3,6.3h351.3c3.5,0,6.3-2.8,6.3-6.3V274.2
		C556.9,270.8,554.1,268,550.6,268z"/>
	<path class="st5" d="M425.2,255.4h75.3c3.5,0,6.3-2.8,6.3-6.3V224c0-3.5-2.8-6.3-6.3-6.3h-75.3c-3.5,0-6.3,2.8-6.3,6.3v25.1
		C418.9,252.6,421.7,255.4,425.2,255.4C425.2,255.4,425.2,255.4,425.2,255.4z"/>
	<path class="st6" d="M462.8,230.3h-25.1c-3.5,0-6.3,2.8-6.3,6.3l0,0c0,3.5,2.8,6.3,6.3,6.3h25.1c3.5,0,6.3-2.8,6.3-6.3l0,0
		C469.1,233.1,466.3,230.3,462.8,230.3z"/>
	<path class="st7" d="M487.9,230.3h-6.3c-3.5,0-6.3,2.8-6.3,6.3l0,0c0,3.5,2.8,6.3,6.3,6.3h6.3c3.5,0,6.3-2.8,6.3-6.3l0,0
		C494.2,233.1,491.4,230.3,487.9,230.3z"/>
</g>
<g>
	<path class="st8" d="M288.7,468.3h-17.4v48.2h-7.1v-48.2h-17.3v-5.8h41.8V468.3z"/>
	<path class="st8" d="M312.3,482.5c-1-0.2-2.2-0.3-3.4-0.3c-4.5,0-7.6,1.9-9.2,5.8v28.5h-6.9v-40.2h6.7l0.1,4.6
		c2.3-3.6,5.4-5.4,9.6-5.4c1.3,0,2.4,0.2,3,0.5V482.5z"/>
	<path class="st8" d="M343.4,516.5c-0.4-0.8-0.7-2.2-1-4.2c-3.2,3.3-7,5-11.4,5c-4,0-7.2-1.1-9.7-3.4c-2.5-2.2-3.8-5.1-3.8-8.5
		c0-4.2,1.6-7.4,4.8-9.7c3.2-2.3,7.7-3.5,13.4-3.5h6.7V489c0-2.4-0.7-4.3-2.2-5.7c-1.4-1.4-3.6-2.1-6.3-2.1c-2.4,0-4.5,0.6-6.2,1.9
		c-1.7,1.2-2.5,2.7-2.5,4.5h-6.9c0-2,0.7-3.9,2.1-5.8c1.4-1.9,3.4-3.3,5.8-4.4c2.4-1.1,5.1-1.6,8-1.6c4.6,0,8.3,1.2,10.9,3.5
		c2.6,2.3,4,5.5,4.1,9.6v18.5c0,3.7,0.5,6.6,1.4,8.8v0.6H343.4z M332,511.2c2.2,0,4.2-0.6,6.1-1.7s3.3-2.6,4.2-4.3V497h-5.4
		c-8.4,0-12.6,2.5-12.6,7.4c0,2.2,0.7,3.8,2.2,5C327.9,510.6,329.7,511.2,332,511.2z M338.3,459.5h8.3l-9.9,10.9l-5.5,0L338.3,459.5
		z"/>
	<path class="st8" d="M366.4,476.3l0.2,4.5c2.9-3.5,6.9-5.2,11.9-5.2c5.6,0,9.4,2.2,11.5,6.5c1.3-1.9,3.1-3.5,5.2-4.7
		c2.1-1.2,4.7-1.8,7.6-1.8c8.8,0,13.3,4.7,13.4,14v26.9h-6.9V490c0-2.9-0.7-5-2-6.4c-1.3-1.4-3.5-2.1-6.6-2.1
		c-2.5,0-4.7,0.8-6.3,2.3c-1.7,1.5-2.7,3.6-2.9,6.1v26.6h-6.9v-26.3c0-5.8-2.9-8.8-8.6-8.8c-4.5,0-7.6,1.9-9.2,5.8v29.3h-6.9v-40.2
		H366.4z"/>
	<path class="st8" d="M426.6,465.7c0-1.1,0.3-2.1,1-2.8c0.7-0.8,1.7-1.2,3-1.2s2.3,0.4,3,1.2c0.7,0.8,1,1.7,1,2.8s-0.3,2-1,2.8
		c-0.7,0.7-1.7,1.1-3,1.1s-2.3-0.4-3-1.1C426.9,467.7,426.6,466.8,426.6,465.7z M434,516.5h-6.9v-40.2h6.9V516.5z"/>
	<path class="st8" d="M454.3,466.6v9.7h7.5v5.3h-7.5v24.9c0,1.6,0.3,2.8,1,3.6s1.8,1.2,3.4,1.2c0.8,0,1.9-0.1,3.3-0.4v5.5
		c-1.8,0.5-3.6,0.7-5.3,0.7c-3.1,0-5.4-0.9-6.9-2.8s-2.3-4.5-2.3-7.9v-24.9h-7.3v-5.3h7.3v-9.7H454.3z"/>
	<path class="st8" d="M486.5,517.2c-5.4,0-9.9-1.8-13.3-5.4c-3.4-3.6-5.1-8.4-5.1-14.3v-1.3c0-4,0.8-7.5,2.3-10.7
		c1.5-3.1,3.6-5.6,6.4-7.3c2.7-1.8,5.7-2.7,8.9-2.7c5.2,0,9.3,1.7,12.2,5.2c2.9,3.4,4.3,8.4,4.3,14.8v2.9h-27.2
		c0.1,4,1.3,7.2,3.5,9.6c2.2,2.4,5,3.7,8.4,3.7c2.4,0,4.5-0.5,6.2-1.5c1.7-1,3.2-2.3,4.4-3.9l4.2,3.3
		C498.3,514.6,493.2,517.2,486.5,517.2z M485.6,481.2c-2.8,0-5.1,1-7,3c-1.9,2-3,4.8-3.5,8.5h20.1v-0.5c-0.2-3.5-1.1-6.2-2.8-8.1
		C490.8,482.2,488.5,481.2,485.6,481.2z"/>
	<path class="st8" d="M142.6,601.5v-54h15.3c4.7,0,8.9,1,12.5,3.1c3.6,2.1,6.4,5,8.4,8.9c2,3.8,3,8.2,3,13.2v3.5c0,5.1-1,9.6-3,13.4
		c-2,3.8-4.8,6.8-8.4,8.8c-3.6,2.1-7.9,3.1-12.7,3.2H142.6z M149.7,553.3v42.4h7.5c5.5,0,9.8-1.7,12.8-5.1c3.1-3.4,4.6-8.3,4.6-14.6
		v-3.2c0-6.1-1.4-10.9-4.3-14.3c-2.9-3.4-7-5.1-12.3-5.2H149.7z"/>
	<path class="st8" d="M189.5,581c0-3.9,0.8-7.5,2.3-10.6c1.5-3.1,3.7-5.6,6.5-7.3c2.8-1.7,5.9-2.6,9.4-2.6c5.5,0,9.9,1.9,13.3,5.7
		s5.1,8.8,5.1,15.1v0.5c0,3.9-0.7,7.4-2.2,10.5c-1.5,3.1-3.6,5.5-6.4,7.3c-2.8,1.7-6,2.6-9.6,2.6c-5.4,0-9.9-1.9-13.2-5.7
		s-5.1-8.8-5.1-15V581z M196.4,581.8c0,4.5,1,8,3.1,10.7c2.1,2.7,4.8,4,8.3,4c3.5,0,6.3-1.4,8.3-4.1c2.1-2.7,3.1-6.6,3.1-11.5
		c0-4.4-1-8-3.1-10.7c-2.1-2.7-4.9-4.1-8.3-4.1c-3.4,0-6.1,1.3-8.2,4C197.5,573,196.4,576.8,196.4,581.8z"/>
	<path class="st8" d="M250.8,596.6c2.4,0,4.6-0.7,6.4-2.2c1.8-1.5,2.8-3.3,3-5.6h6.5c-0.1,2.3-0.9,4.5-2.4,6.6
		c-1.5,2.1-3.4,3.7-5.8,5c-2.4,1.2-5,1.9-7.7,1.9c-5.5,0-9.8-1.8-13-5.5c-3.2-3.6-4.8-8.6-4.8-15v-1.2c0-3.9,0.7-7.4,2.2-10.4
		c1.4-3,3.5-5.4,6.2-7.1c2.7-1.7,5.9-2.5,9.5-2.5c4.5,0,8.2,1.3,11.2,4c3,2.7,4.6,6.2,4.8,10.5h-6.5c-0.2-2.6-1.2-4.7-3-6.4
		c-1.8-1.7-4-2.5-6.5-2.5c-3.5,0-6.2,1.3-8.1,3.8c-1.9,2.5-2.9,6.1-2.9,10.9v1.3c0,4.6,1,8.2,2.9,10.7
		C244.6,595.4,247.3,596.6,250.8,596.6z"/>
	<path class="st8" d="M299.3,597.5c-2.7,3.1-6.6,4.7-11.8,4.7c-4.3,0-7.5-1.2-9.8-3.7c-2.2-2.5-3.4-6.2-3.4-11v-26.1h6.9v25.9
		c0,6.1,2.5,9.1,7.4,9.1c5.2,0,8.7-2,10.5-5.9v-29.2h6.9v40.2h-6.5L299.3,597.5z"/>
	<path class="st8" d="M322.8,561.3l0.2,4.5c2.9-3.5,6.9-5.2,11.9-5.2c5.6,0,9.4,2.2,11.5,6.5c1.3-1.9,3.1-3.5,5.2-4.7
		c2.1-1.2,4.7-1.8,7.6-1.8c8.8,0,13.3,4.7,13.4,14v26.9h-6.9V575c0-2.9-0.7-5-2-6.4c-1.3-1.4-3.5-2.1-6.6-2.1
		c-2.5,0-4.7,0.8-6.3,2.3c-1.7,1.5-2.7,3.6-2.9,6.1v26.6H341v-26.3c0-5.8-2.9-8.8-8.6-8.8c-4.5,0-7.6,1.9-9.2,5.8v29.3h-6.9v-40.2
		H322.8z"/>
	<path class="st8" d="M399.7,602.2c-5.4,0-9.9-1.8-13.3-5.4c-3.4-3.6-5.1-8.4-5.1-14.3v-1.3c0-4,0.8-7.5,2.3-10.7
		c1.5-3.1,3.6-5.6,6.4-7.3c2.7-1.8,5.7-2.7,8.9-2.7c5.2,0,9.3,1.7,12.2,5.2c2.9,3.4,4.3,8.4,4.3,14.8v2.9h-27.2
		c0.1,4,1.3,7.2,3.5,9.6c2.2,2.4,5,3.7,8.4,3.7c2.4,0,4.5-0.5,6.2-1.5c1.7-1,3.2-2.3,4.4-3.9l4.2,3.3
		C411.4,599.6,406.4,602.2,399.7,602.2z M398.8,566.2c-2.8,0-5.1,1-7,3c-1.9,2-3,4.8-3.5,8.5h20.1v-0.5c-0.2-3.5-1.1-6.2-2.8-8.1
		C404,567.2,401.7,566.2,398.8,566.2z"/>
	<path class="st8" d="M429.8,561.3l0.2,5c3.1-3.9,7.1-5.8,12-5.8c8.5,0,12.8,4.8,12.8,14.4v26.5H448v-26.6c0-2.9-0.7-5-2-6.4
		c-1.3-1.4-3.3-2.1-6.1-2.1c-2.2,0-4.2,0.6-5.9,1.8c-1.7,1.2-3,2.7-3.9,4.7v28.6h-6.9v-40.2H429.8z"/>
	<path class="st8" d="M474.5,551.6v9.7h7.5v5.3h-7.5v24.9c0,1.6,0.3,2.8,1,3.6s1.8,1.2,3.4,1.2c0.8,0,1.9-0.1,3.3-0.4v5.5
		c-1.8,0.5-3.6,0.7-5.3,0.7c-3.1,0-5.4-0.9-6.9-2.8s-2.3-4.5-2.3-7.9v-24.9h-7.3v-5.3h7.3v-9.7H474.5z"/>
	<path class="st8" d="M514.8,601.5c-0.4-0.8-0.7-2.2-1-4.2c-3.2,3.3-7,5-11.4,5c-4,0-7.2-1.1-9.7-3.4c-2.5-2.2-3.8-5.1-3.8-8.5
		c0-4.2,1.6-7.4,4.8-9.7c3.2-2.3,7.7-3.5,13.4-3.5h6.7V574c0-2.4-0.7-4.3-2.2-5.7c-1.4-1.4-3.6-2.1-6.3-2.1c-2.4,0-4.5,0.6-6.2,1.9
		c-1.7,1.2-2.5,2.7-2.5,4.5h-6.9c0-2,0.7-3.9,2.1-5.8c1.4-1.9,3.4-3.3,5.8-4.4c2.4-1.1,5.1-1.6,8-1.6c4.6,0,8.2,1.2,10.9,3.5
		c2.6,2.3,4,5.5,4.1,9.6v18.5c0,3.7,0.5,6.6,1.4,8.8v0.6H514.8z M503.4,596.2c2.2,0,4.2-0.6,6.1-1.7s3.3-2.6,4.2-4.3V582h-5.4
		c-8.4,0-12.6,2.5-12.6,7.4c0,2.2,0.7,3.8,2.2,5C499.3,595.6,501.2,596.2,503.4,596.2z"/>
	<path class="st8" d="M550.8,567.5c-1-0.2-2.2-0.3-3.4-0.3c-4.5,0-7.6,1.9-9.2,5.8v28.5h-6.9v-40.2h6.7l0.1,4.6
		c2.3-3.6,5.4-5.4,9.6-5.4c1.3,0,2.3,0.2,3,0.5V567.5z"/>
	<path class="st8" d="M557.1,550.7c0-1.1,0.3-2.1,1-2.8c0.7-0.8,1.7-1.2,3-1.2s2.3,0.4,3,1.2c0.7,0.8,1,1.7,1,2.8s-0.3,2-1,2.8
		c-0.7,0.7-1.7,1.1-3,1.1s-2.3-0.4-3-1.1C557.5,552.7,557.1,551.8,557.1,550.7z M564.5,601.5h-6.9v-40.2h6.9V601.5z"/>
	<path class="st8" d="M573.7,581c0-3.9,0.8-7.5,2.3-10.6c1.5-3.1,3.7-5.6,6.5-7.3c2.8-1.7,5.9-2.6,9.4-2.6c5.5,0,9.9,1.9,13.3,5.7
		s5.1,8.8,5.1,15.1v0.5c0,3.9-0.7,7.4-2.2,10.5c-1.5,3.1-3.6,5.5-6.4,7.3c-2.8,1.7-6,2.6-9.6,2.6c-5.4,0-9.9-1.9-13.2-5.7
		s-5.1-8.8-5.1-15V581z M580.6,581.8c0,4.5,1,8,3.1,10.7c2.1,2.7,4.8,4,8.3,4c3.5,0,6.3-1.4,8.3-4.1c2.1-2.7,3.1-6.6,3.1-11.5
		c0-4.4-1-8-3.1-10.7c-2.1-2.7-4.9-4.1-8.3-4.1c-3.4,0-6.1,1.3-8.2,4C581.6,573,580.6,576.8,580.6,581.8z"/>
</g>
</svg>
