<?xml version="1.0" encoding="utf-8"?>
<!-- Generator: Adobe Illustrator 23.0.1, SVG Export Plug-In . SVG Version: 6.00 Build 0)  -->
<svg version="1.1" id="Layer_1" xmlns="http://www.w3.org/2000/svg" xmlns:xlink="http://www.w3.org/1999/xlink" x="0px" y="0px"
	 viewBox="0 0 750 750" style="enable-background:new 0 0 750 750;" xml:space="preserve">
<style type="text/css">
	.st0{fill:#009736;}
	.st1{fill:#E6E6E6;}
	.st2{fill:#006320;}
	.st3{opacity:0.6;fill:#BBBBBC;enable-background:new    ;}
	.st4{fill:#FFFFFF;}
	.st5{fill:#6E6C71;}
	.st6{fill:#606060;}
</style>
<title>Artboard 47 copy</title>
<g>
	<path class="st0" d="M233.6,423.1c0,0-22.8,1.1-18.4-13.9c2.3-8.6,9.6-14.9,18.4-15.8H526c0,0,13.9,11.4,11.7,20.3
		s-7.6,11.7-7.6,11.7L233.6,423.1z"/>
	<path class="st1" d="M469.9,324.5H279.7c-2.1-0.1-3.8-1.8-3.8-4c0-0.1,0-0.1,0-0.2l5.9-116.1c0.1-2.1,1.7-3.7,3.8-3.8h178.3
		c2.1,0.1,3.7,1.7,3.8,3.8l5.9,116.1c0.2,2.2-1.5,4-3.6,4.2H469.9z"/>
	<path class="st0" d="M448.5,187.9c0-3.2,2.5-5.8,5.7-5.8c0,0,0,0,0.1,0h24.9c6.3,0,11.5,5,11.8,11.3l5.3,136.8
		c0.3,3.7,1.5,7.4,3.4,10.5l39,58.3c2.7,4.4,3.8,9.5,3.1,14.6l-1,6c-1.1,6-6.3,10.4-12.4,10.5H221.6c-6.1-0.1-11.3-4.5-12.4-10.5
		l-1-6c-0.7-5.1,0.4-10.2,3.1-14.6l39-58.3c2-3.2,3.1-6.8,3.4-10.5l5.3-136.8c0.3-6.3,5.5-11.3,11.8-11.3H461c3.2,0,5.8,2.6,5.9,5.8
		c0,3.2-2.6,5.8-5.8,5.9l-184.8,0.1c-3.2,0.1-5.8,2.6-5.9,5.8l-4.9,126.6c-0.1,3.1,2.2,5.6,5.3,5.8c0.1,0,0.2,0,0.2,0h208
		c3,0,5.5-2.4,5.5-5.5c0-0.1,0-0.2,0-0.3l-5.1-126.8c-0.1-3.2-2.8-5.8-6-5.8l-19.1,0.1C451.1,193.8,448.5,191.2,448.5,187.9
		C448.5,188,448.5,188,448.5,187.9z M481.8,343.6H268.1c-3.6,0.2-6.9,1.9-9,4.8l-38.2,57.1c-1.1,1.9-1.5,4.1-1.3,6.3l1,6
		c0.2,0.4,0.5,0.8,1,0.9h306.8c0.5-0.1,0.8-0.4,1-0.9l1-6c0.2-2.2-0.3-4.4-1.3-6.3l-38.2-57.1C488.7,345.5,485.4,343.8,481.8,343.6z
		"/>
	<rect x="220.4" y="389.2" class="st0" width="309.2" height="11.5"/>
	<path class="st2" d="M518.5,199.7L518.5,199.7c0.6-22.1-15.4-41.2-37.3-44.5c-3-0.5-5.9,1.6-6.4,4.6c0,0.3-0.1,0.6-0.1,0.8l0,0
		c0,2.8,2.1,5.1,4.9,5.5c16.1,2.4,28,16.2,28,32.5c0,0.4,0,0.9-0.1,1.3l0,0c0.2,3,2.8,5.4,5.8,5.2c2.8-0.2,5-2.4,5.2-5.2l0,0
		C518.5,199.8,518.5,199.8,518.5,199.7z"/>
	<path class="st2" d="M542,199.7v-1.1c0-34.8-26.6-63.9-61.3-67.1c-3-0.3-5.7,2-6,5s2,5.7,5,6l0,0c29,2.7,51.2,27,51.2,56.1
		c0,0.3,0,0.8,0,1.1v0.1l0,0v0.1l0,0c0.2,3,2.8,5.4,5.8,5.2c2.8-0.2,5-2.4,5.2-5.2l0,0L542,199.7L542,199.7z"/>
	<path class="st0" d="M336.4,275.9l6.3-25.1h5.6l-9.5,32.8h-4.5l-8-24.9l-7.8,24.9H314l-9.5-32.8h5.6l6.4,24.6l7.6-24.6h4.5
		L336.4,275.9z"/>
	<path class="st0" d="M339.4,284.5h-5.8l-0.2-0.6l-7.2-22.4l-7.2,23h-5.8l-10-34.5h7.3l5.9,22.4l7-22.4h5.7l7.1,22.9L342,250h7.4
		L339.4,284.5z M334.8,282.8h3.3l9.1-31.2h-3.9l-6.9,27.4l-8.5-27.3h-3.3l-8.3,26.7l-7-26.7h-3.9l9,31.2h3.3l8.4-26.8L334.8,282.8z"
		/>
	<path class="st0" d="M383,275.9l6.3-25.1h5.6l-9.5,32.8h-4.5l-8-24.9l-7.8,24.9h-4.5l-9.5-32.8h5.6l6.5,24.6l7.6-24.6h4.5
		L383,275.9z"/>
	<path class="st0" d="M386,284.5h-5.8l-0.2-0.6l-7.2-22.4l-7.2,23h-5.8l-10-34.5h7.3l5.9,22.4l7-22.4h5.7l7.1,22.9l5.7-22.9h7.3
		L386,284.5z M381.4,282.8h3.3l9.1-31.2h-3.9l-6.8,27.4l-8.5-27.3h-3.3l-8.3,26.7l-7-26.7h-3.9l9,31.2h3.3l8.3-26.8L381.4,282.8z"/>
	<path class="st0" d="M429.7,275.9l6.3-25.1h5.6l-9.5,32.8h-4.5l-8-24.9l-7.8,24.9h-4.5l-9.5-32.8h5.6l6.5,24.6l7.7-24.6h4.5
		L429.7,275.9z"/>
	<path class="st0" d="M432.6,284.5h-5.8l-0.2-0.6l-7.2-22.4l-7.2,23h-5.8l-10-34.5h7.3l5.9,22.4l7-22.4h5.7l7.1,22.9l5.7-22.9h7.3
		L432.6,284.5z M428.1,282.8h3.3l9.1-31.2h-3.9l-6.9,27.4l-8.5-27.3H418l-8.3,26.7l-7-26.7h-3.9l9,31.2h3.3l8.4-26.8L428.1,282.8z"
		/>
	<path class="st0" d="M443.6,280.7c0-0.9,0.3-1.8,0.9-2.4c0.7-0.7,1.6-1.1,2.6-1c1-0.1,1.9,0.3,2.6,1c0.6,0.7,0.9,1.5,0.9,2.4
		s-0.3,1.7-0.9,2.3c-0.7,0.7-1.7,1-2.6,0.9c-1,0.1-1.9-0.3-2.6-0.9C443.9,282.4,443.6,281.6,443.6,280.7z"/>
	<path class="st0" d="M447.1,284.8c-2.2,0.2-4.1-1.4-4.3-3.6c0-0.2,0-0.3,0-0.5c0-1.1,0.3-2.2,1.1-3c0.8-0.9,2-1.3,3.2-1.2
		c1.2-0.1,2.4,0.4,3.2,1.2c0.7,0.8,1.1,1.9,1.1,3s-0.4,2.1-1.1,2.9C449.4,284.4,448.3,284.9,447.1,284.8z M447.1,278.1
		c-0.7-0.1-1.5,0.2-2,0.7s-0.7,1.2-0.7,1.9c0,0.7,0.2,1.3,0.6,1.8c0.5,0.5,1.3,0.7,2,0.7c0.7,0.1,1.5-0.2,2-0.7
		c0.4-0.5,0.7-1.1,0.7-1.8c0-0.7-0.2-1.4-0.7-1.9C448.5,278.3,447.8,278.1,447.1,278.1L447.1,278.1z"/>
	<polygon class="st3" points="423.6,287.3 423.6,371.4 448.7,341.2 487.9,341.4 	"/>
	<polygon class="st4" points="414,350.8 414,284.5 464.5,327.4 434.3,326.6 	"/>
	<path class="st5" d="M410.3,276.2v84l25.1-30.1l39.2,0.1L410.3,276.2z M432.3,323.4L417,341.8v-51.2l39.2,32.9L432.3,323.4z"/>
</g>
<g>
	<path class="st6" d="M238.4,535V556h-7.1v-53.6h19.8c5.9,0,10.5,1.5,13.8,4.5c3.3,3,5,7,5,11.9c0,5.2-1.7,9.2-4.9,12
		s-7.9,4.2-14,4.2L238.4,535L238.4,535z M238.4,529.2h12.7c3.8,0,6.7-0.9,8.6-2.7c2-1.7,3-4.3,3-7.7c0-3.2-1-5.8-3-7.6
		c-2-1.9-4.8-2.9-8.3-2.9h-13V529.2z"/>
	<path class="st6" d="M275.5,535.8c0-3.9,0.7-7.4,2.3-10.5c1.6-3.1,3.7-5.5,6.4-7.2c2.8-1.7,5.9-2.6,9.4-2.6c5.4,0,9.8,1.8,13.1,5.6
		c3.3,3.8,5.1,8.7,5.1,15v0.5c0,3.9-0.7,7.3-2.2,10.4c-1.5,3-3.6,5.5-6.3,7.2c-2.8,1.7-5.9,2.6-9.5,2.6c-5.4,0-9.7-1.8-13.1-5.6
		c-3.3-3.8-5.1-8.7-5.1-14.9L275.5,535.8L275.5,535.8z M282.3,536.6c0,4.4,1,8,3,10.7c2,2.7,4.8,4,8.2,4c3.5,0,6.2-1.4,8.3-4
		c2-2.7,3-6.5,3-11.4c0-4.3-1-7.9-3.1-10.6c-2.1-2.7-4.8-4-8.3-4c-3.4,0-6.1,1.4-8.1,4C283.4,527.8,282.3,531.5,282.3,536.6z"/>
	<path class="st6" d="M339.5,522.3c-1-0.2-2.1-0.3-3.3-0.3c-4.5,0-7.4,1.9-9.1,5.7V556h-6.8v-39.8h6.6l0.1,4.6
		c2.2-3.6,5.4-5.3,9.5-5.3c1.3,0,2.3,0.2,3,0.6V522.3z"/>
	<path class="st6" d="M356.8,506.6v9.6h7.4v5.2h-7.4v24.7c0,1.6,0.4,2.8,1,3.6c0.6,0.8,1.7,1.2,3.4,1.2c0.8,0,1.8-0.2,3.2-0.5v5.5
		c-1.7,0.5-3.5,0.7-5.2,0.7c-3,0-5.3-0.9-6.9-2.8s-2.3-4.4-2.3-7.8v-24.6h-7.3v-5.2h7.3v-9.6L356.8,506.6L356.8,506.6z"/>
	<path class="st6" d="M396.7,556c-0.4-0.8-0.7-2.2-0.9-4.2c-3.1,3.3-6.9,5-11.3,5c-4,0-7.2-1.1-9.6-3.3c-2.5-2.2-3.8-5.1-3.8-8.5
		c0-4.1,1.6-7.3,4.7-9.6c3.1-2.3,7.5-3.4,13.3-3.4h6.6v-3.1c0-2.4-0.7-4.2-2.1-5.7c-1.4-1.4-3.5-2.1-6.2-2.1c-2.4,0-4.5,0.6-6.1,1.8
		c-1.7,1.2-2.5,2.7-2.5,4.4H372c0-2,0.7-3.9,2.1-5.8c1.4-1.8,3.3-3.3,5.7-4.4c2.4-1.1,5.1-1.7,8-1.7c4.6,0,8.2,1.1,10.7,3.4
		c2.6,2.3,4,5.4,4,9.5v18.3c0,3.7,0.5,6.5,1.4,8.7v0.6h-7.3V556z M385.4,550.8c2.1,0,4.1-0.6,6.1-1.7c1.9-1.1,3.3-2.6,4.1-4.3v-8.2
		h-5.3c-8.4,0-12.5,2.5-12.5,7.3c0,2.1,0.7,3.8,2.1,5C381.3,550.2,383.2,550.8,385.4,550.8z"/>
	<path class="st6" d="M420.5,556h-6.8v-56.5h6.8V556z"/>
	<path class="st6" d="M448.3,535.8c0-6.1,1.5-11,4.3-14.7c2.8-3.7,6.7-5.6,11.4-5.6c4.7,0,8.4,1.6,11,4.8v-20.8h6.8V556h-6.2
		l-0.4-4.2c-2.8,3.3-6.5,5-11.4,5c-4.6,0-8.4-1.9-11.3-5.7c-2.9-3.8-4.3-8.7-4.3-14.8L448.3,535.8L448.3,535.8z M455.1,536.6
		c0,4.5,0.9,8,2.8,10.6s4.4,3.9,7.7,3.9c4.3,0,7.4-1.9,9.5-5.8v-18.3c-2-3.8-5.1-5.6-9.4-5.6c-3.3,0-6,1.3-7.8,3.9
		C456,527.7,455.1,531.5,455.1,536.6z"/>
	<path class="st6" d="M508.9,556.7c-5.4,0-9.7-1.7-13.1-5.3c-3.4-3.6-5.1-8.3-5.1-14.2v-1.2c0-4,0.7-7.4,2.3-10.6
		c1.5-3.1,3.6-5.5,6.3-7.3c2.7-1.7,5.6-2.7,8.8-2.7c5.1,0,9.2,1.7,12,5.1c2.8,3.4,4.3,8.3,4.3,14.6v2.8h-26.9c0.1,4,1.3,7.1,3.4,9.5
		c2.2,2.4,5,3.6,8.4,3.6c2.4,0,4.4-0.5,6.1-1.5c1.7-1,3.1-2.3,4.4-3.9l4.1,3.2C520.6,554.1,515.6,556.7,508.9,556.7z M508.1,521.1
		c-2.8,0-5.1,1-6.9,3s-3,4.8-3.5,8.4h19.9v-0.6c-0.2-3.5-1.1-6.2-2.8-8C513.2,522,511,521.1,508.1,521.1z"/>
	<path class="st6" d="M181.3,593.5h-17.2v47.8h-7v-47.8h-17.2v-5.8h41.3V593.5z"/>
	<path class="st6" d="M204.6,607.5c-1-0.2-2.1-0.3-3.3-0.3c-4.5,0-7.4,1.9-9.1,5.7v28.2h-6.8v-39.7h6.6l0.1,4.6
		c2.2-3.6,5.4-5.3,9.5-5.3c1.3,0,2.3,0.2,3,0.6L204.6,607.5L204.6,607.5z"/>
	<path class="st6" d="M234,641.3c-0.4-0.8-0.7-2.2-0.9-4.2c-3.1,3.3-6.9,5-11.3,5c-4,0-7.2-1.1-9.6-3.3c-2.5-2.2-3.8-5.1-3.8-8.5
		c0-4.1,1.6-7.3,4.7-9.6c3.1-2.3,7.5-3.4,13.3-3.4h6.6v-3.1c0-2.4-0.7-4.2-2.1-5.7c-1.4-1.4-3.5-2.1-6.2-2.1c-2.4,0-4.5,0.6-6.1,1.8
		c-1.7,1.2-2.5,2.7-2.5,4.4h-6.8c0-2,0.7-3.9,2.1-5.8c1.4-1.8,3.3-3.3,5.7-4.4c2.4-1.1,5.1-1.7,8-1.7c4.6,0,8.2,1.1,10.7,3.4
		s4,5.4,4,9.5v18.3c0,3.7,0.5,6.5,1.4,8.7v0.6H234V641.3z M222.7,636c2.1,0,4.1-0.6,6.1-1.7c1.9-1.1,3.3-2.6,4.1-4.3v-8.2h-5.3
		c-8.4,0-12.5,2.5-12.5,7.3c0,2.1,0.7,3.8,2.1,5C218.7,635.5,220.5,636,222.7,636z"/>
	<path class="st6" d="M256.8,601.5l0.2,5c3-3.9,7-5.7,11.9-5.7c8.4,0,12.7,4.8,12.7,14.2v26.3h-6.7V615c0-2.8-0.6-5-1.9-6.3
		c-1.3-1.4-3.3-2-6-2c-2.2,0-4.1,0.6-5.8,1.7c-1.7,1.2-2.9,2.8-3.9,4.6v28.3h-6.8v-39.8H256.8z"/>
	<path class="st6" d="M315,630.7c0-1.8-0.7-3.3-2.1-4.3c-1.4-1-3.8-1.9-7.3-2.7c-3.4-0.7-6.2-1.7-8.2-2.7c-2-1-3.5-2.3-4.5-3.7
		c-1-1.4-1.5-3.1-1.5-5.1c0-3.2,1.4-6,4.1-8.3s6.2-3.4,10.6-3.4c4.5,0,8.2,1.2,10.9,3.5c2.8,2.3,4.2,5.3,4.2,8.9h-6.8
		c0-1.8-0.8-3.5-2.4-4.8c-1.6-1.4-3.6-2-6-2c-2.5,0-4.4,0.6-5.8,1.7c-1.4,1.1-2.1,2.5-2.1,4.2c0,1.7,0.6,2.8,1.9,3.7
		s3.7,1.7,7.1,2.4c3.4,0.7,6.2,1.7,8.3,2.8c2.1,1,3.7,2.3,4.7,3.8s1.6,3.3,1.6,5.4c0,3.6-1.4,6.4-4.2,8.5c-2.8,2.1-6.5,3.2-11,3.2
		c-3.2,0-6-0.6-8.5-1.7c-2.5-1.1-4.4-2.7-5.8-4.7c-1.4-2-2.1-4.2-2.1-6.5h6.8c0.1,2.3,1,4,2.8,5.4s4,2,6.7,2c2.6,0,4.6-0.6,6.2-1.6
		C314.3,633.8,315,632.4,315,630.7z"/>
	<path class="st6" d="M364.3,621.8c0,6.1-1.4,10.9-4.1,14.6c-2.8,3.7-6.5,5.5-11.2,5.5c-4.9,0-8.6-1.6-11.4-4.6v19.1h-6.8v-54.9h6.2
		l0.4,4.4c2.8-3.4,6.6-5.1,11.6-5.1c4.8,0,8.5,1.8,11.3,5.4c2.8,3.6,4.1,8.6,4.1,15.1L364.3,621.8L364.3,621.8z M357.5,621.1
		c0-4.5-0.9-8-2.8-10.7c-1.9-2.6-4.5-3.9-7.9-3.9c-4.1,0-7.2,1.8-9.3,5.5v19c2,3.6,5.1,5.4,9.4,5.4c3.2,0,5.9-1.3,7.8-3.9
		C356.5,630,357.5,626.1,357.5,621.1z"/>
	<path class="st6" d="M397.5,641.3c-0.4-0.8-0.7-2.2-0.9-4.2c-3.1,3.3-6.9,5-11.3,5c-4,0-7.2-1.1-9.6-3.3s-3.8-5.1-3.8-8.5
		c0-4.1,1.6-7.3,4.7-9.6c3.1-2.3,7.5-3.4,13.3-3.4h6.6v-3.1c0-2.4-0.7-4.2-2.1-5.7c-1.4-1.4-3.5-2.1-6.2-2.1c-2.4,0-4.5,0.6-6.1,1.8
		c-1.7,1.2-2.5,2.7-2.5,4.4h-6.8c0-2,0.7-3.9,2.1-5.8c1.4-1.8,3.3-3.3,5.7-4.4c2.4-1.1,5.1-1.7,8-1.7c4.6,0,8.2,1.1,10.7,3.4
		s4,5.4,4,9.5v18.3c0,3.7,0.5,6.5,1.4,8.7v0.6h-7.3V641.3z M386.2,636c2.1,0,4.1-0.6,6.1-1.7c1.9-1.1,3.3-2.6,4.1-4.3v-8.2h-5.3
		c-8.4,0-12.5,2.5-12.5,7.3c0,2.1,0.7,3.8,2.1,5C382.2,635.5,384,636,386.2,636z"/>
	<path class="st6" d="M433.1,607.5c-1-0.2-2.1-0.3-3.3-0.3c-4.5,0-7.4,1.9-9.1,5.7v28.2h-6.8v-39.7h6.6l0.1,4.6
		c2.2-3.6,5.4-5.3,9.5-5.3c1.3,0,2.3,0.2,3,0.6V607.5z"/>
	<path class="st6" d="M455.8,642c-5.4,0-9.7-1.7-13.1-5.3c-3.4-3.6-5.1-8.3-5.1-14.2v-1.3c0-4,0.7-7.4,2.3-10.6
		c1.5-3.1,3.6-5.5,6.3-7.3c2.7-1.7,5.6-2.7,8.8-2.7c5.1,0,9.2,1.7,12,5.1c2.8,3.4,4.3,8.3,4.3,14.6v2.8h-26.9c0.1,4,1.3,7.1,3.4,9.5
		c2.2,2.4,5,3.6,8.4,3.6c2.4,0,4.4-0.5,6.1-1.5c1.7-1,3.1-2.3,4.4-3.9l4.1,3.2C467.5,639.4,462.5,642,455.8,642z M455,606.4
		c-2.8,0-5.1,1-6.9,3c-1.8,2-3,4.8-3.5,8.4h19.9v-0.6c-0.2-3.5-1.1-6.2-2.8-8C460.1,607.3,457.9,606.4,455,606.4z"/>
	<path class="st6" d="M485.6,601.5l0.2,5c3-3.9,7-5.7,11.9-5.7c8.4,0,12.7,4.8,12.7,14.2v26.3h-6.8V615c0-2.8-0.6-5-1.9-6.3
		c-1.3-1.4-3.3-2-6-2c-2.2,0-4.1,0.6-5.8,1.7c-1.7,1.2-2.9,2.8-3.9,4.6v28.3h-6.8v-39.8H485.6z"/>
	<path class="st6" d="M536.7,636.4c2.4,0,4.5-0.7,6.3-2.2c1.8-1.5,2.8-3.3,3-5.5h6.4c-0.1,2.3-0.9,4.4-2.4,6.5c-1.5,2-3.4,3.7-5.8,5
		c-2.4,1.2-5,1.8-7.6,1.8c-5.4,0-9.7-1.8-13-5.4c-3.2-3.6-4.8-8.5-4.8-14.8v-1.1c0-3.9,0.7-7.3,2.1-10.3c1.4-3,3.5-5.3,6.2-7
		s5.8-2.5,9.5-2.5c4.5,0,8.2,1.4,11.1,4c2.9,2.7,4.5,6.2,4.7,10.4h-6.4c-0.2-2.6-1.2-4.7-2.9-6.3c-1.7-1.7-4-2.5-6.5-2.5
		c-3.5,0-6.2,1.3-8,3.8c-1.9,2.5-2.8,6.1-2.8,10.7v1.3c0,4.6,0.9,8.1,2.8,10.6C530.5,635.2,533.2,636.4,536.7,636.4z"/>
	<path class="st6" d="M560.2,590.9c0-1.1,0.4-2,1-2.8c0.6-0.7,1.7-1.1,3-1.1c1.4,0,2.3,0.4,3,1.1c0.6,0.7,1,1.7,1,2.8s-0.4,2-1,2.8
		c-0.6,0.7-1.7,1.1-3,1.1c-1.4,0-2.3-0.4-3-1.1C560.5,592.9,560.2,592,560.2,590.9z M567.5,641.3h-6.8v-39.8h6.8V641.3z"/>
	<path class="st6" d="M602.9,641.3c-0.4-0.8-0.7-2.2-0.9-4.2c-3.1,3.3-6.9,5-11.3,5c-4,0-7.2-1.1-9.6-3.3c-2.5-2.2-3.8-5.1-3.8-8.5
		c0-4.1,1.6-7.3,4.7-9.6c3.1-2.3,7.5-3.4,13.3-3.4h6.6v-3.1c0-2.4-0.7-4.2-2.1-5.7c-1.4-1.4-3.5-2.1-6.2-2.1c-2.4,0-4.5,0.6-6.1,1.8
		c-1.7,1.2-2.5,2.7-2.5,4.4h-6.8c0-2,0.7-3.9,2.1-5.8c1.4-1.8,3.3-3.3,5.7-4.4c2.4-1.1,5.1-1.7,8-1.7c4.6,0,8.2,1.1,10.7,3.4
		s4,5.4,4,9.5v18.3c0,3.7,0.5,6.5,1.4,8.7v0.6h-7.3V641.3z M591.7,636c2.1,0,4.1-0.6,6.1-1.7c1.9-1.1,3.3-2.6,4.1-4.3v-8.2h-5.3
		c-8.4,0-12.5,2.5-12.5,7.3c0,2.1,0.7,3.8,2.1,5C587.6,635.5,589.4,636,591.7,636z"/>
</g>
</svg>
