<?xml version="1.0" encoding="utf-8"?>
<!-- Generator: Adobe Illustrator 23.0.1, SVG Export Plug-In . SVG Version: 6.00 Build 0)  -->
<svg version="1.1" id="Layer_1" xmlns="http://www.w3.org/2000/svg" xmlns:xlink="http://www.w3.org/1999/xlink" x="0px" y="0px"
	 viewBox="0 0 750 750" style="enable-background:new 0 0 750 750;" xml:space="preserve">
<style type="text/css">
	.st0{fill-rule:evenodd;clip-rule:evenodd;fill:#E1E6E9;}
	.st1{opacity:0.2;fill-rule:evenodd;clip-rule:evenodd;fill:#2EA2DB;}
	.st2{opacity:0.2;fill:#2EA2DB;}
	.st3{fill:#E1E6E9;}
	.st4{fill:#F2F2F4;}
	.st5{fill:#BDC0C3;}
	.st6{opacity:0.1;enable-background:new    ;}
	.st7{fill:#495059;}
	.st8{fill:#7FDBD5;}
	.st9{fill:#B3E7FF;}
	.st10{fill:#76B7EB;}
	.st11{fill:#606060;}
	.st12{fill:#D8D9DD;}
	.st13{fill:#A6C2D1;}
	.st14{fill:#193651;}
	.st15{fill:#FFFFFF;}
	.st16{fill:#7991A3;}
	.st17{fill:#C7CFE2;}
	.st18{fill:#707487;}
	.st19{fill:#5B5D6E;}
	.st20{fill:#FF6464;}
	.st21{fill:#8F96AC;}
	.st22{fill:#D7DEED;}
	.st23{fill:#47821C;}
	.st24{fill:#CC7400;}
	.st25{fill:#AA6100;}
	.st26{fill:#4E901E;}
	.st27{fill:#5EAC24;}
	.st28{fill:#6DC82A;}
	.st29{fill:#6E6C71;}
	.st30{fill:#FFE8CC;}
	.st31{fill:#919497;}
	.st32{fill:#FFE1BD;}
	.st33{clip-path:url(#SVGID_2_);fill:#ABABB0;}
	.st34{clip-path:url(#SVGID_2_);fill:#C5C5CA;}
	.st35{fill:#FFD733;}
	.st36{fill:#FFA891;}
	.st37{fill:#F0F0F0;}
	.st38{fill:#FF7854;}
	.st39{fill:#EBEBEB;}
	.st40{fill:#1CC8EB;}
	.st41{fill:#F0BE59;}
	.st42{fill:#FFB41F;}
	.st43{fill:#74D5E8;}
	.st44{fill:#8C8C8C;}
	.st45{fill:#6A80FF;}
	.st46{fill:#ADE5FF;}
	.st47{fill:#FFC66C;}
	.st48{fill:#36D28F;}
	.st49{fill:#5A54E0;}
	.st50{fill:#C9F3FF;}
	.st51{clip-path:url(#SVGID_4_);}
	.st52{fill:#A2A2A5;}
	.st53{fill:none;}
	.st54{fill:#8ECDF4;}
	.st55{fill:#CFD0D1;}
	.st56{fill-rule:evenodd;clip-rule:evenodd;fill:#193651;}
	.st57{fill:#76ACDD;}
</style>
<rect x="293.6" y="168.9" class="st2" width="152.8" height="69.9"/>
<rect x="246.3" y="108.3" class="st3" width="31.8" height="326.4"/>
<rect x="353.9" y="0.6" transform="matrix(-1.836970e-16 1 -1 -1.836970e-16 494.065 -245.6547)" class="st3" width="31.8" height="247.1"/>
<g>
	<g>
		<path class="st11" d="M234.9,596.2c-3.1,1.1-9.3,3-16.6,3c-8.2,0-14.9-2.1-20.2-7.1c-4.6-4.5-7.5-11.7-7.5-20.1
			c0.1-16.1,11.1-27.8,29.2-27.8c6.2,0,11.1,1.4,13.4,2.5l-1.7,5.7c-2.9-1.3-6.5-2.3-11.9-2.3c-13.1,0-21.7,8.2-21.7,21.7
			c0,13.7,8.2,21.8,20.8,21.8c4.6,0,7.7-0.6,9.3-1.4v-16.1h-11v-5.6h17.8V596.2z"/>
		<path class="st11" d="M249.6,580.6c0.2,9.5,6.2,13.4,13.3,13.4c5,0,8.1-0.9,10.7-2l1.2,5c-2.5,1.1-6.7,2.4-12.9,2.4
			c-11.9,0-19-7.8-19-19.5c0-11.7,6.9-20.9,18.2-20.9c12.6,0,16,11.1,16,18.2c0,1.4-0.2,2.6-0.2,3.3H249.6z M270.2,575.5
			c0.1-4.5-1.8-11.4-9.8-11.4c-7.1,0-10.2,6.6-10.8,11.4H270.2z"/>
		<path class="st11" d="M284.8,591.5c2.1,1.4,5.8,2.8,9.3,2.8c5.1,0,7.5-2.6,7.5-5.8c0-3.4-2-5.2-7.2-7.1c-7-2.5-10.2-6.3-10.2-11
			c0-6.2,5-11.4,13.4-11.4c3.9,0,7.4,1.1,9.5,2.4l-1.8,5.1c-1.5-1-4.3-2.2-7.9-2.2c-4.2,0-6.5,2.4-6.5,5.3c0,3.2,2.3,4.6,7.4,6.6
			c6.7,2.6,10.2,5.9,10.2,11.7c0,6.8-5.3,11.6-14.5,11.6c-4.2,0-8.2-1-10.9-2.6L284.8,591.5z"/>
		<path class="st11" d="M325.9,548.8v11.1H336v5.4h-10.1v20.9c0,4.8,1.4,7.5,5.3,7.5c1.8,0,3.2-0.2,4.1-0.5l0.3,5.3
			c-1.4,0.6-3.5,1-6.2,1c-3.3,0-5.9-1-7.6-3c-2-2.1-2.7-5.5-2.7-10.1v-21.1h-6v-5.4h6v-9.3L325.9,548.8z"/>
		<path class="st11" d="M351.8,549c0.1,2.4-1.7,4.3-4.5,4.3c-2.5,0-4.2-1.9-4.2-4.3c0-2.5,1.8-4.4,4.4-4.4
			C350.1,544.6,351.8,546.6,351.8,549z M343.9,598.7v-38.7h7v38.7H343.9z"/>
		<path class="st11" d="M397.7,579c0,14.3-9.9,20.6-19.3,20.6c-10.5,0-18.6-7.7-18.6-19.9c0-13,8.5-20.6,19.2-20.6
			C390.2,559,397.7,567.1,397.7,579z M367,579.4c0,8.5,4.9,14.9,11.8,14.9c6.7,0,11.8-6.3,11.8-15c0-6.6-3.3-14.9-11.6-14.9
			S367,572,367,579.4z M389.3,543.2l-9.8,11.4h-5l7-11.4H389.3z"/>
		<path class="st11" d="M406.6,570.4c0-4-0.1-7.3-0.3-10.5h6.2l0.4,6.4h0.2c1.9-3.7,6.4-7.3,12.8-7.3c5.4,0,13.7,3.2,13.7,16.5v23.1
			h-7v-22.3c0-6.2-2.3-11.4-9-11.4c-4.6,0-8.2,3.3-9.4,7.2c-0.3,0.9-0.5,2.1-0.5,3.3v23.3h-7V570.4z"/>
		<path class="st11" d="M501.4,541.8v46.8c0,3.4,0.1,7.4,0.3,10h-6.3l-0.3-6.7h-0.2c-2.2,4.3-6.9,7.6-13.2,7.6
			c-9.4,0-16.6-7.9-16.6-19.7C465,567,473,559,482.5,559c5.9,0,9.9,2.8,11.7,5.9h0.2v-23.1H501.4z M494.3,575.7c0-0.9-0.1-2.1-0.3-3
			c-1-4.5-4.9-8.2-10.2-8.2c-7.3,0-11.6,6.4-11.6,15c0,7.8,3.8,14.3,11.4,14.3c4.7,0,9-3.1,10.3-8.4c0.2-1,0.3-1.9,0.3-3V575.7z"/>
		<path class="st11" d="M517,580.6c0.2,9.5,6.2,13.4,13.3,13.4c5,0,8.1-0.9,10.7-2l1.2,5c-2.5,1.1-6.7,2.4-12.9,2.4
			c-11.9,0-19-7.8-19-19.5c0-11.7,6.9-20.9,18.2-20.9c12.6,0,16,11.1,16,18.2c0,1.4-0.2,2.6-0.2,3.3H517z M537.6,575.5
			c0.1-4.5-1.8-11.4-9.8-11.4c-7.1,0-10.2,6.6-10.8,11.4H537.6z"/>
		<path class="st11" d="M208.6,666.7l-5.6,17h-7.2l18.3-53.9h8.4l18.4,53.9h-7.4l-5.8-17H208.6z M226.2,661.2l-5.3-15.5
			c-1.2-3.5-2-6.7-2.8-9.8H218c-0.8,3.2-1.7,6.5-2.7,9.8l-5.3,15.6H226.2z"/>
		<path class="st11" d="M248.3,626.8h7v56.8h-7V626.8z"/>
		<path class="st11" d="M267.2,655.4c0-4-0.1-7.3-0.3-10.5h6.2l0.3,6.2h0.2c2.2-3.7,5.8-7.1,12.2-7.1c5.3,0,9.3,3.2,11,7.8h0.2
			c1.2-2.2,2.7-3.8,4.3-5c2.3-1.8,4.9-2.7,8.6-2.7c5.1,0,12.7,3.4,12.7,16.8v22.8h-6.9v-21.9c0-7.4-2.7-11.9-8.4-11.9
			c-4,0-7.1,3-8.3,6.4c-0.3,1-0.6,2.2-0.6,3.5v23.9h-6.9v-23.2c0-6.2-2.7-10.6-8.1-10.6c-4.4,0-7.6,3.5-8.7,7
			c-0.4,1-0.6,2.2-0.6,3.4v23.4h-6.9V655.4z"/>
		<path class="st11" d="M355.4,683.7l-0.6-4.9h-0.2c-2.2,3-6.3,5.8-11.8,5.8c-7.8,0-11.8-5.5-11.8-11.1c0-9.4,8.3-14.5,23.3-14.4
			v-0.8c0-3.2-0.9-9-8.8-9c-3.6,0-7.4,1.1-10.1,2.9l-1.6-4.6c3.2-2.1,7.8-3.4,12.7-3.4c11.8,0,14.7,8.1,14.7,15.8v14.5
			c0,3.4,0.2,6.6,0.6,9.3H355.4z M354.3,663.9c-7.7-0.2-16.4,1.2-16.4,8.7c0,4.6,3,6.7,6.6,6.7c5,0,8.2-3.2,9.4-6.5
			c0.2-0.7,0.4-1.5,0.4-2.2V663.9z"/>
		<path class="st11" d="M400.1,682.2c-1.8,1-5.9,2.2-11.1,2.2c-11.7,0-19.3-7.9-19.3-19.8c0-11.9,8.2-20.6,20.8-20.6
			c4.2,0,7.8,1,9.8,2l-1.6,5.4c-1.7-1-4.3-1.8-8.2-1.8c-8.9,0-13.7,6.6-13.7,14.6c0,9,5.8,14.5,13.4,14.5c4,0,6.6-1,8.6-1.9
			L400.1,682.2z"/>
		<path class="st11" d="M411.8,665.6c0.2,9.5,6.2,13.4,13.3,13.4c5,0,8.1-0.9,10.7-2l1.2,5c-2.5,1.1-6.7,2.4-12.9,2.4
			c-11.9,0-19-7.8-19-19.5c0-11.7,6.9-20.9,18.2-20.9c12.6,0,16,11.1,16,18.2c0,1.4-0.2,2.6-0.2,3.3H411.8z M432.4,660.5
			c0.1-4.5-1.8-11.4-9.8-11.4c-7.1,0-10.2,6.6-10.8,11.4H432.4z"/>
		<path class="st11" d="M447.9,655.4c0-4-0.1-7.3-0.3-10.5h6.2l0.4,6.4h0.2c1.9-3.7,6.4-7.3,12.8-7.3c5.4,0,13.7,3.2,13.7,16.5v23.1
			h-7v-22.3c0-6.2-2.3-11.4-9-11.4c-4.6,0-8.2,3.3-9.4,7.2c-0.3,0.9-0.5,2.1-0.5,3.3v23.3h-7V655.4z"/>
		<path class="st11" d="M496.2,665.6c0.2,9.5,6.2,13.4,13.3,13.4c5,0,8.1-0.9,10.7-2l1.2,5c-2.5,1.1-6.7,2.4-12.9,2.4
			c-11.9,0-19-7.8-19-19.5c0-11.7,6.9-20.9,18.2-20.9c12.6,0,16,11.1,16,18.2c0,1.4-0.2,2.6-0.2,3.3H496.2z M516.9,660.5
			c0.1-4.5-1.8-11.4-9.8-11.4c-7.1,0-10.2,6.6-10.8,11.4H516.9z"/>
		<path class="st11" d="M531.4,676.5c2.1,1.4,5.8,2.8,9.3,2.8c5.1,0,7.5-2.6,7.5-5.8c0-3.4-2-5.2-7.2-7.1c-7-2.5-10.2-6.3-10.2-11
			c0-6.2,5-11.4,13.4-11.4c3.9,0,7.4,1.1,9.5,2.4l-1.8,5.1c-1.5-1-4.3-2.2-7.9-2.2c-4.2,0-6.5,2.4-6.5,5.3c0,3.2,2.3,4.6,7.4,6.6
			c6.7,2.6,10.2,5.9,10.2,11.7c0,6.8-5.3,11.6-14.5,11.6c-4.2,0-8.2-1-10.9-2.6L531.4,676.5z"/>
	</g>
</g>
<path class="st14" d="M481.1,99.3H258.3c-10.2,0-18.6,8.4-18.6,18.6v306.4c0,10.2,8.4,18.6,18.6,18.6h222.9
	c10.2,0,18.6-8.4,18.6-18.6V117.8C499.7,107.6,491.3,99.3,481.1,99.3z M485.8,424.3c0,2.5-2.1,4.6-4.6,4.6H258.3
	c-2.5,0-4.6-2.1-4.6-4.6V117.8c0-2.5,2.1-4.6,4.6-4.6h222.9c2.5,0,4.6,2.1,4.6,4.6V424.3z"/>
<path class="st16" d="M323.3,370.9h-27.9c-3.8,0-7,3.1-7,7s3.1,7,7,7h27.9c3.8,0,7-3.1,7-7S327.1,370.9,323.3,370.9z"/>
<path class="st16" d="M383.6,370.9h-27.9c-3.8,0-7,3.1-7,7s3.1,7,7,7h27.9c3.8,0,7-3.1,7-7S387.5,370.9,383.6,370.9z"/>
<path class="st16" d="M444,370.9h-27.9c-3.8,0-7,3.1-7,7s3.1,7,7,7H444c3.8,0,7-3.1,7-7S447.8,370.9,444,370.9z"/>
<path class="st16" d="M323.3,329.1h-27.9c-3.8,0-7,3.1-7,7c0,3.8,3.1,7,7,7h27.9c3.8,0,7-3.1,7-7
	C330.2,332.2,327.1,329.1,323.3,329.1z"/>
<path class="st16" d="M383.6,329.1h-27.9c-3.8,0-7,3.1-7,7c0,3.8,3.1,7,7,7h27.9c3.8,0,7-3.1,7-7
	C390.6,332.2,387.5,329.1,383.6,329.1z"/>
<path class="st16" d="M444,329.1h-27.9c-3.8,0-7,3.1-7,7c0,3.8,3.1,7,7,7H444c3.8,0,7-3.1,7-7C451,332.2,447.8,329.1,444,329.1z"/>
<path class="st16" d="M323.3,287.3h-27.9c-3.8,0-7,3.1-7,7c0,3.8,3.1,7,7,7h27.9c3.8,0,7-3.1,7-7
	C330.2,290.4,327.1,287.3,323.3,287.3z"/>
<path class="st16" d="M383.6,287.3h-27.9c-3.8,0-7,3.1-7,7c0,3.8,3.1,7,7,7h27.9c3.8,0,7-3.1,7-7
	C390.6,290.4,387.5,287.3,383.6,287.3z"/>
<path class="st16" d="M444,287.3h-27.9c-3.8,0-7,3.1-7,7c0,3.8,3.1,7,7,7H444c3.8,0,7-3.1,7-7C451,290.4,447.8,287.3,444,287.3z"/>
<path class="st14" d="M444,155H295.4c-5.1,0-9.3,4.2-9.3,9.3v74.3c0,5.1,4.2,9.3,9.3,9.3H444c5.1,0,9.3-4.2,9.3-9.3v-74.3
	C453.3,159.2,449.1,155,444,155z M439.3,233.9H300.1v-65h139.3V233.9z"/>
</svg>
