<svg id="Layer_1" data-name="Layer 1" xmlns="http://www.w3.org/2000/svg" viewBox="0 0 750 750"><defs><style>.cls-1{fill:#606060;}.cls-2{fill:#343535;}</style></defs><title>Mesa de trabajo 1 copia copyAKDEMIC</title><path class="cls-1" d="M198.92,611.63l-5.6,17h-7.2l18.32-53.92h8.4l18.4,53.92H223.8l-5.76-17Zm17.68-5.44-5.28-15.52c-1.2-3.52-2-6.72-2.8-9.84h-.16c-.8,3.2-1.68,6.48-2.72,9.76l-5.28,15.6Z"/><path class="cls-1" d="M270.36,618c0,4,.08,7.52.32,10.56h-6.24l-.4-6.32h-.16a14.57,14.57,0,0,1-12.8,7.2c-6.08,0-13.36-3.36-13.36-17V589.87h7v21.44c0,7.36,2.24,12.32,8.64,12.32a10.18,10.18,0,0,0,9.28-6.4,10.3,10.3,0,0,0,.64-3.6V589.87h7Z"/><path class="cls-1" d="M282,571.79h7v56.8h-7Z"/><path class="cls-1" d="M322.36,628.59l-.56-4.88h-.24a14.42,14.42,0,0,1-11.84,5.76c-7.84,0-11.84-5.52-11.84-11.12,0-9.36,8.32-14.48,23.28-14.4v-.8c0-3.2-.88-9-8.8-9a19.29,19.29,0,0,0-10.08,2.88l-1.6-4.64A24,24,0,0,1,313.4,589c11.84,0,14.72,8.08,14.72,15.84v14.48a54.52,54.52,0,0,0,.64,9.28Zm-1-19.76c-7.68-.16-16.4,1.2-16.4,8.72,0,4.56,3,6.72,6.64,6.72a9.63,9.63,0,0,0,9.36-6.48,7.35,7.35,0,0,0,.4-2.24Z"/><path class="cls-1" d="M365.64,628.59,348,574.67h7.52l8.4,26.56c2.32,7.28,4.32,13.84,5.76,20.16h.16c1.52-6.24,3.76-13,6.16-20.08l9.12-26.64h7.44l-19.28,53.92Z"/><path class="cls-1" d="M404.76,579a4.36,4.36,0,0,1-8.72,0,4.29,4.29,0,0,1,4.4-4.4A4.18,4.18,0,0,1,404.76,579Zm-7.84,49.6V589.87h7v38.72Z"/><path class="cls-1" d="M415.64,602c0-4.56-.08-8.48-.32-12.08h6.16l.24,7.6H422c1.76-5.2,6-8.48,10.72-8.48a7.61,7.61,0,0,1,2,.24v6.64a10.58,10.58,0,0,0-2.4-.24c-5,0-8.48,3.76-9.44,9a19.82,19.82,0,0,0-.32,3.28v20.64h-7Z"/><path class="cls-1" d="M452.2,578.75v11.12h10.08v5.36H452.2v20.88c0,4.8,1.36,7.52,5.28,7.52a15.66,15.66,0,0,0,4.08-.48l.32,5.28a17.23,17.23,0,0,1-6.24,1c-3.28,0-5.92-1-7.6-3-2-2.08-2.72-5.52-2.72-10.08V595.23h-6v-5.36h6v-9.28Z"/><path class="cls-1" d="M502.6,618c0,4,.08,7.52.32,10.56h-6.24l-.4-6.32h-.16a14.57,14.57,0,0,1-12.8,7.2c-6.08,0-13.36-3.36-13.36-17V589.87h7v21.44c0,7.36,2.24,12.32,8.64,12.32a10.18,10.18,0,0,0,9.28-6.4,10.3,10.3,0,0,0,.64-3.6V589.87h7Z"/><path class="cls-1" d="M535.72,628.59l-.56-4.88h-.24a14.42,14.42,0,0,1-11.84,5.76c-7.84,0-11.84-5.52-11.84-11.12,0-9.36,8.32-14.48,23.28-14.4v-.8c0-3.2-.88-9-8.8-9a19.29,19.29,0,0,0-10.08,2.88l-1.6-4.64A24,24,0,0,1,526.76,589c11.84,0,14.72,8.08,14.72,15.84v14.48a54.52,54.52,0,0,0,.64,9.28Zm-1-19.76c-7.68-.16-16.4,1.2-16.4,8.72,0,4.56,3,6.72,6.64,6.72a9.63,9.63,0,0,0,9.36-6.48,7.35,7.35,0,0,0,.4-2.24Z"/><path class="cls-1" d="M552.84,571.79h7v56.8h-7Z"/><path class="cls-2" d="M187.86,195.43h9.4V268H235.1v7.77H187.86Z"/><path class="cls-2" d="M562.14,83.71v9.4H197.24v75.2h-9.35V83.71Z"/><path class="cls-2" d="M368.07,208.65h7.81V250.9a18.83,18.83,0,0,0,5.18,13.82A18.46,18.46,0,0,0,394.83,270a18,18,0,0,0,19.11-16.89,19.64,19.64,0,0,0,0-2.17V208.65h8v41.92q0,12.35-7.3,19.35t-19.77,7q-12.51,0-19.65-7t-7.14-19.35Z"/><path class="cls-2" d="M315.86,369.21,298.2,340H285.52v29.24h-7.85V302.06H304a19.23,19.23,0,0,1,13.64,5.12A18.05,18.05,0,0,1,323.16,321a17.24,17.24,0,0,1-5.49,13.52,19.56,19.56,0,0,1-10.65,5l18.48,29.67Zm-30.34-60.67v24.95h16.86a12.45,12.45,0,0,0,8.92-3.39,13.39,13.39,0,0,0,0-18.17,12.45,12.45,0,0,0-8.92-3.39Z"/><path class="cls-2" d="M489.19,300.77a34.73,34.73,0,0,1,22.72,8.48l-5.27,6.39a24.7,24.7,0,0,0-17.32-7.35,15.44,15.44,0,0,0-10.56,3.13,9.46,9.46,0,0,0-3.26,7.65,7.83,7.83,0,0,0,4,7.06,52.28,52.28,0,0,0,12,4.64,47.73,47.73,0,0,1,14.1,5.78,17.72,17.72,0,0,1,.63,28.82,27.64,27.64,0,0,1-17,5.07,38.75,38.75,0,0,1-25.65-9.56l5.25-6.29A30.26,30.26,0,0,0,489.46,363a18.26,18.26,0,0,0,11.16-2.88,10.46,10.46,0,0,0,4.1-8.62,9.19,9.19,0,0,0-4.26-7.94,45,45,0,0,0-11.65-4.65,55.25,55.25,0,0,1-14.15-5.49,16.32,16.32,0,0,1-7.82-13.91A16.73,16.73,0,0,1,473,306.08,24.33,24.33,0,0,1,489.19,300.77Z"/><path class="cls-2" d="M302.33,394.21A34.73,34.73,0,0,1,325,402.69l-5.25,6.3a24.7,24.7,0,0,0-17.32-7.35,15.44,15.44,0,0,0-10.56,3.13,9.46,9.46,0,0,0-3.26,7.65,7.83,7.83,0,0,0,4,7.06,52.28,52.28,0,0,0,12,4.64,47.73,47.73,0,0,1,14.1,5.78,17.74,17.74,0,0,1,.63,28.82,27.64,27.64,0,0,1-17,5.07,38.75,38.75,0,0,1-25.65-9.56l5.24-6.29a30.24,30.24,0,0,0,20.79,8.32,18.13,18.13,0,0,0,11.16-2.88,10.45,10.45,0,0,0,4.1-8.61,9.22,9.22,0,0,0-4.26-7.95A45.31,45.31,0,0,0,302,432.18a55.25,55.25,0,0,1-14.15-5.49,16.33,16.33,0,0,1-7.82-13.91,16.73,16.73,0,0,1,6.12-13.39A24.33,24.33,0,0,1,302.33,394.21Z"/><path class="cls-2" d="M391.08,395.48h7.86v67.1h-7.86Z"/><rect class="cls-2" x="552.74" y="85.65" width="9.4" height="376.93"/><rect class="cls-2" x="541.75" y="453.18" width="20.38" height="9.4"/><path class="cls-2" d="M301.57,218.54l-13.39,32.92-2.7,6.7-7.08,17.52h-8.57l28.1-67.19h7.39l28,67.19H325"/><path class="cls-2" d="M395,312l-13.39,32.93-2.7,6.69-7.06,17.64h-8.61L391.35,302h7.3l28.1,67.19h-8.41"/><path class="cls-2" d="M488.43,405.48l-23.19,57.23h-8.55l28.1-67.1h7.39l28,67.1h-8.41"/></svg>