<svg id="Layer_1" data-name="Layer 1" xmlns="http://www.w3.org/2000/svg" viewBox="0 0 750 750"><defs><style>.cls-1{fill:#606060;}.cls-2{fill:#5092ce;}</style></defs><title>Artboard 47 copy 3</title><path class="cls-1" d="M235.65,555.7v-54h17.64q8.79,0,13.21,3.63t4.43,10.77a10.92,10.92,0,0,1-2.15,6.69,13.82,13.82,0,0,1-5.85,4.51,12.53,12.53,0,0,1,6.91,4.66,13.4,13.4,0,0,1,2.54,8.18q0,7.27-4.71,11.43t-13.31,4.16Zm7.11-31h10.75a11.27,11.27,0,0,0,7.47-2.34,7.84,7.84,0,0,0,2.8-6.36q0-4.47-2.6-6.49c-1.72-1.35-4.36-2-7.89-2H242.76Zm0,5.72v19.44h11.75a11.3,11.3,0,0,0,7.84-2.58,9,9,0,0,0,2.87-7.1q0-9.77-10.6-9.76Z"/><path class="cls-1" d="M280,535.25a23.79,23.79,0,0,1,2.32-10.61,17.42,17.42,0,0,1,6.45-7.28,17.61,17.61,0,0,1,9.43-2.56,16.94,16.94,0,0,1,13.26,5.68q5.05,5.68,5.06,15.1v.49a23.89,23.89,0,0,1-2.25,10.52,17,17,0,0,1-6.41,7.25,17.75,17.75,0,0,1-9.58,2.6,16.87,16.87,0,0,1-13.22-5.68q-5.06-5.67-5.06-15Zm6.9.82q0,6.67,3.09,10.72a10.48,10.48,0,0,0,16.59,0q3.07-4.11,3.08-11.49,0-6.6-3.13-10.71a10,10,0,0,0-8.33-4.1,9.85,9.85,0,0,0-8.19,4Q286.91,528.54,286.91,536.07Z"/><path class="cls-1" d="M332.58,555.7h-6.86v-57h6.86Z"/><path class="cls-1" d="M366.9,545.05a5.08,5.08,0,0,0-2.09-4.33c-1.4-1-3.83-1.91-7.31-2.65a34.36,34.36,0,0,1-8.26-2.67,11.75,11.75,0,0,1-4.52-3.71,8.86,8.86,0,0,1-1.47-5.12,10.41,10.41,0,0,1,4.17-8.35,16.25,16.25,0,0,1,10.66-3.42q6.82,0,11.06,3.53a11.21,11.21,0,0,1,4.25,9h-6.9a6.18,6.18,0,0,0-2.39-4.86,9,9,0,0,0-6-2,9.36,9.36,0,0,0-5.86,1.64,5.13,5.13,0,0,0-2.11,4.26,4.16,4.16,0,0,0,2,3.75,24,24,0,0,0,7.1,2.41,37.23,37.23,0,0,1,8.32,2.75,12.18,12.18,0,0,1,4.73,3.84,9.43,9.43,0,0,1,1.54,5.48,10.26,10.26,0,0,1-4.3,8.62q-4.31,3.25-11.16,3.25a20.13,20.13,0,0,1-8.52-1.71A13.74,13.74,0,0,1,344,550a11.52,11.52,0,0,1-2.09-6.62h6.86a7.07,7.07,0,0,0,2.76,5.47,10.69,10.69,0,0,0,6.8,2,11.06,11.06,0,0,0,6.25-1.58A4.84,4.84,0,0,0,366.9,545.05Z"/><path class="cls-1" d="M407.45,555.7a14.71,14.71,0,0,1-1-4.23,15.31,15.31,0,0,1-11.42,5,14.16,14.16,0,0,1-9.73-3.36,10.88,10.88,0,0,1-3.8-8.51,11.36,11.36,0,0,1,4.77-9.75q4.76-3.47,13.4-3.47h6.67V528.2a7.72,7.72,0,0,0-2.15-5.73q-2.16-2.15-6.34-2.14a10,10,0,0,0-6.15,1.86,5.46,5.46,0,0,0-2.49,4.49h-6.89a9.48,9.48,0,0,1,2.13-5.81,14.55,14.55,0,0,1,5.78-4.43,19.44,19.44,0,0,1,8-1.64q6.93,0,10.86,3.47a12.54,12.54,0,0,1,4.08,9.56v18.48a22.74,22.74,0,0,0,1.4,8.79v.6Zm-11.38-5.23a12.09,12.09,0,0,0,6.12-1.67,10.12,10.12,0,0,0,4.19-4.35v-8.23H401q-12.6,0-12.6,7.38a6.27,6.27,0,0,0,2.15,5A8.27,8.27,0,0,0,396.07,550.47Z"/><path class="cls-1" d="M441.11,535.29q0-9.24,4.37-14.86a14.87,14.87,0,0,1,22.62-.8V498.7H475v57h-6.3l-.33-4.31q-4.11,5.05-11.46,5.05a13.7,13.7,0,0,1-11.36-5.71q-4.39-5.72-4.39-14.92Zm6.86.78q0,6.82,2.82,10.68a9.07,9.07,0,0,0,7.78,3.86,10,10,0,0,0,9.53-5.86V526.31a10.09,10.09,0,0,0-9.46-5.68,9.12,9.12,0,0,0-7.85,3.9Q448,528.42,448,536.07Z"/><path class="cls-1" d="M502.23,556.44A17.54,17.54,0,0,1,489,551.08q-5.11-5.37-5.11-14.34v-1.27a24.13,24.13,0,0,1,2.28-10.67,17.84,17.84,0,0,1,6.37-7.34,16,16,0,0,1,8.88-2.66q7.83,0,12.16,5.16t4.34,14.77v2.86H490.71a14.22,14.22,0,0,0,3.46,9.59,10.87,10.87,0,0,0,8.43,3.66,11.93,11.93,0,0,0,6.16-1.49,15.5,15.5,0,0,0,4.41-3.93l4.19,3.26Q512.32,556.45,502.23,556.44Zm-.85-36a9.14,9.14,0,0,0-7,3,14.67,14.67,0,0,0-3.48,8.48H511v-.52q-.3-5.23-2.82-8.11A8.6,8.6,0,0,0,501.38,520.44Z"/><path class="cls-1" d="M291.9,586.49H274.55v48.2h-7.08v-48.2H250.16v-5.83H291.9Z"/><path class="cls-1" d="M315.43,600.7a20.78,20.78,0,0,0-3.37-.26q-6.75,0-9.16,5.75v28.5h-6.85V594.54h6.67l.11,4.64a10.67,10.67,0,0,1,9.56-5.38,6.92,6.92,0,0,1,3,.52Z"/><path class="cls-1" d="M345,634.69a14.71,14.71,0,0,1-1-4.23,15.27,15.27,0,0,1-11.42,5,14.19,14.19,0,0,1-9.73-3.35,10.89,10.89,0,0,1-3.8-8.52,11.34,11.34,0,0,1,4.77-9.74q4.75-3.48,13.4-3.47h6.67v-3.16a7.72,7.72,0,0,0-2.15-5.73q-2.16-2.13-6.34-2.13a10,10,0,0,0-6.15,1.85,5.48,5.48,0,0,0-2.49,4.49h-6.89a9.5,9.5,0,0,1,2.13-5.81,14.64,14.64,0,0,1,5.78-4.43,19.44,19.44,0,0,1,8-1.63q6.93,0,10.86,3.47a12.52,12.52,0,0,1,4.08,9.55V625.3a22.64,22.64,0,0,0,1.4,8.8v.59Zm-11.38-5.23a12.09,12.09,0,0,0,6.12-1.67,10.1,10.1,0,0,0,4.19-4.34v-8.24h-5.38q-12.6,0-12.6,7.38a6.26,6.26,0,0,0,2.15,5A8.25,8.25,0,0,0,333.63,629.46Z"/><path class="cls-1" d="M395.5,615.06q0,9.21-4.23,14.79a13.49,13.49,0,0,1-11.34,5.58q-7.6,0-11.75-5.38l-.33,4.64h-6.31v-57h6.86V599q4.16-5.16,11.46-5.16a13.58,13.58,0,0,1,11.47,5.53q4.17,5.52,4.17,15.14Zm-6.86-.78c0-4.67-.9-8.29-2.7-10.83a9,9,0,0,0-7.79-3.83q-6.78,0-9.75,6.31V623.3q3.15,6.32,9.83,6.31a8.93,8.93,0,0,0,7.67-3.82Q388.65,622,388.64,614.28Z"/><path class="cls-1" d="M428.9,634.69a14.3,14.3,0,0,1-1-4.23,15.25,15.25,0,0,1-11.41,5,14.17,14.17,0,0,1-9.73-3.35,10.86,10.86,0,0,1-3.8-8.52,11.34,11.34,0,0,1,4.76-9.74q4.75-3.48,13.4-3.47h6.67v-3.16a7.72,7.72,0,0,0-2.15-5.73q-2.15-2.13-6.34-2.13a10,10,0,0,0-6.15,1.85,5.47,5.47,0,0,0-2.48,4.49h-6.9a9.5,9.5,0,0,1,2.13-5.81,14.6,14.6,0,0,1,5.79-4.43,19.39,19.39,0,0,1,8-1.63q6.93,0,10.86,3.47a12.52,12.52,0,0,1,4.08,9.55V625.3a22.62,22.62,0,0,0,1.41,8.8v.59Zm-11.38-5.23a12,12,0,0,0,6.11-1.67,10,10,0,0,0,4.19-4.34v-8.24h-5.37q-12.61,0-12.61,7.38a6.26,6.26,0,0,0,2.15,5A8.3,8.3,0,0,0,417.52,629.46Z"/><path class="cls-1" d="M452.51,594.54v44.79q0,11.58-10.49,11.58a12.61,12.61,0,0,1-4.19-.67v-5.45a13.73,13.73,0,0,0,3.11.29,4.67,4.67,0,0,0,3.51-1.24c.8-.83,1.2-2.27,1.2-4.33v-45ZM445,583.89a4.11,4.11,0,0,1,1-2.8,3.74,3.74,0,0,1,3-1.17,3.88,3.88,0,0,1,3,1.15,4.08,4.08,0,0,1,1,2.82,3.93,3.93,0,0,1-1,2.78,4,4,0,0,1-3,1.12,3.85,3.85,0,0,1-3-1.12A4,4,0,0,1,445,583.89Z"/><path class="cls-1" d="M461.74,614.24a23.79,23.79,0,0,1,2.31-10.61,17.33,17.33,0,0,1,6.45-7.27,17.53,17.53,0,0,1,9.44-2.56,16.89,16.89,0,0,1,13.25,5.68q5.06,5.67,5.06,15.1v.48A24,24,0,0,1,496,625.58a17.06,17.06,0,0,1-6.42,7.26,17.74,17.74,0,0,1-9.58,2.59,16.87,16.87,0,0,1-13.21-5.67q-5.07-5.68-5.06-15Zm6.89.82q0,6.68,3.1,10.73a10.49,10.49,0,0,0,16.59-.06q3.07-4.1,3.07-11.49,0-6.6-3.13-10.7a10,10,0,0,0-8.32-4.1,9.84,9.84,0,0,0-8.19,4Q468.63,607.53,468.63,615.06Z"/><path class="cls-2" d="M280.56,391.64h0a13.2,13.2,0,0,1-13.26-13.16l-.56-148.83,59.4-.22a72.42,72.42,0,0,1,14.64,2.45,49.33,49.33,0,0,1,11,4.55,44.89,44.89,0,0,1,8.11,5.86,42.47,42.47,0,0,1,5.59,6.21,41.74,41.74,0,0,1,7.6,17.22,48.36,48.36,0,0,1-.47,20.1,42.26,42.26,0,0,1-6.6,15.09,43.94,43.94,0,0,1-10.23,10.19,63.58,63.58,0,0,1-12.09,6.71q-6.33,2.64-12.22,4.85-9.37,3.52-17.77,7.6a39.49,39.49,0,0,0-14.69,12.83,20.89,20.89,0,0,0-3.15,6.67,46.42,46.42,0,0,0-1.6,8.2c-.28,2.77-.46,5.5-.51,8.19s-.1,4.92-.09,6.66l0,5.57a13.2,13.2,0,0,1-13.16,13.26M293.26,256l.22,57.21a81.66,81.66,0,0,1,14.6-8.24q7.41-3.19,14.17-5.62,6.11-2.2,10.36-4a41.9,41.9,0,0,0,7.19-3.74,18,18,0,0,0,4.68-4.39,16.7,16.7,0,0,0,2.6-5.91,25.07,25.07,0,0,0,.4-8.41,16.54,16.54,0,0,0-3.3-8.83q-5.28-7.18-19.25-8.22Z"/><path class="cls-2" d="M460.51,391a54.92,54.92,0,0,1-22.12-4.39,57.22,57.22,0,0,1-30.2-29.92,54.58,54.58,0,0,1-4.57-22l-.34-92.27a13.21,13.21,0,1,1,26.42-.1l.35,92.1a30.62,30.62,0,0,0,2.34,11.88,28.13,28.13,0,0,0,6.47,9.56,32.19,32.19,0,0,0,9.64,6.4A29.94,29.94,0,0,0,472,362.1,29.84,29.84,0,0,0,488,346a29.54,29.54,0,0,0,2.36-11.9L490,242a13.21,13.21,0,1,1,26.42-.09l.35,92.27a54.36,54.36,0,0,1-4.41,22.07,57.07,57.07,0,0,1-30,30.14A54.21,54.21,0,0,1,460.51,391"/><path class="cls-2" d="M221.93,266.78a71,71,0,0,0-37.76-37.48,70.82,70.82,0,0,0-55.13.21,70.88,70.88,0,0,0-37.57,37.76,70.82,70.82,0,0,0,.21,55.13A70.65,70.65,0,0,0,129.53,360a68,68,0,0,0,14.35,4.29l.06,17.24a13.19,13.19,0,0,0,26.38-.1l-.06-17.21a67.25,67.25,0,0,0,14.4-4.43,70.89,70.89,0,0,0,37.48-37.85,69.67,69.67,0,0,0,5.48-27.63,68.88,68.88,0,0,0-5.69-27.5m-20.69,27.6a43.58,43.58,0,0,1-3.43,17.43,44.62,44.62,0,0,1-23.53,23.7,44.66,44.66,0,0,1-34.64.13,44.51,44.51,0,0,1-23.71-23.53,44.69,44.69,0,0,1-.13-34.65,44.53,44.53,0,0,1,23.53-23.7,44.67,44.67,0,0,1,34.64-.13,44.51,44.51,0,0,1,23.71,23.53,43,43,0,0,1,3.56,17.22"/><path class="cls-2" d="M661.6,327.34a40,40,0,0,0-7.81-13.69,68.21,68.21,0,0,0-14.32-12.19,159,159,0,0,0-22.1-11.74,82.59,82.59,0,0,1-13.52-7.45A31.19,31.19,0,0,1,597,276a12.08,12.08,0,0,1-2.51-5,21.74,21.74,0,0,1-.33-3.33c0-5.11,1.19-8.8,3.59-11l.09-.09c3.42-3.56,8.1-5.37,13.93-5.39a17.51,17.51,0,0,1,7.22,1.48,21,21,0,0,1,5.93,4,17.24,17.24,0,0,1,4,5.8,18.35,18.35,0,0,1,1.33,5.35l.17,1.7h0a12.94,12.94,0,0,0,25.87-.1h0v0h0v0l-.09-1.91a42.87,42.87,0,0,0-3.52-15.09,46.42,46.42,0,0,0-9.52-14.11,44.24,44.24,0,0,0-31.53-13,47,47,0,0,0-18.07,3.57,43,43,0,0,0-14.62,9.93,39.26,39.26,0,0,0-8.9,13.66,40.79,40.79,0,0,0-2.71,15.95A36,36,0,0,0,571.54,285a47.58,47.58,0,0,0,9.83,12.52,67.91,67.91,0,0,0,12.82,9.11c4.61,2.54,9.1,4.74,13.36,6.57,7.38,3.08,13.15,6.23,17.14,9.34a40.19,40.19,0,0,1,8.71,8.75,16.91,16.91,0,0,1,3.05,7.33c.22,2.16.33,3.78.33,4.92a19.55,19.55,0,0,1-2.54,10.56,19.27,19.27,0,0,1-6.33,6.37,25.31,25.31,0,0,1-7.94,3.15,37.45,37.45,0,0,1-7.6.88,23.58,23.58,0,0,1-9.58-1.89,24.11,24.11,0,0,1-7.65-5.24,25.79,25.79,0,0,1-7.09-16l-.12-1.75h0a12.94,12.94,0,0,0-25.87.1h0v.18s0,0,0,.07,0,.1,0,.15l.07,1.54A51.39,51.39,0,0,0,565.85,359a50.66,50.66,0,0,0,10.79,16.44A46.89,46.89,0,0,0,593,386.64a50.59,50.59,0,0,0,19.49,3.76c14.27,0,26.07-3.82,35-11.16a40.5,40.5,0,0,0,5.66-5.48A45.57,45.57,0,0,0,664,343.4a52.93,52.93,0,0,0-2.4-16.06"/></svg>