<?xml version="1.0" encoding="utf-8"?>
<!-- Generator: Adobe Illustrator 23.0.1, SVG Export Plug-In . SVG Version: 6.00 Build 0)  -->
<svg version="1.1" id="Layer_1" xmlns="http://www.w3.org/2000/svg" xmlns:xlink="http://www.w3.org/1999/xlink" x="0px" y="0px"
	 viewBox="0 0 750 750" style="enable-background:new 0 0 750 750;" xml:space="preserve">
<style type="text/css">
	.st0{fill-rule:evenodd;clip-rule:evenodd;fill:#E1E6E9;}
	.st1{opacity:0.2;fill-rule:evenodd;clip-rule:evenodd;fill:#2EA2DB;}
	.st2{opacity:0.2;fill:#2EA2DB;}
	.st3{fill:#E1E6E9;}
	.st4{fill:#F2F2F4;}
	.st5{fill:#BDC0C3;}
	.st6{opacity:0.1;enable-background:new    ;}
	.st7{fill:#495059;}
	.st8{fill:#7FDBD5;}
	.st9{fill:#B3E7FF;}
	.st10{fill:#76B7EB;}
	.st11{fill:#606060;}
	.st12{fill:#D8D9DD;}
	.st13{fill:#A6C2D1;}
	.st14{fill:#193651;}
	.st15{fill:#FFFFFF;}
	.st16{fill:#7991A3;}
	.st17{fill:#C7CFE2;}
	.st18{fill:#707487;}
	.st19{fill:#5B5D6E;}
	.st20{fill:#FF6464;}
	.st21{fill:#8F96AC;}
	.st22{fill:#D7DEED;}
	.st23{fill:#47821C;}
	.st24{fill:#CC7400;}
	.st25{fill:#AA6100;}
	.st26{fill:#4E901E;}
	.st27{fill:#5EAC24;}
	.st28{fill:#6DC82A;}
	.st29{fill:#6E6C71;}
	.st30{fill:#FFE8CC;}
	.st31{fill:#919497;}
	.st32{fill:#FFE1BD;}
	.st33{clip-path:url(#SVGID_2_);fill:#ABABB0;}
	.st34{clip-path:url(#SVGID_2_);fill:#C5C5CA;}
	.st35{fill:#FFD733;}
	.st36{fill:#FFA891;}
	.st37{fill:#F0F0F0;}
	.st38{fill:#FF7854;}
	.st39{fill:#EBEBEB;}
	.st40{fill:#1CC8EB;}
	.st41{fill:#F0BE59;}
	.st42{fill:#FFB41F;}
	.st43{fill:#74D5E8;}
	.st44{fill:#8C8C8C;}
	.st45{fill:#6A80FF;}
	.st46{fill:#ADE5FF;}
	.st47{fill:#FFC66C;}
	.st48{fill:#36D28F;}
	.st49{fill:#5A54E0;}
	.st50{fill:#C9F3FF;}
	.st51{clip-path:url(#SVGID_4_);}
	.st52{fill:#A2A2A5;}
	.st53{fill:none;}
	.st54{fill:#8ECDF4;}
	.st55{fill:#CFD0D1;}
	.st56{fill-rule:evenodd;clip-rule:evenodd;fill:#193651;}
	.st57{fill:#76ACDD;}
</style>
<rect x="281.5" y="196.1" class="st3" width="42.1" height="227.3"/>
<g>
	<g>
		<path class="st11" d="M234.9,596.2c-3.1,1.1-9.3,3-16.6,3c-8.2,0-14.9-2.1-20.2-7.1c-4.6-4.5-7.5-11.7-7.5-20.1
			c0.1-16.1,11.1-27.8,29.2-27.8c6.2,0,11.1,1.4,13.4,2.5l-1.7,5.7c-2.9-1.3-6.5-2.3-11.9-2.3c-13.1,0-21.7,8.2-21.7,21.7
			c0,13.7,8.2,21.8,20.8,21.8c4.6,0,7.7-0.6,9.3-1.4v-16.1h-11v-5.6h17.8V596.2z"/>
		<path class="st11" d="M249.6,580.6c0.2,9.5,6.2,13.4,13.3,13.4c5,0,8.1-0.9,10.7-2l1.2,5c-2.5,1.1-6.7,2.4-12.9,2.4
			c-11.9,0-19-7.8-19-19.5c0-11.7,6.9-20.9,18.2-20.9c12.6,0,16,11.1,16,18.2c0,1.4-0.2,2.6-0.2,3.3H249.6z M270.2,575.5
			c0.1-4.5-1.8-11.4-9.8-11.4c-7.1,0-10.2,6.6-10.8,11.4H270.2z"/>
		<path class="st11" d="M284.8,591.5c2.1,1.4,5.8,2.8,9.3,2.8c5.1,0,7.5-2.6,7.5-5.8c0-3.4-2-5.2-7.2-7.1c-7-2.5-10.2-6.3-10.2-11
			c0-6.2,5-11.4,13.4-11.4c3.9,0,7.4,1.1,9.5,2.4l-1.8,5.1c-1.5-1-4.3-2.2-7.9-2.2c-4.2,0-6.5,2.4-6.5,5.3c0,3.2,2.3,4.6,7.4,6.6
			c6.7,2.6,10.2,5.9,10.2,11.7c0,6.8-5.3,11.6-14.5,11.6c-4.2,0-8.2-1-10.9-2.6L284.8,591.5z"/>
		<path class="st11" d="M325.9,548.8v11.1H336v5.4h-10.1v20.9c0,4.8,1.4,7.5,5.3,7.5c1.8,0,3.2-0.2,4.1-0.5l0.3,5.3
			c-1.4,0.6-3.5,1-6.2,1c-3.3,0-5.9-1-7.6-3c-2-2.1-2.7-5.5-2.7-10.1v-21.1h-6v-5.4h6v-9.3L325.9,548.8z"/>
		<path class="st11" d="M351.8,549c0.1,2.4-1.7,4.3-4.5,4.3c-2.5,0-4.2-1.9-4.2-4.3c0-2.5,1.8-4.4,4.4-4.4
			C350.1,544.6,351.8,546.6,351.8,549z M343.9,598.7v-38.7h7v38.7H343.9z"/>
		<path class="st11" d="M397.7,579c0,14.3-9.9,20.6-19.3,20.6c-10.5,0-18.6-7.7-18.6-19.9c0-13,8.5-20.6,19.2-20.6
			C390.2,559,397.7,567.1,397.7,579z M367,579.4c0,8.5,4.9,14.9,11.8,14.9c6.7,0,11.8-6.3,11.8-15c0-6.6-3.3-14.9-11.6-14.9
			S367,572,367,579.4z M389.3,543.2l-9.8,11.4h-5l7-11.4H389.3z"/>
		<path class="st11" d="M406.6,570.4c0-4-0.1-7.3-0.3-10.5h6.2l0.4,6.4h0.2c1.9-3.7,6.4-7.3,12.8-7.3c5.4,0,13.7,3.2,13.7,16.5v23.1
			h-7v-22.3c0-6.2-2.3-11.4-9-11.4c-4.6,0-8.2,3.3-9.4,7.2c-0.3,0.9-0.5,2.1-0.5,3.3v23.3h-7V570.4z"/>
		<path class="st11" d="M501.4,541.8v46.8c0,3.4,0.1,7.4,0.3,10h-6.3l-0.3-6.7h-0.2c-2.2,4.3-6.9,7.6-13.2,7.6
			c-9.4,0-16.6-7.9-16.6-19.7C465,567,473,559,482.5,559c5.9,0,9.9,2.8,11.7,5.9h0.2v-23.1H501.4z M494.3,575.7c0-0.9-0.1-2.1-0.3-3
			c-1-4.5-4.9-8.2-10.2-8.2c-7.3,0-11.6,6.4-11.6,15c0,7.8,3.8,14.3,11.4,14.3c4.7,0,9-3.1,10.3-8.4c0.2-1,0.3-1.9,0.3-3V575.7z"/>
		<path class="st11" d="M517,580.6c0.2,9.5,6.2,13.4,13.3,13.4c5,0,8.1-0.9,10.7-2l1.2,5c-2.5,1.1-6.7,2.4-12.9,2.4
			c-11.9,0-19-7.8-19-19.5c0-11.7,6.9-20.9,18.2-20.9c12.6,0,16,11.1,16,18.2c0,1.4-0.2,2.6-0.2,3.3H517z M537.6,575.5
			c0.1-4.5-1.8-11.4-9.8-11.4c-7.1,0-10.2,6.6-10.8,11.4H537.6z"/>
		<path class="st11" d="M228,681.9c-2.6,1.3-7.7,2.6-14.2,2.6c-15.2,0-26.6-9.6-26.6-27.3c0-16.9,11.4-28.3,28.2-28.3
			c6.7,0,11,1.4,12.8,2.4l-1.7,5.7c-2.6-1.3-6.4-2.2-10.9-2.2c-12.6,0-21,8.1-21,22.2c0,13.2,7.6,21.7,20.7,21.7
			c4.2,0,8.6-0.9,11.4-2.2L228,681.9z"/>
		<path class="st11" d="M270.7,664c0,14.3-9.9,20.6-19.3,20.6c-10.5,0-18.6-7.7-18.6-19.9c0-13,8.5-20.6,19.2-20.6
			C263.2,644,270.7,652.1,270.7,664z M240,664.4c0,8.5,4.9,14.9,11.8,14.9c6.7,0,11.8-6.3,11.8-15c0-6.6-3.3-14.9-11.6-14.9
			C243.6,649.3,240,657,240,664.4z"/>
		<path class="st11" d="M279.6,655.4c0-4-0.1-7.3-0.3-10.5h6.2l0.4,6.4h0.2c1.9-3.7,6.4-7.3,12.8-7.3c5.4,0,13.7,3.2,13.7,16.5v23.1
			h-7v-22.3c0-6.2-2.3-11.4-9-11.4c-4.6,0-8.2,3.3-9.4,7.2c-0.3,0.9-0.5,2.1-0.5,3.3v23.3h-7V655.4z"/>
		<path class="st11" d="M332.1,633.8v11.1h10.1v5.4h-10.1v20.9c0,4.8,1.4,7.5,5.3,7.5c1.8,0,3.2-0.2,4.1-0.5l0.3,5.3
			c-1.4,0.6-3.5,1-6.2,1c-3.3,0-5.9-1-7.6-3c-2-2.1-2.7-5.5-2.7-10.1v-21.1h-6v-5.4h6v-9.3L332.1,633.8z"/>
		<path class="st11" d="M353.6,665.6c0.2,9.5,6.2,13.4,13.3,13.4c5,0,8.1-0.9,10.7-2l1.2,5c-2.5,1.1-6.7,2.4-12.9,2.4
			c-11.9,0-19-7.8-19-19.5c0-11.7,6.9-20.9,18.2-20.9c12.6,0,16,11.1,16,18.2c0,1.4-0.2,2.6-0.2,3.3H353.6z M374.2,660.5
			c0.1-4.5-1.8-11.4-9.8-11.4c-7.1,0-10.2,6.6-10.8,11.4H374.2z"/>
		<path class="st11" d="M389.7,655.4c0-4-0.1-7.3-0.3-10.5h6.2l0.4,6.4h0.2c1.9-3.7,6.4-7.3,12.8-7.3c5.4,0,13.7,3.2,13.7,16.5v23.1
			h-7v-22.3c0-6.2-2.3-11.4-9-11.4c-4.6,0-8.2,3.3-9.4,7.2c-0.3,0.9-0.5,2.1-0.5,3.3v23.3h-7V655.4z"/>
		<path class="st11" d="M442,634c0.1,2.4-1.7,4.3-4.5,4.3c-2.5,0-4.2-1.9-4.2-4.3c0-2.5,1.8-4.4,4.4-4.4
			C440.3,629.6,442,631.6,442,634z M434.1,683.7v-38.7h7v38.7H434.1z"/>
		<path class="st11" d="M486.3,626.8v46.8c0,3.4,0.1,7.4,0.3,10h-6.3l-0.3-6.7h-0.2c-2.2,4.3-6.9,7.6-13.2,7.6
			c-9.4,0-16.6-7.9-16.6-19.7C450,652,458,644,467.4,644c5.9,0,9.9,2.8,11.7,5.9h0.2v-23.1H486.3z M479.2,660.7c0-0.9-0.1-2.1-0.3-3
			c-1-4.5-4.9-8.2-10.2-8.2c-7.3,0-11.6,6.4-11.6,15c0,7.8,3.8,14.3,11.4,14.3c4.7,0,9-3.1,10.3-8.4c0.2-1,0.3-1.9,0.3-3V660.7z"/>
		<path class="st11" d="M533,664c0,14.3-9.9,20.6-19.3,20.6c-10.5,0-18.6-7.7-18.6-19.9c0-13,8.5-20.6,19.2-20.6
			C525.5,644,533,652.1,533,664z M502.3,664.4c0,8.5,4.9,14.9,11.8,14.9c6.7,0,11.8-6.3,11.8-15c0-6.6-3.3-14.9-11.6-14.9
			S502.3,657,502.3,664.4z"/>
		<path class="st11" d="M540.9,676.5c2.1,1.4,5.8,2.8,9.3,2.8c5.1,0,7.5-2.6,7.5-5.8c0-3.4-2-5.2-7.2-7.1c-7-2.5-10.2-6.3-10.2-11
			c0-6.2,5-11.4,13.4-11.4c3.9,0,7.4,1.1,9.5,2.4l-1.8,5.1c-1.5-1-4.3-2.2-7.9-2.2c-4.2,0-6.5,2.4-6.5,5.3c0,3.2,2.3,4.6,7.4,6.6
			c6.7,2.6,10.2,5.9,10.2,11.7c0,6.8-5.3,11.6-14.5,11.6c-4.2,0-8.2-1-10.9-2.6L540.9,676.5z"/>
	</g>
</g>
<g>
	<path class="st14" d="M485.8,309.5v33.2v74.5H286.6V201.4h58.1c4.6,0,8.3-3.7,8.3-8.3v-58.1h132.8v78.9v33V309.5z M502.4,218.3
		v-33.1v-58.5c0-4.6-3.7-8.3-8.3-8.3H344.7c-0.3,0-0.5,0-0.8,0c-1.9,0.2-3.7,1-5.1,2.3l-66.4,66.4c-1.6,1.6-2.5,3.7-2.5,6v232.5
		c0,4.6,3.7,8.3,8.3,8.3h215.9c4.6,0,8.3-3.7,8.3-8.3V313.8v-33.2V218.3z M336.4,146.6v38.1h-38.1L336.4,146.6z"/>
</g>
<polygon class="st15" points="455.9,242.9 509.1,146.6 509.1,329.5 481.1,392.8 "/>
<g transform="translate(0,-952.36218)">
	<path class="st16" d="M502.4,1266.2l70.4-122.7c8.7-15.2,3.5-34.8-11.7-43.6c-1-0.5-2-0.9-3.1-1c-2.9-1.3-5.9-2.6-9-3
		c-12.4-1.5-25.1,4.3-31.7,15.7l-15,25.9l-16.6,28.7l-81.9,141c-0.9,1.5-1.3,3.3-1.2,5.1l4.2,41.5c0.5,4.6,4.5,7.9,9.1,7.4
		c0.9-0.1,1.8-0.3,2.6-0.7l37.4-16.6c1.6-0.7,3-1.9,3.9-3.5l25.9-45.3L502.4,1266.2z M544.8,1112.1c0.7,0,1.5,0,2.2,0.1
		c2,0.3,4,1,5.8,2.1c7.5,4.3,9.9,13.4,5.6,20.9l-13.4,23.2l-26.6-15.6l13.4-23C534.7,1114.9,539.7,1112.2,544.8,1112.1z
		 M510.2,1157.2l26.7,15.6L452.5,1320l-27.2-16.5L510.2,1157.2z M420.3,1319.9l20.8,12.5l-18.7,8.3L420.3,1319.9z"/>
</g>
<path class="st14" d="M436.2,234.6c-0.1,0-0.2,0-0.2,0H323.9c-0.3,0-0.5,0-0.8,0c-4.6,0.2-8.1,4.1-7.9,8.7c0.2,4.6,4.1,8.1,8.7,7.9
	H436c4.6,0.1,8.4-3.6,8.4-8.2C444.5,238.4,440.8,234.6,436.2,234.6z"/>
<path class="st14" d="M411.2,284.5c0.1-4.6-3.6-8.4-8.2-8.4c-0.1,0-0.2,0-0.2,0h-78.9c-0.3,0-0.5,0-0.8,0c-4.6,0.2-8.1,4.1-7.9,8.7
	s4.1,8.1,8.7,7.9h78.9C407.4,292.7,411.1,289.1,411.2,284.5z"/>
<path class="st14" d="M394.6,326c0.1-4.6-3.6-8.4-8.2-8.4c-0.1,0-0.2,0-0.2,0h-62.3c-0.3,0-0.5,0-0.8,0c-4.6,0.2-8.1,4.1-7.9,8.7
	c0.2,4.6,4.1,8.1,8.7,7.9h62.3C390.8,334.3,394.5,330.6,394.6,326z"/>
</svg>
