<svg id="Layer_1" data-name="Layer 1" xmlns="http://www.w3.org/2000/svg" viewBox="0 0 750 750"><defs><style>.cls-1{fill:#606060;}.cls-2{fill:#ecf7fb;}.cls-3{fill:#7f969f;}.cls-4{fill:#2f84c6;}.cls-5{fill:#e6f0f2;}</style></defs><title>Artboard 47 copy 4</title><path class="cls-1" d="M244.48,575H221.09v19.15h27.18V600H214V546h33.91v5.82h-26.8v17.41h23.39Z"/><path class="cls-1" d="M279.4,589.34a5.08,5.08,0,0,0-2.09-4.33c-1.4-1-3.83-1.91-7.3-2.65a34.3,34.3,0,0,1-8.27-2.67,11.75,11.75,0,0,1-4.52-3.71,8.89,8.89,0,0,1-1.47-5.12,10.41,10.41,0,0,1,4.17-8.35,16.27,16.27,0,0,1,10.66-3.42q6.82,0,11.06,3.53a11.19,11.19,0,0,1,4.25,9H279a6.18,6.18,0,0,0-2.39-4.86,8.94,8.94,0,0,0-6-2,9.36,9.36,0,0,0-5.86,1.64,5.15,5.15,0,0,0-2.11,4.26,4.17,4.17,0,0,0,2,3.75,23.84,23.84,0,0,0,7.09,2.41,37.33,37.33,0,0,1,8.33,2.75,12.05,12.05,0,0,1,4.72,3.84,9.42,9.42,0,0,1,1.54,5.47,10.27,10.27,0,0,1-4.3,8.63q-4.31,3.25-11.16,3.25a20.13,20.13,0,0,1-8.52-1.71,13.86,13.86,0,0,1-5.8-4.77,11.48,11.48,0,0,1-2.1-6.62h6.86A7.09,7.09,0,0,0,264,593.1a10.71,10.71,0,0,0,6.8,2,11.06,11.06,0,0,0,6.25-1.58A4.84,4.84,0,0,0,279.4,589.34Z"/><path class="cls-1" d="M311.28,595.13a9.89,9.89,0,0,0,6.41-2.23,7.82,7.82,0,0,0,3-5.57h6.49a12.51,12.51,0,0,1-2.37,6.57,15.6,15.6,0,0,1-5.84,5,16.79,16.79,0,0,1-7.73,1.86q-8.19,0-13-5.48t-4.84-15v-1.15a24.27,24.27,0,0,1,2.15-10.43,16.37,16.37,0,0,1,6.18-7.08,17.44,17.44,0,0,1,9.5-2.53,16.08,16.08,0,0,1,11.22,4,14.47,14.47,0,0,1,4.76,10.5h-6.49a9.45,9.45,0,0,0-2.94-6.4,9.18,9.18,0,0,0-6.55-2.51,9.61,9.61,0,0,0-8.1,3.77q-2.86,3.76-2.87,10.89v1.3q0,6.94,2.86,10.69A9.63,9.63,0,0,0,311.28,595.13Z"/><path class="cls-1" d="M359.69,600a14.22,14.22,0,0,1-1-4.23,15.32,15.32,0,0,1-11.42,5,14.14,14.14,0,0,1-9.73-3.36,10.89,10.89,0,0,1-3.8-8.52,11.37,11.37,0,0,1,4.76-9.74q4.77-3.47,13.4-3.47h6.68v-3.15a7.76,7.76,0,0,0-2.15-5.74q-2.16-2.13-6.34-2.13a10,10,0,0,0-6.16,1.86,5.47,5.47,0,0,0-2.48,4.49H334.6a9.48,9.48,0,0,1,2.13-5.81,14.57,14.57,0,0,1,5.78-4.44,19.57,19.57,0,0,1,8-1.63q6.93,0,10.86,3.47a12.57,12.57,0,0,1,4.07,9.56V590.6a22.57,22.57,0,0,0,1.41,8.79v.6Zm-11.38-5.24a12,12,0,0,0,6.12-1.67,10.16,10.16,0,0,0,4.19-4.34V580.5h-5.38q-12.6,0-12.6,7.39a6.25,6.25,0,0,0,2.15,5.05A8.25,8.25,0,0,0,348.31,594.75Z"/><path class="cls-1" d="M383.67,600h-6.85V543h6.85Z"/><path class="cls-1" d="M419.41,600a14.47,14.47,0,0,1-1-4.23,15.3,15.3,0,0,1-11.41,5,14.13,14.13,0,0,1-9.73-3.36,10.86,10.86,0,0,1-3.8-8.52,11.35,11.35,0,0,1,4.76-9.74q4.75-3.47,13.4-3.47h6.67v-3.15a7.76,7.76,0,0,0-2.15-5.74q-2.15-2.13-6.34-2.13a10,10,0,0,0-6.15,1.86,5.44,5.44,0,0,0-2.48,4.49h-6.9a9.48,9.48,0,0,1,2.13-5.81,14.53,14.53,0,0,1,5.79-4.44,19.52,19.52,0,0,1,8-1.63q6.93,0,10.86,3.47a12.54,12.54,0,0,1,4.08,9.56V590.6a22.57,22.57,0,0,0,1.41,8.79v.6ZM408,594.75a11.93,11.93,0,0,0,6.11-1.67,10,10,0,0,0,4.19-4.34V580.5H413q-12.61,0-12.61,7.39a6.28,6.28,0,0,0,2.15,5.05A8.29,8.29,0,0,0,408,594.75Z"/><path class="cls-1" d="M439.31,600V565.14H433v-5.31h6.34v-4.12q0-6.45,3.45-10t9.75-3.52a18.33,18.33,0,0,1,4.7.62l-.37,5.54a19,19,0,0,0-3.7-.34,6.68,6.68,0,0,0-5.15,2,7.88,7.88,0,0,0-1.82,5.6v4.24h8.56v5.31h-8.56V600Z"/><path class="cls-1" d="M460.48,579.54a23.79,23.79,0,0,1,2.31-10.61,17.36,17.36,0,0,1,6.45-7.28,17.62,17.62,0,0,1,9.44-2.56,16.89,16.89,0,0,1,13.25,5.68q5.06,5.67,5.06,15.1v.49a24.06,24.06,0,0,1-2.24,10.52,17.09,17.09,0,0,1-6.42,7.25,17.75,17.75,0,0,1-9.58,2.6,16.83,16.83,0,0,1-13.21-5.68q-5.07-5.67-5.06-15Zm6.89.82q0,6.67,3.1,10.72a10.46,10.46,0,0,0,16.58-.06q3.07-4.1,3.08-11.48,0-6.6-3.13-10.71a10,10,0,0,0-8.32-4.1,9.85,9.85,0,0,0-8.2,4Q467.38,572.82,467.37,580.36ZM481.79,543h8.3l-9.93,10.91-5.52,0Z"/><path class="cls-1" d="M512.07,559.83l.23,5a14.59,14.59,0,0,1,12-5.79q12.71,0,12.82,14.36V600h-6.86V573.42q0-4.35-2-6.42t-6.06-2.08a9.89,9.89,0,0,0-5.86,1.78,12,12,0,0,0-3.92,4.68V600h-6.86V559.83Z"/><rect class="cls-2" x="304.81" y="191.81" width="56.36" height="56.43" rx="28.18" ry="28.18"/><rect class="cls-2" x="353.05" y="133.08" width="56.36" height="56.43" rx="28.18" ry="28.18"/><path class="cls-3" d="M284.76,310.37a32.79,32.79,0,1,1,32.75-32.78A32.81,32.81,0,0,1,284.76,310.37Zm0-56.42a23.64,23.64,0,1,0,23.62,23.64A23.65,23.65,0,0,0,284.76,254Z"/><path class="cls-3" d="M477.69,310.37a32.79,32.79,0,1,1,32.75-32.78A32.8,32.8,0,0,1,477.69,310.37Zm0-56.42a23.64,23.64,0,1,0,23.62,23.64A23.65,23.65,0,0,0,477.69,254Z"/><path class="cls-3" d="M429.46,254a32.79,32.79,0,1,1,32.75-32.79A32.81,32.81,0,0,1,429.46,254Zm0-56.43a23.64,23.64,0,1,0,23.61,23.64A23.65,23.65,0,0,0,429.46,197.52Z"/><rect class="cls-2" x="353.05" y="249.37" width="56.36" height="56.43" rx="28.18" ry="28.18"/><path class="cls-2" d="M381.23,305.8A48.26,48.26,0,0,0,333,354.09v22.82h96.46V354.09A48.26,48.26,0,0,0,381.23,305.8Z"/><path class="cls-3" d="M241.1,372.34V354.09a43.67,43.67,0,1,1,87.33,0v18.25h-.12l.12,0h9.13V354.09a52.8,52.8,0,1,0-105.6,0v27.4H250.5v-9.15Z"/><path class="cls-3" d="M530.49,354.09a52.8,52.8,0,1,0-105.6,0v18.27H434l.09,0H434V354.09a43.67,43.67,0,1,1,87.33,0v18.25h-12v9.15h21.17Z"/><path class="cls-4" d="M333,252.81A32.79,32.79,0,1,1,365.74,220,32.8,32.8,0,0,1,333,252.81Zm0-56.42A23.64,23.64,0,1,0,356.61,220,23.65,23.65,0,0,0,333,196.39Z"/><path class="cls-4" d="M381.23,194.08A32.79,32.79,0,1,1,414,161.29,32.81,32.81,0,0,1,381.23,194.08Zm0-56.43a23.64,23.64,0,1,0,23.61,23.64A23.65,23.65,0,0,0,381.23,137.65Z"/><path class="cls-4" d="M381.23,310.37A32.79,32.79,0,1,1,414,277.59,32.8,32.8,0,0,1,381.23,310.37Zm0-56.42a23.64,23.64,0,1,0,23.61,23.64A23.65,23.65,0,0,0,381.23,254Z"/><path class="cls-4" d="M434,381.49H328.43v-27.4a52.8,52.8,0,1,1,105.6,0Zm-96.47-9.15h87.33V354.09a43.67,43.67,0,1,0-87.33,0Z"/><polygon class="cls-5" points="273.22 421.07 270.3 376.94 487.46 376.94 341.98 408.46 273.22 421.07"/><rect class="cls-3" x="267.8" y="372.36" width="224.23" height="9.15" rx="4.57" ry="4.57"/><rect class="cls-3" x="461.64" y="393.61" width="51.63" height="9.14" rx="4.57" ry="4.57" transform="translate(885.64 -89.28) rotate(90)"/><rect class="cls-3" x="246.56" y="393.61" width="51.63" height="9.14" rx="4.57" ry="4.57" transform="translate(670.55 125.81) rotate(90)"/></svg>