<svg id="Capa_1" data-name="Capa 1" xmlns="http://www.w3.org/2000/svg" viewBox="0 0 755 755"><defs><style>.cls-1{fill:#606060;}.cls-2{fill:#e9f5ff;}.cls-3{fill:#193651;}.cls-4{fill:#fff;}.cls-5{fill:#7db1cb;}.cls-6{fill:#266cb4;}</style></defs><title>Eextensionuni</title><path class="cls-1" d="M187.32,575.74H165.89v20h24v5.95H158.72V546.38H188.6v6H165.89v17.5h21.43Z"/><path class="cls-1" d="M199.09,562l7.78,22.24c1.33,3.67,2.36,6.95,3.24,10.24h.22c.91-3.3,2-6.59,3.32-10.24L221.41,562H229l-15.61,39.66h-6.87L191.36,562Z"/><path class="cls-1" d="M255.44,601.65l-.63-5h-.22a14.72,14.72,0,0,1-12.13,5.91c-8,0-12.11-5.69-12.11-11.38,0-9.61,8.51-14.88,23.83-14.77v-.84c0-3.23-.91-9.2-9-9.15a19.33,19.33,0,0,0-10.33,3l-1.64-4.79a25,25,0,0,1,13.09-3.48c12.12,0,15.08,8.29,15.08,16.23v14.84a61.36,61.36,0,0,0,.6,9.49Zm-1.12-20.25c-7.8-.17-16.74,1.23-16.74,8.9,0,4.74,3.12,6.91,6.74,6.91a9.93,9.93,0,0,0,9.66-6.64,7.54,7.54,0,0,0,.34-2.27Z"/><path class="cls-1" d="M271,543.43h7.18v58.22H271Z"/><path class="cls-1" d="M321.56,590.79c0,4.16.13,7.72.32,10.86h-6.37l-.38-6.49h-.2a14.82,14.82,0,0,1-13.13,7.39c-6.21,0-13.66-3.48-13.66-17.38V562h7.18V583.9c0,7.56,2.35,12.7,8.86,12.7a10.49,10.49,0,0,0,9.54-6.62,11,11,0,0,0,.66-3.7V562h7.18Z"/><path class="cls-1" d="M353.6,601.65l-.64-5h-.21a14.76,14.76,0,0,1-12.14,5.91c-8,0-12.11-5.69-12.11-11.38,0-9.61,8.51-14.88,23.83-14.77v-.84c0-3.23-.9-9.2-9-9.15a19.33,19.33,0,0,0-10.33,3l-1.63-4.79a24.89,24.89,0,0,1,13.08-3.48c12.13,0,15.08,8.29,15.08,16.23v14.84a62.63,62.63,0,0,0,.6,9.49Zm-1.12-20.25c-7.81-.17-16.75,1.23-16.75,8.9,0,4.74,3.12,6.91,6.74,6.91a9.93,9.93,0,0,0,9.66-6.64,7.57,7.57,0,0,0,.35-2.27Z"/><path class="cls-1" d="M397.44,600.21a27.33,27.33,0,0,1-11.38,2.3c-12,0-19.79-8.14-19.79-20.26s8.34-21.15,21.31-21.15a23.31,23.31,0,0,1,10,2.11l-1.6,5.54a17.54,17.54,0,0,0-8.43-1.9c-9.05,0-14,6.78-14,15,0,9.19,5.9,14.85,13.81,14.85a21,21,0,0,0,8.83-1.91Z"/><path class="cls-1" d="M412,550.78a4.34,4.34,0,0,1-4.59,4.48,4.3,4.3,0,0,1-4.35-4.48,4.38,4.38,0,0,1,4.48-4.49A4.32,4.32,0,0,1,412,550.78Zm-8.06,50.87V562h7.18v39.66Z"/><path class="cls-1" d="M457.06,581.48c0,14.67-10.17,21.07-19.77,21.07-10.74,0-19-7.87-19-20.42,0-13.28,8.69-21.07,19.68-21.07C449.35,561.06,457.06,569.34,457.06,581.48Zm-31.49.41c0,8.69,5,15.25,12.05,15.25,6.89,0,12.06-6.48,12.06-15.42,0-6.72-3.37-15.25-11.89-15.25S425.57,574.34,425.57,581.89Zm22.88-37.07-10,11.73h-5.17l7.22-11.73Z"/><path class="cls-1" d="M464.19,572.7c0-4.1-.08-7.46-.33-10.74h6.4l.41,6.56h.16A14.6,14.6,0,0,1,484,561.06c5.49,0,14,3.28,14,16.89v23.7h-7.21V578.77c0-6.4-2.38-11.73-9.19-11.73a10.26,10.26,0,0,0-9.67,7.38,10.4,10.4,0,0,0-.5,3.37v23.86h-7.21Z"/><path class="cls-1" d="M557.42,543.43v48c0,3.52.08,7.54.33,10.25h-6.48l-.33-6.89h-.16c-2.21,4.43-7,7.79-13.53,7.79-9.59,0-17-8.12-17-20.17-.09-13.2,8.11-21.32,17.79-21.32,6.07,0,10.17,2.87,12,6.07h.17v-23.7Zm-7.21,34.68a13,13,0,0,0-.33-3,10.61,10.61,0,0,0-10.42-8.36c-7.46,0-11.89,6.56-11.89,15.33,0,8,3.94,14.68,11.73,14.68a10.85,10.85,0,0,0,10.58-8.61,12.88,12.88,0,0,0,.33-3.12Z"/><path class="cls-1" d="M571.44,583.12c.17,9.75,6.4,13.77,13.61,13.77a26,26,0,0,0,11-2l1.23,5.17a32.11,32.11,0,0,1-13.2,2.46c-12.22,0-19.52-8-19.52-20s7.06-21.4,18.62-21.4c13,0,16.4,11.4,16.4,18.69a27.57,27.57,0,0,1-.25,3.37ZM592.6,578c.08-4.59-1.89-11.73-10-11.73-7.29,0-10.49,6.73-11.07,11.73Z"/><path class="cls-1" d="M43.7,658.74H22.22v19.92H46.16v6H15.08V629.38H44.93v6H22.22v17.46H43.7Z"/><path class="cls-1" d="M56.57,645l5.66,8.53c1.48,2.21,2.71,4.26,4,6.48h.25c1.31-2.38,2.62-4.43,3.93-6.56L76,645H83.8L70.27,664.15l13.94,20.5H76l-5.82-8.94c-1.56-2.3-2.87-4.51-4.27-6.89h-.16c-1.31,2.38-2.71,4.51-4.18,6.89l-5.75,8.94H47.88L62,664.39,48.54,645Z"/><path class="cls-1" d="M99,633.56V645H109.3v5.49H99v21.41c0,4.92,1.39,7.7,5.41,7.7a15.9,15.9,0,0,0,4.18-.49l.33,5.41a17.55,17.55,0,0,1-6.4,1c-3.36,0-6.07-1.07-7.79-3-2-2.13-2.79-5.65-2.79-10.33V650.45H85.76V645h6.15v-9.51Z"/><path class="cls-1" d="M119,666.12c.17,9.75,6.4,13.77,13.62,13.77a26,26,0,0,0,11-2L144.8,683a32.07,32.07,0,0,1-13.2,2.46c-12.22,0-19.51-8-19.51-20s7-21.4,18.61-21.4c13,0,16.4,11.4,16.4,18.69a25.68,25.68,0,0,1-.25,3.37ZM140.13,661c.08-4.59-1.89-11.73-10-11.73-7.3,0-10.5,6.73-11.07,11.73Z"/><path class="cls-1" d="M154.07,655.7c0-4.1-.08-7.46-.33-10.74h6.4l.41,6.56h.16a14.6,14.6,0,0,1,13.12-7.46c5.5,0,14,3.28,14,16.89v23.7h-7.21V661.77c0-6.4-2.38-11.73-9.19-11.73a10.26,10.26,0,0,0-9.67,7.38,10.41,10.41,0,0,0-.49,3.37v23.86h-7.22Z"/><path class="cls-1" d="M196.63,677.27a18.93,18.93,0,0,0,9.51,2.87c5.25,0,7.71-2.63,7.71-5.91,0-3.44-2-5.33-7.38-7.29-7.14-2.55-10.5-6.48-10.5-11.24,0-6.39,5.17-11.64,13.69-11.64a19.82,19.82,0,0,1,9.76,2.46l-1.8,5.25a15.4,15.4,0,0,0-8.12-2.3c-4.26,0-6.64,2.46-6.64,5.41,0,3.28,2.38,4.76,7.54,6.73,6.89,2.62,10.42,6.06,10.42,12,0,7-5.42,11.89-14.85,11.89a22.65,22.65,0,0,1-11.15-2.71Z"/><path class="cls-1" d="M236.15,633.81a4.47,4.47,0,0,1-8.94,0,4.4,4.4,0,0,1,4.51-4.51A4.28,4.28,0,0,1,236.15,633.81Zm-8,50.84V645h7.22v39.69Z"/><path class="cls-1" d="M281.25,664.48c0,14.67-10.17,21.07-19.76,21.07-10.74,0-19-7.87-19-20.42,0-13.28,8.7-21.07,19.68-21.07C273.54,644.06,281.25,652.34,281.25,664.48Zm-31.49.41c0,8.69,5,15.25,12.06,15.25,6.88,0,12.05-6.48,12.05-15.42,0-6.72-3.36-15.25-11.89-15.25S249.76,657.34,249.76,664.89Zm22.88-37.07-10,11.73h-5.17l7.22-11.73Z"/><path class="cls-1" d="M288.38,655.7c0-4.1-.08-7.46-.32-10.74h6.39l.41,6.56H295a14.6,14.6,0,0,1,13.13-7.46c5.49,0,14,3.28,14,16.89v23.7H315V661.77c0-6.4-2.38-11.73-9.18-11.73a10.26,10.26,0,0,0-9.68,7.38,10.41,10.41,0,0,0-.49,3.37v23.86h-7.22Z"/><path class="cls-1" d="M354.72,629.38V662.1c0,12.38,5.49,17.63,12.87,17.63,8.2,0,13.45-5.41,13.45-17.63V629.38h7.22v32.23c0,17-8.94,23.94-20.91,23.94-11.32,0-19.85-6.48-19.85-23.62V629.38Z"/><path class="cls-1" d="M398.42,655.7c0-4.1-.08-7.46-.32-10.74h6.39l.41,6.56h.17a14.6,14.6,0,0,1,13.12-7.46c5.49,0,14,3.28,14,16.89v23.7H425V661.77c0-6.4-2.37-11.73-9.18-11.73a10.26,10.26,0,0,0-9.68,7.38,10.69,10.69,0,0,0-.49,3.37v23.86h-7.22Z"/><path class="cls-1" d="M450,633.81a4.47,4.47,0,0,1-8.94,0,4.4,4.4,0,0,1,4.51-4.51A4.28,4.28,0,0,1,450,633.81Zm-8,50.84V645h7.21v39.69Z"/><path class="cls-1" d="M462,645l7.79,22.3a100.23,100.23,0,0,1,3.2,10.17h.25c.9-3.28,2.05-6.56,3.36-10.17l7.71-22.3h7.54l-15.58,39.69h-6.89L454.27,645Z"/><path class="cls-1" d="M499.86,666.12c.16,9.75,6.39,13.77,13.61,13.77a26.07,26.07,0,0,0,11-2l1.23,5.17a32.11,32.11,0,0,1-13.2,2.46c-12.22,0-19.52-8-19.52-20s7-21.4,18.61-21.4c13,0,16.4,11.4,16.4,18.69a28,28,0,0,1-.24,3.37ZM521,661c.09-4.59-1.88-11.73-10-11.73-7.3,0-10.5,6.73-11.07,11.73Z"/><path class="cls-1" d="M535,657.34c0-4.67-.08-8.69-.33-12.38h6.32l.24,7.79h.33c1.81-5.33,6.15-8.69,11-8.69a8,8,0,0,1,2,.24v6.81a11.09,11.09,0,0,0-2.46-.25c-5.08,0-8.69,3.86-9.68,9.27a20.73,20.73,0,0,0-.32,3.36v21.16H535Z"/><path class="cls-1" d="M558.81,677.27a19,19,0,0,0,9.52,2.87c5.24,0,7.7-2.63,7.7-5.91,0-3.44-2-5.33-7.38-7.29-7.13-2.55-10.49-6.48-10.49-11.24,0-6.39,5.16-11.64,13.69-11.64a19.82,19.82,0,0,1,9.76,2.46l-1.8,5.25a15.4,15.4,0,0,0-8.12-2.3c-4.27,0-6.64,2.46-6.64,5.41,0,3.28,2.37,4.76,7.54,6.73,6.89,2.62,10.41,6.06,10.41,12,0,7-5.41,11.89-14.84,11.89A22.65,22.65,0,0,1,557,682.76Z"/><path class="cls-1" d="M598.34,633.81a4.47,4.47,0,0,1-8.94,0,4.4,4.4,0,0,1,4.51-4.51A4.28,4.28,0,0,1,598.34,633.81Zm-8,50.84V645h7.22v39.69Z"/><path class="cls-1" d="M616.21,633.56V645h10.34v5.49H616.21v21.41c0,4.92,1.4,7.7,5.42,7.7a15.9,15.9,0,0,0,4.18-.49l.33,5.41a17.55,17.55,0,0,1-6.4,1c-3.36,0-6.07-1.07-7.79-3-2.05-2.13-2.79-5.65-2.79-10.33V650.45H603V645h6.15v-9.51Z"/><path class="cls-1" d="M654.67,684.65l-.57-5h-.25a14.8,14.8,0,0,1-12.14,5.9c-8,0-12.13-5.66-12.13-11.4,0-9.59,8.53-14.84,23.86-14.76v-.82c0-3.28-.9-9.18-9-9.18a19.81,19.81,0,0,0-10.33,3l-1.64-4.76a24.63,24.63,0,0,1,13-3.52c12.13,0,15.08,8.28,15.08,16.23v14.85a56.1,56.1,0,0,0,.66,9.51Zm-1.07-20.26c-7.87-.16-16.81,1.23-16.81,8.94,0,4.68,3.12,6.89,6.81,6.89a9.86,9.86,0,0,0,9.59-6.64,7.44,7.44,0,0,0,.41-2.3Z"/><path class="cls-1" d="M670.25,657.34c0-4.67-.08-8.69-.33-12.38h6.32l.24,7.79h.33c1.8-5.33,6.15-8.69,11-8.69a8,8,0,0,1,2.05.24v6.81a11.09,11.09,0,0,0-2.46-.25c-5.09,0-8.69,3.86-9.68,9.27a20.67,20.67,0,0,0-.33,3.36v21.16h-7.13Z"/><path class="cls-1" d="M703.46,633.81a4.47,4.47,0,0,1-8.94,0A4.4,4.4,0,0,1,699,629.3,4.28,4.28,0,0,1,703.46,633.81Zm-8,50.84V645h7.22v39.69Z"/><path class="cls-1" d="M734.62,684.65l-.57-5h-.25a14.8,14.8,0,0,1-12.14,5.9c-8,0-12.13-5.66-12.13-11.4,0-9.59,8.53-14.84,23.86-14.76v-.82c0-3.28-.9-9.18-9-9.18a19.81,19.81,0,0,0-10.33,3l-1.64-4.76a24.63,24.63,0,0,1,13-3.52c12.13,0,15.08,8.28,15.08,16.23v14.85a56.1,56.1,0,0,0,.66,9.51Zm-1.07-20.26c-7.87-.16-16.81,1.23-16.81,8.94,0,4.68,3.12,6.89,6.81,6.89a9.86,9.86,0,0,0,9.59-6.64,7.44,7.44,0,0,0,.41-2.3Z"/><polygon class="cls-2" points="350.12 182 350.12 308 385.12 308 385.12 185 350.12 182"/><path class="cls-3" d="M574.54,442.93H403.77a23,23,0,0,1-23-23V197.67h0a23,23,0,0,1,23-22.62H550.51v14H403.77a9,9,0,0,0-9,8.82,9.61,9.61,0,0,0,9.6,9.4H574.54ZM394.77,219.23V419.92a9,9,0,0,0,9,9H560.54V221.27H404.37A23.47,23.47,0,0,1,394.77,219.23Z"/><path class="cls-3" d="M369.7,408.85a23,23,0,0,1-23-23V164a23,23,0,0,1,23-23H533.47v14H369.7a9,9,0,0,0-9,9V385.85a9,9,0,0,0,9,9Z"/><path class="cls-3" d="M533.47,189.05H370.3a23.63,23.63,0,0,1-23.61-23.6h14a9.62,9.62,0,0,0,9.61,9.6H533.47Z"/><circle class="cls-4" cx="370.38" cy="364.16" r="73.21" transform="translate(-118.28 540.23) rotate(-64.33)"/><path class="cls-5" d="M370.38,444.36a80.21,80.21,0,1,1,80.2-80.2A80.3,80.3,0,0,1,370.38,444.36Zm0-146.41a66.21,66.21,0,1,0,66.2,66.21A66.28,66.28,0,0,0,370.38,298Z"/><path class="cls-6" d="M332.78,394.54a20.41,20.41,0,0,1-20.38-20.39V354.26a10.91,10.91,0,0,1,10.9-10.9h31.13a10.91,10.91,0,0,1,10.9,10.9V362A32.59,32.59,0,0,1,332.78,394.54Zm-6.38-37.18v16.79a6.39,6.39,0,0,0,6.38,6.39A18.58,18.58,0,0,0,351.33,362v-4.63Z"/><path class="cls-6" d="M406.58,394.54A32.59,32.59,0,0,1,374,362v-7.73a10.91,10.91,0,0,1,10.9-10.9h31.13a10.91,10.91,0,0,1,10.9,10.9v19.89A20.42,20.42,0,0,1,406.58,394.54ZM388,357.36V362a18.57,18.57,0,0,0,18.54,18.55,6.4,6.4,0,0,0,6.39-6.39V357.36Z"/><rect class="cls-6" x="360.33" y="353.64" width="14.7" height="14"/><circle class="cls-4" cx="260.66" cy="229.45" r="73.21" transform="translate(-33.39 44.72) rotate(-9.22)"/><path class="cls-5" d="M260.66,309.65a80.21,80.21,0,1,1,80.21-80.2A80.29,80.29,0,0,1,260.66,309.65Zm0-146.41a66.21,66.21,0,1,0,66.21,66.21A66.28,66.28,0,0,0,260.66,163.24Z"/><path class="cls-6" d="M278.45,282.9H242.89V255.2a31.3,31.3,0,1,1,35.56,0Zm-21.56-14h7.56v-22l3.89-1.93a17.3,17.3,0,1,0-15.34,0l3.89,1.93Z"/><rect class="cls-6" x="253.67" y="174" width="14" height="12.51"/><rect class="cls-6" x="224.84" y="185.26" width="14" height="12.51" transform="translate(-67.51 220.03) rotate(-45)"/><rect class="cls-6" x="283.23" y="184.51" width="12.51" height="14" transform="translate(-50.64 260.76) rotate(-44.99)"/></svg>