<svg id="Capa_1" data-name="Capa 1" xmlns="http://www.w3.org/2000/svg" viewBox="0 0 755 755"><defs><style>.cls-1{fill:#507ea7;}.cls-2{fill:#fff;}.cls-3{fill:#7f7f80;}.cls-4{fill:#606060;}</style></defs><title>Gecoyfinan</title><path class="cls-1" d="M338,191.68a84.39,84.39,0,1,1-84.38,84.39A84.4,84.4,0,0,1,338,191.68"/><polygon class="cls-2" points="309.52 381.16 315.07 357.05 315.46 341.19 411.95 344.07 402.28 354.56 400.43 372 396.46 383.63 309.52 381.16"/><path class="cls-3" d="M483.39,316.77a74.92,74.92,0,0,0-33.71,8,121.25,121.25,0,0,0-12.46-119.37l7.59-7.59,10.29,10.28,24.65-24.66-49.33-49.33L405.75,158.8,416,169.07l-8.94,7.6c-14.69-10.48-28.36-17.72-51.61-20.86V142.35h17.44V107.47H303.17v34.88h11.62v13.46A121.64,121.64,0,0,0,266,176.56l-6.83-7.49,10.62-10.28-24.5-24.66L196,183.46l24.71,24.66L231,197.85l7.47,7.45A121.75,121.75,0,0,0,309,394.6v3.56H320.6v23.26h5.82v11.63H314.79v34.88H466v-2.11a75.55,75.55,0,1,0,17.44-149M383.12,420h14.5v14.51h-14.5Zm-2.94-32h-14.5V373.47h14.5Zm8.75-14.51h14.5V388h-14.5Zm2.88,37.76h-14.5v-14.5h14.5Zm6.9,0v-14.5h11.17a66.34,66.34,0,0,0,3.34,14.5Zm-4-61h14.5v14.5h-14.5ZM386,364.72H371.49v-14.5H386Zm-23.26,0h-14.5v-14.5h14.5Zm-23.26,0H325v-14.5h14.5ZM356.92,388h-14.5V373.47h14.5Zm11.63,23.25h-14.5v-14.5h14.5Zm5.82,23.26H359.86V420h14.51Zm-11.63,23.25h-14.5v-14.5h14.5Zm8.75-14.51H386v14.51H371.49Zm23.26,0h14.5v14.51h-14.5Zm13.06-8.75V420h5.84a100.87,100.87,0,0,0,6.16,14.5Zm11.63-82.83h.37c-.13.2-.25.41-.37.61Zm11-201.08,32.89,32.89-8.22,8.22L422.2,158.79Zm-6.16,26.72,12.33,12.34L430,196.24a123.92,123.92,0,0,0-12.34-12.34ZM314.79,130.72V119.1H361.3v11.62H314.79Zm11.62,11.63h17.45V154H326.41ZM212.55,183.46l32.88-32.89,8.23,8.22-32.89,32.89Zm26.72,6.17,12.32-12.33,6.51,6.5a122.76,122.76,0,0,0-12.35,12.32Zm-11.93,86.44a110.47,110.47,0,0,1,220.94,0,109.36,109.36,0,0,1-20.64,64H314.79v23.25H309v19.35a110.7,110.7,0,0,1-81.63-106.56m91.82,97.4h14.51V388H319.16Zm26.13,37.76h-14.5v-14.5h14.5ZM336.61,420h14.5v14.51h-14.5ZM325,443.23h14.51v14.51H325Zm94.47,14.51V443.23H429a81.71,81.71,0,0,0,14.32,14.51Zm63.95-1.44a64,64,0,1,1,64-63.95,64,64,0,0,1-64,63.95"/><path class="cls-1" d="M495.4,353.94h-7.2v-9.61h-9.61v9.61h-7.2a21.61,21.61,0,1,0,0,43.21h24a12,12,0,0,1,0,24h-24a12,12,0,0,1-12-12v-2.4h-9.6v2.4a21.63,21.63,0,0,0,21.61,21.6h7.2v9.61h9.61v-9.61h7.2a21.61,21.61,0,0,0,0-43.21h-24a12,12,0,0,1,0-24h24a12,12,0,0,1,12,12V378H517v-2.4a21.63,21.63,0,0,0-21.6-21.61"/><path class="cls-2" d="M320.37,276.07a17.5,17.5,0,1,0,10.41-15.94l-49.44-54.55-6.49,9.92,47.51,52.66a17.2,17.2,0,0,0-2,7.91m23.26,0a5.82,5.82,0,1,1-5.82-5.82,5.83,5.83,0,0,1,5.82,5.82"/><path class="cls-4" d="M117.15,598.75a49.7,49.7,0,0,1-16.8,3c-8.28,0-15.11-2.09-20.43-7.22-4.71-4.53-7.61-11.78-7.6-20.29C72.35,558,83.55,546,101.86,546a34.58,34.58,0,0,1,13.67,2.5l-1.76,5.76a27.93,27.93,0,0,0-12.07-2.34c-13.26,0-22,8.25-22,21.94,0,13.84,8.31,22,21.09,22,4.62,0,7.75-.65,9.38-1.47V578.17H99.16v-5.64h18Z"/><path class="cls-4" d="M130.12,582.89c.14,9.64,6.25,13.61,13.41,13.61a26.21,26.21,0,0,0,10.86-2l1.25,5.07a31.58,31.58,0,0,1-13.08,2.5c-12.05,0-19.29-8-19.29-19.79s7-21.16,18.45-21.16c12.79,0,16.13,11.22,16.13,18.44a17.3,17.3,0,0,1-.24,3.34ZM151,577.76c.08-4.49-1.83-11.54-9.83-11.54-7.28,0-10.38,6.58-11,11.54Z"/><path class="cls-4" d="M163.78,594a19.47,19.47,0,0,0,9.46,2.79c5.2,0,7.61-2.56,7.61-5.84s-2.07-5.23-7.28-7.18c-7.08-2.56-10.44-6.42-10.42-11.12,0-6.31,5.13-11.49,13.56-11.49a19,19,0,0,1,9.61,2.41l-1.78,5.18a15.48,15.48,0,0,0-8-2.3c-4.21,0-6.49,2.42-6.49,5.38,0,3.24,2.3,4.69,7.44,6.68,6.76,2.52,10.27,5.93,10.29,11.78,0,7-5.4,11.82-14.67,11.82a22.22,22.22,0,0,1-11-2.74Z"/><path class="cls-4" d="M203.51,550.71V562h10.24v5.4H203.51v21.13c0,4.88,1.4,7.64,5.39,7.64a14.18,14.18,0,0,0,4.13-.51l.33,5.42a18.35,18.35,0,0,1-6.37,1,10,10,0,0,1-7.7-3c-2-2.16-2.77-5.62-2.77-10.23V567.4h-6.07V562h6.07v-9.44Z"/><path class="cls-4" d="M227.8,550.92a4.42,4.42,0,1,1-8.84,0,4.34,4.34,0,0,1,4.44-4.44A4.26,4.26,0,0,1,227.8,550.92Zm-8,50.28V562h7.09v39.2Z"/><path class="cls-4" d="M272.35,581.23c0,14.51-10.07,20.87-19.5,20.87-10.63,0-18.85-7.75-18.85-20.2,0-13.12,8.63-20.79,19.47-20.79C264.75,561.11,272.35,569.28,272.35,581.23Zm-31.09.45c0,8.6,4.93,15.08,11.88,15.08s11.95-6.39,11.95-15.29c0-6.63-3.34-15-11.81-15S241.26,574.25,241.26,581.68ZM263.82,545l-9.9,11.61h-5L256,545Z"/><path class="cls-4" d="M279.42,572.59c0-4.09-.13-7.34-.32-10.59h6.3l.39,6.45h.2a14.46,14.46,0,0,1,13-7.34c5.39,0,13.82,3.24,13.82,16.71V601.2h-7.09V578.6c0-6.34-2.39-11.65-9.07-11.65a10.25,10.25,0,0,0-9.6,7.32,11,11,0,0,0-.5,3.31V601.2h-7.09Z"/><path class="cls-4" d="M366.19,575.59H345v19.74H368.7v5.87H337.91V546.57h29.54v5.87H345v17.31h21.18Z"/><path class="cls-4" d="M403.28,599.79A27.23,27.23,0,0,1,392,602.06c-11.83,0-19.57-8-19.57-20s8.24-20.9,21.07-20.9a23.09,23.09,0,0,1,9.91,2.09l-1.59,5.48a17.33,17.33,0,0,0-8.34-1.89c-8.94,0-13.85,6.7-13.83,14.85,0,9.08,5.84,14.67,13.66,14.67a20.59,20.59,0,0,0,8.73-1.89Z"/><path class="cls-4" d="M444.69,581.23c0,14.51-10.07,20.87-19.49,20.87-10.64,0-18.85-7.75-18.85-20.2,0-13.12,8.62-20.79,19.47-20.79C437.09,561.11,444.69,569.28,444.69,581.23Zm-31.09.45c0,8.6,4.93,15.08,11.89,15.08s11.95-6.39,11.95-15.29c0-6.63-3.35-15-11.82-15S413.6,574.25,413.6,581.68Z"/><path class="cls-4" d="M451.76,572.59c0-4.09-.13-7.34-.32-10.59h6.3l.39,6.45h.2a14.46,14.46,0,0,1,13-7.34c5.38,0,13.81,3.24,13.81,16.71V601.2H478V578.6c0-6.34-2.39-11.65-9.06-11.65a10.27,10.27,0,0,0-9.61,7.32,11,11,0,0,0-.49,3.31V601.2h-7.1Z"/><path class="cls-4" d="M530.3,581.23c0,14.51-10.07,20.87-19.5,20.87-10.63,0-18.85-7.75-18.85-20.2,0-13.12,8.63-20.79,19.47-20.79C522.7,561.11,530.3,569.28,530.3,581.23Zm-31.09.45c0,8.6,4.93,15.08,11.88,15.08S523,590.37,523,581.47c0-6.63-3.34-15-11.82-15S499.21,574.25,499.21,581.68ZM521.77,545l-9.9,11.61h-5.05L513.93,545Z"/><path class="cls-4" d="M537.37,572.59c0-4.09-.13-7.34-.32-10.59h6.19l.38,6.31h.2a13.52,13.52,0,0,1,12.37-7.2,11.52,11.52,0,0,1,11,7.86h.17a15.86,15.86,0,0,1,4.42-5.11,13.36,13.36,0,0,1,8.62-2.75c5.24,0,12.95,3.37,12.95,17V601.2h-7V579c0-7.59-2.8-12.09-8.51-12.09-4.09,0-7.22,3-8.48,6.42a11.77,11.77,0,0,0-.59,3.58V601.2h-7V577.68c0-6.25-2.76-10.74-8.14-10.74-4.45,0-7.71,3.55-8.89,7.12a11.32,11.32,0,0,0-.54,3.51V601.2h-7Z"/><path class="cls-4" d="M611,550.92a4.3,4.3,0,0,1-4.54,4.43,4.25,4.25,0,0,1-4.3-4.43,4.33,4.33,0,0,1,4.43-4.44A4.27,4.27,0,0,1,611,550.92Zm-8,50.28V562h7.1v39.2Z"/><path class="cls-4" d="M648,599.79a27.15,27.15,0,0,1-11.25,2.27c-11.82,0-19.56-8-19.56-20s8.24-20.9,21.06-20.9a23,23,0,0,1,9.91,2.09l-1.58,5.48a17.36,17.36,0,0,0-8.34-1.89c-8.94,0-13.85,6.7-13.83,14.85,0,9.08,5.84,14.67,13.66,14.67a20.63,20.63,0,0,0,8.73-1.89Z"/><path class="cls-4" d="M676.25,601.2l-.63-5h-.22a14.58,14.58,0,0,1-12,5.85c-7.92,0-12-5.63-12-11.25,0-9.5,8.41-14.72,23.56-14.61v-.83c0-3.19-.9-9.09-8.93-9a19,19,0,0,0-10.21,2.93l-1.62-4.74a24.6,24.6,0,0,1,12.94-3.44c12,0,14.9,8.19,14.9,16v14.66a61.13,61.13,0,0,0,.6,9.38Zm-1.11-20c-7.72-.17-16.55,1.22-16.55,8.8,0,4.68,3.08,6.83,6.65,6.83a9.82,9.82,0,0,0,9.56-6.57,7.31,7.31,0,0,0,.34-2.24Z"/><path class="cls-4" d="M196.8,646.11l8.56,23.17c.93,2.59,1.88,5.67,2.53,8h.2c.69-2.31,1.56-5.31,2.5-8.16l7.75-23h7.57L215.18,674c-5.08,13.48-8.57,20.35-13.43,24.59A19.76,19.76,0,0,1,193,703.2l-1.77-6a18.56,18.56,0,0,0,6.24-3.48,22.62,22.62,0,0,0,6-7.94,4.35,4.35,0,0,0,.55-1.72,4.71,4.71,0,0,0-.5-1.83L189,646.11Z"/><path class="cls-4" d="M245.9,630.67h29.43v5.88H253v18.19h20.63v5.84H253v24.73h-7.1Z"/><path class="cls-4" d="M289.09,635a4.29,4.29,0,0,1-4.54,4.43,4.24,4.24,0,0,1-4.3-4.43,4.32,4.32,0,0,1,4.43-4.43A4.26,4.26,0,0,1,289.09,635Zm-8,50.29v-39.2h7.1v39.2Z"/><path class="cls-4" d="M298.15,656.69c0-4.09-.14-7.33-.33-10.58h6.3l.4,6.44h.2a14.45,14.45,0,0,1,13-7.34c5.38,0,13.82,3.25,13.82,16.71v23.39h-7.1v-22.6c0-6.34-2.39-11.65-9.06-11.65a10.27,10.27,0,0,0-9.61,7.32,11.26,11.26,0,0,0-.49,3.31v23.62h-7.09Z"/><path class="cls-4" d="M362.93,685.31l-.63-4.95h-.21a14.58,14.58,0,0,1-12,5.84c-7.92,0-12-5.62-12-11.25,0-9.49,8.41-14.71,23.56-14.6v-.83c0-3.19-.9-9.09-8.93-9a19.09,19.09,0,0,0-10.21,2.92l-1.62-4.74a24.7,24.7,0,0,1,12.94-3.44c12,0,14.91,8.2,14.91,16v14.67a61.21,61.21,0,0,0,.59,9.38Zm-1.11-20c-7.72-.16-16.55,1.22-16.55,8.81,0,4.67,3.08,6.82,6.66,6.82a9.81,9.81,0,0,0,9.55-6.56,7.37,7.37,0,0,0,.34-2.25Z"/><path class="cls-4" d="M378.32,656.69c0-4.09-.13-7.33-.32-10.58h6.3l.39,6.44h.2a14.47,14.47,0,0,1,13-7.34c5.39,0,13.82,3.25,13.82,16.71v23.39h-7.1v-22.6c0-6.34-2.38-11.65-9.06-11.65a10.27,10.27,0,0,0-9.61,7.32,11.26,11.26,0,0,0-.49,3.31v23.62h-7.09Z"/><path class="cls-4" d="M449.32,683.89a27,27,0,0,1-11.25,2.27c-11.82,0-19.56-8-19.56-20s8.24-20.9,21.06-20.9a22.87,22.87,0,0,1,9.91,2.09l-1.58,5.47a17.38,17.38,0,0,0-8.34-1.88c-8.94,0-13.85,6.7-13.83,14.84,0,9.09,5.84,14.67,13.66,14.67a20.72,20.72,0,0,0,8.72-1.88Z"/><path class="cls-4" d="M463.7,635a4.42,4.42,0,1,1-8.84,0,4.34,4.34,0,0,1,4.44-4.43A4.26,4.26,0,0,1,463.7,635Zm-8,50.29v-39.2h7.09v39.2Z"/><path class="cls-4" d="M476.75,667c.14,9.63,6.26,13.61,13.42,13.61a26.45,26.45,0,0,0,10.86-2l1.25,5.06a31.66,31.66,0,0,1-13.08,2.5c-12.05,0-19.3-8-19.3-19.78s7-21.17,18.45-21.17c12.79,0,16.14,11.23,16.14,18.44a17.25,17.25,0,0,1-.25,3.35Zm20.87-5.13c.07-4.5-1.84-11.54-9.84-11.54-7.27,0-10.37,6.57-10.94,11.54Z"/><path class="cls-4" d="M511.41,658.32c0-4.63-.11-8.58-.32-12.21h6.25l.27,7.69h.25c1.83-5.26,6.16-8.59,10.92-8.59a7.84,7.84,0,0,1,2,.21v6.7a11.57,11.57,0,0,0-2.43-.21c-5,0-8.58,3.79-9.54,9.13a18.35,18.35,0,0,0-.29,3.33v20.94h-7.1Z"/><path class="cls-4" d="M557.32,685.31l-.62-4.95h-.22a14.57,14.57,0,0,1-12,5.84c-7.92,0-12-5.62-12-11.25,0-9.49,8.42-14.71,23.57-14.6v-.83c0-3.19-.9-9.09-8.93-9a19.07,19.07,0,0,0-10.21,2.92l-1.62-4.74a24.67,24.67,0,0,1,12.94-3.44c12,0,14.9,8.2,14.9,16v14.67a62.5,62.5,0,0,0,.59,9.38Zm-1.1-20c-7.72-.16-16.55,1.22-16.55,8.81,0,4.67,3.07,6.82,6.65,6.82a9.83,9.83,0,0,0,9.56-6.56,7.69,7.69,0,0,0,.34-2.25Z"/></svg>