<svg id="Layer_1" data-name="Layer 1" xmlns="http://www.w3.org/2000/svg" viewBox="0 0 750 750"><defs><style>.cls-1{fill:#606060;}.cls-2{fill:#ecf7fb;}.cls-3{fill:#2f84c6;}</style></defs><title>Artboard 47 copy 14</title><path class="cls-1" d="M242.23,510.22a16.18,16.18,0,0,1-7.55,5.81A30.49,30.49,0,0,1,223.4,518a21.82,21.82,0,0,1-11.56-3.06A20.31,20.31,0,0,1,204,506.2a30,30,0,0,1-2.84-13.08v-4.65q0-12,5.62-18.68t15.78-6.62q8.34,0,13.43,4.26t6.21,12.11h-7q-2-10.62-12.58-10.62-7.06,0-10.7,5t-3.68,14.39v4.36q0,9,4.1,14.28a13.26,13.26,0,0,0,11.08,5.29,24.29,24.29,0,0,0,6.92-.88,10.77,10.77,0,0,0,4.9-2.95V496.42H222.92v-5.75h19.31Z"/><path class="cls-1" d="M269.3,518a17.26,17.26,0,0,1-13.09-5.29q-5.05-5.29-5-14.15v-1.25a23.81,23.81,0,0,1,2.25-10.53,17.61,17.61,0,0,1,6.29-7.25,15.88,15.88,0,0,1,8.76-2.62q7.73,0,12,5.09t4.28,14.58v2.82H257.93a14,14,0,0,0,3.42,9.46,10.72,10.72,0,0,0,8.32,3.61,11.84,11.84,0,0,0,6.07-1.46,15.13,15.13,0,0,0,4.35-3.89l4.14,3.23Q279.25,517.95,269.3,518Zm-.84-35.52a9,9,0,0,0-6.88,3,14.48,14.48,0,0,0-3.43,8.37H278v-.51q-.29-5.16-2.78-8A8.5,8.5,0,0,0,268.46,482.43Z"/><path class="cls-1" d="M315.61,506.71a5,5,0,0,0-2.06-4.27q-2.07-1.51-7.21-2.62a34.15,34.15,0,0,1-8.16-2.63,11.61,11.61,0,0,1-4.46-3.67,8.77,8.77,0,0,1-1.44-5,10.29,10.29,0,0,1,4.11-8.24,16.09,16.09,0,0,1,10.52-3.37q6.72,0,10.92,3.48a11.06,11.06,0,0,1,4.18,8.9h-6.8a6.15,6.15,0,0,0-2.36-4.8,8.83,8.83,0,0,0-5.94-2,9.26,9.26,0,0,0-5.78,1.61,5.07,5.07,0,0,0-2.09,4.21A4.11,4.11,0,0,0,301,492a23.92,23.92,0,0,0,7,2.38A36.78,36.78,0,0,1,316.2,497a12,12,0,0,1,4.66,3.79,9.35,9.35,0,0,1,1.52,5.4,10.15,10.15,0,0,1-4.24,8.52q-4.25,3.19-11,3.2a20,20,0,0,1-8.42-1.68,13.77,13.77,0,0,1-5.72-4.71,11.32,11.32,0,0,1-2.07-6.54h6.77a7,7,0,0,0,2.72,5.41,10.6,10.6,0,0,0,6.72,2,10.88,10.88,0,0,0,6.16-1.56A4.76,4.76,0,0,0,315.61,506.71Z"/><path class="cls-1" d="M340.38,468v9.59h7.39v5.24h-7.39v24.61a5.49,5.49,0,0,0,1,3.57,4.14,4.14,0,0,0,3.36,1.19,15.9,15.9,0,0,0,3.22-.44v5.46a19.52,19.52,0,0,1-5.2.73c-3,0-5.3-.91-6.84-2.75s-2.3-4.43-2.3-7.8V482.83H326.4v-5.24h7.21V468Z"/><path class="cls-1" d="M355.7,467.08a4.07,4.07,0,0,1,1-2.78,3.77,3.77,0,0,1,3-1.13,3.81,3.81,0,0,1,3,1.13,4,4,0,0,1,1,2.78,4,4,0,1,1-8,0ZM363,517.22h-6.77V477.59H363Z"/><path class="cls-1" d="M372.06,497a23.47,23.47,0,0,1,2.28-10.47A16.83,16.83,0,0,1,390,476.86a16.66,16.66,0,0,1,13.07,5.61q5,5.59,5,14.9v.48a23.6,23.6,0,0,1-2.22,10.38,16.77,16.77,0,0,1-6.33,7.16,17.47,17.47,0,0,1-9.45,2.56,16.65,16.65,0,0,1-13-5.6q-5-5.61-5-14.83Zm6.8.81q0,6.58,3.05,10.58a10.34,10.34,0,0,0,16.37-.06q3-4,3-11.33c0-4.34-1-7.87-3.09-10.56a9.82,9.82,0,0,0-8.21-4.05,9.72,9.72,0,0,0-8.09,4Q378.86,490.41,378.86,497.85ZM393.09,461h8.19l-9.8,10.77-5.45,0Z"/><path class="cls-1" d="M423,477.59l.22,5a14.44,14.44,0,0,1,11.86-5.72q12.54,0,12.65,14.17v26.19h-6.76V491q0-4.29-2-6.34c-1.28-1.36-3.28-2.05-6-2.05a9.77,9.77,0,0,0-5.78,1.76,12,12,0,0,0-3.88,4.61v28.24h-6.77V477.59Z"/><path class="cls-1" d="M474.81,497.08q0-9.12,4.31-14.67a14.68,14.68,0,0,1,22.32-.79V461h6.77v56.25H502l-.33-4.25q-4.07,5-11.31,5a13.52,13.52,0,0,1-11.21-5.64q-4.33-5.64-4.33-14.72Zm6.77.77q0,6.73,2.78,10.54A9,9,0,0,0,492,512.2a9.88,9.88,0,0,0,9.4-5.78V488.21a10,10,0,0,0-9.33-5.6,9,9,0,0,0-7.75,3.85Q481.57,490.3,481.58,497.85Z"/><path class="cls-1" d="M535.13,518a17.28,17.28,0,0,1-13.1-5.29q-5-5.29-5-14.15v-1.25a23.81,23.81,0,0,1,2.25-10.53,17.56,17.56,0,0,1,6.3-7.25,15.83,15.83,0,0,1,8.76-2.62q7.71,0,12,5.09t4.28,14.58v2.82H523.75a14.1,14.1,0,0,0,3.42,9.46,10.73,10.73,0,0,0,8.32,3.61,11.87,11.87,0,0,0,6.08-1.46,15.4,15.4,0,0,0,4.35-3.89l4.13,3.23Q545.09,517.95,535.13,518Zm-.84-35.52a9,9,0,0,0-6.88,3,14.55,14.55,0,0,0-3.44,8.37H543.8v-.51q-.3-5.16-2.78-8A8.5,8.5,0,0,0,534.29,482.43Z"/><path class="cls-1" d="M224.47,581.59q0-9.12,4.32-14.67a14.67,14.67,0,0,1,22.31-.79V545.48h6.77v56.25h-6.22l-.33-4.25q-4,5-11.3,5a13.52,13.52,0,0,1-11.21-5.64q-4.34-5.64-4.34-14.72Zm6.77.77q0,6.74,2.78,10.54a9,9,0,0,0,7.68,3.81,9.85,9.85,0,0,0,9.4-5.78v-18.2a9.93,9.93,0,0,0-9.32-5.61A9.05,9.05,0,0,0,234,571Q231.24,574.81,231.24,582.36Z"/><path class="cls-1" d="M266.58,581.55a23.47,23.47,0,0,1,2.28-10.47,17.15,17.15,0,0,1,6.37-7.18,17.35,17.35,0,0,1,9.31-2.53A16.68,16.68,0,0,1,297.62,567q5,5.6,5,14.9v.48a23.68,23.68,0,0,1-2.21,10.38,16.9,16.9,0,0,1-6.33,7.16,17.53,17.53,0,0,1-9.46,2.56,16.63,16.63,0,0,1-13-5.6q-5-5.61-5-14.83Zm6.8.81q0,6.58,3.06,10.58a10.35,10.35,0,0,0,16.37-.05q3-4,3-11.34,0-6.51-3.09-10.56a10.27,10.27,0,0,0-16.3-.06Q273.39,574.92,273.38,582.36Z"/><path class="cls-1" d="M327,596.93a9.78,9.78,0,0,0,6.33-2.19,7.79,7.79,0,0,0,3-5.5h6.4a12.26,12.26,0,0,1-2.34,6.48,15.36,15.36,0,0,1-5.76,4.91,16.63,16.63,0,0,1-7.63,1.83q-8.09,0-12.86-5.4t-4.77-14.78v-1.13a23.92,23.92,0,0,1,2.12-10.29,16.28,16.28,0,0,1,6.09-7,17.31,17.31,0,0,1,9.38-2.49,15.89,15.89,0,0,1,11.07,4,14.27,14.27,0,0,1,4.7,10.36h-6.4a9.4,9.4,0,0,0-2.91-6.32,9,9,0,0,0-6.46-2.47,9.47,9.47,0,0,0-8,3.72q-2.83,3.72-2.83,10.75v1.28q0,6.84,2.81,10.54A9.51,9.51,0,0,0,327,596.93Z"/><path class="cls-1" d="M366.73,602.46a17.26,17.26,0,0,1-13.09-5.29q-5.06-5.29-5.05-14.15v-1.25a23.81,23.81,0,0,1,2.25-10.53,17.67,17.67,0,0,1,6.29-7.25,15.88,15.88,0,0,1,8.76-2.62q7.73,0,12,5.09T382.17,581v2.82H355.36a14,14,0,0,0,3.42,9.47,10.74,10.74,0,0,0,8.32,3.6,11.84,11.84,0,0,0,6.07-1.46,15.24,15.24,0,0,0,4.35-3.88l4.14,3.22Q376.68,602.46,366.73,602.46Zm-.84-35.52a9.07,9.07,0,0,0-6.88,3,14.57,14.57,0,0,0-3.43,8.37H375.4v-.51q-.28-5.16-2.78-8A8.5,8.5,0,0,0,365.89,566.94Z"/><path class="cls-1" d="M396.4,562.11l.22,5a14.41,14.41,0,0,1,11.85-5.72q12.54,0,12.66,14.18v26.18h-6.77V575.51q0-4.29-2-6.34c-1.28-1.36-3.27-2-6-2a9.79,9.79,0,0,0-5.78,1.76,11.92,11.92,0,0,0-3.88,4.62v28.23H390V562.11Z"/><path class="cls-1" d="M440.51,552.51v9.6h7.39v5.23h-7.39V592a5.47,5.47,0,0,0,1,3.57,4.14,4.14,0,0,0,3.37,1.19,15.9,15.9,0,0,0,3.22-.44v5.46a19.58,19.58,0,0,1-5.2.73q-4.53,0-6.84-2.74t-2.3-7.8V567.34h-7.21v-5.23h7.21v-9.6Z"/><path class="cls-1" d="M472.23,602.46a17.28,17.28,0,0,1-13.1-5.29q-5-5.29-5.05-14.15v-1.25a23.81,23.81,0,0,1,2.25-10.53,17.62,17.62,0,0,1,6.3-7.25,15.83,15.83,0,0,1,8.76-2.62q7.71,0,12,5.09T487.67,581v2.82H460.85a14.13,14.13,0,0,0,3.42,9.47,10.77,10.77,0,0,0,8.32,3.6,11.87,11.87,0,0,0,6.08-1.46,15.24,15.24,0,0,0,4.35-3.88l4.13,3.22Q482.18,602.46,472.23,602.46Zm-.84-35.52a9.05,9.05,0,0,0-6.88,3,14.58,14.58,0,0,0-3.44,8.37H480.9v-.51c-.2-3.44-1.12-6.11-2.78-8A8.5,8.5,0,0,0,471.39,566.94Z"/><path class="cls-1" d="M518.54,591.22a5,5,0,0,0-2.07-4.27q-2.07-1.51-7.2-2.61a34.56,34.56,0,0,1-8.16-2.64,11.68,11.68,0,0,1-4.46-3.66A8.73,8.73,0,0,1,495.2,573a10.28,10.28,0,0,1,4.12-8.24,16.06,16.06,0,0,1,10.51-3.37q6.74,0,10.92,3.48a11.07,11.07,0,0,1,4.19,8.9h-6.8a6.15,6.15,0,0,0-2.36-4.8,8.87,8.87,0,0,0-5.95-2,9.28,9.28,0,0,0-5.78,1.61,5.08,5.08,0,0,0-2.08,4.21,4.09,4.09,0,0,0,1.94,3.7,23.54,23.54,0,0,0,7,2.38,36.43,36.43,0,0,1,8.21,2.71,12,12,0,0,1,4.67,3.79,9.35,9.35,0,0,1,1.52,5.4,10.16,10.16,0,0,1-4.25,8.52q-4.24,3.21-11,3.2a20,20,0,0,1-8.41-1.68,13.65,13.65,0,0,1-5.73-4.71,11.38,11.38,0,0,1-2.06-6.53h6.77a7,7,0,0,0,2.72,5.4,10.55,10.55,0,0,0,6.71,2,11,11,0,0,0,6.17-1.55A4.81,4.81,0,0,0,518.54,591.22Z"/><path id="_Path_" data-name="&lt;Path&gt;" class="cls-2" d="M335.78,192.44h80.38A4.81,4.81,0,0,0,421,187.6V140.24a4.85,4.85,0,0,0-4.84-4.84H335.78a4.86,4.86,0,0,0-4.85,4.84V187.6A4.86,4.86,0,0,0,335.78,192.44Z"/><path id="_Path_2" data-name="&lt;Path&gt;" class="cls-2" d="M342,298.11h58.13a3.48,3.48,0,0,0,3.5-3.5V260.36a3.51,3.51,0,0,0-3.5-3.5H342a3.51,3.51,0,0,0-3.5,3.5v34.25A3.51,3.51,0,0,0,342,298.11Z"/><path id="_Path_3" data-name="&lt;Path&gt;" class="cls-2" d="M214.38,395.41h51.5a3.21,3.21,0,0,0,3.11-3.33V359.55a3.24,3.24,0,0,0-3.11-3.33h-51.5a3.24,3.24,0,0,0-3.11,3.33v32.53A3.24,3.24,0,0,0,214.38,395.41Z"/><path id="_Path_4" data-name="&lt;Path&gt;" class="cls-2" d="M405.25,395.41h51.51a3.2,3.2,0,0,0,3.1-3.33V359.55a3.23,3.23,0,0,0-3.1-3.33H405.25a3.24,3.24,0,0,0-3.11,3.33v32.53A3.24,3.24,0,0,0,405.25,395.41Z"/><path class="cls-3" d="M544.51,384.7V368.84a16.07,16.07,0,0,0-16.06-16.06H516.54V330.63a6.32,6.32,0,0,0-6.3-6.3H476.11V307.44h18.35a16.07,16.07,0,0,0,16.06-16.07v-24a16.07,16.07,0,0,0-16.06-16.06H476.11V225a6.32,6.32,0,0,0-6.3-6.3H382.17v-20h29a16.08,16.08,0,0,0,16.07-16.06V145.16a16.08,16.08,0,0,0-16.07-16.06H340.7a16.07,16.07,0,0,0-16.07,16.06v37.52a16.07,16.07,0,0,0,16.07,16.06h29v20H280.19a6.32,6.32,0,0,0-6.3,6.3v26.31H255.61a16.07,16.07,0,0,0-16.06,16.06v24a16.07,16.07,0,0,0,16.06,16.06H274v16.9h-34.2a6.32,6.32,0,0,0-6.3,6.3v22.15H221.55a16.07,16.07,0,0,0-16.06,16.06V384.7a16.07,16.07,0,0,0,16.06,16.06H257.9A16.07,16.07,0,0,0,274,384.7V368.84a16.07,16.07,0,0,0-16.06-16.06H246.06V336.86h68.33v15.92H302.48a16.07,16.07,0,0,0-16.06,16.06V384.7a16.07,16.07,0,0,0,16.06,16.06h36.35a16.07,16.07,0,0,0,16.06-16.06V368.84a16.07,16.07,0,0,0-16.06-16.06H326.92V330.63a6.32,6.32,0,0,0-6.3-6.3H286.49V307.44h18.34a16.08,16.08,0,0,0,16.07-16.07v-24a16.07,16.07,0,0,0-16.07-16.06H286.49v-20H369.7v20H350.46a16.07,16.07,0,0,0-16.06,16.06v24a16.07,16.07,0,0,0,16.06,16.07h49.22a16.07,16.07,0,0,0,16.06-16.07v-24a16.07,16.07,0,0,0-16.06-16.06H382.23v-20h81.42v20H445.3a16.07,16.07,0,0,0-16.06,16.06v24a16.07,16.07,0,0,0,16.06,16.07h18.35v16.89H429.52a6.32,6.32,0,0,0-6.3,6.3v22.15H411.31a16.07,16.07,0,0,0-16.06,16.06V384.7a16.07,16.07,0,0,0,16.06,16.06h36.35a16.07,16.07,0,0,0,16.06-16.06V368.84a16.07,16.07,0,0,0-16.06-16.06H435.75V336.86h68.33v15.92H492.17a16.07,16.07,0,0,0-16.06,16.06V384.7a16.07,16.07,0,0,0,16.06,16.06h36.35A16.06,16.06,0,0,0,544.51,384.7Zm-207.34-202V145.16a3.51,3.51,0,0,1,3.46-3.46h70.54a3.51,3.51,0,0,1,3.46,3.46v37.52a3.51,3.51,0,0,1-3.46,3.46H340.7A3.53,3.53,0,0,1,337.17,182.68ZM261.43,368.84V384.7a3.52,3.52,0,0,1-3.47,3.46H221.55a3.51,3.51,0,0,1-3.46-3.46V368.84a3.51,3.51,0,0,1,3.46-3.46H257.9A3.45,3.45,0,0,1,261.43,368.84Zm80.86,0V384.7a3.51,3.51,0,0,1-3.46,3.46H302.48A3.51,3.51,0,0,1,299,384.7V368.84a3.51,3.51,0,0,1,3.46-3.46h36.35A3.42,3.42,0,0,1,342.29,368.84Zm-34-101.49v24a3.53,3.53,0,0,1-3.47,3.47H255.61a3.52,3.52,0,0,1-3.46-3.47v-24a3.51,3.51,0,0,1,3.46-3.46h49.22A3.52,3.52,0,0,1,308.3,267.35Zm94.84,0v24a3.52,3.52,0,0,1-3.46,3.47H350.46a3.52,3.52,0,0,1-3.46-3.47v-24a3.51,3.51,0,0,1,3.46-3.46h49.22A3.51,3.51,0,0,1,403.14,267.35Zm38.63,24v-24a3.52,3.52,0,0,1,3.47-3.46h49.22a3.51,3.51,0,0,1,3.46,3.46v24a3.51,3.51,0,0,1-3.46,3.46H445.24A3.43,3.43,0,0,1,441.77,291.37Zm9.35,77.47V384.7a3.51,3.51,0,0,1-3.46,3.46H411.31a3.51,3.51,0,0,1-3.46-3.46V368.84a3.51,3.51,0,0,1,3.46-3.46h36.35A3.42,3.42,0,0,1,451.12,368.84ZM532,384.7a3.51,3.51,0,0,1-3.46,3.46H492.17a3.51,3.51,0,0,1-3.46-3.46V368.84a3.51,3.51,0,0,1,3.46-3.46h36.35a3.51,3.51,0,0,1,3.46,3.46Z"/></svg>