<svg id="Layer_1" data-name="Layer 1" xmlns="http://www.w3.org/2000/svg" viewBox="0 0 750 750"><defs><style>.cls-1{fill:#606060;}.cls-2{fill:#d2e3f4;}.cls-3{fill:#b1c4d4;}.cls-4{fill:#266cb4;}</style></defs><title>Artboard 47 copy 8</title><path class="cls-1" d="M272.29,548.49a16.43,16.43,0,0,1-7.63,5.91,30.79,30.79,0,0,1-11.43,2,22.23,22.23,0,0,1-11.72-3.06,20.62,20.62,0,0,1-7.95-8.78,30.54,30.54,0,0,1-2.92-13.24l0-4.71q0-12.21,5.62-18.95t16-6.78q8.44,0,13.62,4.28t6.35,12.24l-7.12,0q-2-10.75-12.79-10.71-7.16,0-10.83,5.07t-3.67,14.59l0,4.42q0,9.11,4.21,14.45a13.44,13.44,0,0,0,11.25,5.33,24.77,24.77,0,0,0,7-.91,11,11,0,0,0,5-3l0-12.11-12.49.05,0-5.83,19.57-.07Z"/><path class="cls-1" d="M302.36,521.48a20.82,20.82,0,0,0-3.37-.25q-6.75,0-9.13,5.79l.1,28.5-6.85,0L283,515.39l6.67,0,.12,4.64a10.68,10.68,0,0,1,9.55-5.41,7,7,0,0,1,3,.5Z"/><path class="cls-1" d="M332.07,555.36a14.56,14.56,0,0,1-1-4.23,15.28,15.28,0,0,1-11.4,5,14.17,14.17,0,0,1-9.74-3.33,10.84,10.84,0,0,1-3.83-8.5,11.35,11.35,0,0,1,4.73-9.76q4.74-3.48,13.38-3.52l6.68,0,0-3.16a7.7,7.7,0,0,0-2.17-5.72q-2.16-2.13-6.34-2.11a10,10,0,0,0-6.15,1.88,5.48,5.48,0,0,0-2.47,4.5l-6.89,0a9.42,9.42,0,0,1,2.11-5.81,14.47,14.47,0,0,1,5.76-4.46,19.41,19.41,0,0,1,8-1.66q6.93,0,10.88,3.43a12.56,12.56,0,0,1,4.11,9.54l.07,18.48a22.54,22.54,0,0,0,1.44,8.79v.59Zm-11.4-5.19a12.05,12.05,0,0,0,6.11-1.69,10.23,10.23,0,0,0,4.18-4.36l0-8.24-5.37,0q-12.6,0-12.58,7.43a6.26,6.26,0,0,0,2.17,5A8.24,8.24,0,0,0,320.67,550.17Z"/><path class="cls-1" d="M346.86,534.89q0-9.24,4.32-14.88a14.87,14.87,0,0,1,22.6-.88l-.07-20.93,6.85,0,.22,57-6.3,0-.35-4.3Q370,556,362.69,556a13.7,13.7,0,0,1-11.38-5.68q-4.41-5.7-4.45-14.9Zm6.86.76q0,6.83,2.86,10.67a9.05,9.05,0,0,0,7.79,3.83,10,10,0,0,0,9.51-5.9l-.07-18.44a10.07,10.07,0,0,0-9.47-5.64,9.15,9.15,0,0,0-7.85,3.92Q353.69,528,353.72,535.65Z"/><path class="cls-1" d="M389.52,534.7a23.86,23.86,0,0,1,2.28-10.63,17.25,17.25,0,0,1,6.42-7.29,17.5,17.5,0,0,1,9.43-2.6,16.92,16.92,0,0,1,13.27,5.63q5.08,5.66,5.11,15.08v.48a23.92,23.92,0,0,1-2.21,10.53,17,17,0,0,1-6.38,7.28,17.85,17.85,0,0,1-9.57,2.64,16.88,16.88,0,0,1-13.24-5.63q-5.08-5.66-5.12-15Zm6.9.79q0,6.68,3.14,10.71a10.48,10.48,0,0,0,16.58-.12q3.06-4.11,3-11.5,0-6.6-3.18-10.69a10.4,10.4,0,0,0-16.51,0Q396.39,528,396.42,535.49Z"/><path class="cls-1" d="M458,544.24a5.06,5.06,0,0,0-2.11-4.32q-2.1-1.53-7.31-2.63a34.67,34.67,0,0,1-8.28-2.64,11.74,11.74,0,0,1-4.53-3.69,8.93,8.93,0,0,1-1.49-5.12,10.43,10.43,0,0,1,4.14-8.36A16.28,16.28,0,0,1,449.09,514c4.54,0,8.24,1.15,11.07,3.49a11.19,11.19,0,0,1,4.28,9l-6.89,0a6.23,6.23,0,0,0-2.41-4.86,9,9,0,0,0-6-2,9.31,9.31,0,0,0-5.85,1.65,5.12,5.12,0,0,0-2.1,4.28,4.19,4.19,0,0,0,2,3.74,24.19,24.19,0,0,0,7.11,2.38,37.11,37.11,0,0,1,8.33,2.72,12.1,12.1,0,0,1,4.74,3.82,9.46,9.46,0,0,1,1.56,5.47,10.28,10.28,0,0,1-4.27,8.64q-4.29,3.27-11.14,3.29a20.22,20.22,0,0,1-8.54-1.68,13.91,13.91,0,0,1-5.82-4.74,11.47,11.47,0,0,1-2.11-6.62l6.85,0a7.1,7.1,0,0,0,2.78,5.46,10.75,10.75,0,0,0,6.81,2,11.09,11.09,0,0,0,6.24-1.6A4.84,4.84,0,0,0,458,544.24Z"/><path class="cls-1" d="M505.73,544.65,515,514.52l7.34,0L506.35,560.9q-3.71,10-11.86,10.07l-1.3-.11-2.56-.47,0-5.57,1.85.14a9.13,9.13,0,0,0,5.43-1.43c1.29-.94,2.35-2.67,3.18-5.17l1.51-4.09-14.46-39.65,7.49,0Z"/><path class="cls-1" d="M302.68,587.12l-17.34.06.18,48.21-7.08,0-.18-48.2-17.31.06,0-5.82,41.74-.16Z"/><path class="cls-1" d="M317.11,578.3l8.3,0-9.89,11H310Zm.14,57-6.9,0-.15-40.15,6.9,0Z"/><path class="cls-1" d="M337.67,585.31l0,9.73,7.48,0,0,5.31-7.48,0,.09,24.94a5.57,5.57,0,0,0,1,3.61,4.21,4.21,0,0,0,3.42,1.2,16.53,16.53,0,0,0,3.26-.46l0,5.54a20.06,20.06,0,0,1-5.26.75q-4.61,0-6.94-2.75c-1.57-1.85-2.36-4.49-2.37-7.9l-.09-24.9-7.3,0,0-5.31,7.3,0,0-9.72Z"/><path class="cls-1" d="M378.1,631.07q-4,4.73-11.74,4.75-6.41,0-9.78-3.69t-3.43-11l-.1-26.12,6.86,0,.1,25.94q0,9.14,7.44,9.1,7.86,0,10.43-5.9l-.1-29.2,6.85,0,.15,40.15-6.52,0Z"/><path class="cls-1" d="M402.65,635l-6.86,0-.21-57,6.86,0Z"/><path class="cls-1" d="M411.73,614.46A23.58,23.58,0,0,1,414,603.84a17.25,17.25,0,0,1,6.42-7.29,17.49,17.49,0,0,1,9.42-2.6,16.9,16.9,0,0,1,13.28,5.63q5.07,5.65,5.11,15.08v.48a23.92,23.92,0,0,1-2.2,10.53,17,17,0,0,1-6.38,7.28,17.86,17.86,0,0,1-9.58,2.64A16.86,16.86,0,0,1,416.85,630q-5.09-5.67-5.12-15Zm6.9.8q0,6.68,3.13,10.71a10.49,10.49,0,0,0,16.59-.12q3.06-4.11,3-11.5,0-6.6-3.17-10.69a10,10,0,0,0-8.34-4.07,9.81,9.81,0,0,0-8.17,4.08Q418.6,607.72,418.63,615.26Z"/><path class="cls-1" d="M480.23,624a5.06,5.06,0,0,0-2.11-4.31q-2.1-1.53-7.31-2.63a34.52,34.52,0,0,1-8.28-2.64,11.85,11.85,0,0,1-4.54-3.69,8.92,8.92,0,0,1-1.48-5.12,10.41,10.41,0,0,1,4.14-8.36,16.27,16.27,0,0,1,10.64-3.46q6.82,0,11.08,3.49a11.22,11.22,0,0,1,4.28,9l-6.9,0a6.22,6.22,0,0,0-2.4-4.86,9,9,0,0,0-6-2,9.42,9.42,0,0,0-5.85,1.66,5.13,5.13,0,0,0-2.09,4.27,4.16,4.16,0,0,0,2,3.75,24.21,24.21,0,0,0,7.1,2.38,37,37,0,0,1,8.34,2.72,12.24,12.24,0,0,1,4.74,3.82,9.38,9.38,0,0,1,1.55,5.47,10.27,10.27,0,0,1-4.26,8.64q-4.29,3.27-11.15,3.29a20.2,20.2,0,0,1-8.53-1.68,13.79,13.79,0,0,1-5.82-4.74,11.55,11.55,0,0,1-2.12-6.62l6.86,0a7.1,7.1,0,0,0,2.78,5.46,10.71,10.71,0,0,0,6.81,2,11.09,11.09,0,0,0,6.24-1.6A4.85,4.85,0,0,0,480.23,624Z"/><path class="cls-2" d="M492.64,250.58a7.81,7.81,0,0,0,2.41-.53l61.78-28.41a5.19,5.19,0,0,0,0-9.41L380.55,132.61a4.84,4.84,0,0,0-4.64,0L200,213.57a5.2,5.2,0,0,0,0,9.41l59.81,27,116.59,52.43,4.75-.05Z"/><polygon class="cls-3" points="378.7 296.95 378.1 137.04 546.97 216.58 378.7 296.95"/><ellipse class="cls-2" cx="378.38" cy="212.05" rx="16.31" ry="15.78" transform="translate(-0.79 1.42) rotate(-0.22)"/><path class="cls-4" d="M476.93,254.34v-.47a.79.79,0,0,0-.26-.69.83.83,0,0,0-.27-.51.79.79,0,0,0-.32-.38.84.84,0,0,0-.13-.17.75.75,0,0,0-.51-.6l-.13-.13a1.6,1.6,0,0,0-.64-.36,1.32,1.32,0,0,0-.61-.25.83.83,0,0,0-.49-.24.7.7,0,0,0-.56-.19l-.14-.12-.16-.16h-2.41a4.4,4.4,0,0,0-1.28.56l-90.33,41.29-64.2-29a5.25,5.25,0,0,0-4.17-.15,5.81,5.81,0,0,0-3.11,2.76,5.25,5.25,0,0,0,2.71,7l66.48,29.84a5.84,5.84,0,0,0,4.75-.05l85.26-39.18.21,54.13A124.79,124.79,0,0,1,378.91,353a125.26,125.26,0,0,1-49.11-9.64,139,139,0,0,1-14.5-7.18,5.24,5.24,0,0,0-4.15-.62A4.91,4.91,0,0,0,308,338a4.86,4.86,0,0,0,1.9,7.07,140,140,0,0,0,15.88,8,137,137,0,0,0,53.42,10.65,133.12,133.12,0,0,0,53.35-11.05,137.9,137.9,0,0,0,43.51-29.39,5.14,5.14,0,0,0,1.61-3.67l-.24-64.79-.16-.15A3.3,3.3,0,0,1,476.93,254.34Z"/><path class="cls-4" d="M556.81,212.23,380.55,132.61a4.84,4.84,0,0,0-4.64,0L200,213.57a5.2,5.2,0,0,0,0,9.41l117.56,53.07a5.57,5.57,0,0,0,7.27-2.61,5.25,5.25,0,0,0-2.71-7L214.83,218l163.29-74.7L541.74,217,466,252a5.47,5.47,0,0,0-2.66,7,5.39,5.39,0,0,0,4.88,2.88,7.81,7.81,0,0,0,2.41-.53l86.2-39.73a5.19,5.19,0,0,0,0-9.41Z"/><path class="cls-4" d="M383.54,213.38a5.06,5.06,0,0,0-.31-4,5.38,5.38,0,0,0-3.15-2.63,5.51,5.51,0,0,0-4.14.31L283.2,251a.81.81,0,0,0-.51.34,1.26,1.26,0,0,0-.17.13.75.75,0,0,0-.62.49l-.14.12a1.67,1.67,0,0,0-.37.62,1.34,1.34,0,0,0-.26.59.83.83,0,0,0-.24.47.65.65,0,0,0-.2.55l-.13.13-.16.15.48,128a5.4,5.4,0,0,0,10.8,0l-.47-123.19,89.62-42.93A5.23,5.23,0,0,0,383.54,213.38Z"/><rect class="cls-4" x="280.96" y="394.51" width="10.77" height="21.43" rx="5.3" ry="5.3" transform="translate(-1.52 1.08) rotate(-0.21)"/></svg>