<svg id="Layer_1" data-name="Layer 1" xmlns="http://www.w3.org/2000/svg" viewBox="0 0 750 750"><defs><style>.cls-1{fill:#606060;}.cls-2{fill:#fff;}.cls-3{fill:#bac8dc;}.cls-4{fill:#445;}.cls-5{fill:#dfe2e6;}.cls-6{fill:#909094;}.cls-7{fill:#6d8a9a;}.cls-8{fill:#6e6c71;}.cls-9{fill:#96bd00;}</style></defs><title>Artboard 47 copy 10</title><path class="cls-1" d="M231.4,548.92,249,593l17.65-44.09h9.23v54H268.8v-21l.67-22.71L251.75,603H246.3l-17.68-43.64.7,22.6v21h-7.11v-54Z"/><path class="cls-1" d="M312.17,603a14.06,14.06,0,0,1-1-4.23,15.3,15.3,0,0,1-11.42,5,14.14,14.14,0,0,1-9.73-3.36,10.89,10.89,0,0,1-3.8-8.52,11.36,11.36,0,0,1,4.76-9.74q4.77-3.47,13.4-3.47h6.68v-3.15a7.76,7.76,0,0,0-2.15-5.74q-2.16-2.13-6.34-2.13a10.06,10.06,0,0,0-6.16,1.85,5.49,5.49,0,0,0-2.48,4.49h-6.89a9.46,9.46,0,0,1,2.13-5.8,14.5,14.5,0,0,1,5.78-4.44,19.39,19.39,0,0,1,8-1.63q6.93,0,10.87,3.47a12.55,12.55,0,0,1,4.07,9.55v18.48a22.62,22.62,0,0,0,1.41,8.8V603Zm-11.38-5.23a12.09,12.09,0,0,0,6.12-1.67,10.16,10.16,0,0,0,4.19-4.34v-8.24h-5.38q-12.6,0-12.6,7.39a6.22,6.22,0,0,0,2.15,5A8.2,8.2,0,0,0,300.79,597.72Z"/><path class="cls-1" d="M338,553.08v9.72h7.48v5.31H338V593a5.54,5.54,0,0,0,1,3.62,4.18,4.18,0,0,0,3.41,1.21,16.47,16.47,0,0,0,3.26-.45V603a20,20,0,0,1-5.26.74q-4.6,0-6.94-2.79c-1.55-1.85-2.33-4.49-2.33-7.9v-24.9h-7.3V562.8h7.3v-9.72Z"/><path class="cls-1" d="M372.89,569a21,21,0,0,0-3.38-.26c-4.49,0-7.55,1.92-9.15,5.75V603H353.5V562.8h6.67l.11,4.64a10.68,10.68,0,0,1,9.57-5.38,7,7,0,0,1,3,.52Z"/><path class="cls-1" d="M386.71,546H395l-9.94,10.91-5.52,0Zm-.07,57h-6.9V562.8h6.9Z"/><path class="cls-1" d="M414,598.09a9.88,9.88,0,0,0,6.41-2.22,7.82,7.82,0,0,0,3-5.57H430a12.51,12.51,0,0,1-2.37,6.57,15.69,15.69,0,0,1-5.84,5A16.79,16.79,0,0,1,414,603.7q-8.19,0-13-5.48t-4.84-15V582.1a24.24,24.24,0,0,1,2.15-10.43,16.46,16.46,0,0,1,6.18-7.09,17.52,17.52,0,0,1,9.5-2.52,16.12,16.12,0,0,1,11.22,4A14.51,14.51,0,0,1,430,576.61h-6.49a9.47,9.47,0,0,0-2.94-6.41,9.17,9.17,0,0,0-6.55-2.5,9.61,9.61,0,0,0-8.1,3.77Q403,575.24,403,582.36v1.3c0,4.62,1,8.19,2.86,10.68A9.63,9.63,0,0,0,414,598.09Z"/><path class="cls-1" d="M462.44,599q-4,4.72-11.75,4.72-6.4,0-9.77-3.73t-3.39-11V562.8h6.86v25.94q0,9.13,7.41,9.13,7.86,0,10.46-5.86V562.8h6.85V603h-6.52Z"/><path class="cls-1" d="M487,603h-6.86V546H487Z"/><path class="cls-1" d="M522.71,603a14.71,14.71,0,0,1-1-4.23,15.28,15.28,0,0,1-11.42,5,14.14,14.14,0,0,1-9.73-3.36,10.89,10.89,0,0,1-3.8-8.52,11.34,11.34,0,0,1,4.77-9.74q4.76-3.47,13.4-3.47h6.67v-3.15a7.76,7.76,0,0,0-2.15-5.74q-2.16-2.13-6.34-2.13a10,10,0,0,0-6.15,1.85,5.48,5.48,0,0,0-2.49,4.49h-6.89a9.46,9.46,0,0,1,2.13-5.8,14.57,14.57,0,0,1,5.78-4.44,19.44,19.44,0,0,1,8-1.63q6.93,0,10.86,3.47a12.52,12.52,0,0,1,4.08,9.55v18.48a22.64,22.64,0,0,0,1.4,8.8V603Zm-11.38-5.23a12.09,12.09,0,0,0,6.12-1.67,10.1,10.1,0,0,0,4.19-4.34v-8.24h-5.38q-12.6,0-12.6,7.39a6.25,6.25,0,0,0,2.15,5A8.2,8.2,0,0,0,511.33,597.72Z"/><rect class="cls-2" x="226.7" y="154.91" width="306.83" height="181.03"/><rect class="cls-3" x="332.81" y="370.86" width="94.61" height="45"/><rect class="cls-3" x="227.23" y="328" width="305.77" height="42.86"/><path class="cls-4" d="M527.57,376.41H232.66a11.12,11.12,0,0,1-11.09-11.12v-42.9h9.51v42.9a1.59,1.59,0,0,0,1.58,1.59H527.57a1.59,1.59,0,0,0,1.59-1.59v-42.9h9.51v42.9A11.12,11.12,0,0,1,527.57,376.41Z"/><path class="cls-4" d="M538.67,333.23H221.57V158.11A11.09,11.09,0,0,1,232.66,147H527.57a11.1,11.1,0,0,1,11.1,11.11Zm-306-176.71a1.59,1.59,0,0,0-1.58,1.59v164a1.59,1.59,0,0,0,1.58,1.59H527.57a1.59,1.59,0,0,0,1.59-1.59v-164a1.6,1.6,0,0,0-1.59-1.59Z"/><path class="cls-4" d="M432.62,420.62h-105V366.88h105Zm-95.5-9.52h86V376.41h-86Z"/><rect class="cls-4" x="287.78" y="411.1" width="184.67" height="9.52" rx="4.76" ry="4.76"/><ellipse class="cls-4" cx="380.12" cy="351.85" rx="4.83" ry="4.83"/><path class="cls-5" d="M503.82,191.14,486,178.05H354.81l25.68,18.82H501.94A3.17,3.17,0,0,0,503.82,191.14Z"/><rect class="cls-6" x="415.42" y="112.47" width="9.92" height="131.15" rx="4.96" ry="4.96" transform="translate(598.43 -242.34) rotate(90)"/><path class="cls-7" d="M297,244.33a22,22,0,1,1,21.95-22A22,22,0,0,1,297,244.33Zm0-34.43a12.45,12.45,0,1,0,12.44,12.45A12.46,12.46,0,0,0,297,209.9Z"/><path class="cls-7" d="M331.64,285.52H262.3v-16a34.67,34.67,0,1,1,69.34,0ZM271.82,276h50.3v-6.49a25.15,25.15,0,1,0-50.3,0Z"/><polygon class="cls-5" points="383.66 239.27 383.62 319.02 407.45 290.41 444.66 290.57 383.66 239.27"/><polygon class="cls-2" points="374.52 299.5 374.52 236.6 422.48 277.27 393.83 276.48 374.52 299.5"/><path class="cls-8" d="M371,228.71v79.75l23.81-28.62L432,280Zm20.85,44.76-14.51,17.44V242.33l37.18,31.23Zm0,0"/><rect class="cls-9" x="363.62" y="201.92" width="9.92" height="27.55" rx="4.96" ry="4.96" transform="translate(584.28 -152.89) rotate(90)"/><rect class="cls-6" x="402.87" y="201.92" width="9.92" height="27.55" rx="4.96" ry="4.96" transform="translate(623.52 -192.13) rotate(90)"/><ellipse class="cls-6" cx="460.5" cy="215.7" rx="4.96" ry="4.96"/><ellipse class="cls-6" cx="480.33" cy="215.7" rx="4.96" ry="4.96"/><ellipse class="cls-6" cx="500.16" cy="215.7" rx="4.96" ry="4.96"/></svg>