<svg id="Layer_1" data-name="Layer 1" xmlns="http://www.w3.org/2000/svg" viewBox="0 0 750 750"><defs><style>.cls-1{fill:#606060;}.cls-2{fill:#266cb4;}.cls-3{fill:#e6f0f2;}.cls-3,.cls-4,.cls-5,.cls-6{stroke:#266cb4;stroke-miterlimit:10;stroke-width:6.72px;}.cls-4{fill:#9cdef2;}.cls-5{fill:#798284;}.cls-6{fill:#d3d3d3;}.cls-7{fill:#eff2fa;}.cls-8{fill:#707487;}.cls-9{fill:#8f96ac;}</style></defs><title>Artboard 47 copy 12</title><path class="cls-1" d="M247.78,462.82l17.41,43.5,17.41-43.5h9.11v53.32h-7V495.37l.66-22.41-17.48,43.18h-5.38L245,473.07l.7,22.3v20.77h-7V462.82Z"/><path class="cls-1" d="M319.47,516.87a17.26,17.26,0,0,1-13.09-5.29q-5.06-5.29-5.05-14.15v-1.25a23.81,23.81,0,0,1,2.25-10.53,17.54,17.54,0,0,1,6.29-7.25,15.83,15.83,0,0,1,8.76-2.62q7.72,0,12,5.09t4.28,14.58v2.82H308.1a14,14,0,0,0,3.42,9.46,10.72,10.72,0,0,0,8.32,3.61,11.84,11.84,0,0,0,6.07-1.46,15.13,15.13,0,0,0,4.35-3.89l4.14,3.23Q329.42,516.87,319.47,516.87Zm-.84-35.52a9,9,0,0,0-6.88,3,14.55,14.55,0,0,0-3.44,8.37h19.83v-.51q-.28-5.16-2.78-8A8.5,8.5,0,0,0,318.63,481.35Z"/><path class="cls-1" d="M365.78,505.63a5,5,0,0,0-2.07-4.27c-1.37-1-3.78-1.88-7.2-2.62a34.15,34.15,0,0,1-8.16-2.63,11.61,11.61,0,0,1-4.46-3.67,8.7,8.7,0,0,1-1.45-5.05,10.3,10.3,0,0,1,4.12-8.24,16.09,16.09,0,0,1,10.52-3.37q6.72,0,10.91,3.48a11,11,0,0,1,4.19,8.9h-6.8a6.15,6.15,0,0,0-2.36-4.8,8.85,8.85,0,0,0-5.94-2A9.26,9.26,0,0,0,351.3,483a5.07,5.07,0,0,0-2.09,4.21,4.11,4.11,0,0,0,1.94,3.7,24,24,0,0,0,7,2.38,36.71,36.71,0,0,1,8.22,2.71,12,12,0,0,1,4.66,3.79,9.35,9.35,0,0,1,1.52,5.4,10.18,10.18,0,0,1-4.24,8.52q-4.24,3.2-11,3.2a20,20,0,0,1-8.41-1.68,13.63,13.63,0,0,1-5.72-4.71,11.32,11.32,0,0,1-2.07-6.54h6.77a7,7,0,0,0,2.72,5.41,10.59,10.59,0,0,0,6.71,2,11,11,0,0,0,6.17-1.55A4.79,4.79,0,0,0,365.78,505.63Z"/><path class="cls-1" d="M405.8,516.14a14.1,14.1,0,0,1-.95-4.18,15.07,15.07,0,0,1-11.27,4.91,14,14,0,0,1-9.6-3.31,10.73,10.73,0,0,1-3.75-8.41,11.21,11.21,0,0,1,4.7-9.61q4.69-3.42,13.22-3.42h6.59V489a7.64,7.64,0,0,0-2.12-5.66c-1.42-1.4-3.5-2.1-6.26-2.1a9.86,9.86,0,0,0-6.07,1.83,5.41,5.41,0,0,0-2.45,4.43H381a9.35,9.35,0,0,1,2.1-5.73,14.39,14.39,0,0,1,5.71-4.38,19.22,19.22,0,0,1,7.91-1.61q6.84,0,10.72,3.43a12.34,12.34,0,0,1,4,9.43v18.23a22.26,22.26,0,0,0,1.39,8.68v.59ZM394.57,511a11.91,11.91,0,0,0,6-1.65,10,10,0,0,0,4.13-4.29v-8.13h-5.3q-12.45,0-12.44,7.29a6.19,6.19,0,0,0,2.12,5A8.12,8.12,0,0,0,394.57,511Z"/><path class="cls-1" d="M439,496q0-9.12,4.32-14.67a14.67,14.67,0,0,1,22.31-.79V459.89h6.77v56.25h-6.22l-.33-4.25q-4,5-11.3,5a13.52,13.52,0,0,1-11.21-5.64Q439,505.59,439,496.51Zm6.77.77q0,6.74,2.78,10.54a9,9,0,0,0,7.68,3.81,9.86,9.86,0,0,0,9.4-5.78V487.13a9.94,9.94,0,0,0-9.32-5.6,9,9,0,0,0-7.76,3.85Q445.79,489.22,445.78,496.77Z"/><path class="cls-1" d="M499.33,516.87a17.26,17.26,0,0,1-13.09-5.29q-5.06-5.29-5.05-14.15v-1.25a23.81,23.81,0,0,1,2.25-10.53,17.61,17.61,0,0,1,6.29-7.25,15.88,15.88,0,0,1,8.76-2.62q7.72,0,12,5.09t4.28,14.58v2.82H488a14.05,14.05,0,0,0,3.42,9.46,10.72,10.72,0,0,0,8.32,3.61,11.84,11.84,0,0,0,6.07-1.46,15.3,15.3,0,0,0,4.36-3.89l4.13,3.23Q509.28,516.87,499.33,516.87Zm-.84-35.52a9,9,0,0,0-6.87,3,14.48,14.48,0,0,0-3.44,8.37H508v-.51q-.28-5.16-2.78-8A8.5,8.5,0,0,0,498.49,481.35Z"/><path class="cls-1" d="M316.45,581.28q0,9-4.13,14.57a13.24,13.24,0,0,1-11.19,5.53q-7.22,0-11.34-4.57v19.07H283V561h6.18l.33,4.39q4.14-5.13,11.49-5.13a13.49,13.49,0,0,1,11.28,5.39q4.15,5.39,4.15,15Zm-6.76-.77q0-6.71-2.86-10.58A9.19,9.19,0,0,0,299,566a9.94,9.94,0,0,0-9.21,5.46v18.93a10,10,0,0,0,9.29,5.42,9.12,9.12,0,0,0,7.73-3.86Q309.69,588.12,309.69,580.51Z"/><path class="cls-1" d="M349.49,600.65a14,14,0,0,1-1-4.17,15.07,15.07,0,0,1-11.26,4.9,14,14,0,0,1-9.6-3.31,10.73,10.73,0,0,1-3.75-8.41,11.19,11.19,0,0,1,4.7-9.61q4.69-3.42,13.22-3.42h6.58v-3.12a7.58,7.58,0,0,0-2.12-5.65c-1.41-1.41-3.5-2.11-6.25-2.11a9.84,9.84,0,0,0-6.07,1.83,5.39,5.39,0,0,0-2.46,4.43h-6.8a9.39,9.39,0,0,1,2.1-5.73,14.42,14.42,0,0,1,5.71-4.37,19.08,19.08,0,0,1,7.92-1.62q6.84,0,10.72,3.43a12.37,12.37,0,0,1,4,9.43v18.24a22.21,22.21,0,0,0,1.39,8.67v.59Zm-11.24-5.16a11.86,11.86,0,0,0,6-1.65,10,10,0,0,0,4.13-4.29v-8.13h-5.3q-12.44,0-12.44,7.29a6.17,6.17,0,0,0,2.12,5A8.16,8.16,0,0,0,338.25,595.49Z"/><path class="cls-1" d="M384.93,567.11a20.27,20.27,0,0,0-3.33-.26q-6.66,0-9,5.68v28.12H365.8V561h6.58l.11,4.57a10.54,10.54,0,0,1,9.44-5.31,6.9,6.9,0,0,1,3,.52Z"/><path class="cls-1" d="M402.16,551.43V561h7.39v5.23h-7.39v24.61a5.47,5.47,0,0,0,1,3.57,4.13,4.13,0,0,0,3.36,1.19,15.82,15.82,0,0,0,3.22-.44v5.47a19.9,19.9,0,0,1-5.19.72q-4.55,0-6.84-2.74t-2.31-7.8V566.26h-7.2V561h7.2v-9.6Z"/><path class="cls-1" d="M433.88,601.38a17.27,17.27,0,0,1-13.1-5.29q-5.05-5.3-5-14.15v-1.25A23.81,23.81,0,0,1,418,570.16a17.67,17.67,0,0,1,6.29-7.25,15.88,15.88,0,0,1,8.76-2.62q7.73,0,12,5.09T449.31,580v2.82H422.5a14.13,14.13,0,0,0,3.42,9.47,10.75,10.75,0,0,0,8.32,3.6,11.74,11.74,0,0,0,6.07-1.46,15.41,15.41,0,0,0,4.36-3.88l4.13,3.22Q443.82,601.38,433.88,601.38ZM433,565.86a9,9,0,0,0-6.87,3,14.45,14.45,0,0,0-3.44,8.36h19.82v-.51q-.29-5.16-2.78-8A8.49,8.49,0,0,0,433,565.86Z"/><path class="cls-1" d="M480.18,590.14a5,5,0,0,0-2.06-4.27q-2.07-1.51-7.21-2.61a34.88,34.88,0,0,1-8.16-2.64,11.68,11.68,0,0,1-4.46-3.66,8.8,8.8,0,0,1-1.44-5.06,10.3,10.3,0,0,1,4.11-8.24,16.11,16.11,0,0,1,10.52-3.37c4.48,0,8.13,1.16,10.92,3.48a11.07,11.07,0,0,1,4.19,8.9h-6.81a6.12,6.12,0,0,0-2.36-4.8,8.83,8.83,0,0,0-5.94-2,9.28,9.28,0,0,0-5.78,1.61,5.09,5.09,0,0,0-2.09,4.21,4.11,4.11,0,0,0,1.94,3.7,23.63,23.63,0,0,0,7,2.38,36.78,36.78,0,0,1,8.21,2.71,12,12,0,0,1,4.66,3.79,9.28,9.28,0,0,1,1.52,5.4,10.15,10.15,0,0,1-4.24,8.52q-4.24,3.21-11,3.2a19.92,19.92,0,0,1-8.41-1.68,13.65,13.65,0,0,1-5.73-4.71,11.32,11.32,0,0,1-2.07-6.53h6.77a7,7,0,0,0,2.73,5.4,10.55,10.55,0,0,0,6.71,2,11,11,0,0,0,6.16-1.55A4.79,4.79,0,0,0,480.18,590.14Z"/><path class="cls-2" d="M283.72,136.89,274.64,155h69l-9.08-18.15A12.56,12.56,0,0,0,323.34,130h-28.4A12.53,12.53,0,0,0,283.72,136.89Z"/><path class="cls-3" d="M475.36,242.86H274.64a6.28,6.28,0,0,1-6.28-6.27V148.77a6.28,6.28,0,0,1,6.28-6.27H475.36a6.28,6.28,0,0,1,6.28,6.27v87.82A6.28,6.28,0,0,1,475.36,242.86Z"/><path class="cls-4" d="M487.91,255.41H262.09a6.28,6.28,0,0,1-6.27-6.28V161.32a6.28,6.28,0,0,1,6.27-6.28H487.91a6.28,6.28,0,0,1,6.27,6.28v87.81A6.28,6.28,0,0,1,487.91,255.41Z"/><path class="cls-5" d="M555.33,265.11l-28-50.38a6.27,6.27,0,0,0-5.49-3.23H228.15a6.27,6.27,0,0,0-5.49,3.23l-28,50.38a12.62,12.62,0,0,0-1.58,6.09v28.12H556.91V271.2A12.62,12.62,0,0,0,555.33,265.11Z"/><path class="cls-2" d="M271.17,162l-9.08,18.16h76.75L329.77,162A12.56,12.56,0,0,0,318.55,155H282.39A12.56,12.56,0,0,0,271.17,162Z"/><path class="cls-3" d="M487.91,268H262.09a6.27,6.27,0,0,1-6.27-6.27V173.86a6.27,6.27,0,0,1,6.27-6.27H487.91a6.27,6.27,0,0,1,6.27,6.27v87.82A6.27,6.27,0,0,1,487.91,268Z"/><path class="cls-4" d="M500.45,280.5H249.55a6.28,6.28,0,0,1-6.28-6.27V186.41a6.27,6.27,0,0,1,6.28-6.27h250.9a6.27,6.27,0,0,1,6.28,6.27v87.82A6.28,6.28,0,0,1,500.45,280.5Z"/><path class="cls-2" d="M258.62,187.07l-9.07,18.16h94.09l-9.08-18.16a12.55,12.55,0,0,0-11.22-6.93H269.85A12.55,12.55,0,0,0,258.62,187.07Z"/><path class="cls-3" d="M500.45,293H249.55a6.28,6.28,0,0,1-6.28-6.27V199a6.28,6.28,0,0,1,6.28-6.27h250.9a6.28,6.28,0,0,1,6.28,6.27v87.82A6.27,6.27,0,0,1,500.45,293Z"/><path class="cls-4" d="M513,305.59H237a6.27,6.27,0,0,1-6.27-6.27V211.5a6.27,6.27,0,0,1,6.27-6.27H513a6.27,6.27,0,0,1,6.27,6.27v87.82A6.27,6.27,0,0,1,513,305.59Z"/><path class="cls-6" d="M550.63,268H447.88a6.28,6.28,0,0,0-5.61,3.47l-7.35,14.69A12.54,12.54,0,0,1,423.7,293H326.3a12.54,12.54,0,0,1-11.22-6.93l-7.34-14.69a6.3,6.3,0,0,0-5.61-3.47H199.37a6.28,6.28,0,0,0-6.28,6.28V393.41a6.28,6.28,0,0,0,6.28,6.27H550.63a6.28,6.28,0,0,0,6.28-6.27V274.23A6.28,6.28,0,0,0,550.63,268Z"/><path class="cls-7" d="M425.18,255.41h75.27a6.28,6.28,0,0,0,6.28-6.28V224a6.28,6.28,0,0,0-6.28-6.27H425.18a6.27,6.27,0,0,0-6.27,6.27v25.09A6.28,6.28,0,0,0,425.18,255.41Z"/><path class="cls-8" d="M462.82,230.32H437.73a6.28,6.28,0,0,0-6.28,6.27h0a6.28,6.28,0,0,0,6.28,6.27h25.09a6.27,6.27,0,0,0,6.27-6.27h0A6.27,6.27,0,0,0,462.82,230.32Z"/><path class="cls-9" d="M487.91,230.32h-6.28a6.27,6.27,0,0,0-6.27,6.27h0a6.27,6.27,0,0,0,6.27,6.27h6.28a6.27,6.27,0,0,0,6.27-6.27h0A6.27,6.27,0,0,0,487.91,230.32Z"/></svg>