<svg id="Capa_1" data-name="Capa 1" xmlns="http://www.w3.org/2000/svg" viewBox="0 0 755 755"><defs><style>.cls-1{fill:#fff;}.cls-2{fill:#d2d2d2;}.cls-3{fill:#707486;}.cls-4{fill:#3d6cb3;}.cls-5{fill:#5693cb;}.cls-6{fill:#e3e9ee;}.cls-7{fill:#606060;}</style></defs><title>Sisinfoycomu</title><rect class="cls-1" x="205.7" y="76.23" width="343.6" height="343.6"/><rect class="cls-2" x="210.92" y="315.28" width="321" height="46"/><rect class="cls-2" x="309.92" y="361.28" width="123" height="51"/><path class="cls-3" d="M541.62,365.85H207V306H541.62ZM221,351.85H527.62V320H221Z"/><path class="cls-3" d="M441.82,419.83H306.75v-68H441.82Zm-121.07-14H427.82v-40H320.75Z"/><rect class="cls-3" x="267.11" y="405.83" width="214.36" height="14"/><path class="cls-3" d="M457.21,335a7.72,7.72,0,1,1-7.72-7.72,7.73,7.73,0,0,1,7.72,7.72"/><path class="cls-3" d="M481.76,335a7.72,7.72,0,1,1-7.72-7.72,7.73,7.73,0,0,1,7.72,7.72"/><path class="cls-3" d="M506.31,335a7.72,7.72,0,1,1-7.72-7.72,7.73,7.73,0,0,1,7.72,7.72"/><rect class="cls-3" x="206.96" y="103.11" width="170.46" height="14"/><polygon class="cls-4" points="325.55 194.4 325.55 198.83 325.55 203.25 325.55 291.3 357.95 291.3 357.95 203.25 357.95 198.83 357.95 194.4 325.55 194.4"/><polygon class="cls-4" points="283.15 218.7 283.15 222.02 283.15 225.33 283.15 291.3 315.55 291.3 315.55 225.33 315.55 222.02 315.55 218.7 283.15 218.7"/><polygon class="cls-4" points="240.96 249.34 240.96 251.26 240.96 253.17 240.96 291.3 273.36 291.3 273.36 253.17 273.36 251.26 273.36 249.34 240.96 249.34"/><rect class="cls-3" x="206.96" y="103.11" width="14" height="188.19"/><rect class="cls-3" x="535.3" y="215.29" width="14" height="76.01"/><path class="cls-4" d="M467.87,86.24a71.43,71.43,0,1,0,71.43,71.43H467.87Z"/><path class="cls-5" d="M477.87,76.24v71.43H549.3a71.43,71.43,0,0,0-71.43-71.43"/><polygon class="cls-6" points="377.5 242.85 377.5 245.06 377.5 247.28 377.5 291.3 515.06 291.3 515.06 247.28 515.06 245.06 515.06 242.85 377.5 242.85"/><polygon class="cls-6" points="241.13 133.44 241.13 135.66 241.13 137.87 241.13 181.89 378.7 181.89 378.7 137.87 378.7 135.66 378.7 133.44 241.13 133.44"/><path class="cls-7" d="M209.66,517.79a24.24,24.24,0,0,0,12.44,3.5c7.12,0,11.31-3.72,11.31-9.18,0-5-2.92-7.95-10.2-10.67-8.8-3.12-14.26-7.75-14.26-15.3,0-8.39,7-14.62,17.48-14.62,5.48,0,9.55,1.27,11.9,2.61l-2,5.7a20.42,20.42,0,0,0-10.18-2.56c-7.4,0-10.2,4.39-10.2,8.07,0,5,3.28,7.47,10.72,10.35,9.15,3.59,13.75,8,13.75,15.88,0,8.27-6.09,15.55-18.87,15.55-5.21,0-10.89-1.57-13.77-3.52Z"/><path class="cls-7" d="M255.66,476.65a4.25,4.25,0,0,1-4.48,4.38,4.2,4.2,0,0,1-4.25-4.38,4.29,4.29,0,0,1,4.38-4.38A4.22,4.22,0,0,1,255.66,476.65Zm-7.87,49.63V487.59h7v38.69Z"/><path class="cls-7" d="M263.6,519.12a19.21,19.21,0,0,0,9.32,2.75c5.14,0,7.52-2.52,7.52-5.76s-2-5.15-7.19-7.08c-7-2.53-10.3-6.34-10.28-11,0-6.24,5.06-11.35,13.39-11.35a18.76,18.76,0,0,1,9.47,2.38l-1.75,5.12a15.14,15.14,0,0,0-7.93-2.28c-4.16,0-6.41,2.39-6.41,5.31,0,3.2,2.27,4.63,7.34,6.6,6.67,2.48,10.14,5.84,10.15,11.62,0,6.86-5.32,11.66-14.47,11.66a22.17,22.17,0,0,1-10.87-2.69Z"/><path class="cls-7" d="M302.8,476.45v11.14h10.11v5.33H302.8v20.85c0,4.82,1.39,7.55,5.32,7.55a14.24,14.24,0,0,0,4.08-.51l.32,5.34a17.92,17.92,0,0,1-6.29,1,9.84,9.84,0,0,1-7.59-3c-1.94-2.13-2.73-5.54-2.73-10.09V492.92h-6v-5.33h6v-9.32Z"/><path class="cls-7" d="M322.37,508.21c.14,9.51,6.17,13.43,13.24,13.43a26,26,0,0,0,10.72-2l1.23,5a31.09,31.09,0,0,1-12.91,2.47c-11.89,0-19-7.92-19-19.53s6.91-20.88,18.21-20.88c12.62,0,15.92,11.08,15.92,18.2a16.9,16.9,0,0,1-.24,3.3ZM343,503.14c.07-4.43-1.81-11.39-9.7-11.39-7.18,0-10.24,6.5-10.8,11.39Z"/><path class="cls-7" d="M356.59,498c0-4-.13-7.24-.32-10.45h6.12l.37,6.23H363a13.37,13.37,0,0,1,12.22-7.11,11.37,11.37,0,0,1,10.9,7.76h.16a15.68,15.68,0,0,1,4.37-5,13.17,13.17,0,0,1,8.51-2.72c5.17,0,12.77,3.33,12.77,16.79v22.78H405V504.4c0-7.5-2.77-11.93-8.4-11.93-4,0-7.13,2.93-8.37,6.33a11.5,11.5,0,0,0-.58,3.53v23.95H380.8V503.06c0-6.16-2.72-10.59-8-10.59-4.38,0-7.6,3.5-8.77,7a11.37,11.37,0,0,0-.53,3.47v23.32h-6.87Z"/><path class="cls-7" d="M442.84,526.28l-.62-4.89H442a14.37,14.37,0,0,1-11.83,5.77c-7.82,0-11.82-5.55-11.82-11.1,0-9.37,8.3-14.52,23.25-14.41v-.83c0-3.14-.88-9-8.81-8.92a18.84,18.84,0,0,0-10.08,2.88l-1.6-4.68a24.43,24.43,0,0,1,12.78-3.39c11.82,0,14.71,8.09,14.71,15.84V517a61,61,0,0,0,.58,9.26Zm-1.09-19.76c-7.61-.16-16.33,1.21-16.33,8.69,0,4.62,3,6.74,6.57,6.74a9.7,9.7,0,0,0,9.43-6.48,7.43,7.43,0,0,0,.33-2.22Z"/><path class="cls-7" d="M506.46,469.48V516.3c0,3.44.14,7.31.32,10h-6.25l-.36-6.69H500c-2.15,4.32-6.8,7.57-13.12,7.57-9.38,0-16.61-7.93-16.61-19.66-.06-12.93,8-20.79,17.39-20.79,5.94,0,9.94,2.79,11.67,5.87h.16v-23.1Zm-7,33.85a14.61,14.61,0,0,0-.3-3,10.4,10.4,0,0,0-10.19-8.1c-7.28,0-11.64,6.39-11.64,14.89,0,7.86,3.91,14.38,11.5,14.38a10.6,10.6,0,0,0,10.28-8.44,11.54,11.54,0,0,0,.35-3Z"/><path class="cls-7" d="M520.21,508.21c.14,9.51,6.17,13.43,13.24,13.43a26,26,0,0,0,10.71-2l1.24,5a31.09,31.09,0,0,1-12.91,2.47c-11.89,0-19-7.92-19-19.53s6.91-20.88,18.21-20.88c12.62,0,15.92,11.08,15.92,18.2a16.9,16.9,0,0,1-.24,3.3Zm20.59-5.07c.07-4.43-1.81-11.39-9.7-11.39-7.19,0-10.25,6.5-10.81,11.39Z"/><path class="cls-7" d="M172.16,555.36v53.92h-7V555.36Z"/><path class="cls-7" d="M183,581c0-4-.13-7.24-.32-10.45h6.22l.39,6.36h.2a14.28,14.28,0,0,1,12.79-7.24c5.31,0,13.63,3.2,13.63,16.49v23.08h-7V587c0-6.25-2.35-11.49-8.94-11.49a10.12,10.12,0,0,0-9.48,7.22A11,11,0,0,0,190,586v23.31h-7Z"/><path class="cls-7" d="M226.12,609.28V575.92h-5.4v-5.33h5.4v-1.86c0-5.46,1.25-10.4,4.5-13.56a13.46,13.46,0,0,1,9.4-3.57,15.26,15.26,0,0,1,6,1.13l-.93,5.41a10.73,10.73,0,0,0-4.52-.88c-5.94,0-7.5,5.27-7.5,11.24v2.09h9.35v5.33h-9.31v33.36Z"/><path class="cls-7" d="M280.85,589.56c0,14.33-9.94,20.6-19.24,20.6-10.49,0-18.59-7.65-18.59-19.93,0-13,8.51-20.52,19.21-20.52C273.35,569.71,280.85,577.78,280.85,589.56Zm-30.67.45c0,8.49,4.86,14.88,11.72,14.88s11.79-6.3,11.79-15.09c0-6.54-3.29-14.82-11.66-14.82S250.18,582.68,250.18,590Z"/><path class="cls-7" d="M287.82,582.64c0-4.57-.11-8.46-.32-12h6.17l.27,7.59h.25c1.8-5.19,6.07-8.47,10.77-8.47a8.09,8.09,0,0,1,2,.2v6.62a11.27,11.27,0,0,0-2.4-.21c-5,0-8.46,3.74-9.42,9a18.94,18.94,0,0,0-.28,3.29v20.67h-7Z"/><path class="cls-7" d="M312.39,581c0-4-.13-7.24-.32-10.45h6.12l.37,6.23h.19A13.38,13.38,0,0,1,331,569.71a11.37,11.37,0,0,1,10.9,7.76H342a15.68,15.68,0,0,1,4.37-5,13.17,13.17,0,0,1,8.51-2.72c5.17,0,12.78,3.33,12.78,16.79v22.78h-6.87V587.4c0-7.5-2.77-11.93-8.4-11.93-4,0-7.13,2.93-8.37,6.33a11.5,11.5,0,0,0-.58,3.53v23.95H336.6V586.06c0-6.16-2.72-10.59-8-10.59-4.38,0-7.6,3.5-8.77,7a11.37,11.37,0,0,0-.53,3.47v23.32h-6.87Z"/><path class="cls-7" d="M398.65,609.28l-.62-4.89h-.21A14.41,14.41,0,0,1,386,610.16c-7.82,0-11.82-5.55-11.82-11.1,0-9.37,8.31-14.52,23.25-14.41v-.83c0-3.14-.88-9-8.81-8.92a18.84,18.84,0,0,0-10.08,2.88l-1.59-4.68a24.36,24.36,0,0,1,12.77-3.39c11.82,0,14.71,8.09,14.71,15.84V600a61,61,0,0,0,.58,9.26Zm-1.1-19.76c-7.61-.16-16.33,1.21-16.33,8.69,0,4.62,3,6.74,6.57,6.74a9.69,9.69,0,0,0,9.43-6.48,7.43,7.43,0,0,0,.33-2.22Z"/><path class="cls-7" d="M441.42,607.88a26.61,26.61,0,0,1-11.1,2.24c-11.67,0-19.31-7.94-19.31-19.77s8.14-20.63,20.79-20.63a22.7,22.7,0,0,1,9.78,2.06L440,577.19a17.12,17.12,0,0,0-8.23-1.86c-8.83,0-13.67,6.61-13.65,14.65,0,9,5.76,14.48,13.48,14.48a20.45,20.45,0,0,0,8.61-1.86Z"/><path class="cls-7" d="M455.62,559.65a4.25,4.25,0,0,1-4.48,4.38,4.2,4.2,0,0,1-4.25-4.38,4.29,4.29,0,0,1,4.38-4.38A4.23,4.23,0,0,1,455.62,559.65Zm-7.87,49.63V570.59h7v38.69Z"/><path class="cls-7" d="M499.57,589.56c0,14.33-9.94,20.6-19.24,20.6-10.49,0-18.6-7.65-18.6-19.93,0-13,8.52-20.52,19.22-20.52C492.07,569.71,499.57,577.78,499.57,589.56ZM468.9,590c0,8.49,4.86,14.88,11.72,14.88s11.79-6.3,11.79-15.09c0-6.54-3.3-14.82-11.66-14.82S468.9,582.68,468.9,590Zm22.26-36.21-9.77,11.47h-5l7-11.47Z"/><path class="cls-7" d="M506.55,581c0-4-.13-7.24-.32-10.45h6.22l.39,6.36H513a14.31,14.31,0,0,1,12.8-7.24c5.31,0,13.63,3.2,13.63,16.49v23.08h-7V587c0-6.25-2.36-11.49-8.94-11.49A10.12,10.12,0,0,0,514,582.7a11,11,0,0,0-.49,3.27v23.31h-7Z"/><path class="cls-7" d="M566.61,570.59l8.46,22.87c.91,2.56,1.85,5.59,2.49,7.89h.19c.69-2.27,1.55-5.24,2.47-8.05l7.66-22.71h7.46l-10.58,27.56c-5,13.31-8.46,20.08-13.26,24.27a19.55,19.55,0,0,1-8.62,4.52l-1.75-5.89a18.23,18.23,0,0,0,6.16-3.43,22.45,22.45,0,0,0,5.89-7.84,4.3,4.3,0,0,0,.54-1.7,4.54,4.54,0,0,0-.49-1.8L559,570.59Z"/><path class="cls-7" d="M191.45,690.55c-2.52,1.27-7.68,2.57-14.25,2.57-15.19,0-26.58-9.61-26.58-27.31,0-16.92,11.41-28.29,28.14-28.29,6.67,0,11,1.41,12.8,2.37l-1.72,5.67A25.56,25.56,0,0,0,179,643.34c-12.67,0-21,8.09-21,22.25,0,13.19,7.6,21.62,20.66,21.62A28.32,28.32,0,0,0,190.05,685Z"/><path class="cls-7" d="M232.18,672.56c0,14.33-10,20.6-19.25,20.6-10.49,0-18.59-7.65-18.59-19.93,0-13,8.51-20.52,19.21-20.52C224.67,652.71,232.18,660.78,232.18,672.56ZM201.5,673c0,8.49,4.86,14.88,11.72,14.88S225,681.59,225,672.8c0-6.54-3.29-14.82-11.66-14.82S201.5,665.68,201.5,673Z"/><path class="cls-7" d="M239.15,664c0-4-.13-7.24-.32-10.45H245l.37,6.23h.2a13.35,13.35,0,0,1,12.21-7.11,11.39,11.39,0,0,1,10.91,7.76h.16a15.54,15.54,0,0,1,4.36-5,13.17,13.17,0,0,1,8.51-2.72c5.17,0,12.78,3.33,12.78,16.79v22.78h-6.87V670.4c0-7.5-2.76-11.93-8.4-11.93-4,0-7.13,2.93-8.37,6.33a11.5,11.5,0,0,0-.58,3.53v23.95h-6.86V669.06c0-6.16-2.73-10.59-8-10.59-4.39,0-7.61,3.5-8.77,7A11.07,11.07,0,0,0,246,669v23.32h-6.87Z"/><path class="cls-7" d="M336.31,681.69c0,4.06.13,7.53.32,10.59h-6.22L330,686h-.2A14.43,14.43,0,0,1,317,693.16c-6,0-13.32-3.39-13.32-17V653.59h7V675c0,7.37,2.29,12.39,8.65,12.39a10.24,10.24,0,0,0,9.31-6.46,11,11,0,0,0,.64-3.61v-23.7h7Z"/><path class="cls-7" d="M346.11,664c0-4-.13-7.24-.32-10.45H352l.39,6.36h.2a14.28,14.28,0,0,1,12.79-7.24c5.31,0,13.63,3.2,13.63,16.49v23.08h-7V670c0-6.25-2.35-11.49-8.94-11.49a10.12,10.12,0,0,0-9.48,7.22,11,11,0,0,0-.49,3.27v23.31h-7Z"/><path class="cls-7" d="M396.46,642.65A4.25,4.25,0,0,1,392,647a4.2,4.2,0,0,1-4.25-4.38,4.29,4.29,0,0,1,4.38-4.38A4.23,4.23,0,0,1,396.46,642.65Zm-7.87,49.63V653.59h7v38.69Z"/><path class="cls-7" d="M433,690.88a26.61,26.61,0,0,1-11.1,2.24c-11.67,0-19.31-7.94-19.31-19.77s8.14-20.63,20.79-20.63a22.7,22.7,0,0,1,9.78,2.06l-1.56,5.41a17.12,17.12,0,0,0-8.23-1.86c-8.83,0-13.67,6.61-13.65,14.65,0,9,5.76,14.48,13.48,14.48a20.45,20.45,0,0,0,8.61-1.86Z"/><path class="cls-7" d="M460.84,692.28l-.62-4.89H460a14.37,14.37,0,0,1-11.83,5.77c-7.82,0-11.82-5.55-11.82-11.1,0-9.37,8.3-14.52,23.25-14.41v-.83c0-3.14-.88-9-8.81-8.92a18.84,18.84,0,0,0-10.08,2.88l-1.6-4.68a24.42,24.42,0,0,1,12.77-3.39c11.83,0,14.71,8.09,14.71,15.84V683a60.94,60.94,0,0,0,.59,9.26Zm-1.09-19.76c-7.62-.16-16.33,1.21-16.33,8.69,0,4.62,3,6.74,6.57,6.74a9.7,9.7,0,0,0,9.43-6.48,7.43,7.43,0,0,0,.33-2.22Z"/><path class="cls-7" d="M503.62,690.88a26.65,26.65,0,0,1-11.1,2.24c-11.67,0-19.31-7.94-19.31-19.77s8.14-20.63,20.79-20.63a22.7,22.7,0,0,1,9.78,2.06l-1.57,5.41a17,17,0,0,0-8.22-1.86c-8.83,0-13.67,6.61-13.65,14.65,0,9,5.76,14.48,13.47,14.48a20.47,20.47,0,0,0,8.62-1.86Z"/><path class="cls-7" d="M517.81,642.65a4.24,4.24,0,0,1-4.47,4.38,4.2,4.2,0,0,1-4.25-4.38,4.28,4.28,0,0,1,4.38-4.38A4.22,4.22,0,0,1,517.81,642.65ZM510,692.28V653.59h7v38.69Z"/><path class="cls-7" d="M561.77,672.56c0,14.33-9.94,20.6-19.24,20.6-10.49,0-18.6-7.65-18.6-19.93,0-13,8.51-20.52,19.21-20.52C554.27,652.71,561.77,660.78,561.77,672.56Zm-30.68.45c0,8.49,4.87,14.88,11.73,14.88s11.79-6.3,11.79-15.09c0-6.54-3.3-14.82-11.66-14.82S531.09,665.68,531.09,673Zm22.27-36.21-9.77,11.47h-5l7-11.47Z"/><path class="cls-7" d="M568.75,664c0-4-.13-7.24-.32-10.45h6.22L575,660h.19a14.28,14.28,0,0,1,12.8-7.24c5.31,0,13.63,3.2,13.63,16.49v23.08h-7V670c0-6.25-2.36-11.49-8.94-11.49a10.12,10.12,0,0,0-9.48,7.22,10.71,10.71,0,0,0-.49,3.27v23.31h-7Z"/></svg>