<svg id="Capa_1" data-name="Capa 1" xmlns="http://www.w3.org/2000/svg" viewBox="0 0 755 755"><defs><style>.cls-1{fill:#606060;}.cls-2,.cls-5{fill:#a6c2d1;}.cls-3{fill:#193651;}.cls-4{fill:#d5a2ff;}.cls-5{opacity:0.3;}</style></defs><title>SGdetutorias</title><path class="cls-1" d="M61.7,593a24.85,24.85,0,0,0,12.76,3.58c7.29,0,11.59-3.81,11.59-9.41,0-5.12-3-8.14-10.46-10.94C66.57,573,61,568.24,61,560.51c0-8.61,7.15-15,17.92-15,5.61,0,9.78,1.3,12.19,2.67l-2,5.85a21.08,21.08,0,0,0-10.44-2.62c-7.59,0-10.46,4.5-10.46,8.26,0,5.13,3.36,7.66,11,10.61,9.38,3.68,14.1,8.18,14.1,16.28,0,8.48-6.25,15.94-19.34,15.94-5.35,0-11.17-1.61-14.12-3.61Z"/><path class="cls-1" d="M109.92,550.78a4.36,4.36,0,0,1-4.59,4.48,4.3,4.3,0,0,1-4.35-4.48,4.38,4.38,0,0,1,4.48-4.49A4.33,4.33,0,0,1,109.92,550.78Zm-8.06,50.87V562H109v39.66Z"/><path class="cls-1" d="M119.12,594.31a19.73,19.73,0,0,0,9.56,2.82c5.27,0,7.71-2.59,7.71-5.91s-2.1-5.28-7.37-7.26c-7.17-2.59-10.56-6.49-10.54-11.24,0-6.39,5.19-11.63,13.72-11.63a19.15,19.15,0,0,1,9.71,2.44l-1.79,5.24a15.58,15.58,0,0,0-8.14-2.33c-4.25,0-6.57,2.45-6.57,5.44,0,3.28,2.34,4.75,7.53,6.76,6.84,2.55,10.39,6,10.41,11.92,0,7-5.46,12-14.83,12a22.64,22.64,0,0,1-11.15-2.76Z"/><path class="cls-1" d="M160.37,550.58V562h10.36v5.47H160.37v21.37c0,4.94,1.42,7.73,5.45,7.73A14.46,14.46,0,0,0,170,596l.33,5.48a18.44,18.44,0,0,1-6.44,1,10.1,10.1,0,0,1-7.79-3c-2-2.19-2.8-5.69-2.8-10.35V567.46h-6.14V562h6.14v-9.55Z"/><path class="cls-1" d="M181.5,583.12c.14,9.75,6.33,13.77,13.57,13.77a26.73,26.73,0,0,0,11-2l1.27,5.12a32.1,32.1,0,0,1-13.24,2.53c-12.18,0-19.51-8.12-19.51-20s7.08-21.4,18.66-21.4c12.94,0,16.32,11.35,16.32,18.65a17.7,17.7,0,0,1-.24,3.38Zm21.1-5.19c.08-4.54-1.86-11.67-9.94-11.67-7.37,0-10.5,6.65-11.08,11.67Z"/><path class="cls-1" d="M217.64,572.7c0-4.14-.14-7.42-.33-10.71h6.27l.38,6.39h.2a13.69,13.69,0,0,1,12.52-7.29A11.67,11.67,0,0,1,247.86,569H248a16,16,0,0,1,4.48-5.16,13.46,13.46,0,0,1,8.72-2.79c5.3,0,13.09,3.41,13.09,17.21v23.35h-7V579.22c0-7.68-2.83-12.23-8.6-12.23-4.14,0-7.31,3-8.58,6.49a11.73,11.73,0,0,0-.59,3.62v24.55h-7v-23.8c0-6.32-2.8-10.86-8.24-10.86-4.5,0-7.8,3.59-9,7.2a11.33,11.33,0,0,0-.55,3.55v23.91h-7Z"/><path class="cls-1" d="M307.11,601.65l-.63-5h-.22a14.74,14.74,0,0,1-12.13,5.91c-8,0-12.11-5.69-12.11-11.38,0-9.61,8.51-14.88,23.83-14.77v-.84c0-3.23-.91-9.2-9-9.15a19.33,19.33,0,0,0-10.33,3l-1.64-4.79a25,25,0,0,1,13.09-3.48c12.12,0,15.08,8.29,15.08,16.23v14.84a61.36,61.36,0,0,0,.6,9.49ZM306,581.4c-7.8-.17-16.74,1.23-16.74,8.9,0,4.74,3.12,6.91,6.74,6.91a9.93,9.93,0,0,0,9.66-6.64,7.54,7.54,0,0,0,.34-2.27Z"/><path class="cls-1" d="M374.46,543.43v48c0,3.53.13,7.49.32,10.23h-6.41l-.36-6.86h-.2c-2.2,4.43-7,7.76-13.45,7.76-9.61,0-17-8.12-17-20.15-.06-13.25,8.16-21.31,17.82-21.31,6.09,0,10.19,2.85,12,6h.17V543.43Zm-7.17,34.7A14.79,14.79,0,0,0,367,575a10.66,10.66,0,0,0-10.44-8.29c-7.47,0-11.93,6.55-11.93,15.26,0,8,4,14.74,11.78,14.74a10.89,10.89,0,0,0,10.54-8.66,11.6,11.6,0,0,0,.36-3.09Z"/><path class="cls-1" d="M389.61,583.12c.14,9.75,6.33,13.77,13.57,13.77a26.82,26.82,0,0,0,11-2l1.26,5.12a32,32,0,0,1-13.23,2.53c-12.19,0-19.51-8.12-19.51-20s7.07-21.4,18.65-21.4c12.94,0,16.33,11.35,16.33,18.65a17.53,17.53,0,0,1-.25,3.38Zm21.11-5.19c.07-4.54-1.86-11.67-10-11.67-7.36,0-10.5,6.65-11.07,11.67Z"/><path class="cls-1" d="M484.57,599.17a50.41,50.41,0,0,1-17,3c-8.38,0-15.29-2.12-20.67-7.3-4.76-4.59-7.7-11.92-7.68-20.52,0-16.49,11.36-28.55,29.88-28.55a34.87,34.87,0,0,1,13.82,2.53l-1.78,5.82a28.23,28.23,0,0,0-12.21-2.36c-13.41,0-22.2,8.34-22.2,22.19s8.4,22.29,21.33,22.29c4.67,0,7.84-.65,9.49-1.49V578.35H466.37v-5.71h18.2Z"/><path class="cls-1" d="M498.75,583.12c.14,9.75,6.33,13.77,13.57,13.77a26.82,26.82,0,0,0,11-2l1.26,5.12a32,32,0,0,1-13.23,2.53c-12.19,0-19.52-8.12-19.52-20s7.08-21.4,18.66-21.4c12.94,0,16.33,11.35,16.33,18.65a17.53,17.53,0,0,1-.25,3.38Zm21.11-5.19c.07-4.54-1.86-11.67-9.95-11.67-7.36,0-10.5,6.65-11.07,11.67Z"/><path class="cls-1" d="M533.87,594.31a19.77,19.77,0,0,0,9.56,2.82c5.27,0,7.71-2.59,7.71-5.91s-2.1-5.28-7.37-7.26c-7.17-2.59-10.56-6.49-10.54-11.24,0-6.39,5.19-11.63,13.72-11.63a19.15,19.15,0,0,1,9.71,2.44l-1.79,5.24a15.58,15.58,0,0,0-8.14-2.33c-4.25,0-6.56,2.45-6.56,5.44,0,3.28,2.33,4.75,7.53,6.76,6.83,2.55,10.38,6,10.4,11.92,0,7-5.46,12-14.83,12a22.64,22.64,0,0,1-11.15-2.76Z"/><path class="cls-1" d="M575.12,550.58V562h10.36v5.47H575.12v21.37c0,4.94,1.42,7.73,5.45,7.73a14.46,14.46,0,0,0,4.18-.52l.33,5.48a18.44,18.44,0,0,1-6.44,1,10.1,10.1,0,0,1-7.79-3c-2-2.19-2.8-5.69-2.8-10.35V567.46h-6.14V562h6.14v-9.55Z"/><path class="cls-1" d="M600.76,550.78a4.34,4.34,0,0,1-4.59,4.48,4.3,4.3,0,0,1-4.35-4.48,4.38,4.38,0,0,1,4.49-4.49A4.32,4.32,0,0,1,600.76,550.78Zm-8.06,50.87V562h7.18v39.66Z"/><path class="cls-1" d="M646.89,581.48c0,14.67-10.17,21.07-19.76,21.07-10.74,0-19-7.87-19-20.42,0-13.28,8.69-21.07,19.68-21.07C639.18,561.06,646.89,569.34,646.89,581.48Zm-31.49.41c0,8.69,5,15.25,12.06,15.25,6.89,0,12-6.48,12-15.42,0-6.72-3.36-15.25-11.89-15.25S615.4,574.34,615.4,581.89Zm22.88-37.07-10,11.73h-5.17l7.22-11.73Z"/><path class="cls-1" d="M655.09,572.7c0-4.1-.08-7.46-.33-10.74h6.4l.41,6.56h.16a14.6,14.6,0,0,1,13.12-7.46c5.5,0,14,3.28,14,16.89v23.7h-7.22V578.77c0-6.4-2.38-11.73-9.18-11.73a10.26,10.26,0,0,0-9.68,7.38,10.41,10.41,0,0,0-.49,3.37v23.86h-7.22Z"/><path class="cls-1" d="M233.49,626.43v48c0,3.52.09,7.54.33,10.25h-6.48l-.32-6.89h-.17c-2.21,4.43-7,7.79-13.53,7.79-9.59,0-17-8.12-17-20.17-.08-13.2,8.11-21.32,17.79-21.32,6.07,0,10.17,2.87,12,6.07h.17v-23.7Zm-7.21,34.68a12.51,12.51,0,0,0-.33-3,10.61,10.61,0,0,0-10.41-8.36c-7.47,0-11.89,6.56-11.89,15.33,0,8,3.93,14.68,11.72,14.68A10.85,10.85,0,0,0,226,671.12a12.4,12.4,0,0,0,.33-3.12Z"/><path class="cls-1" d="M248.58,666.12c.16,9.75,6.4,13.77,13.61,13.77a26,26,0,0,0,11-2l1.23,5.17a32.11,32.11,0,0,1-13.2,2.46c-12.22,0-19.52-8-19.52-20s7.05-21.4,18.62-21.4c12.95,0,16.4,11.4,16.4,18.69a27.57,27.57,0,0,1-.25,3.37ZM269.74,661c.08-4.59-1.89-11.73-10-11.73-7.3,0-10.49,6.73-11.07,11.73Z"/><path class="cls-1" d="M308.6,635.45H291.79v-6.07h40.92v6.07H315.82v49.2H308.6Z"/><path class="cls-1" d="M367.23,673.82c0,4.1.09,7.71.33,10.83h-6.39l-.41-6.48h-.17a14.92,14.92,0,0,1-13.12,7.38c-6.23,0-13.69-3.44-13.69-17.38V645H341v22c0,7.54,2.3,12.62,8.86,12.62A10.16,10.16,0,0,0,360,669.31V645h7.21Z"/><path class="cls-1" d="M387,633.56V645h10.33v5.49H387v21.41c0,4.92,1.39,7.7,5.41,7.7a15.9,15.9,0,0,0,4.18-.49l.33,5.41a17.55,17.55,0,0,1-6.4,1c-3.36,0-6.07-1.07-7.79-3-2.05-2.13-2.79-5.65-2.79-10.33V650.45h-6.15V645h6.15v-9.51Z"/><path class="cls-1" d="M440,664.48c0,14.67-10.17,21.07-19.76,21.07-10.75,0-19-7.87-19-20.42,0-13.28,8.69-21.07,19.68-21.07C432.26,644.06,440,652.34,440,664.48Zm-31.49.41c0,8.69,5,15.25,12,15.25,6.89,0,12.06-6.48,12.06-15.42,0-6.72-3.36-15.25-11.89-15.25S408.48,657.34,408.48,664.89Z"/><path class="cls-1" d="M448.17,657.34c0-4.67-.09-8.69-.33-12.38h6.31l.25,7.79h.33c1.8-5.33,6.15-8.69,11-8.69a8,8,0,0,1,2,.24v6.81a11.09,11.09,0,0,0-2.46-.25c-5.09,0-8.7,3.86-9.68,9.27a20.67,20.67,0,0,0-.33,3.36v21.16h-7.13Z"/><path class="cls-1" d="M489.08,627.82l-10,11.73h-5.16l7.21-11.73Zm-14.67,56.83V645h7.21v39.69Z"/><path class="cls-1" d="M514.67,684.65l-.58-5h-.24a14.81,14.81,0,0,1-12.14,5.9c-8,0-12.13-5.66-12.13-11.4,0-9.59,8.52-14.84,23.86-14.76v-.82c0-3.28-.9-9.18-9-9.18a19.78,19.78,0,0,0-10.33,3l-1.64-4.76a24.62,24.62,0,0,1,13-3.52c12.14,0,15.09,8.28,15.09,16.23v14.85a56.1,56.1,0,0,0,.66,9.51Zm-1.07-20.26c-7.87-.16-16.81,1.23-16.81,8.94,0,4.68,3.12,6.89,6.81,6.89a9.88,9.88,0,0,0,9.59-6.64,7.44,7.44,0,0,0,.41-2.3Z"/><path class="cls-1" d="M530.33,677.27a18.93,18.93,0,0,0,9.51,2.87c5.25,0,7.71-2.63,7.71-5.91,0-3.44-2-5.33-7.38-7.29-7.13-2.55-10.5-6.48-10.5-11.24,0-6.39,5.17-11.64,13.7-11.64a19.85,19.85,0,0,1,9.76,2.46l-1.81,5.25a15.4,15.4,0,0,0-8.12-2.3c-4.26,0-6.64,2.46-6.64,5.41,0,3.28,2.38,4.76,7.55,6.73,6.88,2.62,10.41,6.06,10.41,12,0,7-5.41,11.89-14.84,11.89a22.59,22.59,0,0,1-11.15-2.71Z"/><path class="cls-2" d="M285.66,387.1h-14a30.73,30.73,0,0,1,30.7-30.69h10.9a26.58,26.58,0,0,0,26.54-26.54h14a40.59,40.59,0,0,1-40.54,40.54h-10.9A16.71,16.71,0,0,0,285.66,387.1Z"/><path class="cls-2" d="M483.79,387.1h-14a16.71,16.71,0,0,0-16.69-16.69H442.2a40.58,40.58,0,0,1-40.54-40.54h14a26.57,26.57,0,0,0,26.54,26.54h10.9A30.73,30.73,0,0,1,483.79,387.1Z"/><path class="cls-2" d="M445.19,222.38a89.27,89.27,0,0,1-.44,18.09l-.09.72c-.06.91-7,91.47-66.93,91.47-54.83,0-65.33-76.11-66.75-89.48a65.72,65.72,0,0,1-8.72,1.69c-1.65.21-3.38.37-5.14.44a184.18,184.18,0,0,0,12,48c14.36,34.89,38.09,53.33,68.62,53.33s54.25-18.44,68.61-53.33a183.1,183.1,0,0,0,12.26-50.84,95,95,0,0,0,.84-16A46.48,46.48,0,0,1,445.19,222.38Z"/><path class="cls-2" d="M472.31,194c-4.61-14.93-15.69-35.28-42.26-47.44l-2.94-1.35c1.77,5.31-1.13,16.08-1.13,16.08a36.74,36.74,0,0,1,7.39,3c23.61,15.25,28,38.91,28.68,50.81a134.58,134.58,0,0,1-66.71-31.68,51.77,51.77,0,0,1-6.8,12.72A147.52,147.52,0,0,0,468.21,230l7,.75.72-7A81.6,81.6,0,0,0,472.31,194Z"/><path class="cls-2" d="M293.41,248.14h0a34.15,34.15,0,0,1-4.5-.24l-5.37-.76-.61-5.39a140.85,140.85,0,0,1,2.92-42.65c6.94-30.62,23.89-52.5,49-63.26a95.85,95.85,0,0,1,37.91-7.94c34.25,0,57.8,18.75,58.79,19.55L437,151.9l-4.5,5.45C363,241.58,308.48,248.14,293.41,248.14ZM372.75,141.9a81.88,81.88,0,0,0-32.39,6.81c-21,9-34.73,26.87-40.78,53.11a131.47,131.47,0,0,0-3.1,32.21c7.19-.46,21.25-2.75,40.29-12.4,26.38-13.37,53.27-36,80-67.27C408.59,149.49,392.65,141.9,372.75,141.9Z"/><path class="cls-3" d="M338.1,291.31A21.36,21.36,0,0,1,316.77,270V248.67A11.19,11.19,0,0,1,328,237.49h33.34a11.19,11.19,0,0,1,11.18,11.18V257A34.4,34.4,0,0,1,338.1,291.31Zm-7.33-39.82V270a7.34,7.34,0,0,0,7.33,7.33h0A20.38,20.38,0,0,0,358.47,257v-5.46Z"/><path class="cls-3" d="M417.59,291.31A34.4,34.4,0,0,1,383.22,257v-8.28a11.2,11.2,0,0,1,11.18-11.18h33.35a11.2,11.2,0,0,1,11.18,11.18V270A21.36,21.36,0,0,1,417.59,291.31Zm-20.37-39.82V257a20.39,20.39,0,0,0,20.37,20.36h0a7.34,7.34,0,0,0,7.34-7.33V251.49Z"/><rect class="cls-3" x="360.47" y="248.5" width="35.75" height="14"/><path class="cls-4" d="M384.5,459.73h-14A33.5,33.5,0,0,0,337,426.27H215.44v-14H337A47.51,47.51,0,0,1,384.5,459.73Z"/><path class="cls-4" d="M384.5,459.73h-14A47.51,47.51,0,0,1,418,412.27H539.56v14H418A33.5,33.5,0,0,0,384.5,459.73Z"/><path class="cls-3" d="M384.5,459.73h-14A33.5,33.5,0,0,0,337,426.27H215.44v-14H337A47.51,47.51,0,0,1,384.5,459.73Z"/><path class="cls-3" d="M384.5,459.73h-14A47.51,47.51,0,0,1,418,412.27H539.56v14H418A33.5,33.5,0,0,0,384.5,459.73Z"/><rect class="cls-2" x="328.37" y="355" width="14" height="32"/><rect class="cls-2" x="421.37" y="360" width="14" height="27"/><polyline class="cls-3" points="337.04 441.06 337.04 455.06 215.44 455.06 215.44 441.06"/><polyline class="cls-3" points="539.49 441.06 539.49 455.06 417.88 455.06 417.88 441.06"/><path class="cls-2" d="M293.49,241a29.87,29.87,0,0,1-3.51-.16l-7,0c.38,56.45-23,71.49-24.19,72.2L250,317.32l7.23,6.94c17.16,16.45,59.4,27.12,81.75,29.83l1.68-13.9c-17.6-2.13-52.41-10.8-67.51-21.05,9.46-9.62,24.08-32,23.8-78.28C295.57,240.93,294.41,241,293.49,241Z"/><path class="cls-2" d="M501.09,314.77c-.25-.31-25.42-32-25-91.82l-7,0-7-.05c-.34,50.9,16.28,82.83,24.17,95.11-12.38,9-44,18.5-70,21.45l1.57,13.91c23-2.61,65.17-12.26,82.7-29.06l4.64-4.49Z"/><rect class="cls-5" x="283.37" y="367" width="54" height="20"/><rect class="cls-5" x="430.37" y="367" width="42" height="20"/></svg>