<?xml version="1.0" encoding="utf-8"?>
<!-- Generator: Adobe Illustrator 24.2.3, SVG Export Plug-In . SVG Version: 6.00 Build 0)  -->
<svg version="1.1" id="Capa_1" xmlns="http://www.w3.org/2000/svg" xmlns:xlink="http://www.w3.org/1999/xlink" x="0px" y="0px"
	 viewBox="0 0 31 31" style="enable-background:new 0 0 31 31;" xml:space="preserve">
<style type="text/css">
	.st0{fill:#FFFFFF;}
</style>
<g>
	<path class="st0" d="M26.3,30.5H4.7c-1.1,0-2-0.9-2-2V6.9c0-1.1,0.9-2,2-2c0,0,0,0,0,0h21.6c1.1,0,2,0.9,2,2c0,0,0,0,0,0v21.6
		C28.3,29.6,27.4,30.5,26.3,30.5z M4.7,6.3c-0.3,0-0.6,0.3-0.6,0.6v21.6c0,0.3,0.3,0.6,0.6,0.6h21.6c0.3,0,0.6-0.3,0.6-0.6V6.9
		c0-0.3-0.3-0.6-0.6-0.6H4.7z"/>
	<path class="st0" d="M4.1,28.5H2.7V6.9c0-1,0.6-1.9,1.6-2.2l17.1-4.1c0.4-0.1,0.9,0,1.2,0.3c0.4,0.4,0.6,0.9,0.6,1.5v3.3h-1.3V2.3
		c0-0.1,0-0.3-0.1-0.4c0,0,0,0-0.1,0L4.6,6C4.3,6.2,4,6.5,4.1,6.9V28.5z"/>
	<path class="st0" d="M10.1,11.4h3.7c0.5,0,0.9,0.4,0.9,0.9v3.7c0,0.5-0.4,0.9-0.9,0.9h-3.7c-0.5,0-0.9-0.4-0.9-0.9v-3.7
		C9.2,11.8,9.6,11.4,10.1,11.4z"/>
	<path class="st0" d="M17.1,11.4h3.7c0.5,0,0.9,0.4,0.9,0.9v3.7c0,0.5-0.4,0.9-0.9,0.9h-3.7c-0.5,0-0.9-0.4-0.9-0.9v-3.7
		C16.2,11.8,16.6,11.4,17.1,11.4z"/>
	<path class="st0" d="M10.1,18.4h3.7c0.5,0,0.9,0.4,0.9,0.9v3.7c0,0.5-0.4,0.9-0.9,0.9h-3.7c-0.5,0-0.9-0.4-0.9-0.9v-3.7
		C9.2,18.8,9.6,18.4,10.1,18.4z"/>
	<path class="st0" d="M17.1,18.4h3.7c0.5,0,0.9,0.4,0.9,0.9v3.7c0,0.5-0.4,0.9-0.9,0.9h-3.7c-0.5,0-0.9-0.4-0.9-0.9v-3.7
		C16.2,18.8,16.6,18.4,17.1,18.4z"/>
</g>
</svg>
