<?xml version="1.0" encoding="utf-8"?>
<!-- Generator: Adobe Illustrator 22.0.1, SVG Export Plug-In . SVG Version: 6.00 Build 0)  -->
<svg version="1.1" id="Layer_1" xmlns="http://www.w3.org/2000/svg" xmlns:xlink="http://www.w3.org/1999/xlink" x="0px" y="0px"
	 viewBox="0 0 2217.3 231" style="enable-background:new 0 0 2217.3 231;" xml:space="preserve">
<style type="text/css">
	.st0{enable-background:new    ;}
	.st1{fill:#C4C4C4;}
	.st2{fill:#A8A8A8;}
</style>
<title>Artboard 60</title>
<g>
	<g class="st0">
		<path class="st1" d="M27.2,139.8v47.6h-9.4V72.9h39.4c12,0,21.3,3.1,27.9,9.2c6.6,6.1,9.9,14.2,9.9,24.3c0,10.2-3.3,18.3-9.9,24.4
			c-6.6,6.1-15.9,9.1-27.9,9.1H27.2z M27.2,131.8h30c9.4,0,16.5-2.4,21.3-7.2c4.7-4.8,7.1-10.8,7.1-18.1c0-7.3-2.4-13.4-7.1-18.3
			c-4.7-4.8-11.8-7.3-21.3-7.3h-30V131.8z"/>
	</g>
	<g class="st0">
		<path class="st1" d="M108.1,143.6c0-12.5,3.4-22.8,10.3-30.8c6.9-8,16-12,27.3-12c11.4,0,20.5,4,27.4,12
			c6.9,8,10.3,18.3,10.3,30.8v2.6c0,12.6-3.4,22.9-10.3,30.9c-6.8,8-15.9,12-27.3,12c-11.4,0-20.6-4-27.4-12
			c-6.9-8-10.3-18.3-10.3-30.9V143.6z M117.6,146.1c0,9.8,2.5,18.1,7.5,24.8c5,6.7,11.9,10.1,20.8,10.1c8.8,0,15.6-3.4,20.6-10.1
			c5-6.7,7.5-15,7.5-24.8v-2.6c0-9.7-2.5-17.9-7.6-24.7c-5-6.8-12-10.1-20.8-10.1s-15.7,3.4-20.7,10.1c-5,6.8-7.5,15-7.5,24.7V146.1
			z"/>
		<path class="st1" d="M221.4,159.8l3.2,15.2h0.5l4-15.2l18.1-57.5h8.1l18.1,57.5l4.1,15.6h0.5l3.5-15.6l15.5-57.5h9.8l-24.8,85.1
			h-8L255,129.2l-3.7-14.7h-0.5l-3.8,14.7l-18.6,58.2h-8.1l-24.7-85.1h9.8L221.4,159.8z"/>
		<path class="st1" d="M356.9,189c-10.6,0-19.5-3.9-26.5-11.8c-7.1-7.9-10.6-17.8-10.6-29.9V143c0-12.2,3.5-22.3,10.5-30.3
			c7-8,15.5-12,25.4-12c10.4,0,18.6,3.3,24.6,9.9c6,6.6,9,15.4,9,26.4v8h-60.1v2.3c0,9.6,2.5,17.6,7.6,24c5.1,6.4,11.8,9.7,20.1,9.7
			c5.9,0,10.9-0.8,15-2.4c4.1-1.6,7.7-4,10.6-7l4,6.4c-3.2,3.4-7.2,6-12.2,8C369.5,188,363.7,189,356.9,189z M355.7,108.7
			c-7,0-12.8,2.7-17.5,8c-4.7,5.3-7.5,12-8.3,20l0.2,0.4h49.9v-2.4c0-7.4-2.2-13.5-6.5-18.5C369.1,111.2,363.2,108.7,355.7,108.7z"
			/>
	</g>
	<g class="st0">
		<path class="st1" d="M447.4,110.4l-7-0.5c-5.9,0-10.8,1.7-14.6,5c-3.8,3.3-6.5,7.9-8.1,13.7v58.8h-9.4v-85.1h8.3l1.2,14.2v0.9
			c2.5-5.2,5.8-9.3,9.9-12.3c4.1-2.9,9.1-4.4,14.8-4.4c1.2,0,2.4,0.1,3.5,0.3c1.1,0.2,2.1,0.4,2.8,0.6L447.4,110.4z"/>
	</g>
	<g class="st0">
		<path class="st1" d="M492.9,189c-10.6,0-19.5-3.9-26.5-11.8c-7.1-7.9-10.6-17.8-10.6-29.9V143c0-12.2,3.5-22.3,10.5-30.3
			c7-8,15.5-12,25.4-12c10.4,0,18.6,3.3,24.6,9.9c6,6.6,9,15.4,9,26.4v8h-60.1v2.3c0,9.6,2.5,17.6,7.6,24c5.1,6.4,11.8,9.7,20.1,9.7
			c5.9,0,10.9-0.8,15-2.4c4.1-1.6,7.7-4,10.6-7l4,6.4c-3.2,3.4-7.2,6-12.2,8C505.5,188,499.6,189,492.9,189z M491.7,108.7
			c-7,0-12.8,2.7-17.5,8c-4.7,5.3-7.5,12-8.3,20l0.2,0.4h49.9v-2.4c0-7.4-2.2-13.5-6.5-18.5C505,111.2,499.2,108.7,491.7,108.7z"/>
		<path class="st1" d="M540.2,145.5c0-13.6,2.9-24.4,8.6-32.6c5.7-8.2,13.8-12.2,24-12.2c5.9,0,11.1,1.3,15.4,3.8
			c4.4,2.5,8,6.1,10.9,10.7V64.7h9.4v122.7h-8.3l-0.8-12.3c-2.8,4.5-6.5,8-10.9,10.4c-4.5,2.4-9.7,3.6-15.7,3.6
			c-10.2,0-18.1-3.8-23.9-11.4c-5.7-7.6-8.6-17.7-8.6-30.5V145.5z M549.7,147.2c0,10.3,2.1,18.5,6.2,24.6c4.1,6.1,10.3,9.2,18.6,9.2
			c6.1,0,11.2-1.4,15.2-4.1c4.1-2.7,7.2-6.5,9.5-11.4v-40.1c-2.2-5-5.2-9-9.1-12c-3.9-3.1-9.1-4.6-15.4-4.6
			c-8.3,0-14.5,3.4-18.7,10.2c-4.2,6.8-6.3,15.7-6.3,26.6V147.2z"/>
	</g>
	<g class="st0">
		<path class="st1" d="M741.4,147.2c0,12.7-2.9,22.9-8.7,30.5c-5.8,7.6-13.7,11.4-23.8,11.4c-6.2,0-11.6-1.2-16.1-3.7
			c-4.5-2.5-8.2-6.1-10.9-10.7l-1,12.8h-8.1V64.7h9.4v51c2.8-4.8,6.4-8.5,10.9-11s9.6-3.9,15.7-3.9c10.2,0,18.2,4.1,24,12.2
			c5.8,8.2,8.7,19,8.7,32.6V147.2z M731.9,145.5c0-10.9-2.1-19.8-6.3-26.6c-4.2-6.8-10.4-10.2-18.6-10.2c-6.6,0-11.8,1.6-15.8,4.9
			c-4,3.3-7,7.5-8.9,12.6v38.6c2.1,5,5.2,8.9,9.4,11.8c4.2,2.9,9.3,4.4,15.5,4.4c8.2,0,14.4-3.1,18.6-9.2c4.1-6.1,6.2-14.3,6.2-24.6
			V145.5z"/>
	</g>
	<g class="st0">
		<path class="st1" d="M785.4,164.3l3,10.1h0.5l25.7-72.2h10.5l-37,98.7c-2.2,5.8-5.1,10.7-8.6,14.7c-3.5,4-8.7,6.1-15.4,6.1
			c-1.1,0-2.4-0.1-4-0.4c-1.6-0.2-2.7-0.5-3.5-0.7l1.1-7.9c0.6,0.1,1.6,0.2,3,0.4c1.4,0.1,2.4,0.2,3,0.2c4.1,0,7.4-1.5,9.8-4.4
			c2.5-2.9,4.6-6.6,6.3-11.2l4.5-11.5l-32.9-84H762L785.4,164.3z"/>
	</g>
	<g>
		<g>
			<g>
				<g>
					<g>
						<path class="st2" d="M1852.3,79.6c-2,0-3.9-0.7-5.5-2.2c-3.2-3-3.4-8.1-0.4-11.3l24.2-25.9c3-3.2,8.1-3.4,11.3-0.4
							c3.2,3,3.4,8.1,0.4,11.3l-24.2,25.9C1856.6,78.8,1854.5,79.6,1852.3,79.6z"/>
					</g>
				</g>
				<g>
					<g>
						<g>
							<path class="st2" d="M1736.5,92.1c12.7-11.2,26.7-12.5,41.4-7.6c11.5,3.9,16,13.5,16.2,24.8c0.4,18,0.2,36,0.1,54.1
								c0,5.1-1.8,6.6-7,6.8c-9.9,0.3-10.9-0.7-10.9-10.5c0-14.6,0-29.2,0-43.9c0-11.8-4.3-16.3-16.2-17c-1.1-0.1-2.3-0.2-3.4-0.1
								c-13.1,0.4-19.3,5.8-19.9,19c-0.6,13.8-0.3,27.7-0.3,41.6c0,10.3-1.4,11.6-11.6,10.8c-4.5-0.3-6.1-1.8-6.1-6.4
								c-0.1-13.2-0.1-26.5-0.1-39.7c0-22.3,0-44.6,0-66.9c0-2.9-0.8-6.6,2.9-7.8c4.2-1.5,8.7-1.7,12.8,0.4c2.3,1.2,2,3.9,2,6.2
								c0.1,10.8,0,21.7,0,32.5C1736.5,89.5,1736.5,90.6,1736.5,92.1z"/>
						</g>
					</g>
					<g>
						<g>
							<path class="st2" d="M1812.5,116.5c0-8.6-0.1-17.1,0-25.7c0.1-5.2,1.6-6.7,6.8-6.9c10.1-0.3,11,0.5,11,10.7
								c0,13.5,0,27,0,40.4c0,1.4,0,2.8,0.1,4.2c0.6,10.8,5.1,15.4,16,15.8c3.8,0.2,7.6,0.4,11.3-0.3c8.8-1.7,12.4-5.8,12.4-14.7
								c0.1-15,0.2-30,0-45c-0.2-11.3,1.6-11.6,13.4-10.9c2.3,0.1,3.9,1.6,4.3,4.1c0.2,1,0.4,2,0.4,3c0,16.1,0.2,32.3-0.1,48.4
								c-0.4,18.9-8.5,28.5-27,31.7c-9.1,1.6-18.3,1.3-27.3-1.4c-12.9-3.9-20.6-13.9-21.1-27.7
								C1812.3,133.7,1812.6,125.1,1812.5,116.5C1812.5,116.5,1812.5,116.5,1812.5,116.5z"/>
						</g>
					</g>
					<g>
						<g>
							<path class="st2" d="M1624.5,136.6c0,8.8,0.1,17.6,0,26.5c-0.1,5.7-1.6,7-7.4,7.1c-0.9,0-1.8,0-2.6,0
								c-6.1-0.1-7.7-1.5-7.7-7.6c-0.1-15.2,0-30.5-0.1-45.7c0-2.3-0.2-4.5-0.5-6.8c-0.7-5.5-3.9-8.8-9.2-10.2
								c-6.2-1.6-12.5-1.7-18.7-0.4c-8.1,1.7-11.4,6.2-11.5,15.3c-0.1,12.2,0,24.4,0,36.7c0,2.6-0.1,5.3,0,7.9
								c0.3,10.2-0.8,11.5-12.8,10.7c-2.8-0.2-4.7-1.7-4.8-4.8c0-0.8-0.3-1.5-0.2-2.2c0-16.6-0.3-33.3,0.3-49.9
								c0.6-18,10.7-28.5,28.6-30.5c8.4-1,16.8-0.8,25.1,1.3c12.7,3.3,20.6,12.5,21.3,25.6c0.4,9,0.1,18.1,0.1,27.2
								C1624.3,136.6,1624.4,136.6,1624.5,136.6z"/>
						</g>
					</g>
					<g>
						<g>
							<path class="st2" d="M1914.8,133.1c0-9.8-0.1-19.7,0.1-29.5c0-2.5-0.6-3.3-3.1-3.1c-2.4,0.2-4.8,0-7.2,0
								c-3,0-4.5-1.7-4.9-4.6c-0.9-7.2,0.6-9.3,7.7-10.6c7.4-1.3,7.4-1.3,7.4-8.9c0-6.4,0.4-12.8,3.2-18.8
								c4.3-9.1,12.3-12.6,21.6-13.6c6.7-0.7,13.6-0.7,20.3,1.1c3.3,0.9,4.8,2.8,4.9,6.2c0.5,10-0.5,11-10.5,9.6
								c-4.4-0.6-8.8-0.6-13.1,0.3c-5.1,1.1-7.7,4.5-8.3,9.8c-0.4,4.2-1.6,9.4,0.4,12.1c1.2,1.2,7.5,0.6,11.5,0.8
								c4.3,0.1,8.6,0.1,12.8,0.1c3.4,0,5.1,1.8,5.4,5.1c0.1,0.5,0.1,1,0.1,1.5c0.3,9-0.7,10.1-9.6,10.1c-5.9,0-11.8,0.1-17.8-0.1
								c-2.5-0.1-3.1,0.7-3.1,3.1c0.1,18.5,0.1,37,0.1,55.6c0,1.4,0,2.8-0.1,4.2c-0.4,5.2-1.8,6.6-7,6.8c-0.4,0-0.8,0-1.1,0
								c-8.4,0.1-9.7-1.1-9.7-9.5C1914.8,151.5,1914.8,142.3,1914.8,133.1z"/>
						</g>
					</g>
					<g>
						<g>
							<path class="st2" d="M1641.8,127.3c-0.1-6.2-0.4-12.4,0.9-18.4c3.2-15.2,14.5-24.8,30.8-26.4c7.7-0.8,15.3-0.8,22.8,1.4
								c4.8,1.4,5.9,2.6,6.1,7.6c0.4,9.5-0.4,10.1-9.3,8.3c-6.8-1.4-13.7-1.6-20.6-0.2c-7.2,1.5-11.5,5.8-12.3,12.9
								c-1,9.4-1.1,18.9,0,28.3c1,8.9,7,13.4,17.2,14.1c6.2,0.4,12.3,0.4,18.4-1.1c1.4-0.4,3-0.3,4.5-0.4c1,0,1.9,0.2,2.7,1.1
								c3.2,4,0.5,13.9-4.4,15.2c-12.7,3.6-25.4,3.4-37.8-1.3c-13.5-5.1-18.3-16.3-19-29.8C1641.6,134.9,1641.8,131.1,1641.8,127.3z
								"/>
						</g>
					</g>
					<g>
						<g>
							<path class="st2" d="M1531.8,113.8c-1-16.3-9.4-26.9-23.9-30.4c-7.2-1.7-14.5-1.7-21.8-0.9c-15.5,1.7-26,10.7-28.6,26
								c-2.2,12.9-2.2,26.1,0.3,39.1c2.1,10.7,8.7,17.8,19.1,21.3c3.5,1.2,7,2,10.6,2.4c12.1,1.3,24.1,0.9,35.9-2.5
								c3.9-1.1,5.6-3.4,5.4-7.4c-0.1-1.1,0-2.3,0-3.4c-0.1-5.5-1.6-6.7-6.9-5.5c-9.5,2.1-19.1,3.2-28.8,2.5
								c-13-0.8-18.7-6.4-18.8-18.2c0-2.3,0.4-3.2,3-3.2c7.6,0.2,15.1,0.1,22.7,0.1v0c7.7,0,15.4,0.1,23,0c6-0.1,7.4-1.5,8.4-7.4
								C1532.2,122.1,1532.1,118,1531.8,113.8z M1515.2,117.5c-0.4,1.8-1.5,1.4-2.5,1.4c-5.9,0-11.8,0-17.7,0c-6,0-12.1,0-18.1,0
								c-1.7,0-2.4-0.2-2.5-2.2c-0.6-11.9,5.6-18.7,17.5-19.2c4.5-0.2,9-0.1,13.4,1.6C1512.3,101.9,1516.6,110.1,1515.2,117.5z"/>
						</g>
					</g>
					<g>
						<g>
							<path class="st2" d="M2089.9,120.6c0,6.6-0.2,13.1,0,19.7c0.3,8.3,4.6,12.3,12.9,12.5c4.9,0.1,9.8-0.5,14.6-1.5
								c5.4-1.1,6.8,0.1,7.1,5.6c0.4,8.5-1.2,10.5-9.6,11.7c-6.9,1-13.8,1.4-20.7,0.1c-13-2.5-20.5-10.7-21.8-23.8
								c-1.3-14.1-0.5-28.2-0.5-42.3c0-3.8-1-4.9-4.5-4.3c-0.9,0.2-1.8,0-2.6,0c-7.3,0-10.1-4.3-7.6-11.3c0.5-1.4,1.4-2.3,2.8-2.9
								c0.9-0.4,1.9-0.6,2.9-0.8c9.4-2,9.4-2,10.4-11.5c0.3-2.5,0.5-5,0.9-7.5c0.5-3.5,2.4-5.4,6.1-5.3c0.4,0,0.8,0,1.1,0
								c7.6-0.1,8.4,0.7,8.4,8.4c0,3.5,0.2,7.1-0.1,10.6c-0.2,2.8,0.5,3.9,3.6,3.8c7-0.3,14.1-0.1,21.2-0.1c5.3,0,6.7,1.4,6.9,6.7
								c0.1,1.1,0,2.3,0,3.4c-0.3,5.2-1.7,6.5-7.1,6.6c-7.3,0-14.6,0.1-21.9,0c-2.2,0-2.7,0.6-2.7,2.7c0.1,6.6,0,13.1,0,19.7
								C2089.8,120.6,2089.9,120.6,2089.9,120.6z"/>
						</g>
					</g>
					<g>
						<g>
							<path class="st2" d="M2210.8,111.7c-1-16.3-9.2-26.9-23.8-30.5c-7.2-1.8-14.5-1.7-21.8-0.9c-15.6,1.6-26.4,10.9-28.8,26.2
								c-2,12.8-2.1,25.9,0.4,38.7c2,10.3,8.1,17.7,18,21c16.1,5.5,32.4,4.6,48.6,0.1c3-0.8,4.5-3,4.5-6.2c0-1.5,0-3,0-4.5
								c-0.1-5.3-1.7-6.5-6.8-5.3c-9.5,2.1-19.1,3.2-28.8,2.6c-13.2-0.8-18.9-6.5-18.9-18.4c0-2.3,0.6-3,2.9-2.9
								c7.6,0.2,15.1,0.1,22.7,0.1c7.6,0,15.1,0.1,22.7,0c6.5-0.1,7.9-1.4,8.9-7.7C2211.2,119.7,2211.1,115.7,2210.8,111.7z
								 M2194.1,115.3c-0.4,1.8-1.6,1.3-2.6,1.3c-5.9,0-11.8,0-17.7,0c-5.9,0-11.8-0.1-17.7,0c-2.1,0-2.7-0.5-2.8-2.7
								c-0.2-12.1,5.8-18.4,17.9-18.8c4.7-0.2,9.3,0,13.7,1.9C2191.5,100,2195.7,108.5,2194.1,115.3z"/>
						</g>
					</g>
					<g>
						<g>
							<path class="st2" d="M2046.5,108.4c-0.3-15-7-23.3-21.4-26.8c-10.9-2.6-22-2.5-33-0.8c-7.9,1.2-9,2.6-8.6,10.2
								c0.2,5.5,1.7,6.6,7.1,5.5c8.2-1.6,16.5-1.8,24.8-1.1c9.5,0.8,13.3,5.1,13.3,14.7c0,1.3-0.1,2.5,0,3.8
								c0.3,2.4-0.7,2.9-2.9,2.9c-8.4,0-16.9-0.3-25.3,0.5c-15.1,1.3-24.2,8.2-26,21c-2,13.8,2.8,25.3,18.2,29.5
								c12.1,3.3,24.4,3.1,36.5-0.5c10.4-3.1,16.1-10.2,17-21c0.6-7,0.1-14.1,0.3-19.7C2046.6,119.4,2046.7,113.9,2046.5,108.4z
								 M2020.3,153.4c-6.6,1.7-13.4,1.9-20.1,0.1c-5.4-1.4-7.9-5-8-10.8c-0.1-5.7,2.5-9.6,7.6-11.2c5.5-1.7,11.2-1.3,16.8-1.4
								c0.8,0,1.6-0.2,2.2,0c3.2,1.2,8.8-2.8,9.6,1.9C2030.7,144.9,2027.7,151.5,2020.3,153.4z"/>
						</g>
					</g>
				</g>
			</g>
		</g>
		<circle class="st2" cx="1407.1" cy="191.7" r="10.9"/>
		<g>
			<path class="st2" d="M1314.6,202.6L1314.6,202.6c-4.4,0-7.8-3.7-7.5-8.1c2.3-31.4,17.7-60.3,42.6-79.7c3.4-2.7,8.5-1.9,10.9,1.8
				l0,0c2.2,3.3,1.5,7.7-1.6,10.1c-21.6,16.8-34.9,41.8-36.9,69C1321.8,199.6,1318.5,202.6,1314.6,202.6z"/>
		</g>
		<g>
			<path class="st2" d="M1358.9,202.6L1358.9,202.6c-4.5,0-8.1-3.8-7.5-8.2c2-16.6,10.2-31.7,22.8-42.6c3.4-2.9,8.5-2,11,1.7l0,0
				c2.1,3.2,1.4,7.4-1.4,9.9c-9.6,8.4-15.8,19.9-17.4,32.5C1365.9,199.7,1362.7,202.6,1358.9,202.6z"/>
		</g>
		<g>
			<g>
				<path class="st2" d="M1270.1,202.5L1270.1,202.5c-4.4,0-7.8-3.7-7.6-8c2.4-46.3,25.4-89.1,63-116.8c3.5-2.6,8.5-1.8,10.9,1.8
					l0,0c2.2,3.3,1.5,7.8-1.7,10.1c-34,25.1-54.9,63.8-57,105.8C1277.4,199.4,1274.1,202.5,1270.1,202.5z"/>
			</g>
		</g>
		<path class="st2" d="M1311.8,43.7c-51.1,34.3-84.8,92.7-84.8,158.9c-3.5,0-188.9,0-202.2,0c-25.5,0-46.2-20.7-46.2-46.2
			s20.7-45.4,46.2-45.4c3.1,0,5.4,0,9,0c5.6-38.8,38.8-66.8,79.1-66.8c5.7,0,10.9,0,16.7,0c18.3-26.5,59.3-43.8,94-43.8
			C1223.5,0.5,1274.5-2.9,1311.8,43.7z"/>
	</g>
</g>
</svg>
